<?xml version="1.0" encoding="utf-8" standalone="no"?>
<!DOCTYPE svg PUBLIC "-//W3C//DTD SVG 1.1//EN"
  "http://www.w3.org/Graphics/SVG/1.1/DTD/svg11.dtd">
<svg height="209.574688pt" version="1.1" viewBox="0 0 568.605781 209.574688" width="568.605781pt" xmlns="http://www.w3.org/2000/svg" xmlns:xlink="http://www.w3.org/1999/xlink">
 <metadata>
  <rdf:RDF xmlns:cc="http://creativecommons.org/ns#" xmlns:dc="http://purl.org/dc/elements/1.1/" xmlns:rdf="http://www.w3.org/1999/02/22-rdf-syntax-ns#">
   <cc:Work>
    <dc:type rdf:resource="http://purl.org/dc/dcmitype/StillImage"/>
    <dc:date>2021-06-09T05:16:20.047173</dc:date>
    <dc:format>image/svg+xml</dc:format>
    <dc:creator>
     <cc:Agent>
      <dc:title>Matplotlib v3.4.2, https://matplotlib.org/</dc:title>
     </cc:Agent>
    </dc:creator>
   </cc:Work>
  </rdf:RDF>
 </metadata>
 <defs>
  <style type="text/css">*{stroke-linecap:butt;stroke-linejoin:round;}</style>
 </defs>
 <g id="figure_1">
  <g id="patch_1">
   <path d="M 0 209.574688 
L 568.605781 209.574688 
L 568.605781 0 
L 0 0 
z
" style="fill:none;"/>
  </g>
  <g id="axes_1">
   <g id="patch_2">
    <path d="M 37.880781 188.6 
L 561.405781 188.6 
L 561.405781 7.2 
L 37.880781 7.2 
z
" style="fill:#ffffff;"/>
   </g>
   <g id="PolyCollection_1">
    <path clip-path="url(#pd5e537d909)" d="M 37.880781 18.915417 
L 37.880781 396.832083 
L 43.763085 396.832083 
L 49.645388 396.832083 
L 55.527691 396.832083 
L 61.409995 396.832083 
L 67.292298 396.832083 
L 73.174601 396.832083 
L 79.056905 396.832083 
L 84.939208 396.832083 
L 90.821512 396.832083 
L 96.703815 396.832083 
L 102.586118 396.832083 
L 108.468422 396.832083 
L 114.350725 396.832083 
L 120.233028 396.832083 
L 126.115332 396.832083 
L 131.997635 396.832083 
L 137.879939 396.832083 
L 143.762242 396.832083 
L 149.644545 396.832083 
L 155.526849 396.832083 
L 161.409152 396.832083 
L 167.291455 396.832083 
L 173.173759 396.832083 
L 179.056062 396.832083 
L 184.938366 396.832083 
L 190.820669 396.832083 
L 196.702972 396.832083 
L 202.585276 396.832083 
L 208.467579 396.832083 
L 214.349882 396.832083 
L 220.232186 396.832083 
L 226.114489 396.832083 
L 231.996792 396.832083 
L 237.879096 396.832083 
L 243.761399 396.832083 
L 249.643703 396.832083 
L 255.526006 396.832083 
L 261.408309 396.832083 
L 267.290613 396.832083 
L 273.172916 396.832083 
L 279.055219 396.832083 
L 284.937523 396.832083 
L 290.819826 396.832083 
L 296.70213 396.832083 
L 302.584433 396.832083 
L 308.466736 396.832083 
L 314.34904 396.832083 
L 320.231343 396.832083 
L 326.113646 396.832083 
L 331.99595 396.832083 
L 337.878253 396.832083 
L 343.760557 396.832083 
L 349.64286 396.832083 
L 355.525163 396.832083 
L 361.407467 396.832083 
L 367.28977 396.832083 
L 373.172073 396.832083 
L 379.054377 396.832083 
L 384.93668 396.832083 
L 390.818983 396.832083 
L 396.701287 396.832083 
L 402.58359 396.832083 
L 408.465894 396.832083 
L 414.348197 396.832083 
L 420.2305 396.832083 
L 426.112804 396.832083 
L 431.995107 396.832083 
L 437.87741 396.832083 
L 443.759714 396.832083 
L 449.642017 396.832083 
L 455.524321 396.832083 
L 461.406624 396.832083 
L 467.288927 396.832083 
L 473.171231 396.832083 
L 479.053534 396.832083 
L 484.935837 396.832083 
L 490.818141 396.832083 
L 496.700444 396.832083 
L 502.582748 396.832083 
L 508.465051 396.832083 
L 514.347354 396.832083 
L 520.229658 396.832083 
L 526.111961 396.832083 
L 531.994264 396.832083 
L 537.876568 396.832083 
L 543.758871 396.832083 
L 549.641175 396.832083 
L 555.523478 396.832083 
L 561.405781 396.832083 
L 561.405781 18.915417 
L 561.405781 18.915417 
L 555.523478 18.915417 
L 549.641175 18.915417 
L 543.758871 18.915417 
L 537.876568 18.915417 
L 531.994264 18.915417 
L 526.111961 18.915417 
L 520.229658 18.915417 
L 514.347354 18.915417 
L 508.465051 18.915417 
L 502.582748 18.915417 
L 496.700444 18.915417 
L 490.818141 18.915417 
L 484.935837 18.915417 
L 479.053534 18.915417 
L 473.171231 18.915417 
L 467.288927 18.915417 
L 461.406624 18.915417 
L 455.524321 18.915417 
L 449.642017 18.915417 
L 443.759714 18.915417 
L 437.87741 18.915417 
L 431.995107 18.915417 
L 426.112804 18.915417 
L 420.2305 18.915417 
L 414.348197 18.915417 
L 408.465894 18.915417 
L 402.58359 18.915417 
L 396.701287 18.915417 
L 390.818983 18.915417 
L 384.93668 18.915417 
L 379.054377 18.915417 
L 373.172073 18.915417 
L 367.28977 18.915417 
L 361.407467 18.915417 
L 355.525163 18.915417 
L 349.64286 18.915417 
L 343.760557 18.915417 
L 337.878253 18.915417 
L 331.99595 18.915417 
L 326.113646 18.915417 
L 320.231343 18.915417 
L 314.34904 18.915417 
L 308.466736 18.915417 
L 302.584433 18.915417 
L 296.70213 18.915417 
L 290.819826 18.915417 
L 284.937523 18.915417 
L 279.055219 18.915417 
L 273.172916 18.915417 
L 267.290613 18.915417 
L 261.408309 18.915417 
L 255.526006 18.915417 
L 249.643703 18.915417 
L 243.761399 18.915417 
L 237.879096 18.915417 
L 231.996792 18.915417 
L 226.114489 18.915417 
L 220.232186 18.915417 
L 214.349882 18.915417 
L 208.467579 18.915417 
L 202.585276 18.915417 
L 196.702972 18.915417 
L 190.820669 18.915417 
L 184.938366 18.915417 
L 179.056062 18.915417 
L 173.173759 18.915417 
L 167.291455 18.915417 
L 161.409152 18.915417 
L 155.526849 18.915417 
L 149.644545 18.915417 
L 143.762242 18.915417 
L 137.879939 18.915417 
L 131.997635 18.915417 
L 126.115332 18.915417 
L 120.233028 18.915417 
L 114.350725 18.915417 
L 108.468422 18.915417 
L 102.586118 18.915417 
L 96.703815 18.915417 
L 90.821512 18.915417 
L 84.939208 18.915417 
L 79.056905 18.915417 
L 73.174601 18.915417 
L 67.292298 18.915417 
L 61.409995 18.915417 
L 55.527691 18.915417 
L 49.645388 18.915417 
L 43.763085 18.915417 
L 37.880781 18.915417 
z
" style="fill:#add8e6;stroke:#add8e6;"/>
   </g>
   <g id="PolyCollection_2">
    <path clip-path="url(#pd5e537d909)" d="M 37.880781 18.31075 
L 37.880781 396.832083 
L 43.763085 396.832083 
L 49.645388 396.832083 
L 55.527691 396.832083 
L 61.409995 396.832083 
L 67.292298 396.832083 
L 73.174601 396.832083 
L 79.056905 396.832083 
L 84.939208 396.832083 
L 90.821512 396.832083 
L 96.703815 396.832083 
L 102.586118 396.832083 
L 108.468422 396.832083 
L 114.350725 396.832083 
L 120.233028 396.832083 
L 126.115332 396.832083 
L 131.997635 396.832083 
L 137.879939 396.832083 
L 143.762242 396.832083 
L 149.644545 396.832083 
L 155.526849 396.832083 
L 161.409152 396.832083 
L 167.291455 396.832083 
L 173.173759 396.832083 
L 179.056062 396.832083 
L 184.938366 396.832083 
L 190.820669 396.832083 
L 196.702972 396.832083 
L 202.585276 396.832083 
L 208.467579 396.832083 
L 214.349882 396.832083 
L 220.232186 396.832083 
L 226.114489 396.832083 
L 231.996792 396.832083 
L 237.879096 396.832083 
L 243.761399 396.832083 
L 249.643703 396.832083 
L 255.526006 396.832083 
L 261.408309 396.832083 
L 267.290613 396.832083 
L 273.172916 396.832083 
L 279.055219 396.832083 
L 284.937523 396.832083 
L 290.819826 396.832083 
L 296.70213 396.832083 
L 302.584433 396.832083 
L 308.466736 396.832083 
L 314.34904 396.832083 
L 320.231343 396.832083 
L 326.113646 396.832083 
L 331.99595 396.832083 
L 337.878253 396.832083 
L 343.760557 396.832083 
L 349.64286 396.832083 
L 355.525163 396.832083 
L 361.407467 396.832083 
L 367.28977 396.832083 
L 373.172073 396.832083 
L 379.054377 396.832083 
L 384.93668 396.832083 
L 390.818983 396.832083 
L 396.701287 396.832083 
L 402.58359 396.832083 
L 408.465894 396.832083 
L 414.348197 396.832083 
L 420.2305 396.832083 
L 426.112804 396.832083 
L 431.995107 396.832083 
L 437.87741 396.832083 
L 443.759714 396.832083 
L 449.642017 396.832083 
L 455.524321 396.832083 
L 461.406624 396.832083 
L 467.288927 396.832083 
L 473.171231 396.832083 
L 479.053534 396.832083 
L 484.935837 396.832083 
L 490.818141 396.832083 
L 496.700444 396.832083 
L 502.582748 396.832083 
L 508.465051 396.832083 
L 514.347354 396.832083 
L 520.229658 396.832083 
L 526.111961 396.832083 
L 531.994264 396.832083 
L 537.876568 396.832083 
L 543.758871 396.832083 
L 549.641175 396.832083 
L 555.523478 396.832083 
L 561.405781 396.832083 
L 561.405781 25.982458 
L 561.405781 25.982458 
L 555.523478 28.492903 
L 549.641175 50.543099 
L 543.758871 50.734784 
L 537.876568 48.213975 
L 531.994264 50.354901 
L 526.111961 50.938352 
L 520.229658 103.117885 
L 514.347354 162.208097 
L 508.465051 157.193926 
L 502.582748 156.4425 
L 496.700444 157.176355 
L 490.818141 155.512968 
L 484.935837 157.339993 
L 479.053534 157.311757 
L 473.171231 157.709095 
L 467.288927 158.032931 
L 461.406624 158.34322 
L 455.524321 157.912288 
L 449.642017 157.624354 
L 443.759714 157.501155 
L 437.87741 164.265644 
L 431.995107 164.148529 
L 426.112804 159.844895 
L 420.2305 153.248357 
L 414.348197 154.803016 
L 408.465894 154.480808 
L 402.58359 153.562952 
L 396.701287 152.39369 
L 390.818983 151.217155 
L 384.93668 150.371645 
L 379.054377 149.549433 
L 373.172073 148.888689 
L 367.28977 148.422481 
L 361.407467 148.136227 
L 355.525163 147.92332 
L 349.64286 147.382694 
L 343.760557 146.82172 
L 337.878253 145.491059 
L 331.99595 142.001596 
L 326.113646 142.029006 
L 320.231343 111.75258 
L 314.34904 100.805896 
L 308.466736 97.829463 
L 302.584433 99.411584 
L 296.70213 94.047073 
L 290.819826 93.453681 
L 284.937523 92.91711 
L 279.055219 90.167505 
L 273.172916 87.316982 
L 267.290613 84.867783 
L 261.408309 82.618181 
L 255.526006 82.742355 
L 249.643703 71.621314 
L 243.761399 75.025236 
L 237.879096 83.570742 
L 231.996792 77.708654 
L 226.114489 59.792876 
L 220.232186 49.431325 
L 214.349882 48.65805 
L 208.467579 41.672892 
L 202.585276 30.267012 
L 196.702972 27.610714 
L 190.820669 24.175389 
L 184.938366 23.028501 
L 179.056062 22.155591 
L 173.173759 21.485292 
L 167.291455 21.092497 
L 161.409152 20.750057 
L 155.526849 20.434919 
L 149.644545 20.11269 
L 143.762242 19.806093 
L 137.879939 19.571106 
L 131.997635 19.4445 
L 126.115332 19.293333 
L 120.233028 19.236069 
L 114.350725 19.024501 
L 108.468422 18.769555 
L 102.586118 18.787711 
L 96.703815 18.76425 
L 90.821512 18.76425 
L 84.939208 18.650875 
L 79.056905 18.575292 
L 73.174601 18.499042 
L 67.292298 18.474158 
L 61.409995 18.5375 
L 55.527691 18.5375 
L 49.645388 18.506735 
L 43.763085 18.487717 
L 37.880781 18.31075 
z
" style="fill:#d3d3d3;stroke:#d3d3d3;"/>
   </g>
   <g id="PolyCollection_3">
    <defs>
     <path d="M 37.880781 -191.263938 
L 37.880781 -191.263938 
L 43.763085 -191.086971 
L 49.645388 -191.067952 
L 55.527691 -191.037188 
L 61.409995 -191.037188 
L 67.292298 -191.10053 
L 73.174601 -191.075646 
L 79.056905 -190.999396 
L 84.939208 -190.923813 
L 90.821512 -190.810438 
L 96.703815 -190.810438 
L 102.586118 -190.786977 
L 108.468422 -190.805132 
L 114.350725 -190.550187 
L 120.233028 -190.338618 
L 126.115332 -190.281354 
L 131.997635 -190.130188 
L 137.879939 -190.003582 
L 143.762242 -189.768595 
L 149.644545 -189.461998 
L 155.526849 -189.139769 
L 161.409152 -188.824631 
L 167.291455 -188.48219 
L 173.173759 -188.089395 
L 179.056062 -187.419096 
L 184.938366 -186.546186 
L 190.820669 -185.399298 
L 196.702972 -181.963973 
L 202.585276 -179.307676 
L 208.467579 -167.901795 
L 214.349882 -160.916638 
L 220.232186 -160.143363 
L 226.114489 -149.781811 
L 231.996792 -131.866034 
L 237.879096 -126.003946 
L 243.761399 -134.549452 
L 249.643703 -137.953373 
L 255.526006 -126.832333 
L 261.408309 -126.956506 
L 267.290613 -124.706904 
L 273.172916 -122.257705 
L 279.055219 -119.407182 
L 284.937523 -116.657577 
L 290.819826 -116.121006 
L 296.70213 -115.527615 
L 302.584433 -110.163103 
L 308.466736 -111.745225 
L 314.34904 -108.768791 
L 320.231343 -97.822107 
L 326.113646 -67.545681 
L 331.99595 -67.573091 
L 337.878253 -64.083629 
L 343.760557 -62.752968 
L 349.64286 -62.191993 
L 355.525163 -61.651368 
L 361.407467 -61.438461 
L 367.28977 -61.152206 
L 373.172073 -60.685999 
L 379.054377 -60.025254 
L 384.93668 -59.203043 
L 390.818983 -58.357533 
L 396.701287 -57.180998 
L 402.58359 -56.011735 
L 408.465894 -55.09388 
L 414.348197 -54.771671 
L 420.2305 -56.32633 
L 426.112804 -49.729792 
L 431.995107 -45.426159 
L 437.87741 -45.309044 
L 443.759714 -52.073533 
L 449.642017 -51.950334 
L 455.524321 -51.6624 
L 461.406624 -51.231467 
L 467.288927 -51.541756 
L 473.171231 -51.865593 
L 479.053534 -52.262931 
L 484.935837 -52.234694 
L 490.818141 -54.06172 
L 496.700444 -52.398333 
L 502.582748 -53.132187 
L 508.465051 -52.380761 
L 514.347354 -47.366591 
L 520.229658 -106.456803 
L 526.111961 -158.636336 
L 531.994264 -159.219786 
L 537.876568 -161.360712 
L 543.758871 -158.839904 
L 549.641175 -159.031588 
L 555.523478 -181.081784 
L 561.405781 -183.592229 
L 561.405781 -183.592229 
L 561.405781 -183.592229 
L 555.523478 -181.081784 
L 549.641175 -159.031588 
L 543.758871 -158.839904 
L 537.876568 -161.360712 
L 531.994264 -159.219786 
L 526.111961 -158.636336 
L 520.229658 -106.456803 
L 514.347354 -47.366591 
L 508.465051 -52.380761 
L 502.582748 -53.132187 
L 496.700444 -52.398333 
L 490.818141 -54.06172 
L 484.935837 -52.234694 
L 479.053534 -52.262931 
L 473.171231 -51.865593 
L 467.288927 -51.541756 
L 461.406624 -51.231467 
L 455.524321 -51.6624 
L 449.642017 -51.950334 
L 443.759714 -52.073533 
L 437.87741 -45.309044 
L 431.995107 -45.426159 
L 426.112804 -49.729792 
L 420.2305 -56.32633 
L 414.348197 -54.771671 
L 408.465894 -55.09388 
L 402.58359 -56.011735 
L 396.701287 -57.180998 
L 390.818983 -58.357533 
L 384.93668 -59.203043 
L 379.054377 -60.025254 
L 373.172073 -60.685999 
L 367.28977 -61.154669 
L 361.407467 -61.526703 
L 355.525163 -62.506318 
L 349.64286 -64.420919 
L 343.760557 -66.861828 
L 337.878253 -70.079075 
L 331.99595 -74.310284 
L 326.113646 -79.270178 
L 320.231343 -97.822107 
L 314.34904 -118.441663 
L 308.466736 -124.858733 
L 302.584433 -131.590756 
L 296.70213 -139.12611 
L 290.819826 -147.709424 
L 284.937523 -157.287556 
L 279.055219 -167.344568 
L 273.172916 -176.777153 
L 267.290613 -184.194866 
L 261.408309 -188.362473 
L 255.526006 -189.403301 
L 249.643703 -189.698997 
L 243.761399 -189.831665 
L 237.879096 -189.935636 
L 231.996792 -189.991228 
L 226.114489 -190.03255 
L 220.232186 -190.074093 
L 214.349882 -190.112891 
L 208.467579 -190.151385 
L 202.585276 -190.189564 
L 196.702972 -190.227719 
L 190.820669 -190.265874 
L 184.938366 -190.304028 
L 179.056062 -190.342181 
L 173.173759 -190.380335 
L 167.291455 -190.418488 
L 161.409152 -190.456641 
L 155.526849 -190.494794 
L 149.644545 -190.532947 
L 143.762242 -190.5711 
L 137.879939 -190.609253 
L 131.997635 -190.647406 
L 126.115332 -190.68556 
L 120.233028 -190.723936 
L 114.350725 -190.764144 
L 108.468422 -190.805132 
L 102.586118 -190.786977 
L 96.703815 -190.810438 
L 90.821512 -190.810438 
L 84.939208 -190.923813 
L 79.056905 -190.999396 
L 73.174601 -191.075646 
L 67.292298 -191.10053 
L 61.409995 -191.037188 
L 55.527691 -191.037188 
L 49.645388 -191.067952 
L 43.763085 -191.086971 
L 37.880781 -191.263938 
z
" id="m6070e62f05" style="stroke:#ffd700;"/>
    </defs>
    <g clip-path="url(#pd5e537d909)">
     <use style="fill:#ffd700;stroke:#ffd700;" x="0" xlink:href="#m6070e62f05" y="209.574688"/>
    </g>
   </g>
   <g id="matplotlib.axis_1">
    <g id="xtick_1">
     <g id="line2d_1">
      <defs>
       <path d="M 0 0 
L 0 3.5 
" id="me24f470dd0" style="stroke:#000000;stroke-width:0.8;"/>
      </defs>
      <g>
       <use style="stroke:#000000;stroke-width:0.8;" x="37.880781" xlink:href="#me24f470dd0" y="188.6"/>
      </g>
     </g>
     <g id="text_1">
      <!-- 0 -->
      <g transform="translate(35.653906 200.918906)scale(0.07 -0.07)">
       <defs>
        <path d="M 2034 4250 
Q 1547 4250 1301 3770 
Q 1056 3291 1056 2328 
Q 1056 1369 1301 889 
Q 1547 409 2034 409 
Q 2525 409 2770 889 
Q 3016 1369 3016 2328 
Q 3016 3291 2770 3770 
Q 2525 4250 2034 4250 
z
M 2034 4750 
Q 2819 4750 3233 4129 
Q 3647 3509 3647 2328 
Q 3647 1150 3233 529 
Q 2819 -91 2034 -91 
Q 1250 -91 836 529 
Q 422 1150 422 2328 
Q 422 3509 836 4129 
Q 1250 4750 2034 4750 
z
" id="DejaVuSans-30" transform="scale(0.015625)"/>
       </defs>
       <use xlink:href="#DejaVuSans-30"/>
      </g>
     </g>
    </g>
    <g id="xtick_2">
     <g id="line2d_2">
      <g>
       <use style="stroke:#000000;stroke-width:0.8;" x="96.146792" xlink:href="#me24f470dd0" y="188.6"/>
      </g>
     </g>
     <g id="text_2">
      <!-- 100000 -->
      <g transform="translate(82.785542 200.918906)scale(0.07 -0.07)">
       <defs>
        <path d="M 794 531 
L 1825 531 
L 1825 4091 
L 703 3866 
L 703 4441 
L 1819 4666 
L 2450 4666 
L 2450 531 
L 3481 531 
L 3481 0 
L 794 0 
L 794 531 
z
" id="DejaVuSans-31" transform="scale(0.015625)"/>
       </defs>
       <use xlink:href="#DejaVuSans-31"/>
       <use x="63.623047" xlink:href="#DejaVuSans-30"/>
       <use x="127.246094" xlink:href="#DejaVuSans-30"/>
       <use x="190.869141" xlink:href="#DejaVuSans-30"/>
       <use x="254.492188" xlink:href="#DejaVuSans-30"/>
       <use x="318.115234" xlink:href="#DejaVuSans-30"/>
      </g>
     </g>
    </g>
    <g id="xtick_3">
     <g id="line2d_3">
      <g>
       <use style="stroke:#000000;stroke-width:0.8;" x="154.412803" xlink:href="#me24f470dd0" y="188.6"/>
      </g>
     </g>
     <g id="text_3">
      <!-- 200000 -->
      <g transform="translate(141.051553 200.918906)scale(0.07 -0.07)">
       <defs>
        <path d="M 1228 531 
L 3431 531 
L 3431 0 
L 469 0 
L 469 531 
Q 828 903 1448 1529 
Q 2069 2156 2228 2338 
Q 2531 2678 2651 2914 
Q 2772 3150 2772 3378 
Q 2772 3750 2511 3984 
Q 2250 4219 1831 4219 
Q 1534 4219 1204 4116 
Q 875 4013 500 3803 
L 500 4441 
Q 881 4594 1212 4672 
Q 1544 4750 1819 4750 
Q 2544 4750 2975 4387 
Q 3406 4025 3406 3419 
Q 3406 3131 3298 2873 
Q 3191 2616 2906 2266 
Q 2828 2175 2409 1742 
Q 1991 1309 1228 531 
z
" id="DejaVuSans-32" transform="scale(0.015625)"/>
       </defs>
       <use xlink:href="#DejaVuSans-32"/>
       <use x="63.623047" xlink:href="#DejaVuSans-30"/>
       <use x="127.246094" xlink:href="#DejaVuSans-30"/>
       <use x="190.869141" xlink:href="#DejaVuSans-30"/>
       <use x="254.492188" xlink:href="#DejaVuSans-30"/>
       <use x="318.115234" xlink:href="#DejaVuSans-30"/>
      </g>
     </g>
    </g>
    <g id="xtick_4">
     <g id="line2d_4">
      <g>
       <use style="stroke:#000000;stroke-width:0.8;" x="212.678813" xlink:href="#me24f470dd0" y="188.6"/>
      </g>
     </g>
     <g id="text_4">
      <!-- 300000 -->
      <g transform="translate(199.317563 200.918906)scale(0.07 -0.07)">
       <defs>
        <path d="M 2597 2516 
Q 3050 2419 3304 2112 
Q 3559 1806 3559 1356 
Q 3559 666 3084 287 
Q 2609 -91 1734 -91 
Q 1441 -91 1130 -33 
Q 819 25 488 141 
L 488 750 
Q 750 597 1062 519 
Q 1375 441 1716 441 
Q 2309 441 2620 675 
Q 2931 909 2931 1356 
Q 2931 1769 2642 2001 
Q 2353 2234 1838 2234 
L 1294 2234 
L 1294 2753 
L 1863 2753 
Q 2328 2753 2575 2939 
Q 2822 3125 2822 3475 
Q 2822 3834 2567 4026 
Q 2313 4219 1838 4219 
Q 1578 4219 1281 4162 
Q 984 4106 628 3988 
L 628 4550 
Q 988 4650 1302 4700 
Q 1616 4750 1894 4750 
Q 2613 4750 3031 4423 
Q 3450 4097 3450 3541 
Q 3450 3153 3228 2886 
Q 3006 2619 2597 2516 
z
" id="DejaVuSans-33" transform="scale(0.015625)"/>
       </defs>
       <use xlink:href="#DejaVuSans-33"/>
       <use x="63.623047" xlink:href="#DejaVuSans-30"/>
       <use x="127.246094" xlink:href="#DejaVuSans-30"/>
       <use x="190.869141" xlink:href="#DejaVuSans-30"/>
       <use x="254.492188" xlink:href="#DejaVuSans-30"/>
       <use x="318.115234" xlink:href="#DejaVuSans-30"/>
      </g>
     </g>
    </g>
    <g id="xtick_5">
     <g id="line2d_5">
      <g>
       <use style="stroke:#000000;stroke-width:0.8;" x="270.944824" xlink:href="#me24f470dd0" y="188.6"/>
      </g>
     </g>
     <g id="text_5">
      <!-- 400000 -->
      <g transform="translate(257.583574 200.918906)scale(0.07 -0.07)">
       <defs>
        <path d="M 2419 4116 
L 825 1625 
L 2419 1625 
L 2419 4116 
z
M 2253 4666 
L 3047 4666 
L 3047 1625 
L 3713 1625 
L 3713 1100 
L 3047 1100 
L 3047 0 
L 2419 0 
L 2419 1100 
L 313 1100 
L 313 1709 
L 2253 4666 
z
" id="DejaVuSans-34" transform="scale(0.015625)"/>
       </defs>
       <use xlink:href="#DejaVuSans-34"/>
       <use x="63.623047" xlink:href="#DejaVuSans-30"/>
       <use x="127.246094" xlink:href="#DejaVuSans-30"/>
       <use x="190.869141" xlink:href="#DejaVuSans-30"/>
       <use x="254.492188" xlink:href="#DejaVuSans-30"/>
       <use x="318.115234" xlink:href="#DejaVuSans-30"/>
      </g>
     </g>
    </g>
    <g id="xtick_6">
     <g id="line2d_6">
      <g>
       <use style="stroke:#000000;stroke-width:0.8;" x="329.210834" xlink:href="#me24f470dd0" y="188.6"/>
      </g>
     </g>
     <g id="text_6">
      <!-- 500000 -->
      <g transform="translate(315.849584 200.918906)scale(0.07 -0.07)">
       <defs>
        <path d="M 691 4666 
L 3169 4666 
L 3169 4134 
L 1269 4134 
L 1269 2991 
Q 1406 3038 1543 3061 
Q 1681 3084 1819 3084 
Q 2600 3084 3056 2656 
Q 3513 2228 3513 1497 
Q 3513 744 3044 326 
Q 2575 -91 1722 -91 
Q 1428 -91 1123 -41 
Q 819 9 494 109 
L 494 744 
Q 775 591 1075 516 
Q 1375 441 1709 441 
Q 2250 441 2565 725 
Q 2881 1009 2881 1497 
Q 2881 1984 2565 2268 
Q 2250 2553 1709 2553 
Q 1456 2553 1204 2497 
Q 953 2441 691 2322 
L 691 4666 
z
" id="DejaVuSans-35" transform="scale(0.015625)"/>
       </defs>
       <use xlink:href="#DejaVuSans-35"/>
       <use x="63.623047" xlink:href="#DejaVuSans-30"/>
       <use x="127.246094" xlink:href="#DejaVuSans-30"/>
       <use x="190.869141" xlink:href="#DejaVuSans-30"/>
       <use x="254.492188" xlink:href="#DejaVuSans-30"/>
       <use x="318.115234" xlink:href="#DejaVuSans-30"/>
      </g>
     </g>
    </g>
    <g id="xtick_7">
     <g id="line2d_7">
      <g>
       <use style="stroke:#000000;stroke-width:0.8;" x="387.476845" xlink:href="#me24f470dd0" y="188.6"/>
      </g>
     </g>
     <g id="text_7">
      <!-- 600000 -->
      <g transform="translate(374.115595 200.918906)scale(0.07 -0.07)">
       <defs>
        <path d="M 2113 2584 
Q 1688 2584 1439 2293 
Q 1191 2003 1191 1497 
Q 1191 994 1439 701 
Q 1688 409 2113 409 
Q 2538 409 2786 701 
Q 3034 994 3034 1497 
Q 3034 2003 2786 2293 
Q 2538 2584 2113 2584 
z
M 3366 4563 
L 3366 3988 
Q 3128 4100 2886 4159 
Q 2644 4219 2406 4219 
Q 1781 4219 1451 3797 
Q 1122 3375 1075 2522 
Q 1259 2794 1537 2939 
Q 1816 3084 2150 3084 
Q 2853 3084 3261 2657 
Q 3669 2231 3669 1497 
Q 3669 778 3244 343 
Q 2819 -91 2113 -91 
Q 1303 -91 875 529 
Q 447 1150 447 2328 
Q 447 3434 972 4092 
Q 1497 4750 2381 4750 
Q 2619 4750 2861 4703 
Q 3103 4656 3366 4563 
z
" id="DejaVuSans-36" transform="scale(0.015625)"/>
       </defs>
       <use xlink:href="#DejaVuSans-36"/>
       <use x="63.623047" xlink:href="#DejaVuSans-30"/>
       <use x="127.246094" xlink:href="#DejaVuSans-30"/>
       <use x="190.869141" xlink:href="#DejaVuSans-30"/>
       <use x="254.492188" xlink:href="#DejaVuSans-30"/>
       <use x="318.115234" xlink:href="#DejaVuSans-30"/>
      </g>
     </g>
    </g>
    <g id="xtick_8">
     <g id="line2d_8">
      <g>
       <use style="stroke:#000000;stroke-width:0.8;" x="445.742856" xlink:href="#me24f470dd0" y="188.6"/>
      </g>
     </g>
     <g id="text_8">
      <!-- 700000 -->
      <g transform="translate(432.381606 200.918906)scale(0.07 -0.07)">
       <defs>
        <path d="M 525 4666 
L 3525 4666 
L 3525 4397 
L 1831 0 
L 1172 0 
L 2766 4134 
L 525 4134 
L 525 4666 
z
" id="DejaVuSans-37" transform="scale(0.015625)"/>
       </defs>
       <use xlink:href="#DejaVuSans-37"/>
       <use x="63.623047" xlink:href="#DejaVuSans-30"/>
       <use x="127.246094" xlink:href="#DejaVuSans-30"/>
       <use x="190.869141" xlink:href="#DejaVuSans-30"/>
       <use x="254.492188" xlink:href="#DejaVuSans-30"/>
       <use x="318.115234" xlink:href="#DejaVuSans-30"/>
      </g>
     </g>
    </g>
    <g id="xtick_9">
     <g id="line2d_9">
      <g>
       <use style="stroke:#000000;stroke-width:0.8;" x="504.008866" xlink:href="#me24f470dd0" y="188.6"/>
      </g>
     </g>
     <g id="text_9">
      <!-- 800000 -->
      <g transform="translate(490.647616 200.918906)scale(0.07 -0.07)">
       <defs>
        <path d="M 2034 2216 
Q 1584 2216 1326 1975 
Q 1069 1734 1069 1313 
Q 1069 891 1326 650 
Q 1584 409 2034 409 
Q 2484 409 2743 651 
Q 3003 894 3003 1313 
Q 3003 1734 2745 1975 
Q 2488 2216 2034 2216 
z
M 1403 2484 
Q 997 2584 770 2862 
Q 544 3141 544 3541 
Q 544 4100 942 4425 
Q 1341 4750 2034 4750 
Q 2731 4750 3128 4425 
Q 3525 4100 3525 3541 
Q 3525 3141 3298 2862 
Q 3072 2584 2669 2484 
Q 3125 2378 3379 2068 
Q 3634 1759 3634 1313 
Q 3634 634 3220 271 
Q 2806 -91 2034 -91 
Q 1263 -91 848 271 
Q 434 634 434 1313 
Q 434 1759 690 2068 
Q 947 2378 1403 2484 
z
M 1172 3481 
Q 1172 3119 1398 2916 
Q 1625 2713 2034 2713 
Q 2441 2713 2670 2916 
Q 2900 3119 2900 3481 
Q 2900 3844 2670 4047 
Q 2441 4250 2034 4250 
Q 1625 4250 1398 4047 
Q 1172 3844 1172 3481 
z
" id="DejaVuSans-38" transform="scale(0.015625)"/>
       </defs>
       <use xlink:href="#DejaVuSans-38"/>
       <use x="63.623047" xlink:href="#DejaVuSans-30"/>
       <use x="127.246094" xlink:href="#DejaVuSans-30"/>
       <use x="190.869141" xlink:href="#DejaVuSans-30"/>
       <use x="254.492188" xlink:href="#DejaVuSans-30"/>
       <use x="318.115234" xlink:href="#DejaVuSans-30"/>
      </g>
     </g>
    </g>
   </g>
   <g id="matplotlib.axis_2">
    <g id="ytick_1">
     <g id="line2d_10">
      <defs>
       <path d="M 0 0 
L -3.5 0 
" id="m34d057fc6f" style="stroke:#000000;stroke-width:0.8;"/>
      </defs>
      <g>
       <use style="stroke:#000000;stroke-width:0.8;" x="37.880781" xlink:href="#m34d057fc6f" y="169.704167"/>
      </g>
     </g>
     <g id="text_10">
      <!-- −4000 -->
      <g transform="translate(7.2 172.36362)scale(0.07 -0.07)">
       <defs>
        <path d="M 678 2272 
L 4684 2272 
L 4684 1741 
L 678 1741 
L 678 2272 
z
" id="DejaVuSans-2212" transform="scale(0.015625)"/>
       </defs>
       <use xlink:href="#DejaVuSans-2212"/>
       <use x="83.789062" xlink:href="#DejaVuSans-34"/>
       <use x="147.412109" xlink:href="#DejaVuSans-30"/>
       <use x="211.035156" xlink:href="#DejaVuSans-30"/>
       <use x="274.658203" xlink:href="#DejaVuSans-30"/>
      </g>
     </g>
    </g>
    <g id="ytick_2">
     <g id="line2d_11">
      <g>
       <use style="stroke:#000000;stroke-width:0.8;" x="37.880781" xlink:href="#m34d057fc6f" y="131.9125"/>
      </g>
     </g>
     <g id="text_11">
      <!-- −3000 -->
      <g transform="translate(7.2 134.571953)scale(0.07 -0.07)">
       <use xlink:href="#DejaVuSans-2212"/>
       <use x="83.789062" xlink:href="#DejaVuSans-33"/>
       <use x="147.412109" xlink:href="#DejaVuSans-30"/>
       <use x="211.035156" xlink:href="#DejaVuSans-30"/>
       <use x="274.658203" xlink:href="#DejaVuSans-30"/>
      </g>
     </g>
    </g>
    <g id="ytick_3">
     <g id="line2d_12">
      <g>
       <use style="stroke:#000000;stroke-width:0.8;" x="37.880781" xlink:href="#m34d057fc6f" y="94.120833"/>
      </g>
     </g>
     <g id="text_12">
      <!-- −2000 -->
      <g transform="translate(7.2 96.780286)scale(0.07 -0.07)">
       <use xlink:href="#DejaVuSans-2212"/>
       <use x="83.789062" xlink:href="#DejaVuSans-32"/>
       <use x="147.412109" xlink:href="#DejaVuSans-30"/>
       <use x="211.035156" xlink:href="#DejaVuSans-30"/>
       <use x="274.658203" xlink:href="#DejaVuSans-30"/>
      </g>
     </g>
    </g>
    <g id="ytick_4">
     <g id="line2d_13">
      <g>
       <use style="stroke:#000000;stroke-width:0.8;" x="37.880781" xlink:href="#m34d057fc6f" y="56.329167"/>
      </g>
     </g>
     <g id="text_13">
      <!-- −1000 -->
      <g transform="translate(7.2 58.98862)scale(0.07 -0.07)">
       <use xlink:href="#DejaVuSans-2212"/>
       <use x="83.789062" xlink:href="#DejaVuSans-31"/>
       <use x="147.412109" xlink:href="#DejaVuSans-30"/>
       <use x="211.035156" xlink:href="#DejaVuSans-30"/>
       <use x="274.658203" xlink:href="#DejaVuSans-30"/>
      </g>
     </g>
    </g>
    <g id="ytick_5">
     <g id="line2d_14">
      <g>
       <use style="stroke:#000000;stroke-width:0.8;" x="37.880781" xlink:href="#m34d057fc6f" y="18.5375"/>
      </g>
     </g>
     <g id="text_14">
      <!-- 0 -->
      <g transform="translate(26.427031 21.196953)scale(0.07 -0.07)">
       <use xlink:href="#DejaVuSans-30"/>
      </g>
     </g>
    </g>
   </g>
   <g id="line2d_15">
    <defs>
     <path d="M 0 2 
C 0.530406 2 1.03916 1.789267 1.414214 1.414214 
C 1.789267 1.03916 2 0.530406 2 0 
C 2 -0.530406 1.789267 -1.03916 1.414214 -1.414214 
C 1.03916 -1.789267 0.530406 -2 0 -2 
C -0.530406 -2 -1.03916 -1.789267 -1.414214 -1.414214 
C -1.789267 -1.03916 -2 -0.530406 -2 0 
C -2 0.530406 -1.789267 1.03916 -1.414214 1.414214 
C -1.03916 1.789267 -0.530406 2 0 2 
z
" id="m765eca69e0" style="stroke:#ff0000;"/>
    </defs>
    <g clip-path="url(#pd5e537d909)">
     <use style="fill:#ff0000;stroke:#ff0000;" x="131.997635" xlink:href="#m765eca69e0" y="18.915417"/>
    </g>
   </g>
   <g id="line2d_16">
    <path clip-path="url(#pd5e537d909)" d="M 37.880781 18.31075 
L 43.763085 18.487717 
L 49.645388 18.506735 
L 55.527691 18.5375 
L 61.409995 18.5375 
L 67.292298 18.474158 
L 73.174601 18.499042 
L 79.056905 18.575292 
L 84.939208 18.650875 
L 90.821512 18.76425 
L 96.703815 18.76425 
L 102.586118 18.787711 
L 108.468422 18.769555 
L 114.350725 19.024501 
L 120.233028 19.236069 
L 126.115332 19.293333 
L 131.997635 19.4445 
L 137.879939 19.571106 
L 143.762242 19.806093 
L 149.644545 20.11269 
L 155.526849 20.434919 
L 161.409152 20.750057 
L 167.291455 21.092497 
L 173.173759 21.485292 
L 179.056062 22.155591 
L 184.938366 23.028501 
L 190.820669 24.175389 
L 196.702972 27.610714 
L 202.585276 30.267012 
L 208.467579 41.672892 
L 214.349882 48.65805 
L 220.232186 49.431325 
L 226.114489 59.792876 
L 231.996792 77.708654 
L 237.879096 83.570742 
L 243.761399 75.025236 
L 249.643703 71.621314 
L 255.526006 82.742355 
L 261.408309 82.618181 
L 267.290613 84.867783 
L 273.172916 87.316982 
L 279.055219 90.167505 
L 284.937523 92.91711 
L 290.819826 93.453681 
L 296.70213 94.047073 
L 302.584433 99.411584 
L 308.466736 97.829463 
L 314.34904 100.805896 
L 320.231343 111.75258 
L 326.113646 142.029006 
L 331.99595 142.001596 
L 337.878253 145.491059 
L 343.760557 146.82172 
L 349.64286 147.382694 
L 355.525163 147.92332 
L 361.407467 148.136227 
L 367.28977 148.422481 
L 373.172073 148.888689 
L 379.054377 149.549433 
L 384.93668 150.371645 
L 390.818983 151.217155 
L 396.701287 152.39369 
L 402.58359 153.562952 
L 408.465894 154.480808 
L 414.348197 154.803016 
L 420.2305 153.248357 
L 426.112804 159.844895 
L 431.995107 164.148529 
L 437.87741 164.265644 
L 443.759714 157.501155 
L 449.642017 157.624354 
L 455.524321 157.912288 
L 461.406624 158.34322 
L 467.288927 158.032931 
L 473.171231 157.709095 
L 479.053534 157.311757 
L 484.935837 157.339993 
L 490.818141 155.512968 
L 496.700444 157.176355 
L 502.582748 156.4425 
L 508.465051 157.193926 
L 514.347354 162.208097 
L 520.229658 103.117885 
L 526.111961 50.938352 
L 531.994264 50.354901 
L 537.876568 48.213975 
L 543.758871 50.734784 
L 549.641175 50.543099 
L 555.523478 28.492903 
L 561.405781 25.982458 
" style="fill:none;stroke:#000000;stroke-linecap:square;"/>
   </g>
   <g id="line2d_17">
    <path clip-path="url(#pd5e537d909)" d="M 37.880781 18.31075 
L 43.763085 18.487717 
L 49.645388 18.506735 
L 55.527691 18.5375 
L 61.409995 18.5375 
L 67.292298 18.474158 
L 73.174601 18.499042 
L 79.056905 18.575292 
L 84.939208 18.650875 
L 90.821512 18.76425 
L 96.703815 18.76425 
L 102.586118 18.787711 
L 108.468422 18.769555 
L 114.350725 18.810544 
L 120.233028 18.850752 
L 126.115332 18.889128 
L 131.997635 18.928699 
L 137.879939 18.967967 
L 143.762242 19.008597 
L 149.644545 19.050095 
L 155.526849 19.091772 
L 161.409152 19.133362 
L 167.291455 19.175299 
L 173.173759 19.21789 
L 179.056062 19.26393 
L 184.938366 19.312464 
L 190.820669 19.36448 
L 196.702972 19.444862 
L 202.585276 19.522552 
L 208.467579 19.991385 
L 214.349882 26.259462 
L 220.232186 35.563495 
L 226.114489 45.846354 
L 231.996792 54.981194 
L 237.879096 61.867432 
L 243.761399 66.521681 
L 249.643703 71.090497 
L 255.526006 79.874116 
L 261.408309 82.280304 
L 267.290613 84.830048 
L 273.172916 87.313793 
L 279.055219 90.167505 
L 284.937523 92.91711 
L 290.819826 93.453681 
L 296.70213 94.047073 
L 302.584433 99.411584 
L 308.466736 97.829463 
L 314.34904 100.805896 
L 320.231343 111.75258 
L 326.113646 142.029006 
L 331.99595 142.001596 
L 337.878253 145.491059 
L 343.760557 146.82172 
L 349.64286 147.382694 
L 355.525163 147.92332 
L 361.407467 148.136227 
L 367.28977 148.422481 
L 373.172073 148.888689 
L 379.054377 149.549433 
L 384.93668 150.371645 
L 390.818983 151.217155 
L 396.701287 152.39369 
L 402.58359 153.562952 
L 408.465894 154.480808 
L 414.348197 154.803016 
L 420.2305 153.248357 
L 426.112804 159.844895 
L 431.995107 164.148529 
L 437.87741 164.265644 
L 443.759714 157.501155 
L 449.642017 157.624354 
L 455.524321 157.912288 
L 461.406624 158.34322 
L 467.288927 158.032931 
L 473.171231 157.709095 
L 479.053534 157.311757 
L 484.935837 157.339993 
L 490.818141 155.512968 
L 496.700444 157.176355 
L 502.582748 156.4425 
L 508.465051 157.193926 
L 514.347354 162.208097 
L 520.229658 103.117885 
L 526.111961 50.938352 
L 531.994264 50.354901 
L 537.876568 48.213975 
L 543.758871 50.734784 
L 549.641175 50.543099 
L 555.523478 28.492903 
L 561.405781 25.982458 
" style="fill:none;stroke:#000000;stroke-linecap:square;"/>
   </g>
   <g id="line2d_18">
    <path clip-path="url(#pd5e537d909)" d="M 37.880781 18.31075 
L 43.763085 18.487717 
L 49.645388 18.506735 
L 55.527691 18.5375 
L 61.409995 18.5375 
L 67.292298 18.474158 
L 73.174601 18.499042 
L 79.056905 18.575292 
L 84.939208 18.650875 
L 90.821512 18.76425 
L 96.703815 18.76425 
L 102.586118 18.787711 
L 108.468422 18.769555 
L 114.350725 18.810544 
L 120.233028 18.850752 
L 126.115332 18.889128 
L 131.997635 18.927421 
L 137.879939 18.965683 
L 143.762242 19.004084 
L 149.644545 19.042565 
L 155.526849 19.081065 
L 161.409152 19.119557 
L 167.291455 19.158083 
L 173.173759 19.196674 
L 179.056062 19.235605 
L 184.938366 19.274783 
L 190.820669 19.314308 
L 196.702972 19.356628 
L 202.585276 19.39876 
L 208.467579 19.480209 
L 214.349882 20.13789 
L 220.232186 21.33892 
L 226.114489 27.620392 
L 231.996792 32.350126 
L 237.879096 39.194811 
L 243.761399 47.443211 
L 249.643703 56.038368 
L 255.526006 64.422025 
L 261.408309 71.09053 
L 267.290613 76.7657 
L 273.172916 81.629754 
L 279.055219 85.846395 
L 284.937523 89.171869 
L 290.819826 91.506341 
L 296.70213 93.782846 
L 302.584433 98.941582 
L 308.466736 97.829463 
L 314.34904 100.805896 
L 320.231343 111.75258 
L 326.113646 142.029006 
L 331.99595 142.001596 
L 337.878253 145.491059 
L 343.760557 146.82172 
L 349.64286 147.382694 
L 355.525163 147.92332 
L 361.407467 148.136227 
L 367.28977 148.422481 
L 373.172073 148.888689 
L 379.054377 149.549433 
L 384.93668 150.371645 
L 390.818983 151.217155 
L 396.701287 152.39369 
L 402.58359 153.562952 
L 408.465894 154.480808 
L 414.348197 154.803016 
L 420.2305 153.248357 
L 426.112804 159.844895 
L 431.995107 164.148529 
L 437.87741 164.265644 
L 443.759714 157.501155 
L 449.642017 157.624354 
L 455.524321 157.912288 
L 461.406624 158.34322 
L 467.288927 158.032931 
L 473.171231 157.709095 
L 479.053534 157.311757 
L 484.935837 157.339993 
L 490.818141 155.512968 
L 496.700444 157.176355 
L 502.582748 156.4425 
L 508.465051 157.193926 
L 514.347354 162.208097 
L 520.229658 103.117885 
L 526.111961 50.938352 
L 531.994264 50.354901 
L 537.876568 48.213975 
L 543.758871 50.734784 
L 549.641175 50.543099 
L 555.523478 28.492903 
L 561.405781 25.982458 
" style="fill:none;stroke:#000000;stroke-linecap:square;"/>
   </g>
   <g id="line2d_19">
    <path clip-path="url(#pd5e537d909)" d="M 37.880781 18.31075 
L 43.763085 18.487717 
L 49.645388 18.506735 
L 55.527691 18.5375 
L 61.409995 18.5375 
L 67.292298 18.474158 
L 73.174601 18.499042 
L 79.056905 18.575292 
L 84.939208 18.650875 
L 90.821512 18.76425 
L 96.703815 18.76425 
L 102.586118 18.787711 
L 108.468422 18.769555 
L 114.350725 18.810544 
L 120.233028 18.850752 
L 126.115332 18.889128 
L 131.997635 18.927288 
L 137.879939 18.965447 
L 143.762242 19.003613 
L 149.644545 19.041783 
L 155.526849 19.079954 
L 161.409152 19.118125 
L 167.291455 19.156297 
L 173.173759 19.194473 
L 179.056062 19.232667 
L 184.938366 19.270876 
L 190.820669 19.3091 
L 196.702972 19.347472 
L 202.585276 19.385843 
L 208.467579 19.426402 
L 214.349882 19.497228 
L 220.232186 19.596805 
L 226.114489 19.963146 
L 231.996792 20.304004 
L 237.879096 22.019148 
L 243.761399 28.424285 
L 249.643703 36.95639 
L 255.526006 46.286362 
L 261.408309 55.261128 
L 267.290613 63.330391 
L 273.172916 70.341195 
L 279.055219 76.363373 
L 284.937523 81.535976 
L 290.819826 86.107174 
L 296.70213 90.516954 
L 302.584433 94.044437 
L 308.466736 96.425495 
L 314.34904 99.968854 
L 320.231343 111.75258 
L 326.113646 141.091191 
L 331.99595 141.956105 
L 337.878253 145.481856 
L 343.760557 146.821583 
L 349.64286 147.382694 
L 355.525163 147.92332 
L 361.407467 148.136227 
L 367.28977 148.422481 
L 373.172073 148.888689 
L 379.054377 149.549433 
L 384.93668 150.371645 
L 390.818983 151.217155 
L 396.701287 152.39369 
L 402.58359 153.562952 
L 408.465894 154.480808 
L 414.348197 154.803016 
L 420.2305 153.248357 
L 426.112804 159.844895 
L 431.995107 164.148529 
L 437.87741 164.265644 
L 443.759714 157.501155 
L 449.642017 157.624354 
L 455.524321 157.912288 
L 461.406624 158.34322 
L 467.288927 158.032931 
L 473.171231 157.709095 
L 479.053534 157.311757 
L 484.935837 157.339993 
L 490.818141 155.512968 
L 496.700444 157.176355 
L 502.582748 156.4425 
L 508.465051 157.193926 
L 514.347354 162.208097 
L 520.229658 103.117885 
L 526.111961 50.938352 
L 531.994264 50.354901 
L 537.876568 48.213975 
L 543.758871 50.734784 
L 549.641175 50.543099 
L 555.523478 28.492903 
L 561.405781 25.982458 
" style="fill:none;stroke:#000000;stroke-linecap:square;"/>
   </g>
   <g id="line2d_20">
    <path clip-path="url(#pd5e537d909)" d="M 37.880781 18.31075 
L 43.763085 18.487717 
L 49.645388 18.506735 
L 55.527691 18.5375 
L 61.409995 18.5375 
L 67.292298 18.474158 
L 73.174601 18.499042 
L 79.056905 18.575292 
L 84.939208 18.650875 
L 90.821512 18.76425 
L 96.703815 18.76425 
L 102.586118 18.787711 
L 108.468422 18.769555 
L 114.350725 18.810544 
L 120.233028 18.850752 
L 126.115332 18.889128 
L 131.997635 18.927282 
L 137.879939 18.965435 
L 143.762242 19.00359 
L 149.644545 19.041744 
L 155.526849 19.079899 
L 161.409152 19.118054 
L 167.291455 19.156209 
L 173.173759 19.194364 
L 179.056062 19.232522 
L 184.938366 19.27068 
L 190.820669 19.308841 
L 196.702972 19.347017 
L 202.585276 19.385192 
L 208.467579 19.423605 
L 214.349882 19.465178 
L 220.232186 19.509799 
L 226.114489 19.582227 
L 231.996792 19.652161 
L 237.879096 19.865632 
L 243.761399 20.569118 
L 249.643703 21.562407 
L 255.526006 24.174898 
L 261.408309 32.930932 
L 267.290613 43.647091 
L 273.172916 53.753621 
L 279.055219 62.624606 
L 284.937523 70.3349 
L 290.819826 77.046966 
L 296.70213 82.898641 
L 302.584433 87.902691 
L 308.466736 92.27921 
L 314.34904 96.280346 
L 320.231343 111.75258 
L 326.113646 137.297932 
L 331.99595 140.4442 
L 337.878253 144.122942 
L 343.760557 146.339112 
L 349.64286 147.335651 
L 355.525163 147.921242 
L 361.407467 148.136227 
L 367.28977 148.422481 
L 373.172073 148.888689 
L 379.054377 149.549433 
L 384.93668 150.371645 
L 390.818983 151.217155 
L 396.701287 152.39369 
L 402.58359 153.562952 
L 408.465894 154.480808 
L 414.348197 154.803016 
L 420.2305 153.248357 
L 426.112804 159.844895 
L 431.995107 164.148529 
L 437.87741 164.265644 
L 443.759714 157.501155 
L 449.642017 157.624354 
L 455.524321 157.912288 
L 461.406624 158.34322 
L 467.288927 158.032931 
L 473.171231 157.709095 
L 479.053534 157.311757 
L 484.935837 157.339993 
L 490.818141 155.512968 
L 496.700444 157.176355 
L 502.582748 156.4425 
L 508.465051 157.193926 
L 514.347354 162.208097 
L 520.229658 103.117885 
L 526.111961 50.938352 
L 531.994264 50.354901 
L 537.876568 48.213975 
L 543.758871 50.734784 
L 549.641175 50.543099 
L 555.523478 28.492903 
L 561.405781 25.982458 
" style="fill:none;stroke:#000000;stroke-linecap:square;"/>
   </g>
   <g id="line2d_21">
    <path clip-path="url(#pd5e537d909)" d="M 37.880781 18.31075 
L 43.763085 18.487717 
L 49.645388 18.506735 
L 55.527691 18.5375 
L 61.409995 18.5375 
L 67.292298 18.474158 
L 73.174601 18.499042 
L 79.056905 18.575292 
L 84.939208 18.650875 
L 90.821512 18.76425 
L 96.703815 18.76425 
L 102.586118 18.787711 
L 108.468422 18.769555 
L 114.350725 18.810544 
L 120.233028 18.850752 
L 126.115332 18.889128 
L 131.997635 18.927281 
L 137.879939 18.965434 
L 143.762242 19.003587 
L 149.644545 19.04174 
L 155.526849 19.079893 
L 161.409152 19.118047 
L 167.291455 19.1562 
L 173.173759 19.194353 
L 179.056062 19.232506 
L 184.938366 19.27066 
L 190.820669 19.308813 
L 196.702972 19.346969 
L 202.585276 19.385124 
L 208.467579 19.423302 
L 214.349882 19.461796 
L 220.232186 19.500594 
L 226.114489 19.542137 
L 231.996792 19.58346 
L 237.879096 19.639052 
L 243.761399 19.743022 
L 249.643703 19.87569 
L 255.526006 20.171387 
L 261.408309 21.212215 
L 267.290613 25.379821 
L 273.172916 32.797534 
L 279.055219 42.230119 
L 284.937523 52.287131 
L 290.819826 61.865263 
L 296.70213 70.448577 
L 302.584433 77.983931 
L 308.466736 84.715954 
L 314.34904 91.133024 
L 320.231343 111.75258 
L 326.113646 130.304509 
L 331.99595 135.264403 
L 337.878253 139.495612 
L 343.760557 142.712859 
L 349.64286 145.153769 
L 355.525163 147.06837 
L 361.407467 148.047985 
L 367.28977 148.420018 
L 373.172073 148.888689 
L 379.054377 149.549433 
L 384.93668 150.371645 
L 390.818983 151.217155 
L 396.701287 152.39369 
L 402.58359 153.562952 
L 408.465894 154.480808 
L 414.348197 154.803016 
L 420.2305 153.248357 
L 426.112804 159.844895 
L 431.995107 164.148529 
L 437.87741 164.265644 
L 443.759714 157.501155 
L 449.642017 157.624354 
L 455.524321 157.912288 
L 461.406624 158.34322 
L 467.288927 158.032931 
L 473.171231 157.709095 
L 479.053534 157.311757 
L 484.935837 157.339993 
L 490.818141 155.512968 
L 496.700444 157.176355 
L 502.582748 156.4425 
L 508.465051 157.193926 
L 514.347354 162.208097 
L 520.229658 103.117885 
L 526.111961 50.938352 
L 531.994264 50.354901 
L 537.876568 48.213975 
L 543.758871 50.734784 
L 549.641175 50.543099 
L 555.523478 28.492903 
L 561.405781 25.982458 
" style="fill:none;stroke:#000000;stroke-linecap:square;"/>
   </g>
   <g id="patch_3">
    <path d="M 37.880781 188.6 
L 37.880781 7.2 
" style="fill:none;stroke:#000000;stroke-linecap:square;stroke-linejoin:miter;stroke-width:0.8;"/>
   </g>
   <g id="patch_4">
    <path d="M 561.405781 188.6 
L 561.405781 7.2 
" style="fill:none;stroke:#000000;stroke-linecap:square;stroke-linejoin:miter;stroke-width:0.8;"/>
   </g>
   <g id="patch_5">
    <path d="M 37.880781 188.6 
L 561.405781 188.6 
" style="fill:none;stroke:#000000;stroke-linecap:square;stroke-linejoin:miter;stroke-width:0.8;"/>
   </g>
   <g id="patch_6">
    <path d="M 37.880781 7.2 
L 561.405781 7.2 
" style="fill:none;stroke:#000000;stroke-linecap:square;stroke-linejoin:miter;stroke-width:0.8;"/>
   </g>
  </g>
 </g>
 <defs>
  <clipPath id="pd5e537d909">
   <rect height="181.4" width="523.525" x="37.880781" y="7.2"/>
  </clipPath>
 </defs>
</svg>
