<?xml version="1.0" encoding="utf-8" standalone="no"?>
<!DOCTYPE svg PUBLIC "-//W3C//DTD SVG 1.1//EN"
  "http://www.w3.org/Graphics/SVG/1.1/DTD/svg11.dtd">
<svg height="209.574687pt" version="1.1" viewBox="0 0 568.605781 209.574687" width="568.605781pt" xmlns="http://www.w3.org/2000/svg" xmlns:xlink="http://www.w3.org/1999/xlink">
 <metadata>
  <rdf:RDF xmlns:cc="http://creativecommons.org/ns#" xmlns:dc="http://purl.org/dc/elements/1.1/" xmlns:rdf="http://www.w3.org/1999/02/22-rdf-syntax-ns#">
   <cc:Work>
    <dc:type rdf:resource="http://purl.org/dc/dcmitype/StillImage"/>
    <dc:date>2021-06-09T06:57:22.972877</dc:date>
    <dc:format>image/svg+xml</dc:format>
    <dc:creator>
     <cc:Agent>
      <dc:title>Matplotlib v3.4.2, https://matplotlib.org/</dc:title>
     </cc:Agent>
    </dc:creator>
   </cc:Work>
  </rdf:RDF>
 </metadata>
 <defs>
  <style type="text/css">*{stroke-linecap:butt;stroke-linejoin:round;}</style>
 </defs>
 <g id="figure_1">
  <g id="patch_1">
   <path d="M 0 209.574687 
L 568.605781 209.574687 
L 568.605781 0 
L 0 0 
z
" style="fill:none;"/>
  </g>
  <g id="axes_1">
   <g id="patch_2">
    <path d="M 37.880781 188.6 
L 561.405781 188.6 
L 561.405781 7.2 
L 37.880781 7.2 
z
" style="fill:#ffffff;"/>
   </g>
   <g id="PolyCollection_1">
    <path clip-path="url(#p31e51409b1)" d="M 37.880781 17.467925 
L 37.880781 359.732075 
L 43.763085 359.732075 
L 49.645388 359.732075 
L 55.527691 359.732075 
L 61.409995 359.732075 
L 67.292298 359.732075 
L 73.174601 359.732075 
L 79.056905 359.732075 
L 84.939208 359.732075 
L 90.821512 359.732075 
L 96.703815 359.732075 
L 102.586118 359.732075 
L 108.468422 359.732075 
L 114.350725 359.732075 
L 120.233028 359.732075 
L 126.115332 359.732075 
L 131.997635 359.732075 
L 137.879939 359.732075 
L 143.762242 359.732075 
L 149.644545 359.732075 
L 155.526849 359.732075 
L 161.409152 359.732075 
L 167.291455 359.732075 
L 173.173759 359.732075 
L 179.056062 359.732075 
L 184.938366 359.732075 
L 190.820669 359.732075 
L 196.702972 359.732075 
L 202.585276 359.732075 
L 208.467579 359.732075 
L 214.349882 359.732075 
L 220.232186 359.732075 
L 226.114489 359.732075 
L 231.996792 359.732075 
L 237.879096 359.732075 
L 243.761399 359.732075 
L 249.643703 359.732075 
L 255.526006 359.732075 
L 261.408309 359.732075 
L 267.290613 359.732075 
L 273.172916 359.732075 
L 279.055219 359.732075 
L 284.937523 359.732075 
L 290.819826 359.732075 
L 296.70213 359.732075 
L 302.584433 359.732075 
L 308.466736 359.732075 
L 314.34904 359.732075 
L 320.231343 359.732075 
L 326.113646 359.732075 
L 331.99595 359.732075 
L 337.878253 359.732075 
L 343.760557 359.732075 
L 349.64286 359.732075 
L 355.525163 359.732075 
L 361.407467 359.732075 
L 367.28977 359.732075 
L 373.172073 359.732075 
L 379.054377 359.732075 
L 384.93668 359.732075 
L 390.818983 359.732075 
L 396.701287 359.732075 
L 402.58359 359.732075 
L 408.465894 359.732075 
L 414.348197 359.732075 
L 420.2305 359.732075 
L 426.112804 359.732075 
L 431.995107 359.732075 
L 437.87741 359.732075 
L 443.759714 359.732075 
L 449.642017 359.732075 
L 455.524321 359.732075 
L 461.406624 359.732075 
L 467.288927 359.732075 
L 473.171231 359.732075 
L 479.053534 359.732075 
L 484.935837 359.732075 
L 490.818141 359.732075 
L 496.700444 359.732075 
L 502.582748 359.732075 
L 508.465051 359.732075 
L 514.347354 359.732075 
L 520.229658 359.732075 
L 526.111961 359.732075 
L 531.994264 359.732075 
L 537.876568 359.732075 
L 543.758871 359.732075 
L 549.641175 359.732075 
L 555.523478 359.732075 
L 561.405781 359.732075 
L 561.405781 17.467925 
L 561.405781 17.467925 
L 555.523478 17.467925 
L 549.641175 17.467925 
L 543.758871 17.467925 
L 537.876568 17.467925 
L 531.994264 17.467925 
L 526.111961 17.467925 
L 520.229658 17.467925 
L 514.347354 17.467925 
L 508.465051 17.467925 
L 502.582748 17.467925 
L 496.700444 17.467925 
L 490.818141 17.467925 
L 484.935837 17.467925 
L 479.053534 17.467925 
L 473.171231 17.467925 
L 467.288927 17.467925 
L 461.406624 17.467925 
L 455.524321 17.467925 
L 449.642017 17.467925 
L 443.759714 17.467925 
L 437.87741 17.467925 
L 431.995107 17.467925 
L 426.112804 17.467925 
L 420.2305 17.467925 
L 414.348197 17.467925 
L 408.465894 17.467925 
L 402.58359 17.467925 
L 396.701287 17.467925 
L 390.818983 17.467925 
L 384.93668 17.467925 
L 379.054377 17.467925 
L 373.172073 17.467925 
L 367.28977 17.467925 
L 361.407467 17.467925 
L 355.525163 17.467925 
L 349.64286 17.467925 
L 343.760557 17.467925 
L 337.878253 17.467925 
L 331.99595 17.467925 
L 326.113646 17.467925 
L 320.231343 17.467925 
L 314.34904 17.467925 
L 308.466736 17.467925 
L 302.584433 17.467925 
L 296.70213 17.467925 
L 290.819826 17.467925 
L 284.937523 17.467925 
L 279.055219 17.467925 
L 273.172916 17.467925 
L 267.290613 17.467925 
L 261.408309 17.467925 
L 255.526006 17.467925 
L 249.643703 17.467925 
L 243.761399 17.467925 
L 237.879096 17.467925 
L 231.996792 17.467925 
L 226.114489 17.467925 
L 220.232186 17.467925 
L 214.349882 17.467925 
L 208.467579 17.467925 
L 202.585276 17.467925 
L 196.702972 17.467925 
L 190.820669 17.467925 
L 184.938366 17.467925 
L 179.056062 17.467925 
L 173.173759 17.467925 
L 167.291455 17.467925 
L 161.409152 17.467925 
L 155.526849 17.467925 
L 149.644545 17.467925 
L 143.762242 17.467925 
L 137.879939 17.467925 
L 131.997635 17.467925 
L 126.115332 17.467925 
L 120.233028 17.467925 
L 114.350725 17.467925 
L 108.468422 17.467925 
L 102.586118 17.467925 
L 96.703815 17.467925 
L 90.821512 17.467925 
L 84.939208 17.467925 
L 79.056905 17.467925 
L 73.174601 17.467925 
L 67.292298 17.467925 
L 61.409995 17.467925 
L 55.527691 17.467925 
L 49.645388 17.467925 
L 43.763085 17.467925 
L 37.880781 17.467925 
z
" style="fill:#add8e6;stroke:#add8e6;"/>
   </g>
   <g id="PolyCollection_2">
    <path clip-path="url(#p31e51409b1)" d="M 37.880781 17.262566 
L 37.880781 359.732075 
L 43.763085 359.732075 
L 49.645388 359.732075 
L 55.527691 359.732075 
L 61.409995 359.732075 
L 67.292298 359.732075 
L 73.174601 359.732075 
L 79.056905 359.732075 
L 84.939208 359.732075 
L 90.821512 359.732075 
L 96.703815 359.732075 
L 102.586118 359.732075 
L 108.468422 359.732075 
L 114.350725 359.732075 
L 120.233028 359.732075 
L 126.115332 359.732075 
L 131.997635 359.732075 
L 137.879939 359.732075 
L 143.762242 359.732075 
L 149.644545 359.732075 
L 155.526849 359.732075 
L 161.409152 359.732075 
L 167.291455 359.732075 
L 173.173759 359.732075 
L 179.056062 359.732075 
L 184.938366 359.732075 
L 190.820669 359.732075 
L 196.702972 359.732075 
L 202.585276 359.732075 
L 208.467579 359.732075 
L 214.349882 359.732075 
L 220.232186 359.732075 
L 226.114489 359.732075 
L 231.996792 359.732075 
L 237.879096 359.732075 
L 243.761399 359.732075 
L 249.643703 359.732075 
L 255.526006 359.732075 
L 261.408309 359.732075 
L 267.290613 359.732075 
L 273.172916 359.732075 
L 279.055219 359.732075 
L 284.937523 359.732075 
L 290.819826 359.732075 
L 296.70213 359.732075 
L 302.584433 359.732075 
L 308.466736 359.732075 
L 314.34904 359.732075 
L 320.231343 359.732075 
L 326.113646 359.732075 
L 331.99595 359.732075 
L 337.878253 359.732075 
L 343.760557 359.732075 
L 349.64286 359.732075 
L 355.525163 359.732075 
L 361.407467 359.732075 
L 367.28977 359.732075 
L 373.172073 359.732075 
L 379.054377 359.732075 
L 384.93668 359.732075 
L 390.818983 359.732075 
L 396.701287 359.732075 
L 402.58359 359.732075 
L 408.465894 359.732075 
L 414.348197 359.732075 
L 420.2305 359.732075 
L 426.112804 359.732075 
L 431.995107 359.732075 
L 437.87741 359.732075 
L 443.759714 359.732075 
L 449.642017 359.732075 
L 455.524321 359.732075 
L 461.406624 359.732075 
L 467.288927 359.732075 
L 473.171231 359.732075 
L 479.053534 359.732075 
L 484.935837 359.732075 
L 490.818141 359.732075 
L 496.700444 359.732075 
L 502.582748 359.732075 
L 508.465051 359.732075 
L 514.347354 359.732075 
L 520.229658 359.732075 
L 526.111961 359.732075 
L 531.994264 359.732075 
L 537.876568 359.732075 
L 543.758871 359.732075 
L 549.641175 359.732075 
L 555.523478 359.732075 
L 561.405781 359.732075 
L 561.405781 24.210528 
L 561.405781 24.210528 
L 555.523478 26.484139 
L 549.641175 46.454127 
L 543.758871 46.627729 
L 537.876568 44.344732 
L 531.994264 46.283684 
L 526.111961 46.812092 
L 520.229658 94.069028 
L 514.347354 147.584691 
L 508.465051 143.043556 
L 502.582748 142.363019 
L 496.700444 143.027642 
L 490.818141 141.521178 
L 484.935837 143.175843 
L 479.053534 143.15027 
L 473.171231 143.510124 
L 467.288927 143.80341 
L 461.406624 144.084426 
L 455.524321 143.694148 
L 449.642017 143.433377 
L 443.759714 143.321801 
L 437.87741 149.44813 
L 431.995107 149.342064 
L 426.112804 145.444434 
L 420.2305 139.470211 
L 414.348197 140.878203 
L 408.465894 140.586392 
L 402.58359 139.755126 
L 396.701287 138.696172 
L 390.818983 137.630631 
L 384.93668 136.864886 
L 379.054377 136.120242 
L 373.172073 135.521831 
L 367.28977 135.099606 
L 361.407467 134.840356 
L 355.525163 134.647535 
L 349.64286 134.157912 
L 343.760557 133.649859 
L 337.878253 132.444732 
L 331.99595 129.284465 
L 326.113646 129.309289 
L 320.231343 101.889129 
L 314.34904 91.975151 
L 308.466736 89.279513 
L 302.584433 90.712378 
L 296.70213 85.853952 
L 290.819826 85.316542 
L 284.937523 84.83059 
L 279.055219 82.340382 
L 273.172916 79.758776 
L 267.290613 77.540634 
L 261.408309 75.503258 
L 255.526006 75.615717 
L 249.643703 65.543832 
L 243.761399 68.626629 
L 237.879096 76.365955 
L 231.996792 71.056894 
L 226.114489 54.831284 
L 220.232186 45.447237 
L 214.349882 44.746913 
L 208.467579 38.420732 
L 202.585276 28.090878 
L 196.702972 25.685175 
L 190.820669 22.573937 
L 184.938366 21.535246 
L 179.056062 20.744686 
L 173.173759 20.137623 
L 167.291455 19.781884 
L 161.409152 19.471749 
L 155.526849 19.186342 
L 149.644545 18.894511 
L 143.762242 18.616839 
L 137.879939 18.40402 
L 131.997635 18.289358 
L 126.115332 18.152453 
L 120.233028 18.100591 
L 114.350725 17.908982 
L 108.468422 17.678088 
L 102.586118 17.69453 
L 96.703815 17.673283 
L 90.821512 17.673283 
L 84.939208 17.570604 
L 79.056905 17.502151 
L 73.174601 17.433094 
L 67.292298 17.410558 
L 61.409995 17.467925 
L 55.527691 17.467925 
L 49.645388 17.440062 
L 43.763085 17.422838 
L 37.880781 17.262566 
z
" style="fill:#d3d3d3;stroke:#d3d3d3;"/>
   </g>
   <g id="matplotlib.axis_1">
    <g id="xtick_1">
     <g id="line2d_1">
      <defs>
       <path d="M 0 0 
L 0 3.5 
" id="md06e522847" style="stroke:#000000;stroke-width:0.8;"/>
      </defs>
      <g>
       <use style="stroke:#000000;stroke-width:0.8;" x="37.880781" xlink:href="#md06e522847" y="188.6"/>
      </g>
     </g>
     <g id="text_1">
      <!-- 0 -->
      <g transform="translate(35.653906 200.918906)scale(0.07 -0.07)">
       <defs>
        <path d="M 2034 4250 
Q 1547 4250 1301 3770 
Q 1056 3291 1056 2328 
Q 1056 1369 1301 889 
Q 1547 409 2034 409 
Q 2525 409 2770 889 
Q 3016 1369 3016 2328 
Q 3016 3291 2770 3770 
Q 2525 4250 2034 4250 
z
M 2034 4750 
Q 2819 4750 3233 4129 
Q 3647 3509 3647 2328 
Q 3647 1150 3233 529 
Q 2819 -91 2034 -91 
Q 1250 -91 836 529 
Q 422 1150 422 2328 
Q 422 3509 836 4129 
Q 1250 4750 2034 4750 
z
" id="DejaVuSans-30" transform="scale(0.015625)"/>
       </defs>
       <use xlink:href="#DejaVuSans-30"/>
      </g>
     </g>
    </g>
    <g id="xtick_2">
     <g id="line2d_2">
      <g>
       <use style="stroke:#000000;stroke-width:0.8;" x="96.146792" xlink:href="#md06e522847" y="188.6"/>
      </g>
     </g>
     <g id="text_2">
      <!-- 100000 -->
      <g transform="translate(82.785542 200.918906)scale(0.07 -0.07)">
       <defs>
        <path d="M 794 531 
L 1825 531 
L 1825 4091 
L 703 3866 
L 703 4441 
L 1819 4666 
L 2450 4666 
L 2450 531 
L 3481 531 
L 3481 0 
L 794 0 
L 794 531 
z
" id="DejaVuSans-31" transform="scale(0.015625)"/>
       </defs>
       <use xlink:href="#DejaVuSans-31"/>
       <use x="63.623047" xlink:href="#DejaVuSans-30"/>
       <use x="127.246094" xlink:href="#DejaVuSans-30"/>
       <use x="190.869141" xlink:href="#DejaVuSans-30"/>
       <use x="254.492188" xlink:href="#DejaVuSans-30"/>
       <use x="318.115234" xlink:href="#DejaVuSans-30"/>
      </g>
     </g>
    </g>
    <g id="xtick_3">
     <g id="line2d_3">
      <g>
       <use style="stroke:#000000;stroke-width:0.8;" x="154.412803" xlink:href="#md06e522847" y="188.6"/>
      </g>
     </g>
     <g id="text_3">
      <!-- 200000 -->
      <g transform="translate(141.051553 200.918906)scale(0.07 -0.07)">
       <defs>
        <path d="M 1228 531 
L 3431 531 
L 3431 0 
L 469 0 
L 469 531 
Q 828 903 1448 1529 
Q 2069 2156 2228 2338 
Q 2531 2678 2651 2914 
Q 2772 3150 2772 3378 
Q 2772 3750 2511 3984 
Q 2250 4219 1831 4219 
Q 1534 4219 1204 4116 
Q 875 4013 500 3803 
L 500 4441 
Q 881 4594 1212 4672 
Q 1544 4750 1819 4750 
Q 2544 4750 2975 4387 
Q 3406 4025 3406 3419 
Q 3406 3131 3298 2873 
Q 3191 2616 2906 2266 
Q 2828 2175 2409 1742 
Q 1991 1309 1228 531 
z
" id="DejaVuSans-32" transform="scale(0.015625)"/>
       </defs>
       <use xlink:href="#DejaVuSans-32"/>
       <use x="63.623047" xlink:href="#DejaVuSans-30"/>
       <use x="127.246094" xlink:href="#DejaVuSans-30"/>
       <use x="190.869141" xlink:href="#DejaVuSans-30"/>
       <use x="254.492188" xlink:href="#DejaVuSans-30"/>
       <use x="318.115234" xlink:href="#DejaVuSans-30"/>
      </g>
     </g>
    </g>
    <g id="xtick_4">
     <g id="line2d_4">
      <g>
       <use style="stroke:#000000;stroke-width:0.8;" x="212.678813" xlink:href="#md06e522847" y="188.6"/>
      </g>
     </g>
     <g id="text_4">
      <!-- 300000 -->
      <g transform="translate(199.317563 200.918906)scale(0.07 -0.07)">
       <defs>
        <path d="M 2597 2516 
Q 3050 2419 3304 2112 
Q 3559 1806 3559 1356 
Q 3559 666 3084 287 
Q 2609 -91 1734 -91 
Q 1441 -91 1130 -33 
Q 819 25 488 141 
L 488 750 
Q 750 597 1062 519 
Q 1375 441 1716 441 
Q 2309 441 2620 675 
Q 2931 909 2931 1356 
Q 2931 1769 2642 2001 
Q 2353 2234 1838 2234 
L 1294 2234 
L 1294 2753 
L 1863 2753 
Q 2328 2753 2575 2939 
Q 2822 3125 2822 3475 
Q 2822 3834 2567 4026 
Q 2313 4219 1838 4219 
Q 1578 4219 1281 4162 
Q 984 4106 628 3988 
L 628 4550 
Q 988 4650 1302 4700 
Q 1616 4750 1894 4750 
Q 2613 4750 3031 4423 
Q 3450 4097 3450 3541 
Q 3450 3153 3228 2886 
Q 3006 2619 2597 2516 
z
" id="DejaVuSans-33" transform="scale(0.015625)"/>
       </defs>
       <use xlink:href="#DejaVuSans-33"/>
       <use x="63.623047" xlink:href="#DejaVuSans-30"/>
       <use x="127.246094" xlink:href="#DejaVuSans-30"/>
       <use x="190.869141" xlink:href="#DejaVuSans-30"/>
       <use x="254.492188" xlink:href="#DejaVuSans-30"/>
       <use x="318.115234" xlink:href="#DejaVuSans-30"/>
      </g>
     </g>
    </g>
    <g id="xtick_5">
     <g id="line2d_5">
      <g>
       <use style="stroke:#000000;stroke-width:0.8;" x="270.944824" xlink:href="#md06e522847" y="188.6"/>
      </g>
     </g>
     <g id="text_5">
      <!-- 400000 -->
      <g transform="translate(257.583574 200.918906)scale(0.07 -0.07)">
       <defs>
        <path d="M 2419 4116 
L 825 1625 
L 2419 1625 
L 2419 4116 
z
M 2253 4666 
L 3047 4666 
L 3047 1625 
L 3713 1625 
L 3713 1100 
L 3047 1100 
L 3047 0 
L 2419 0 
L 2419 1100 
L 313 1100 
L 313 1709 
L 2253 4666 
z
" id="DejaVuSans-34" transform="scale(0.015625)"/>
       </defs>
       <use xlink:href="#DejaVuSans-34"/>
       <use x="63.623047" xlink:href="#DejaVuSans-30"/>
       <use x="127.246094" xlink:href="#DejaVuSans-30"/>
       <use x="190.869141" xlink:href="#DejaVuSans-30"/>
       <use x="254.492188" xlink:href="#DejaVuSans-30"/>
       <use x="318.115234" xlink:href="#DejaVuSans-30"/>
      </g>
     </g>
    </g>
    <g id="xtick_6">
     <g id="line2d_6">
      <g>
       <use style="stroke:#000000;stroke-width:0.8;" x="329.210834" xlink:href="#md06e522847" y="188.6"/>
      </g>
     </g>
     <g id="text_6">
      <!-- 500000 -->
      <g transform="translate(315.849584 200.918906)scale(0.07 -0.07)">
       <defs>
        <path d="M 691 4666 
L 3169 4666 
L 3169 4134 
L 1269 4134 
L 1269 2991 
Q 1406 3038 1543 3061 
Q 1681 3084 1819 3084 
Q 2600 3084 3056 2656 
Q 3513 2228 3513 1497 
Q 3513 744 3044 326 
Q 2575 -91 1722 -91 
Q 1428 -91 1123 -41 
Q 819 9 494 109 
L 494 744 
Q 775 591 1075 516 
Q 1375 441 1709 441 
Q 2250 441 2565 725 
Q 2881 1009 2881 1497 
Q 2881 1984 2565 2268 
Q 2250 2553 1709 2553 
Q 1456 2553 1204 2497 
Q 953 2441 691 2322 
L 691 4666 
z
" id="DejaVuSans-35" transform="scale(0.015625)"/>
       </defs>
       <use xlink:href="#DejaVuSans-35"/>
       <use x="63.623047" xlink:href="#DejaVuSans-30"/>
       <use x="127.246094" xlink:href="#DejaVuSans-30"/>
       <use x="190.869141" xlink:href="#DejaVuSans-30"/>
       <use x="254.492188" xlink:href="#DejaVuSans-30"/>
       <use x="318.115234" xlink:href="#DejaVuSans-30"/>
      </g>
     </g>
    </g>
    <g id="xtick_7">
     <g id="line2d_7">
      <g>
       <use style="stroke:#000000;stroke-width:0.8;" x="387.476845" xlink:href="#md06e522847" y="188.6"/>
      </g>
     </g>
     <g id="text_7">
      <!-- 600000 -->
      <g transform="translate(374.115595 200.918906)scale(0.07 -0.07)">
       <defs>
        <path d="M 2113 2584 
Q 1688 2584 1439 2293 
Q 1191 2003 1191 1497 
Q 1191 994 1439 701 
Q 1688 409 2113 409 
Q 2538 409 2786 701 
Q 3034 994 3034 1497 
Q 3034 2003 2786 2293 
Q 2538 2584 2113 2584 
z
M 3366 4563 
L 3366 3988 
Q 3128 4100 2886 4159 
Q 2644 4219 2406 4219 
Q 1781 4219 1451 3797 
Q 1122 3375 1075 2522 
Q 1259 2794 1537 2939 
Q 1816 3084 2150 3084 
Q 2853 3084 3261 2657 
Q 3669 2231 3669 1497 
Q 3669 778 3244 343 
Q 2819 -91 2113 -91 
Q 1303 -91 875 529 
Q 447 1150 447 2328 
Q 447 3434 972 4092 
Q 1497 4750 2381 4750 
Q 2619 4750 2861 4703 
Q 3103 4656 3366 4563 
z
" id="DejaVuSans-36" transform="scale(0.015625)"/>
       </defs>
       <use xlink:href="#DejaVuSans-36"/>
       <use x="63.623047" xlink:href="#DejaVuSans-30"/>
       <use x="127.246094" xlink:href="#DejaVuSans-30"/>
       <use x="190.869141" xlink:href="#DejaVuSans-30"/>
       <use x="254.492188" xlink:href="#DejaVuSans-30"/>
       <use x="318.115234" xlink:href="#DejaVuSans-30"/>
      </g>
     </g>
    </g>
    <g id="xtick_8">
     <g id="line2d_8">
      <g>
       <use style="stroke:#000000;stroke-width:0.8;" x="445.742856" xlink:href="#md06e522847" y="188.6"/>
      </g>
     </g>
     <g id="text_8">
      <!-- 700000 -->
      <g transform="translate(432.381606 200.918906)scale(0.07 -0.07)">
       <defs>
        <path d="M 525 4666 
L 3525 4666 
L 3525 4397 
L 1831 0 
L 1172 0 
L 2766 4134 
L 525 4134 
L 525 4666 
z
" id="DejaVuSans-37" transform="scale(0.015625)"/>
       </defs>
       <use xlink:href="#DejaVuSans-37"/>
       <use x="63.623047" xlink:href="#DejaVuSans-30"/>
       <use x="127.246094" xlink:href="#DejaVuSans-30"/>
       <use x="190.869141" xlink:href="#DejaVuSans-30"/>
       <use x="254.492188" xlink:href="#DejaVuSans-30"/>
       <use x="318.115234" xlink:href="#DejaVuSans-30"/>
      </g>
     </g>
    </g>
    <g id="xtick_9">
     <g id="line2d_9">
      <g>
       <use style="stroke:#000000;stroke-width:0.8;" x="504.008866" xlink:href="#md06e522847" y="188.6"/>
      </g>
     </g>
     <g id="text_9">
      <!-- 800000 -->
      <g transform="translate(490.647616 200.918906)scale(0.07 -0.07)">
       <defs>
        <path d="M 2034 2216 
Q 1584 2216 1326 1975 
Q 1069 1734 1069 1313 
Q 1069 891 1326 650 
Q 1584 409 2034 409 
Q 2484 409 2743 651 
Q 3003 894 3003 1313 
Q 3003 1734 2745 1975 
Q 2488 2216 2034 2216 
z
M 1403 2484 
Q 997 2584 770 2862 
Q 544 3141 544 3541 
Q 544 4100 942 4425 
Q 1341 4750 2034 4750 
Q 2731 4750 3128 4425 
Q 3525 4100 3525 3541 
Q 3525 3141 3298 2862 
Q 3072 2584 2669 2484 
Q 3125 2378 3379 2068 
Q 3634 1759 3634 1313 
Q 3634 634 3220 271 
Q 2806 -91 2034 -91 
Q 1263 -91 848 271 
Q 434 634 434 1313 
Q 434 1759 690 2068 
Q 947 2378 1403 2484 
z
M 1172 3481 
Q 1172 3119 1398 2916 
Q 1625 2713 2034 2713 
Q 2441 2713 2670 2916 
Q 2900 3119 2900 3481 
Q 2900 3844 2670 4047 
Q 2441 4250 2034 4250 
Q 1625 4250 1398 4047 
Q 1172 3844 1172 3481 
z
" id="DejaVuSans-38" transform="scale(0.015625)"/>
       </defs>
       <use xlink:href="#DejaVuSans-38"/>
       <use x="63.623047" xlink:href="#DejaVuSans-30"/>
       <use x="127.246094" xlink:href="#DejaVuSans-30"/>
       <use x="190.869141" xlink:href="#DejaVuSans-30"/>
       <use x="254.492188" xlink:href="#DejaVuSans-30"/>
       <use x="318.115234" xlink:href="#DejaVuSans-30"/>
      </g>
     </g>
    </g>
   </g>
   <g id="matplotlib.axis_2">
    <g id="ytick_1">
     <g id="line2d_10">
      <defs>
       <path d="M 0 0 
L -3.5 0 
" id="mef031e8ce0" style="stroke:#000000;stroke-width:0.8;"/>
      </defs>
      <g>
       <use style="stroke:#000000;stroke-width:0.8;" x="37.880781" xlink:href="#mef031e8ce0" y="188.6"/>
      </g>
     </g>
     <g id="text_10">
      <!-- −5000 -->
      <g transform="translate(7.2 191.259453)scale(0.07 -0.07)">
       <defs>
        <path d="M 678 2272 
L 4684 2272 
L 4684 1741 
L 678 1741 
L 678 2272 
z
" id="DejaVuSans-2212" transform="scale(0.015625)"/>
       </defs>
       <use xlink:href="#DejaVuSans-2212"/>
       <use x="83.789062" xlink:href="#DejaVuSans-35"/>
       <use x="147.412109" xlink:href="#DejaVuSans-30"/>
       <use x="211.035156" xlink:href="#DejaVuSans-30"/>
       <use x="274.658203" xlink:href="#DejaVuSans-30"/>
      </g>
     </g>
    </g>
    <g id="ytick_2">
     <g id="line2d_11">
      <g>
       <use style="stroke:#000000;stroke-width:0.8;" x="37.880781" xlink:href="#mef031e8ce0" y="154.373585"/>
      </g>
     </g>
     <g id="text_11">
      <!-- −4000 -->
      <g transform="translate(7.2 157.033038)scale(0.07 -0.07)">
       <use xlink:href="#DejaVuSans-2212"/>
       <use x="83.789062" xlink:href="#DejaVuSans-34"/>
       <use x="147.412109" xlink:href="#DejaVuSans-30"/>
       <use x="211.035156" xlink:href="#DejaVuSans-30"/>
       <use x="274.658203" xlink:href="#DejaVuSans-30"/>
      </g>
     </g>
    </g>
    <g id="ytick_3">
     <g id="line2d_12">
      <g>
       <use style="stroke:#000000;stroke-width:0.8;" x="37.880781" xlink:href="#mef031e8ce0" y="120.14717"/>
      </g>
     </g>
     <g id="text_12">
      <!-- −3000 -->
      <g transform="translate(7.2 122.806623)scale(0.07 -0.07)">
       <use xlink:href="#DejaVuSans-2212"/>
       <use x="83.789062" xlink:href="#DejaVuSans-33"/>
       <use x="147.412109" xlink:href="#DejaVuSans-30"/>
       <use x="211.035156" xlink:href="#DejaVuSans-30"/>
       <use x="274.658203" xlink:href="#DejaVuSans-30"/>
      </g>
     </g>
    </g>
    <g id="ytick_4">
     <g id="line2d_13">
      <g>
       <use style="stroke:#000000;stroke-width:0.8;" x="37.880781" xlink:href="#mef031e8ce0" y="85.920755"/>
      </g>
     </g>
     <g id="text_13">
      <!-- −2000 -->
      <g transform="translate(7.2 88.580208)scale(0.07 -0.07)">
       <use xlink:href="#DejaVuSans-2212"/>
       <use x="83.789062" xlink:href="#DejaVuSans-32"/>
       <use x="147.412109" xlink:href="#DejaVuSans-30"/>
       <use x="211.035156" xlink:href="#DejaVuSans-30"/>
       <use x="274.658203" xlink:href="#DejaVuSans-30"/>
      </g>
     </g>
    </g>
    <g id="ytick_5">
     <g id="line2d_14">
      <g>
       <use style="stroke:#000000;stroke-width:0.8;" x="37.880781" xlink:href="#mef031e8ce0" y="51.69434"/>
      </g>
     </g>
     <g id="text_14">
      <!-- −1000 -->
      <g transform="translate(7.2 54.353793)scale(0.07 -0.07)">
       <use xlink:href="#DejaVuSans-2212"/>
       <use x="83.789062" xlink:href="#DejaVuSans-31"/>
       <use x="147.412109" xlink:href="#DejaVuSans-30"/>
       <use x="211.035156" xlink:href="#DejaVuSans-30"/>
       <use x="274.658203" xlink:href="#DejaVuSans-30"/>
      </g>
     </g>
    </g>
    <g id="ytick_6">
     <g id="line2d_15">
      <g>
       <use style="stroke:#000000;stroke-width:0.8;" x="37.880781" xlink:href="#mef031e8ce0" y="17.467925"/>
      </g>
     </g>
     <g id="text_15">
      <!-- 0 -->
      <g transform="translate(26.427031 20.127378)scale(0.07 -0.07)">
       <use xlink:href="#DejaVuSans-30"/>
      </g>
     </g>
    </g>
   </g>
   <g id="line2d_16">
    <path clip-path="url(#p31e51409b1)" d="M 37.880781 17.262566 
L 43.763085 17.422838 
L 49.645388 17.440062 
L 55.527691 17.467925 
L 61.409995 17.467925 
L 67.292298 17.410558 
L 73.174601 17.433094 
L 79.056905 17.502151 
L 84.939208 17.570604 
L 90.821512 17.673283 
L 96.703815 17.673283 
L 102.586118 17.69453 
L 108.468422 17.678088 
L 114.350725 17.908982 
L 120.233028 18.100591 
L 126.115332 18.152453 
L 131.997635 18.289358 
L 137.879939 18.40402 
L 143.762242 18.616839 
L 149.644545 18.894511 
L 155.526849 19.186342 
L 161.409152 19.471749 
L 167.291455 19.781884 
L 173.173759 20.137623 
L 179.056062 20.744686 
L 184.938366 21.535246 
L 190.820669 22.573937 
L 196.702972 25.685175 
L 202.585276 28.090878 
L 208.467579 38.420732 
L 214.349882 44.746913 
L 220.232186 45.447237 
L 226.114489 54.831284 
L 231.996792 71.056894 
L 237.879096 76.365955 
L 243.761399 68.626629 
L 249.643703 65.543832 
L 255.526006 75.615717 
L 261.408309 75.503258 
L 267.290613 77.540634 
L 273.172916 79.758776 
L 279.055219 82.340382 
L 284.937523 84.83059 
L 290.819826 85.316542 
L 296.70213 85.853952 
L 302.584433 90.712378 
L 308.466736 89.279513 
L 314.34904 91.975151 
L 320.231343 101.889129 
L 326.113646 129.309289 
L 331.99595 129.284465 
L 337.878253 132.444732 
L 343.760557 133.649859 
L 349.64286 134.157912 
L 355.525163 134.647535 
L 361.407467 134.840356 
L 367.28977 135.099606 
L 373.172073 135.521831 
L 379.054377 136.120242 
L 384.93668 136.864886 
L 390.818983 137.630631 
L 396.701287 138.696172 
L 402.58359 139.755126 
L 408.465894 140.586392 
L 414.348197 140.878203 
L 420.2305 139.470211 
L 426.112804 145.444434 
L 431.995107 149.342064 
L 437.87741 149.44813 
L 443.759714 143.321801 
L 449.642017 143.433377 
L 455.524321 143.694148 
L 461.406624 144.084426 
L 467.288927 143.80341 
L 473.171231 143.510124 
L 479.053534 143.15027 
L 484.935837 143.175843 
L 490.818141 141.521178 
L 496.700444 143.027642 
L 502.582748 142.363019 
L 508.465051 143.043556 
L 514.347354 147.584691 
L 520.229658 94.069028 
L 526.111961 46.812092 
L 531.994264 46.283684 
L 537.876568 44.344732 
L 543.758871 46.627729 
L 549.641175 46.454127 
L 555.523478 26.484139 
L 561.405781 24.210528 
" style="fill:none;stroke:#000000;stroke-linecap:square;"/>
   </g>
   <g id="line2d_17">
    <defs>
     <path d="M 0 2 
C 0.530406 2 1.03916 1.789267 1.414214 1.414214 
C 1.789267 1.03916 2 0.530406 2 0 
C 2 -0.530406 1.789267 -1.03916 1.414214 -1.414214 
C 1.03916 -1.789267 0.530406 -2 0 -2 
C -0.530406 -2 -1.03916 -1.789267 -1.414214 -1.414214 
C -1.789267 -1.03916 -2 -0.530406 -2 0 
C -2 0.530406 -1.789267 1.03916 -1.414214 1.414214 
C -1.03916 1.789267 -0.530406 2 0 2 
z
" id="maf3b074460" style="stroke:#ff0000;"/>
    </defs>
    <g clip-path="url(#p31e51409b1)">
     <use style="fill:#ff0000;stroke:#ff0000;" x="79.056905" xlink:href="#maf3b074460" y="17.467925"/>
    </g>
   </g>
   <g id="patch_3">
    <path d="M 37.880781 188.6 
L 37.880781 7.2 
" style="fill:none;stroke:#000000;stroke-linecap:square;stroke-linejoin:miter;stroke-width:0.8;"/>
   </g>
   <g id="patch_4">
    <path d="M 561.405781 188.6 
L 561.405781 7.2 
" style="fill:none;stroke:#000000;stroke-linecap:square;stroke-linejoin:miter;stroke-width:0.8;"/>
   </g>
   <g id="patch_5">
    <path d="M 37.880781 188.6 
L 561.405781 188.6 
" style="fill:none;stroke:#000000;stroke-linecap:square;stroke-linejoin:miter;stroke-width:0.8;"/>
   </g>
   <g id="patch_6">
    <path d="M 37.880781 7.2 
L 561.405781 7.2 
" style="fill:none;stroke:#000000;stroke-linecap:square;stroke-linejoin:miter;stroke-width:0.8;"/>
   </g>
  </g>
 </g>
 <defs>
  <clipPath id="p31e51409b1">
   <rect height="181.4" width="523.525" x="37.880781" y="7.2"/>
  </clipPath>
 </defs>
</svg>
