<?xml version="1.0" encoding="utf-8" standalone="no"?>
<!DOCTYPE svg PUBLIC "-//W3C//DTD SVG 1.1//EN"
  "http://www.w3.org/Graphics/SVG/1.1/DTD/svg11.dtd">
<svg height="209.574688pt" version="1.1" viewBox="0 0 568.605781 209.574688" width="568.605781pt" xmlns="http://www.w3.org/2000/svg" xmlns:xlink="http://www.w3.org/1999/xlink">
 <metadata>
  <rdf:RDF xmlns:cc="http://creativecommons.org/ns#" xmlns:dc="http://purl.org/dc/elements/1.1/" xmlns:rdf="http://www.w3.org/1999/02/22-rdf-syntax-ns#">
   <cc:Work>
    <dc:type rdf:resource="http://purl.org/dc/dcmitype/StillImage"/>
    <dc:date>2021-06-09T03:51:23.562111</dc:date>
    <dc:format>image/svg+xml</dc:format>
    <dc:creator>
     <cc:Agent>
      <dc:title>Matplotlib v3.4.2, https://matplotlib.org/</dc:title>
     </cc:Agent>
    </dc:creator>
   </cc:Work>
  </rdf:RDF>
 </metadata>
 <defs>
  <style type="text/css">*{stroke-linecap:butt;stroke-linejoin:round;}</style>
 </defs>
 <g id="figure_1">
  <g id="patch_1">
   <path d="M 0 209.574688 
L 568.605781 209.574688 
L 568.605781 0 
L 0 0 
z
" style="fill:none;"/>
  </g>
  <g id="axes_1">
   <g id="patch_2">
    <path d="M 37.880781 188.6 
L 561.405781 188.6 
L 561.405781 7.2 
L 37.880781 7.2 
z
" style="fill:#ffffff;"/>
   </g>
   <g id="PolyCollection_1">
    <path clip-path="url(#p00fd8813f3)" d="M 37.880781 18.915417 
L 37.880781 396.832083 
L 43.763085 396.832083 
L 49.645388 396.832083 
L 55.527691 396.832083 
L 61.409995 396.832083 
L 67.292298 396.832083 
L 73.174601 396.832083 
L 79.056905 396.832083 
L 84.939208 396.832083 
L 90.821512 396.832083 
L 96.703815 396.832083 
L 102.586118 396.832083 
L 108.468422 396.832083 
L 114.350725 396.832083 
L 120.233028 396.832083 
L 126.115332 396.832083 
L 131.997635 396.832083 
L 137.879939 396.832083 
L 143.762242 396.832083 
L 149.644545 396.832083 
L 155.526849 396.832083 
L 161.409152 396.832083 
L 167.291455 396.832083 
L 173.173759 396.832083 
L 179.056062 396.832083 
L 184.938366 396.832083 
L 190.820669 396.832083 
L 196.702972 396.832083 
L 202.585276 396.832083 
L 208.467579 396.832083 
L 214.349882 396.832083 
L 220.232186 396.832083 
L 226.114489 396.832083 
L 231.996792 396.832083 
L 237.879096 396.832083 
L 243.761399 396.832083 
L 249.643703 396.832083 
L 255.526006 396.832083 
L 261.408309 396.832083 
L 267.290613 396.832083 
L 273.172916 396.832083 
L 279.055219 396.832083 
L 284.937523 396.832083 
L 290.819826 396.832083 
L 296.70213 396.832083 
L 302.584433 396.832083 
L 308.466736 396.832083 
L 314.34904 396.832083 
L 320.231343 396.832083 
L 326.113646 396.832083 
L 331.99595 396.832083 
L 337.878253 396.832083 
L 343.760557 396.832083 
L 349.64286 396.832083 
L 355.525163 396.832083 
L 361.407467 396.832083 
L 367.28977 396.832083 
L 373.172073 396.832083 
L 379.054377 396.832083 
L 384.93668 396.832083 
L 390.818983 396.832083 
L 396.701287 396.832083 
L 402.58359 396.832083 
L 408.465894 396.832083 
L 414.348197 396.832083 
L 420.2305 396.832083 
L 426.112804 396.832083 
L 431.995107 396.832083 
L 437.87741 396.832083 
L 443.759714 396.832083 
L 449.642017 396.832083 
L 455.524321 396.832083 
L 461.406624 396.832083 
L 467.288927 396.832083 
L 473.171231 396.832083 
L 479.053534 396.832083 
L 484.935837 396.832083 
L 490.818141 396.832083 
L 496.700444 396.832083 
L 502.582748 396.832083 
L 508.465051 396.832083 
L 514.347354 396.832083 
L 520.229658 396.832083 
L 526.111961 396.832083 
L 531.994264 396.832083 
L 537.876568 396.832083 
L 543.758871 396.832083 
L 549.641175 396.832083 
L 555.523478 396.832083 
L 561.405781 396.832083 
L 561.405781 18.915417 
L 561.405781 18.915417 
L 555.523478 18.915417 
L 549.641175 18.915417 
L 543.758871 18.915417 
L 537.876568 18.915417 
L 531.994264 18.915417 
L 526.111961 18.915417 
L 520.229658 18.915417 
L 514.347354 18.915417 
L 508.465051 18.915417 
L 502.582748 18.915417 
L 496.700444 18.915417 
L 490.818141 18.915417 
L 484.935837 18.915417 
L 479.053534 18.915417 
L 473.171231 18.915417 
L 467.288927 18.915417 
L 461.406624 18.915417 
L 455.524321 18.915417 
L 449.642017 18.915417 
L 443.759714 18.915417 
L 437.87741 18.915417 
L 431.995107 18.915417 
L 426.112804 18.915417 
L 420.2305 18.915417 
L 414.348197 18.915417 
L 408.465894 18.915417 
L 402.58359 18.915417 
L 396.701287 18.915417 
L 390.818983 18.915417 
L 384.93668 18.915417 
L 379.054377 18.915417 
L 373.172073 18.915417 
L 367.28977 18.915417 
L 361.407467 18.915417 
L 355.525163 18.915417 
L 349.64286 18.915417 
L 343.760557 18.915417 
L 337.878253 18.915417 
L 331.99595 18.915417 
L 326.113646 18.915417 
L 320.231343 18.915417 
L 314.34904 18.915417 
L 308.466736 18.915417 
L 302.584433 18.915417 
L 296.70213 18.915417 
L 290.819826 18.915417 
L 284.937523 18.915417 
L 279.055219 18.915417 
L 273.172916 18.915417 
L 267.290613 18.915417 
L 261.408309 18.915417 
L 255.526006 18.915417 
L 249.643703 18.915417 
L 243.761399 18.915417 
L 237.879096 18.915417 
L 231.996792 18.915417 
L 226.114489 18.915417 
L 220.232186 18.915417 
L 214.349882 18.915417 
L 208.467579 18.915417 
L 202.585276 18.915417 
L 196.702972 18.915417 
L 190.820669 18.915417 
L 184.938366 18.915417 
L 179.056062 18.915417 
L 173.173759 18.915417 
L 167.291455 18.915417 
L 161.409152 18.915417 
L 155.526849 18.915417 
L 149.644545 18.915417 
L 143.762242 18.915417 
L 137.879939 18.915417 
L 131.997635 18.915417 
L 126.115332 18.915417 
L 120.233028 18.915417 
L 114.350725 18.915417 
L 108.468422 18.915417 
L 102.586118 18.915417 
L 96.703815 18.915417 
L 90.821512 18.915417 
L 84.939208 18.915417 
L 79.056905 18.915417 
L 73.174601 18.915417 
L 67.292298 18.915417 
L 61.409995 18.915417 
L 55.527691 18.915417 
L 49.645388 18.915417 
L 43.763085 18.915417 
L 37.880781 18.915417 
z
" style="fill:#add8e6;stroke:#add8e6;"/>
   </g>
   <g id="PolyCollection_2">
    <path clip-path="url(#p00fd8813f3)" d="M 37.880781 18.31075 
L 37.880781 396.832083 
L 43.763085 396.832083 
L 49.645388 396.832083 
L 55.527691 396.832083 
L 61.409995 396.832083 
L 67.292298 396.832083 
L 73.174601 396.832083 
L 79.056905 396.832083 
L 84.939208 396.832083 
L 90.821512 396.832083 
L 96.703815 396.832083 
L 102.586118 396.832083 
L 108.468422 396.832083 
L 114.350725 396.832083 
L 120.233028 396.832083 
L 126.115332 396.832083 
L 131.997635 396.832083 
L 137.879939 396.832083 
L 143.762242 396.832083 
L 149.644545 396.832083 
L 155.526849 396.832083 
L 161.409152 396.832083 
L 167.291455 396.832083 
L 173.173759 396.832083 
L 179.056062 396.832083 
L 184.938366 396.832083 
L 190.820669 396.832083 
L 196.702972 396.832083 
L 202.585276 396.832083 
L 208.467579 396.832083 
L 214.349882 396.832083 
L 220.232186 396.832083 
L 226.114489 396.832083 
L 231.996792 396.832083 
L 237.879096 396.832083 
L 243.761399 396.832083 
L 249.643703 396.832083 
L 255.526006 396.832083 
L 261.408309 396.832083 
L 267.290613 396.832083 
L 273.172916 396.832083 
L 279.055219 396.832083 
L 284.937523 396.832083 
L 290.819826 396.832083 
L 296.70213 396.832083 
L 302.584433 396.832083 
L 308.466736 396.832083 
L 314.34904 396.832083 
L 320.231343 396.832083 
L 326.113646 396.832083 
L 331.99595 396.832083 
L 337.878253 396.832083 
L 343.760557 396.832083 
L 349.64286 396.832083 
L 355.525163 396.832083 
L 361.407467 396.832083 
L 367.28977 396.832083 
L 373.172073 396.832083 
L 379.054377 396.832083 
L 384.93668 396.832083 
L 390.818983 396.832083 
L 396.701287 396.832083 
L 402.58359 396.832083 
L 408.465894 396.832083 
L 414.348197 396.832083 
L 420.2305 396.832083 
L 426.112804 396.832083 
L 431.995107 396.832083 
L 437.87741 396.832083 
L 443.759714 396.832083 
L 449.642017 396.832083 
L 455.524321 396.832083 
L 461.406624 396.832083 
L 467.288927 396.832083 
L 473.171231 396.832083 
L 479.053534 396.832083 
L 484.935837 396.832083 
L 490.818141 396.832083 
L 496.700444 396.832083 
L 502.582748 396.832083 
L 508.465051 396.832083 
L 514.347354 396.832083 
L 520.229658 396.832083 
L 526.111961 396.832083 
L 531.994264 396.832083 
L 537.876568 396.832083 
L 543.758871 396.832083 
L 549.641175 396.832083 
L 555.523478 396.832083 
L 561.405781 396.832083 
L 561.405781 25.982458 
L 561.405781 25.982458 
L 555.523478 28.492903 
L 549.641175 50.543099 
L 543.758871 50.734784 
L 537.876568 48.213975 
L 531.994264 50.354901 
L 526.111961 50.938352 
L 520.229658 103.117885 
L 514.347354 162.208097 
L 508.465051 157.193926 
L 502.582748 156.4425 
L 496.700444 157.176355 
L 490.818141 155.512968 
L 484.935837 157.339993 
L 479.053534 157.311757 
L 473.171231 157.709095 
L 467.288927 158.032931 
L 461.406624 158.34322 
L 455.524321 157.912288 
L 449.642017 157.624354 
L 443.759714 157.501155 
L 437.87741 164.265644 
L 431.995107 164.148529 
L 426.112804 159.844895 
L 420.2305 153.248357 
L 414.348197 154.803016 
L 408.465894 154.480808 
L 402.58359 153.562952 
L 396.701287 152.39369 
L 390.818983 151.217155 
L 384.93668 150.371645 
L 379.054377 149.549433 
L 373.172073 148.888689 
L 367.28977 148.422481 
L 361.407467 148.136227 
L 355.525163 147.92332 
L 349.64286 147.382694 
L 343.760557 146.82172 
L 337.878253 145.491059 
L 331.99595 142.001596 
L 326.113646 142.029006 
L 320.231343 111.75258 
L 314.34904 100.805896 
L 308.466736 97.829463 
L 302.584433 99.411584 
L 296.70213 94.047073 
L 290.819826 93.453681 
L 284.937523 92.91711 
L 279.055219 90.167505 
L 273.172916 87.316982 
L 267.290613 84.867783 
L 261.408309 82.618181 
L 255.526006 82.742355 
L 249.643703 71.621314 
L 243.761399 75.025236 
L 237.879096 83.570742 
L 231.996792 77.708654 
L 226.114489 59.792876 
L 220.232186 49.431325 
L 214.349882 48.65805 
L 208.467579 41.672892 
L 202.585276 30.267012 
L 196.702972 27.610714 
L 190.820669 24.175389 
L 184.938366 23.028501 
L 179.056062 22.155591 
L 173.173759 21.485292 
L 167.291455 21.092497 
L 161.409152 20.750057 
L 155.526849 20.434919 
L 149.644545 20.11269 
L 143.762242 19.806093 
L 137.879939 19.571106 
L 131.997635 19.4445 
L 126.115332 19.293333 
L 120.233028 19.236069 
L 114.350725 19.024501 
L 108.468422 18.769555 
L 102.586118 18.787711 
L 96.703815 18.76425 
L 90.821512 18.76425 
L 84.939208 18.650875 
L 79.056905 18.575292 
L 73.174601 18.499042 
L 67.292298 18.474158 
L 61.409995 18.5375 
L 55.527691 18.5375 
L 49.645388 18.506735 
L 43.763085 18.487717 
L 37.880781 18.31075 
z
" style="fill:#d3d3d3;stroke:#d3d3d3;"/>
   </g>
   <g id="PolyCollection_3">
    <defs>
     <path d="M 37.880781 -191.263938 
L 37.880781 -191.263938 
L 43.763085 -191.086971 
L 49.645388 -191.067952 
L 55.527691 -191.037188 
L 61.409995 -191.037188 
L 67.292298 -191.10053 
L 73.174601 -191.075646 
L 79.056905 -190.999396 
L 84.939208 -190.923813 
L 90.821512 -190.810438 
L 96.703815 -190.810438 
L 102.586118 -190.786977 
L 108.468422 -190.805132 
L 114.350725 -190.550187 
L 120.233028 -190.338618 
L 126.115332 -190.281354 
L 131.997635 -190.130188 
L 137.879939 -190.003582 
L 143.762242 -189.768595 
L 149.644545 -189.461998 
L 155.526849 -189.139769 
L 161.409152 -188.824631 
L 167.291455 -188.48219 
L 173.173759 -188.089395 
L 179.056062 -187.419096 
L 184.938366 -186.546186 
L 190.820669 -185.399298 
L 196.702972 -181.963973 
L 202.585276 -179.307676 
L 208.467579 -167.901795 
L 214.349882 -160.916638 
L 220.232186 -160.143363 
L 226.114489 -149.781811 
L 231.996792 -131.866034 
L 237.879096 -126.003946 
L 243.761399 -134.549452 
L 249.643703 -137.953373 
L 255.526006 -126.832333 
L 261.408309 -126.956506 
L 267.290613 -124.706904 
L 273.172916 -122.257705 
L 279.055219 -119.407182 
L 284.937523 -116.657577 
L 290.819826 -116.121006 
L 296.70213 -115.527615 
L 302.584433 -110.163103 
L 308.466736 -111.745225 
L 314.34904 -108.768791 
L 320.231343 -97.822107 
L 326.113646 -67.545681 
L 331.99595 -67.573091 
L 337.878253 -64.083629 
L 343.760557 -62.752968 
L 349.64286 -62.191993 
L 355.525163 -61.651368 
L 361.407467 -61.438461 
L 367.28977 -61.152206 
L 373.172073 -60.685999 
L 379.054377 -60.025254 
L 384.93668 -59.203043 
L 390.818983 -58.357533 
L 396.701287 -57.180998 
L 402.58359 -56.011735 
L 408.465894 -55.09388 
L 414.348197 -54.771671 
L 420.2305 -56.32633 
L 426.112804 -49.729792 
L 431.995107 -45.426159 
L 437.87741 -45.309044 
L 443.759714 -52.073533 
L 449.642017 -51.950334 
L 455.524321 -51.6624 
L 461.406624 -51.231467 
L 467.288927 -51.541756 
L 473.171231 -51.865593 
L 479.053534 -52.262931 
L 484.935837 -52.234694 
L 490.818141 -54.06172 
L 496.700444 -52.398333 
L 502.582748 -53.132187 
L 508.465051 -52.380761 
L 514.347354 -47.366591 
L 520.229658 -106.456803 
L 526.111961 -158.636336 
L 531.994264 -159.219786 
L 537.876568 -161.360712 
L 543.758871 -158.839904 
L 549.641175 -159.031588 
L 555.523478 -181.081784 
L 561.405781 -183.592229 
L 561.405781 -183.592229 
L 561.405781 -183.592229 
L 555.523478 -181.081784 
L 549.641175 -159.031588 
L 543.758871 -158.839904 
L 537.876568 -161.360712 
L 531.994264 -159.219786 
L 526.111961 -158.636336 
L 520.229658 -106.456803 
L 514.347354 -54.28826 
L 508.465051 -54.811331 
L 502.582748 -55.405823 
L 496.700444 -56.08788 
L 490.818141 -56.844685 
L 484.935837 -57.565667 
L 479.053534 -58.277488 
L 473.171231 -58.980124 
L 467.288927 -59.690308 
L 461.406624 -60.419106 
L 455.524321 -61.172232 
L 449.642017 -61.95309 
L 443.759714 -62.762378 
L 437.87741 -63.587386 
L 431.995107 -64.436978 
L 426.112804 -65.311239 
L 420.2305 -66.224524 
L 414.348197 -67.187933 
L 408.465894 -68.194343 
L 402.58359 -69.241985 
L 396.701287 -70.325567 
L 390.818983 -71.438126 
L 384.93668 -72.571516 
L 379.054377 -73.717214 
L 373.172073 -74.866846 
L 367.28977 -76.012486 
L 361.407467 -77.146765 
L 355.525163 -78.262916 
L 349.64286 -79.355315 
L 343.760557 -80.421455 
L 337.878253 -81.466822 
L 331.99595 -82.489194 
L 326.113646 -83.347621 
L 320.231343 -97.822107 
L 314.34904 -124.313527 
L 308.466736 -125.050854 
L 302.584433 -126.003729 
L 296.70213 -127.066444 
L 290.819826 -128.396773 
L 284.937523 -130.363064 
L 279.055219 -133.28437 
L 273.172916 -137.108047 
L 267.290613 -141.705679 
L 261.408309 -147.01531 
L 255.526006 -152.911721 
L 249.643703 -159.193323 
L 243.761399 -165.604105 
L 237.879096 -171.824968 
L 231.996792 -177.493029 
L 226.114489 -182.273472 
L 220.232186 -185.948248 
L 214.349882 -188.444218 
L 208.467579 -189.738446 
L 202.585276 -190.132772 
L 196.702972 -190.210983 
L 190.820669 -190.251712 
L 184.938366 -190.290087 
L 179.056062 -190.328264 
L 173.173759 -190.366423 
L 167.291455 -190.404578 
L 161.409152 -190.442733 
L 155.526849 -190.480888 
L 149.644545 -190.519042 
L 143.762242 -190.557197 
L 137.879939 -190.595352 
L 131.997635 -190.633505 
L 126.115332 -190.671659 
L 120.233028 -190.710185 
L 114.350725 -190.753418 
L 108.468422 -190.805132 
L 102.586118 -190.786977 
L 96.703815 -190.810438 
L 90.821512 -190.810438 
L 84.939208 -190.923813 
L 79.056905 -190.999396 
L 73.174601 -191.075646 
L 67.292298 -191.10053 
L 61.409995 -191.037188 
L 55.527691 -191.037188 
L 49.645388 -191.067952 
L 43.763085 -191.086971 
L 37.880781 -191.263938 
z
" id="mfcac2c9a02" style="stroke:#ffd700;"/>
    </defs>
    <g clip-path="url(#p00fd8813f3)">
     <use style="fill:#ffd700;stroke:#ffd700;" x="0" xlink:href="#mfcac2c9a02" y="209.574688"/>
    </g>
   </g>
   <g id="matplotlib.axis_1">
    <g id="xtick_1">
     <g id="line2d_1">
      <defs>
       <path d="M 0 0 
L 0 3.5 
" id="m5cf927f361" style="stroke:#000000;stroke-width:0.8;"/>
      </defs>
      <g>
       <use style="stroke:#000000;stroke-width:0.8;" x="37.880781" xlink:href="#m5cf927f361" y="188.6"/>
      </g>
     </g>
     <g id="text_1">
      <!-- 0 -->
      <g transform="translate(35.653906 200.918906)scale(0.07 -0.07)">
       <defs>
        <path d="M 2034 4250 
Q 1547 4250 1301 3770 
Q 1056 3291 1056 2328 
Q 1056 1369 1301 889 
Q 1547 409 2034 409 
Q 2525 409 2770 889 
Q 3016 1369 3016 2328 
Q 3016 3291 2770 3770 
Q 2525 4250 2034 4250 
z
M 2034 4750 
Q 2819 4750 3233 4129 
Q 3647 3509 3647 2328 
Q 3647 1150 3233 529 
Q 2819 -91 2034 -91 
Q 1250 -91 836 529 
Q 422 1150 422 2328 
Q 422 3509 836 4129 
Q 1250 4750 2034 4750 
z
" id="DejaVuSans-30" transform="scale(0.015625)"/>
       </defs>
       <use xlink:href="#DejaVuSans-30"/>
      </g>
     </g>
    </g>
    <g id="xtick_2">
     <g id="line2d_2">
      <g>
       <use style="stroke:#000000;stroke-width:0.8;" x="96.146792" xlink:href="#m5cf927f361" y="188.6"/>
      </g>
     </g>
     <g id="text_2">
      <!-- 100000 -->
      <g transform="translate(82.785542 200.918906)scale(0.07 -0.07)">
       <defs>
        <path d="M 794 531 
L 1825 531 
L 1825 4091 
L 703 3866 
L 703 4441 
L 1819 4666 
L 2450 4666 
L 2450 531 
L 3481 531 
L 3481 0 
L 794 0 
L 794 531 
z
" id="DejaVuSans-31" transform="scale(0.015625)"/>
       </defs>
       <use xlink:href="#DejaVuSans-31"/>
       <use x="63.623047" xlink:href="#DejaVuSans-30"/>
       <use x="127.246094" xlink:href="#DejaVuSans-30"/>
       <use x="190.869141" xlink:href="#DejaVuSans-30"/>
       <use x="254.492188" xlink:href="#DejaVuSans-30"/>
       <use x="318.115234" xlink:href="#DejaVuSans-30"/>
      </g>
     </g>
    </g>
    <g id="xtick_3">
     <g id="line2d_3">
      <g>
       <use style="stroke:#000000;stroke-width:0.8;" x="154.412803" xlink:href="#m5cf927f361" y="188.6"/>
      </g>
     </g>
     <g id="text_3">
      <!-- 200000 -->
      <g transform="translate(141.051553 200.918906)scale(0.07 -0.07)">
       <defs>
        <path d="M 1228 531 
L 3431 531 
L 3431 0 
L 469 0 
L 469 531 
Q 828 903 1448 1529 
Q 2069 2156 2228 2338 
Q 2531 2678 2651 2914 
Q 2772 3150 2772 3378 
Q 2772 3750 2511 3984 
Q 2250 4219 1831 4219 
Q 1534 4219 1204 4116 
Q 875 4013 500 3803 
L 500 4441 
Q 881 4594 1212 4672 
Q 1544 4750 1819 4750 
Q 2544 4750 2975 4387 
Q 3406 4025 3406 3419 
Q 3406 3131 3298 2873 
Q 3191 2616 2906 2266 
Q 2828 2175 2409 1742 
Q 1991 1309 1228 531 
z
" id="DejaVuSans-32" transform="scale(0.015625)"/>
       </defs>
       <use xlink:href="#DejaVuSans-32"/>
       <use x="63.623047" xlink:href="#DejaVuSans-30"/>
       <use x="127.246094" xlink:href="#DejaVuSans-30"/>
       <use x="190.869141" xlink:href="#DejaVuSans-30"/>
       <use x="254.492188" xlink:href="#DejaVuSans-30"/>
       <use x="318.115234" xlink:href="#DejaVuSans-30"/>
      </g>
     </g>
    </g>
    <g id="xtick_4">
     <g id="line2d_4">
      <g>
       <use style="stroke:#000000;stroke-width:0.8;" x="212.678813" xlink:href="#m5cf927f361" y="188.6"/>
      </g>
     </g>
     <g id="text_4">
      <!-- 300000 -->
      <g transform="translate(199.317563 200.918906)scale(0.07 -0.07)">
       <defs>
        <path d="M 2597 2516 
Q 3050 2419 3304 2112 
Q 3559 1806 3559 1356 
Q 3559 666 3084 287 
Q 2609 -91 1734 -91 
Q 1441 -91 1130 -33 
Q 819 25 488 141 
L 488 750 
Q 750 597 1062 519 
Q 1375 441 1716 441 
Q 2309 441 2620 675 
Q 2931 909 2931 1356 
Q 2931 1769 2642 2001 
Q 2353 2234 1838 2234 
L 1294 2234 
L 1294 2753 
L 1863 2753 
Q 2328 2753 2575 2939 
Q 2822 3125 2822 3475 
Q 2822 3834 2567 4026 
Q 2313 4219 1838 4219 
Q 1578 4219 1281 4162 
Q 984 4106 628 3988 
L 628 4550 
Q 988 4650 1302 4700 
Q 1616 4750 1894 4750 
Q 2613 4750 3031 4423 
Q 3450 4097 3450 3541 
Q 3450 3153 3228 2886 
Q 3006 2619 2597 2516 
z
" id="DejaVuSans-33" transform="scale(0.015625)"/>
       </defs>
       <use xlink:href="#DejaVuSans-33"/>
       <use x="63.623047" xlink:href="#DejaVuSans-30"/>
       <use x="127.246094" xlink:href="#DejaVuSans-30"/>
       <use x="190.869141" xlink:href="#DejaVuSans-30"/>
       <use x="254.492188" xlink:href="#DejaVuSans-30"/>
       <use x="318.115234" xlink:href="#DejaVuSans-30"/>
      </g>
     </g>
    </g>
    <g id="xtick_5">
     <g id="line2d_5">
      <g>
       <use style="stroke:#000000;stroke-width:0.8;" x="270.944824" xlink:href="#m5cf927f361" y="188.6"/>
      </g>
     </g>
     <g id="text_5">
      <!-- 400000 -->
      <g transform="translate(257.583574 200.918906)scale(0.07 -0.07)">
       <defs>
        <path d="M 2419 4116 
L 825 1625 
L 2419 1625 
L 2419 4116 
z
M 2253 4666 
L 3047 4666 
L 3047 1625 
L 3713 1625 
L 3713 1100 
L 3047 1100 
L 3047 0 
L 2419 0 
L 2419 1100 
L 313 1100 
L 313 1709 
L 2253 4666 
z
" id="DejaVuSans-34" transform="scale(0.015625)"/>
       </defs>
       <use xlink:href="#DejaVuSans-34"/>
       <use x="63.623047" xlink:href="#DejaVuSans-30"/>
       <use x="127.246094" xlink:href="#DejaVuSans-30"/>
       <use x="190.869141" xlink:href="#DejaVuSans-30"/>
       <use x="254.492188" xlink:href="#DejaVuSans-30"/>
       <use x="318.115234" xlink:href="#DejaVuSans-30"/>
      </g>
     </g>
    </g>
    <g id="xtick_6">
     <g id="line2d_6">
      <g>
       <use style="stroke:#000000;stroke-width:0.8;" x="329.210834" xlink:href="#m5cf927f361" y="188.6"/>
      </g>
     </g>
     <g id="text_6">
      <!-- 500000 -->
      <g transform="translate(315.849584 200.918906)scale(0.07 -0.07)">
       <defs>
        <path d="M 691 4666 
L 3169 4666 
L 3169 4134 
L 1269 4134 
L 1269 2991 
Q 1406 3038 1543 3061 
Q 1681 3084 1819 3084 
Q 2600 3084 3056 2656 
Q 3513 2228 3513 1497 
Q 3513 744 3044 326 
Q 2575 -91 1722 -91 
Q 1428 -91 1123 -41 
Q 819 9 494 109 
L 494 744 
Q 775 591 1075 516 
Q 1375 441 1709 441 
Q 2250 441 2565 725 
Q 2881 1009 2881 1497 
Q 2881 1984 2565 2268 
Q 2250 2553 1709 2553 
Q 1456 2553 1204 2497 
Q 953 2441 691 2322 
L 691 4666 
z
" id="DejaVuSans-35" transform="scale(0.015625)"/>
       </defs>
       <use xlink:href="#DejaVuSans-35"/>
       <use x="63.623047" xlink:href="#DejaVuSans-30"/>
       <use x="127.246094" xlink:href="#DejaVuSans-30"/>
       <use x="190.869141" xlink:href="#DejaVuSans-30"/>
       <use x="254.492188" xlink:href="#DejaVuSans-30"/>
       <use x="318.115234" xlink:href="#DejaVuSans-30"/>
      </g>
     </g>
    </g>
    <g id="xtick_7">
     <g id="line2d_7">
      <g>
       <use style="stroke:#000000;stroke-width:0.8;" x="387.476845" xlink:href="#m5cf927f361" y="188.6"/>
      </g>
     </g>
     <g id="text_7">
      <!-- 600000 -->
      <g transform="translate(374.115595 200.918906)scale(0.07 -0.07)">
       <defs>
        <path d="M 2113 2584 
Q 1688 2584 1439 2293 
Q 1191 2003 1191 1497 
Q 1191 994 1439 701 
Q 1688 409 2113 409 
Q 2538 409 2786 701 
Q 3034 994 3034 1497 
Q 3034 2003 2786 2293 
Q 2538 2584 2113 2584 
z
M 3366 4563 
L 3366 3988 
Q 3128 4100 2886 4159 
Q 2644 4219 2406 4219 
Q 1781 4219 1451 3797 
Q 1122 3375 1075 2522 
Q 1259 2794 1537 2939 
Q 1816 3084 2150 3084 
Q 2853 3084 3261 2657 
Q 3669 2231 3669 1497 
Q 3669 778 3244 343 
Q 2819 -91 2113 -91 
Q 1303 -91 875 529 
Q 447 1150 447 2328 
Q 447 3434 972 4092 
Q 1497 4750 2381 4750 
Q 2619 4750 2861 4703 
Q 3103 4656 3366 4563 
z
" id="DejaVuSans-36" transform="scale(0.015625)"/>
       </defs>
       <use xlink:href="#DejaVuSans-36"/>
       <use x="63.623047" xlink:href="#DejaVuSans-30"/>
       <use x="127.246094" xlink:href="#DejaVuSans-30"/>
       <use x="190.869141" xlink:href="#DejaVuSans-30"/>
       <use x="254.492188" xlink:href="#DejaVuSans-30"/>
       <use x="318.115234" xlink:href="#DejaVuSans-30"/>
      </g>
     </g>
    </g>
    <g id="xtick_8">
     <g id="line2d_8">
      <g>
       <use style="stroke:#000000;stroke-width:0.8;" x="445.742856" xlink:href="#m5cf927f361" y="188.6"/>
      </g>
     </g>
     <g id="text_8">
      <!-- 700000 -->
      <g transform="translate(432.381606 200.918906)scale(0.07 -0.07)">
       <defs>
        <path d="M 525 4666 
L 3525 4666 
L 3525 4397 
L 1831 0 
L 1172 0 
L 2766 4134 
L 525 4134 
L 525 4666 
z
" id="DejaVuSans-37" transform="scale(0.015625)"/>
       </defs>
       <use xlink:href="#DejaVuSans-37"/>
       <use x="63.623047" xlink:href="#DejaVuSans-30"/>
       <use x="127.246094" xlink:href="#DejaVuSans-30"/>
       <use x="190.869141" xlink:href="#DejaVuSans-30"/>
       <use x="254.492188" xlink:href="#DejaVuSans-30"/>
       <use x="318.115234" xlink:href="#DejaVuSans-30"/>
      </g>
     </g>
    </g>
    <g id="xtick_9">
     <g id="line2d_9">
      <g>
       <use style="stroke:#000000;stroke-width:0.8;" x="504.008866" xlink:href="#m5cf927f361" y="188.6"/>
      </g>
     </g>
     <g id="text_9">
      <!-- 800000 -->
      <g transform="translate(490.647616 200.918906)scale(0.07 -0.07)">
       <defs>
        <path d="M 2034 2216 
Q 1584 2216 1326 1975 
Q 1069 1734 1069 1313 
Q 1069 891 1326 650 
Q 1584 409 2034 409 
Q 2484 409 2743 651 
Q 3003 894 3003 1313 
Q 3003 1734 2745 1975 
Q 2488 2216 2034 2216 
z
M 1403 2484 
Q 997 2584 770 2862 
Q 544 3141 544 3541 
Q 544 4100 942 4425 
Q 1341 4750 2034 4750 
Q 2731 4750 3128 4425 
Q 3525 4100 3525 3541 
Q 3525 3141 3298 2862 
Q 3072 2584 2669 2484 
Q 3125 2378 3379 2068 
Q 3634 1759 3634 1313 
Q 3634 634 3220 271 
Q 2806 -91 2034 -91 
Q 1263 -91 848 271 
Q 434 634 434 1313 
Q 434 1759 690 2068 
Q 947 2378 1403 2484 
z
M 1172 3481 
Q 1172 3119 1398 2916 
Q 1625 2713 2034 2713 
Q 2441 2713 2670 2916 
Q 2900 3119 2900 3481 
Q 2900 3844 2670 4047 
Q 2441 4250 2034 4250 
Q 1625 4250 1398 4047 
Q 1172 3844 1172 3481 
z
" id="DejaVuSans-38" transform="scale(0.015625)"/>
       </defs>
       <use xlink:href="#DejaVuSans-38"/>
       <use x="63.623047" xlink:href="#DejaVuSans-30"/>
       <use x="127.246094" xlink:href="#DejaVuSans-30"/>
       <use x="190.869141" xlink:href="#DejaVuSans-30"/>
       <use x="254.492188" xlink:href="#DejaVuSans-30"/>
       <use x="318.115234" xlink:href="#DejaVuSans-30"/>
      </g>
     </g>
    </g>
   </g>
   <g id="matplotlib.axis_2">
    <g id="ytick_1">
     <g id="line2d_10">
      <defs>
       <path d="M 0 0 
L -3.5 0 
" id="mcc40582825" style="stroke:#000000;stroke-width:0.8;"/>
      </defs>
      <g>
       <use style="stroke:#000000;stroke-width:0.8;" x="37.880781" xlink:href="#mcc40582825" y="169.704167"/>
      </g>
     </g>
     <g id="text_10">
      <!-- −4000 -->
      <g transform="translate(7.2 172.36362)scale(0.07 -0.07)">
       <defs>
        <path d="M 678 2272 
L 4684 2272 
L 4684 1741 
L 678 1741 
L 678 2272 
z
" id="DejaVuSans-2212" transform="scale(0.015625)"/>
       </defs>
       <use xlink:href="#DejaVuSans-2212"/>
       <use x="83.789062" xlink:href="#DejaVuSans-34"/>
       <use x="147.412109" xlink:href="#DejaVuSans-30"/>
       <use x="211.035156" xlink:href="#DejaVuSans-30"/>
       <use x="274.658203" xlink:href="#DejaVuSans-30"/>
      </g>
     </g>
    </g>
    <g id="ytick_2">
     <g id="line2d_11">
      <g>
       <use style="stroke:#000000;stroke-width:0.8;" x="37.880781" xlink:href="#mcc40582825" y="131.9125"/>
      </g>
     </g>
     <g id="text_11">
      <!-- −3000 -->
      <g transform="translate(7.2 134.571953)scale(0.07 -0.07)">
       <use xlink:href="#DejaVuSans-2212"/>
       <use x="83.789062" xlink:href="#DejaVuSans-33"/>
       <use x="147.412109" xlink:href="#DejaVuSans-30"/>
       <use x="211.035156" xlink:href="#DejaVuSans-30"/>
       <use x="274.658203" xlink:href="#DejaVuSans-30"/>
      </g>
     </g>
    </g>
    <g id="ytick_3">
     <g id="line2d_12">
      <g>
       <use style="stroke:#000000;stroke-width:0.8;" x="37.880781" xlink:href="#mcc40582825" y="94.120833"/>
      </g>
     </g>
     <g id="text_12">
      <!-- −2000 -->
      <g transform="translate(7.2 96.780286)scale(0.07 -0.07)">
       <use xlink:href="#DejaVuSans-2212"/>
       <use x="83.789062" xlink:href="#DejaVuSans-32"/>
       <use x="147.412109" xlink:href="#DejaVuSans-30"/>
       <use x="211.035156" xlink:href="#DejaVuSans-30"/>
       <use x="274.658203" xlink:href="#DejaVuSans-30"/>
      </g>
     </g>
    </g>
    <g id="ytick_4">
     <g id="line2d_13">
      <g>
       <use style="stroke:#000000;stroke-width:0.8;" x="37.880781" xlink:href="#mcc40582825" y="56.329167"/>
      </g>
     </g>
     <g id="text_13">
      <!-- −1000 -->
      <g transform="translate(7.2 58.98862)scale(0.07 -0.07)">
       <use xlink:href="#DejaVuSans-2212"/>
       <use x="83.789062" xlink:href="#DejaVuSans-31"/>
       <use x="147.412109" xlink:href="#DejaVuSans-30"/>
       <use x="211.035156" xlink:href="#DejaVuSans-30"/>
       <use x="274.658203" xlink:href="#DejaVuSans-30"/>
      </g>
     </g>
    </g>
    <g id="ytick_5">
     <g id="line2d_14">
      <g>
       <use style="stroke:#000000;stroke-width:0.8;" x="37.880781" xlink:href="#mcc40582825" y="18.5375"/>
      </g>
     </g>
     <g id="text_14">
      <!-- 0 -->
      <g transform="translate(26.427031 21.196953)scale(0.07 -0.07)">
       <use xlink:href="#DejaVuSans-30"/>
      </g>
     </g>
    </g>
   </g>
   <g id="line2d_15">
    <defs>
     <path d="M 0 2 
C 0.530406 2 1.03916 1.789267 1.414214 1.414214 
C 1.789267 1.03916 2 0.530406 2 0 
C 2 -0.530406 1.789267 -1.03916 1.414214 -1.414214 
C 1.03916 -1.789267 0.530406 -2 0 -2 
C -0.530406 -2 -1.03916 -1.789267 -1.414214 -1.414214 
C -1.789267 -1.03916 -2 -0.530406 -2 0 
C -2 0.530406 -1.789267 1.03916 -1.414214 1.414214 
C -1.03916 1.789267 -0.530406 2 0 2 
z
" id="mf2fdb682b1" style="stroke:#ff0000;"/>
    </defs>
    <g clip-path="url(#p00fd8813f3)">
     <use style="fill:#ff0000;stroke:#ff0000;" x="131.997635" xlink:href="#mf2fdb682b1" y="18.915417"/>
    </g>
   </g>
   <g id="line2d_16">
    <path clip-path="url(#p00fd8813f3)" d="M 37.880781 18.31075 
L 43.763085 18.487717 
L 49.645388 18.506735 
L 55.527691 18.5375 
L 61.409995 18.5375 
L 67.292298 18.474158 
L 73.174601 18.499042 
L 79.056905 18.575292 
L 84.939208 18.650875 
L 90.821512 18.76425 
L 96.703815 18.76425 
L 102.586118 18.787711 
L 108.468422 18.769555 
L 114.350725 19.024501 
L 120.233028 19.236069 
L 126.115332 19.293333 
L 131.997635 19.4445 
L 137.879939 19.571106 
L 143.762242 19.806093 
L 149.644545 20.11269 
L 155.526849 20.434919 
L 161.409152 20.750057 
L 167.291455 21.092497 
L 173.173759 21.485292 
L 179.056062 22.155591 
L 184.938366 23.028501 
L 190.820669 24.175389 
L 196.702972 27.610714 
L 202.585276 30.267012 
L 208.467579 41.672892 
L 214.349882 48.65805 
L 220.232186 49.431325 
L 226.114489 59.792876 
L 231.996792 77.708654 
L 237.879096 83.570742 
L 243.761399 75.025236 
L 249.643703 71.621314 
L 255.526006 82.742355 
L 261.408309 82.618181 
L 267.290613 84.867783 
L 273.172916 87.316982 
L 279.055219 90.167505 
L 284.937523 92.91711 
L 290.819826 93.453681 
L 296.70213 94.047073 
L 302.584433 99.411584 
L 308.466736 97.829463 
L 314.34904 100.805896 
L 320.231343 111.75258 
L 326.113646 142.029006 
L 331.99595 142.001596 
L 337.878253 145.491059 
L 343.760557 146.82172 
L 349.64286 147.382694 
L 355.525163 147.92332 
L 361.407467 148.136227 
L 367.28977 148.422481 
L 373.172073 148.888689 
L 379.054377 149.549433 
L 384.93668 150.371645 
L 390.818983 151.217155 
L 396.701287 152.39369 
L 402.58359 153.562952 
L 408.465894 154.480808 
L 414.348197 154.803016 
L 420.2305 153.248357 
L 426.112804 159.844895 
L 431.995107 164.148529 
L 437.87741 164.265644 
L 443.759714 157.501155 
L 449.642017 157.624354 
L 455.524321 157.912288 
L 461.406624 158.34322 
L 467.288927 158.032931 
L 473.171231 157.709095 
L 479.053534 157.311757 
L 484.935837 157.339993 
L 490.818141 155.512968 
L 496.700444 157.176355 
L 502.582748 156.4425 
L 508.465051 157.193926 
L 514.347354 162.208097 
L 520.229658 103.117885 
L 526.111961 50.938352 
L 531.994264 50.354901 
L 537.876568 48.213975 
L 543.758871 50.734784 
L 549.641175 50.543099 
L 555.523478 28.492903 
L 561.405781 25.982458 
" style="fill:none;stroke:#000000;stroke-linecap:square;"/>
   </g>
   <g id="line2d_17">
    <path clip-path="url(#p00fd8813f3)" d="M 37.880781 18.31075 
L 43.763085 18.487717 
L 49.645388 18.506735 
L 55.527691 18.5375 
L 61.409995 18.5375 
L 67.292298 18.474158 
L 73.174601 18.499042 
L 79.056905 18.575292 
L 84.939208 18.650875 
L 90.821512 18.76425 
L 96.703815 18.76425 
L 102.586118 18.787711 
L 108.468422 18.769555 
L 114.350725 18.821269 
L 120.233028 18.864503 
L 126.115332 18.903029 
L 131.997635 18.946542 
L 137.879939 18.989111 
L 143.762242 19.036797 
L 149.644545 19.087115 
L 155.526849 19.13775 
L 161.409152 19.188123 
L 167.291455 19.240063 
L 173.173759 19.295476 
L 179.056062 19.368548 
L 184.938366 19.481023 
L 190.820669 19.739012 
L 196.702972 20.494767 
L 202.585276 22.165237 
L 208.467579 25.814871 
L 214.349882 31.327708 
L 220.232186 38.340106 
L 226.114489 46.581258 
L 231.996792 54.534703 
L 237.879096 60.892119 
L 243.761399 65.517318 
L 249.643703 70.627756 
L 255.526006 75.991769 
L 261.408309 79.085064 
L 267.290613 82.31656 
L 273.172916 85.491601 
L 279.055219 88.627796 
L 284.937523 90.921117 
L 290.819826 92.460494 
L 296.70213 93.989471 
L 302.584433 99.171033 
L 308.466736 97.829463 
L 314.34904 100.805896 
L 320.231343 111.75258 
L 326.113646 142.029006 
L 331.99595 142.001596 
L 337.878253 145.491059 
L 343.760557 146.82172 
L 349.64286 147.382694 
L 355.525163 147.92332 
L 361.407467 148.136227 
L 367.28977 148.422481 
L 373.172073 148.888689 
L 379.054377 149.549433 
L 384.93668 150.371645 
L 390.818983 151.217155 
L 396.701287 152.39369 
L 402.58359 153.562952 
L 408.465894 154.480808 
L 414.348197 154.803016 
L 420.2305 153.248357 
L 426.112804 159.844895 
L 431.995107 164.148529 
L 437.87741 164.265644 
L 443.759714 157.501155 
L 449.642017 157.624354 
L 455.524321 157.912288 
L 461.406624 158.34322 
L 467.288927 158.032931 
L 473.171231 157.709095 
L 479.053534 157.311757 
L 484.935837 157.339993 
L 490.818141 155.512968 
L 496.700444 157.176355 
L 502.582748 156.4425 
L 508.465051 157.193926 
L 514.347354 162.208097 
L 520.229658 103.117885 
L 526.111961 50.938352 
L 531.994264 50.354901 
L 537.876568 48.213975 
L 543.758871 50.734784 
L 549.641175 50.543099 
L 555.523478 28.492903 
L 561.405781 25.982458 
" style="fill:none;stroke:#000000;stroke-linecap:square;"/>
   </g>
   <g id="line2d_18">
    <path clip-path="url(#p00fd8813f3)" d="M 37.880781 18.31075 
L 43.763085 18.487717 
L 49.645388 18.506735 
L 55.527691 18.5375 
L 61.409995 18.5375 
L 67.292298 18.474158 
L 73.174601 18.499042 
L 79.056905 18.575292 
L 84.939208 18.650875 
L 90.821512 18.76425 
L 96.703815 18.76425 
L 102.586118 18.787711 
L 108.468422 18.769555 
L 114.350725 18.821269 
L 120.233028 18.864503 
L 126.115332 18.903029 
L 131.997635 18.941933 
L 137.879939 18.980618 
L 143.762242 19.019984 
L 149.644545 19.059639 
L 155.526849 19.099315 
L 161.409152 19.138967 
L 167.291455 19.178834 
L 173.173759 19.219229 
L 179.056062 19.262023 
L 184.938366 19.310934 
L 190.820669 19.394509 
L 196.702972 19.695457 
L 202.585276 20.743215 
L 208.467579 23.215687 
L 214.349882 27.26691 
L 220.232186 32.735926 
L 226.114489 39.24106 
L 231.996792 46.142014 
L 237.879096 52.887378 
L 243.761399 59.263944 
L 249.643703 65.430753 
L 255.526006 70.934292 
L 261.408309 75.472533 
L 267.290613 79.675701 
L 273.172916 83.344646 
L 279.055219 86.038944 
L 284.937523 87.933744 
L 290.819826 89.520931 
L 296.70213 91.093166 
L 302.584433 92.817456 
L 308.466736 93.704836 
L 314.34904 95.161884 
L 320.231343 111.75258 
L 326.113646 136.289979 
L 331.99595 137.357918 
L 337.878253 138.812931 
L 343.760557 139.929836 
L 349.64286 140.938805 
L 355.525163 141.942461 
L 361.407467 142.91161 
L 367.28977 143.909593 
L 373.172073 144.952562 
L 379.054377 146.034773 
L 384.93668 147.133751 
L 390.818983 148.214548 
L 396.701287 149.272654 
L 402.58359 150.229608 
L 408.465894 151.075502 
L 414.348197 151.834664 
L 420.2305 152.741018 
L 426.112804 159.76164 
L 431.995107 161.39083 
L 437.87741 161.754937 
L 443.759714 157.501155 
L 449.642017 157.624354 
L 455.524321 157.912288 
L 461.406624 158.34322 
L 467.288927 158.032931 
L 473.171231 157.709095 
L 479.053534 157.311757 
L 484.935837 157.339993 
L 490.818141 155.512968 
L 496.700444 157.176355 
L 502.582748 156.4425 
L 508.465051 157.193926 
L 514.347354 162.208097 
L 520.229658 103.117885 
L 526.111961 50.938352 
L 531.994264 50.354901 
L 537.876568 48.213975 
L 543.758871 50.734784 
L 549.641175 50.543099 
L 555.523478 28.492903 
L 561.405781 25.982458 
" style="fill:none;stroke:#000000;stroke-linecap:square;"/>
   </g>
   <g id="line2d_19">
    <path clip-path="url(#p00fd8813f3)" d="M 37.880781 18.31075 
L 43.763085 18.487717 
L 49.645388 18.506735 
L 55.527691 18.5375 
L 61.409995 18.5375 
L 67.292298 18.474158 
L 73.174601 18.499042 
L 79.056905 18.575292 
L 84.939208 18.650875 
L 90.821512 18.76425 
L 96.703815 18.76425 
L 102.586118 18.787711 
L 108.468422 18.769555 
L 114.350725 18.821269 
L 120.233028 18.864503 
L 126.115332 18.903029 
L 131.997635 18.941257 
L 137.879939 18.979463 
L 143.762242 19.017737 
L 149.644545 19.056104 
L 155.526849 19.094366 
L 161.409152 19.13267 
L 167.291455 19.170999 
L 173.173759 19.209396 
L 179.056062 19.248069 
L 184.938366 19.287578 
L 190.820669 19.332646 
L 196.702972 19.432394 
L 202.585276 19.885324 
L 208.467579 21.284594 
L 214.349882 24.049687 
L 220.232186 28.280148 
L 226.114489 33.769818 
L 231.996792 40.103515 
L 237.879096 46.836086 
L 243.761399 53.60894 
L 249.643703 60.12322 
L 255.526006 66.085446 
L 261.408309 71.441474 
L 267.290613 76.222551 
L 273.172916 80.085942 
L 279.055219 82.811038 
L 284.937523 84.692694 
L 290.819826 86.139336 
L 296.70213 87.399047 
L 302.584433 88.580427 
L 308.466736 89.668287 
L 314.34904 90.833962 
L 320.231343 111.75258 
L 326.113646 131.804363 
L 331.99595 132.918156 
L 337.878253 134.076727 
L 343.760557 135.201517 
L 349.64286 136.330321 
L 355.525163 137.475475 
L 361.407467 138.634425 
L 367.28977 139.813446 
L 373.172073 141.010011 
L 379.054377 142.21812 
L 384.93668 143.43145 
L 390.818983 144.647004 
L 396.701287 145.869839 
L 402.58359 147.109821 
L 408.465894 148.409308 
L 414.348197 149.876774 
L 420.2305 152.074436 
L 426.112804 153.749284 
L 431.995107 154.538012 
L 437.87741 155.102254 
L 443.759714 155.200025 
L 449.642017 155.919676 
L 455.524321 156.637062 
L 461.406624 157.25021 
L 467.288927 157.667276 
L 473.171231 157.707417 
L 479.053534 157.311757 
L 484.935837 157.339993 
L 490.818141 155.512968 
L 496.700444 157.176355 
L 502.582748 156.4425 
L 508.465051 157.193926 
L 514.347354 162.208097 
L 520.229658 103.117885 
L 526.111961 50.938352 
L 531.994264 50.354901 
L 537.876568 48.213975 
L 543.758871 50.734784 
L 549.641175 50.543099 
L 555.523478 28.492903 
L 561.405781 25.982458 
" style="fill:none;stroke:#000000;stroke-linecap:square;"/>
   </g>
   <g id="line2d_20">
    <path clip-path="url(#p00fd8813f3)" d="M 37.880781 18.31075 
L 43.763085 18.487717 
L 49.645388 18.506735 
L 55.527691 18.5375 
L 61.409995 18.5375 
L 67.292298 18.474158 
L 73.174601 18.499042 
L 79.056905 18.575292 
L 84.939208 18.650875 
L 90.821512 18.76425 
L 96.703815 18.76425 
L 102.586118 18.787711 
L 108.468422 18.769555 
L 114.350725 18.821269 
L 120.233028 18.864503 
L 126.115332 18.903029 
L 131.997635 18.94119 
L 137.879939 18.979349 
L 143.762242 19.017516 
L 149.644545 19.055693 
L 155.526849 19.093858 
L 161.409152 19.132028 
L 167.291455 19.170201 
L 173.173759 19.208381 
L 179.056062 19.246593 
L 184.938366 19.284983 
L 190.820669 19.324299 
L 196.702972 19.375759 
L 202.585276 19.573838 
L 208.467579 20.47695 
L 214.349882 22.806963 
L 220.232186 26.598131 
L 226.114489 31.274308 
L 231.996792 36.602418 
L 237.879096 42.473817 
L 243.761399 48.680116 
L 249.643703 54.932828 
L 255.526006 60.962726 
L 261.408309 66.574226 
L 267.290613 71.57049 
L 273.172916 75.746861 
L 279.055219 79.038784 
L 284.937523 81.525301 
L 290.819826 83.353415 
L 296.70213 84.733788 
L 302.584433 85.879905 
L 308.466736 86.937085 
L 314.34904 88.065523 
L 320.231343 111.75258 
L 326.113646 128.877441 
L 331.99595 129.881475 
L 337.878253 130.924899 
L 343.760557 132.003338 
L 349.64286 133.1124 
L 355.525163 134.250159 
L 361.407467 135.414732 
L 367.28977 136.604637 
L 373.172073 137.816356 
L 379.054377 139.045927 
L 384.93668 140.28961 
L 390.818983 141.543915 
L 396.701287 142.8046 
L 402.58359 144.063969 
L 408.465894 145.30849 
L 414.348197 146.513077 
L 420.2305 147.665714 
L 426.112804 148.63831 
L 431.995107 149.449313 
L 437.87741 150.199616 
L 443.759714 150.876003 
L 449.642017 151.592699 
L 455.524321 152.253866 
L 461.406624 152.846228 
L 467.288927 153.363438 
L 473.171231 153.79547 
L 479.053534 154.154342 
L 484.935837 154.539379 
L 490.818141 154.791369 
L 496.700444 155.454562 
L 502.582748 155.642252 
L 508.465051 157.193926 
L 514.347354 161.050883 
L 520.229658 103.117885 
L 526.111961 50.938352 
L 531.994264 50.354901 
L 537.876568 48.213975 
L 543.758871 50.734784 
L 549.641175 50.543099 
L 555.523478 28.492903 
L 561.405781 25.982458 
" style="fill:none;stroke:#000000;stroke-linecap:square;"/>
   </g>
   <g id="line2d_21">
    <path clip-path="url(#p00fd8813f3)" d="M 37.880781 18.31075 
L 43.763085 18.487717 
L 49.645388 18.506735 
L 55.527691 18.5375 
L 61.409995 18.5375 
L 67.292298 18.474158 
L 73.174601 18.499042 
L 79.056905 18.575292 
L 84.939208 18.650875 
L 90.821512 18.76425 
L 96.703815 18.76425 
L 102.586118 18.787711 
L 108.468422 18.769555 
L 114.350725 18.821269 
L 120.233028 18.864503 
L 126.115332 18.903029 
L 131.997635 18.941182 
L 137.879939 18.979336 
L 143.762242 19.01749 
L 149.644545 19.055646 
L 155.526849 19.0938 
L 161.409152 19.131954 
L 167.291455 19.170109 
L 173.173759 19.208265 
L 179.056062 19.246424 
L 184.938366 19.2846 
L 190.820669 19.322975 
L 196.702972 19.363705 
L 202.585276 19.441916 
L 208.467579 19.836242 
L 214.349882 21.130469 
L 220.232186 23.626439 
L 226.114489 27.301215 
L 231.996792 32.081659 
L 237.879096 37.749719 
L 243.761399 43.970582 
L 249.643703 50.381364 
L 255.526006 56.662966 
L 261.408309 62.559378 
L 267.290613 67.869008 
L 273.172916 72.466641 
L 279.055219 76.290318 
L 284.937523 79.211623 
L 290.819826 81.177914 
L 296.70213 82.508244 
L 302.584433 83.570958 
L 308.466736 84.523833 
L 314.34904 85.26116 
L 320.231343 111.75258 
L 326.113646 126.227067 
L 331.99595 127.085493 
L 337.878253 128.107865 
L 343.760557 129.153233 
L 349.64286 130.219373 
L 355.525163 131.311771 
L 361.407467 132.427923 
L 367.28977 133.562202 
L 373.172073 134.707842 
L 379.054377 135.857473 
L 384.93668 137.003171 
L 390.818983 138.136562 
L 396.701287 139.249121 
L 402.58359 140.332702 
L 408.465894 141.380344 
L 414.348197 142.386754 
L 420.2305 143.350164 
L 426.112804 144.263449 
L 431.995107 145.137709 
L 437.87741 145.987301 
L 443.759714 146.81231 
L 449.642017 147.621598 
L 455.524321 148.402455 
L 461.406624 149.155581 
L 467.288927 149.88438 
L 473.171231 150.594564 
L 479.053534 151.2972 
L 484.935837 152.009021 
L 490.818141 152.730002 
L 496.700444 153.486807 
L 502.582748 154.168864 
L 508.465051 154.763357 
L 514.347354 155.286427 
L 520.229658 103.117885 
L 526.111961 50.938352 
L 531.994264 50.354901 
L 537.876568 48.213975 
L 543.758871 50.734784 
L 549.641175 50.543099 
L 555.523478 28.492903 
L 561.405781 25.982458 
" style="fill:none;stroke:#000000;stroke-linecap:square;"/>
   </g>
   <g id="patch_3">
    <path d="M 37.880781 188.6 
L 37.880781 7.2 
" style="fill:none;stroke:#000000;stroke-linecap:square;stroke-linejoin:miter;stroke-width:0.8;"/>
   </g>
   <g id="patch_4">
    <path d="M 561.405781 188.6 
L 561.405781 7.2 
" style="fill:none;stroke:#000000;stroke-linecap:square;stroke-linejoin:miter;stroke-width:0.8;"/>
   </g>
   <g id="patch_5">
    <path d="M 37.880781 188.6 
L 561.405781 188.6 
" style="fill:none;stroke:#000000;stroke-linecap:square;stroke-linejoin:miter;stroke-width:0.8;"/>
   </g>
   <g id="patch_6">
    <path d="M 37.880781 7.2 
L 561.405781 7.2 
" style="fill:none;stroke:#000000;stroke-linecap:square;stroke-linejoin:miter;stroke-width:0.8;"/>
   </g>
  </g>
 </g>
 <defs>
  <clipPath id="p00fd8813f3">
   <rect height="181.4" width="523.525" x="37.880781" y="7.2"/>
  </clipPath>
 </defs>
</svg>
