<?xml version="1.0" encoding="utf-8" standalone="no"?>
<!DOCTYPE svg PUBLIC "-//W3C//DTD SVG 1.1//EN"
  "http://www.w3.org/Graphics/SVG/1.1/DTD/svg11.dtd">
<svg height="354.668281pt" version="1.1" viewBox="0 0 352.682187 354.668281" width="352.682187pt" xmlns="http://www.w3.org/2000/svg" xmlns:xlink="http://www.w3.org/1999/xlink">
 <metadata>
  <rdf:RDF xmlns:cc="http://creativecommons.org/ns#" xmlns:dc="http://purl.org/dc/elements/1.1/" xmlns:rdf="http://www.w3.org/1999/02/22-rdf-syntax-ns#">
   <cc:Work>
    <dc:type rdf:resource="http://purl.org/dc/dcmitype/StillImage"/>
    <dc:date>2021-04-08T01:57:32.347322</dc:date>
    <dc:format>image/svg+xml</dc:format>
    <dc:creator>
     <cc:Agent>
      <dc:title>Matplotlib v3.4.1, https://matplotlib.org/</dc:title>
     </cc:Agent>
    </dc:creator>
   </cc:Work>
  </rdf:RDF>
 </metadata>
 <defs>
  <style type="text/css">*{stroke-linecap:butt;stroke-linejoin:round;}</style>
 </defs>
 <g id="figure_1">
  <g id="patch_1">
   <path d="M 0 354.668281 
L 352.682187 354.668281 
L 352.682187 0 
L 0 0 
z
" style="fill:none;"/>
  </g>
  <g id="axes_1">
   <g id="patch_2">
    <path d="M 25.332188 323.918906 
L 345.482188 323.918906 
L 345.482188 15.518906 
L 25.332188 15.518906 
z
" style="fill:#ffffff;"/>
   </g>
   <g id="matplotlib.axis_1">
    <g id="xtick_1">
     <g id="line2d_1">
      <path clip-path="url(#pc59a53d36f)" d="M 51.512153 323.918906 
L 51.512153 15.518906 
" style="fill:none;stroke:#b0b0b0;stroke-linecap:square;stroke-width:0.8;"/>
     </g>
     <g id="line2d_2">
      <defs>
       <path d="M 0 0 
L 0 3.5 
" id="me2ec6678a6" style="stroke:#000000;stroke-width:0.8;"/>
      </defs>
      <g>
       <use style="stroke:#000000;stroke-width:0.8;" x="51.512153" xlink:href="#me2ec6678a6" y="323.918906"/>
      </g>
     </g>
     <g id="text_1">
      <!-- −0.5 -->
      <g transform="translate(43.013168 336.237812)scale(0.07 -0.07)">
       <defs>
        <path d="M 678 2272 
L 4684 2272 
L 4684 1741 
L 678 1741 
L 678 2272 
z
" id="DejaVuSans-2212" transform="scale(0.015625)"/>
        <path d="M 2034 4250 
Q 1547 4250 1301 3770 
Q 1056 3291 1056 2328 
Q 1056 1369 1301 889 
Q 1547 409 2034 409 
Q 2525 409 2770 889 
Q 3016 1369 3016 2328 
Q 3016 3291 2770 3770 
Q 2525 4250 2034 4250 
z
M 2034 4750 
Q 2819 4750 3233 4129 
Q 3647 3509 3647 2328 
Q 3647 1150 3233 529 
Q 2819 -91 2034 -91 
Q 1250 -91 836 529 
Q 422 1150 422 2328 
Q 422 3509 836 4129 
Q 1250 4750 2034 4750 
z
" id="DejaVuSans-30" transform="scale(0.015625)"/>
        <path d="M 684 794 
L 1344 794 
L 1344 0 
L 684 0 
L 684 794 
z
" id="DejaVuSans-2e" transform="scale(0.015625)"/>
        <path d="M 691 4666 
L 3169 4666 
L 3169 4134 
L 1269 4134 
L 1269 2991 
Q 1406 3038 1543 3061 
Q 1681 3084 1819 3084 
Q 2600 3084 3056 2656 
Q 3513 2228 3513 1497 
Q 3513 744 3044 326 
Q 2575 -91 1722 -91 
Q 1428 -91 1123 -41 
Q 819 9 494 109 
L 494 744 
Q 775 591 1075 516 
Q 1375 441 1709 441 
Q 2250 441 2565 725 
Q 2881 1009 2881 1497 
Q 2881 1984 2565 2268 
Q 2250 2553 1709 2553 
Q 1456 2553 1204 2497 
Q 953 2441 691 2322 
L 691 4666 
z
" id="DejaVuSans-35" transform="scale(0.015625)"/>
       </defs>
       <use xlink:href="#DejaVuSans-2212"/>
       <use x="83.789062" xlink:href="#DejaVuSans-30"/>
       <use x="147.412109" xlink:href="#DejaVuSans-2e"/>
       <use x="179.199219" xlink:href="#DejaVuSans-35"/>
      </g>
     </g>
    </g>
    <g id="xtick_2">
     <g id="line2d_3">
      <path clip-path="url(#pc59a53d36f)" d="M 106.72395 323.918906 
L 106.72395 15.518906 
" style="fill:none;stroke:#b0b0b0;stroke-linecap:square;stroke-width:0.8;"/>
     </g>
     <g id="line2d_4">
      <g>
       <use style="stroke:#000000;stroke-width:0.8;" x="106.72395" xlink:href="#me2ec6678a6" y="323.918906"/>
      </g>
     </g>
     <g id="text_2">
      <!-- 0.0 -->
      <g transform="translate(101.157856 336.237812)scale(0.07 -0.07)">
       <use xlink:href="#DejaVuSans-30"/>
       <use x="63.623047" xlink:href="#DejaVuSans-2e"/>
       <use x="95.410156" xlink:href="#DejaVuSans-30"/>
      </g>
     </g>
    </g>
    <g id="xtick_3">
     <g id="line2d_5">
      <path clip-path="url(#pc59a53d36f)" d="M 161.935747 323.918906 
L 161.935747 15.518906 
" style="fill:none;stroke:#b0b0b0;stroke-linecap:square;stroke-width:0.8;"/>
     </g>
     <g id="line2d_6">
      <g>
       <use style="stroke:#000000;stroke-width:0.8;" x="161.935747" xlink:href="#me2ec6678a6" y="323.918906"/>
      </g>
     </g>
     <g id="text_3">
      <!-- 0.5 -->
      <g transform="translate(156.369654 336.237812)scale(0.07 -0.07)">
       <use xlink:href="#DejaVuSans-30"/>
       <use x="63.623047" xlink:href="#DejaVuSans-2e"/>
       <use x="95.410156" xlink:href="#DejaVuSans-35"/>
      </g>
     </g>
    </g>
    <g id="xtick_4">
     <g id="line2d_7">
      <path clip-path="url(#pc59a53d36f)" d="M 217.147545 323.918906 
L 217.147545 15.518906 
" style="fill:none;stroke:#b0b0b0;stroke-linecap:square;stroke-width:0.8;"/>
     </g>
     <g id="line2d_8">
      <g>
       <use style="stroke:#000000;stroke-width:0.8;" x="217.147545" xlink:href="#me2ec6678a6" y="323.918906"/>
      </g>
     </g>
     <g id="text_4">
      <!-- 1.0 -->
      <g transform="translate(211.581451 336.237812)scale(0.07 -0.07)">
       <defs>
        <path d="M 794 531 
L 1825 531 
L 1825 4091 
L 703 3866 
L 703 4441 
L 1819 4666 
L 2450 4666 
L 2450 531 
L 3481 531 
L 3481 0 
L 794 0 
L 794 531 
z
" id="DejaVuSans-31" transform="scale(0.015625)"/>
       </defs>
       <use xlink:href="#DejaVuSans-31"/>
       <use x="63.623047" xlink:href="#DejaVuSans-2e"/>
       <use x="95.410156" xlink:href="#DejaVuSans-30"/>
      </g>
     </g>
    </g>
    <g id="xtick_5">
     <g id="line2d_9">
      <path clip-path="url(#pc59a53d36f)" d="M 272.359342 323.918906 
L 272.359342 15.518906 
" style="fill:none;stroke:#b0b0b0;stroke-linecap:square;stroke-width:0.8;"/>
     </g>
     <g id="line2d_10">
      <g>
       <use style="stroke:#000000;stroke-width:0.8;" x="272.359342" xlink:href="#me2ec6678a6" y="323.918906"/>
      </g>
     </g>
     <g id="text_5">
      <!-- 1.5 -->
      <g transform="translate(266.793248 336.237812)scale(0.07 -0.07)">
       <use xlink:href="#DejaVuSans-31"/>
       <use x="63.623047" xlink:href="#DejaVuSans-2e"/>
       <use x="95.410156" xlink:href="#DejaVuSans-35"/>
      </g>
     </g>
    </g>
    <g id="xtick_6">
     <g id="line2d_11">
      <path clip-path="url(#pc59a53d36f)" d="M 327.571139 323.918906 
L 327.571139 15.518906 
" style="fill:none;stroke:#b0b0b0;stroke-linecap:square;stroke-width:0.8;"/>
     </g>
     <g id="line2d_12">
      <g>
       <use style="stroke:#000000;stroke-width:0.8;" x="327.571139" xlink:href="#me2ec6678a6" y="323.918906"/>
      </g>
     </g>
     <g id="text_6">
      <!-- 2.0 -->
      <g transform="translate(322.005046 336.237812)scale(0.07 -0.07)">
       <defs>
        <path d="M 1228 531 
L 3431 531 
L 3431 0 
L 469 0 
L 469 531 
Q 828 903 1448 1529 
Q 2069 2156 2228 2338 
Q 2531 2678 2651 2914 
Q 2772 3150 2772 3378 
Q 2772 3750 2511 3984 
Q 2250 4219 1831 4219 
Q 1534 4219 1204 4116 
Q 875 4013 500 3803 
L 500 4441 
Q 881 4594 1212 4672 
Q 1544 4750 1819 4750 
Q 2544 4750 2975 4387 
Q 3406 4025 3406 3419 
Q 3406 3131 3298 2873 
Q 3191 2616 2906 2266 
Q 2828 2175 2409 1742 
Q 1991 1309 1228 531 
z
" id="DejaVuSans-32" transform="scale(0.015625)"/>
       </defs>
       <use xlink:href="#DejaVuSans-32"/>
       <use x="63.623047" xlink:href="#DejaVuSans-2e"/>
       <use x="95.410156" xlink:href="#DejaVuSans-30"/>
      </g>
     </g>
    </g>
    <g id="text_7">
     <!-- 1e6 -->
     <g transform="translate(332.2675 346.0125)scale(0.07 -0.07)">
      <defs>
       <path d="M 3597 1894 
L 3597 1613 
L 953 1613 
Q 991 1019 1311 708 
Q 1631 397 2203 397 
Q 2534 397 2845 478 
Q 3156 559 3463 722 
L 3463 178 
Q 3153 47 2828 -22 
Q 2503 -91 2169 -91 
Q 1331 -91 842 396 
Q 353 884 353 1716 
Q 353 2575 817 3079 
Q 1281 3584 2069 3584 
Q 2775 3584 3186 3129 
Q 3597 2675 3597 1894 
z
M 3022 2063 
Q 3016 2534 2758 2815 
Q 2500 3097 2075 3097 
Q 1594 3097 1305 2825 
Q 1016 2553 972 2059 
L 3022 2063 
z
" id="DejaVuSans-65" transform="scale(0.015625)"/>
       <path d="M 2113 2584 
Q 1688 2584 1439 2293 
Q 1191 2003 1191 1497 
Q 1191 994 1439 701 
Q 1688 409 2113 409 
Q 2538 409 2786 701 
Q 3034 994 3034 1497 
Q 3034 2003 2786 2293 
Q 2538 2584 2113 2584 
z
M 3366 4563 
L 3366 3988 
Q 3128 4100 2886 4159 
Q 2644 4219 2406 4219 
Q 1781 4219 1451 3797 
Q 1122 3375 1075 2522 
Q 1259 2794 1537 2939 
Q 1816 3084 2150 3084 
Q 2853 3084 3261 2657 
Q 3669 2231 3669 1497 
Q 3669 778 3244 343 
Q 2819 -91 2113 -91 
Q 1303 -91 875 529 
Q 447 1150 447 2328 
Q 447 3434 972 4092 
Q 1497 4750 2381 4750 
Q 2619 4750 2861 4703 
Q 3103 4656 3366 4563 
z
" id="DejaVuSans-36" transform="scale(0.015625)"/>
      </defs>
      <use xlink:href="#DejaVuSans-31"/>
      <use x="63.623047" xlink:href="#DejaVuSans-65"/>
      <use x="125.146484" xlink:href="#DejaVuSans-36"/>
     </g>
    </g>
   </g>
   <g id="matplotlib.axis_2">
    <g id="ytick_1">
     <g id="line2d_13">
      <path clip-path="url(#pc59a53d36f)" d="M 25.332188 296.019452 
L 345.482188 296.019452 
" style="fill:none;stroke:#b0b0b0;stroke-linecap:square;stroke-width:0.8;"/>
     </g>
     <g id="line2d_14">
      <defs>
       <path d="M 0 0 
L -3.5 0 
" id="mdcd5444777" style="stroke:#000000;stroke-width:0.8;"/>
      </defs>
      <g>
       <use style="stroke:#000000;stroke-width:0.8;" x="25.332188" xlink:href="#mdcd5444777" y="296.019452"/>
      </g>
     </g>
     <g id="text_8">
      <!-- 5.0 -->
      <g transform="translate(7.2 298.678906)scale(0.07 -0.07)">
       <use xlink:href="#DejaVuSans-35"/>
       <use x="63.623047" xlink:href="#DejaVuSans-2e"/>
       <use x="95.410156" xlink:href="#DejaVuSans-30"/>
      </g>
     </g>
    </g>
    <g id="ytick_2">
     <g id="line2d_15">
      <path clip-path="url(#pc59a53d36f)" d="M 25.332188 242.834013 
L 345.482188 242.834013 
" style="fill:none;stroke:#b0b0b0;stroke-linecap:square;stroke-width:0.8;"/>
     </g>
     <g id="line2d_16">
      <g>
       <use style="stroke:#000000;stroke-width:0.8;" x="25.332188" xlink:href="#mdcd5444777" y="242.834013"/>
      </g>
     </g>
     <g id="text_9">
      <!-- 5.5 -->
      <g transform="translate(7.2 245.493467)scale(0.07 -0.07)">
       <use xlink:href="#DejaVuSans-35"/>
       <use x="63.623047" xlink:href="#DejaVuSans-2e"/>
       <use x="95.410156" xlink:href="#DejaVuSans-35"/>
      </g>
     </g>
    </g>
    <g id="ytick_3">
     <g id="line2d_17">
      <path clip-path="url(#pc59a53d36f)" d="M 25.332188 189.648574 
L 345.482188 189.648574 
" style="fill:none;stroke:#b0b0b0;stroke-linecap:square;stroke-width:0.8;"/>
     </g>
     <g id="line2d_18">
      <g>
       <use style="stroke:#000000;stroke-width:0.8;" x="25.332188" xlink:href="#mdcd5444777" y="189.648574"/>
      </g>
     </g>
     <g id="text_10">
      <!-- 6.0 -->
      <g transform="translate(7.2 192.308028)scale(0.07 -0.07)">
       <use xlink:href="#DejaVuSans-36"/>
       <use x="63.623047" xlink:href="#DejaVuSans-2e"/>
       <use x="95.410156" xlink:href="#DejaVuSans-30"/>
      </g>
     </g>
    </g>
    <g id="ytick_4">
     <g id="line2d_19">
      <path clip-path="url(#pc59a53d36f)" d="M 25.332188 136.463135 
L 345.482188 136.463135 
" style="fill:none;stroke:#b0b0b0;stroke-linecap:square;stroke-width:0.8;"/>
     </g>
     <g id="line2d_20">
      <g>
       <use style="stroke:#000000;stroke-width:0.8;" x="25.332188" xlink:href="#mdcd5444777" y="136.463135"/>
      </g>
     </g>
     <g id="text_11">
      <!-- 6.5 -->
      <g transform="translate(7.2 139.122589)scale(0.07 -0.07)">
       <use xlink:href="#DejaVuSans-36"/>
       <use x="63.623047" xlink:href="#DejaVuSans-2e"/>
       <use x="95.410156" xlink:href="#DejaVuSans-35"/>
      </g>
     </g>
    </g>
    <g id="ytick_5">
     <g id="line2d_21">
      <path clip-path="url(#pc59a53d36f)" d="M 25.332188 83.277696 
L 345.482188 83.277696 
" style="fill:none;stroke:#b0b0b0;stroke-linecap:square;stroke-width:0.8;"/>
     </g>
     <g id="line2d_22">
      <g>
       <use style="stroke:#000000;stroke-width:0.8;" x="25.332188" xlink:href="#mdcd5444777" y="83.277696"/>
      </g>
     </g>
     <g id="text_12">
      <!-- 7.0 -->
      <g transform="translate(7.2 85.93715)scale(0.07 -0.07)">
       <defs>
        <path d="M 525 4666 
L 3525 4666 
L 3525 4397 
L 1831 0 
L 1172 0 
L 2766 4134 
L 525 4134 
L 525 4666 
z
" id="DejaVuSans-37" transform="scale(0.015625)"/>
       </defs>
       <use xlink:href="#DejaVuSans-37"/>
       <use x="63.623047" xlink:href="#DejaVuSans-2e"/>
       <use x="95.410156" xlink:href="#DejaVuSans-30"/>
      </g>
     </g>
    </g>
    <g id="ytick_6">
     <g id="line2d_23">
      <path clip-path="url(#pc59a53d36f)" d="M 25.332188 30.092257 
L 345.482188 30.092257 
" style="fill:none;stroke:#b0b0b0;stroke-linecap:square;stroke-width:0.8;"/>
     </g>
     <g id="line2d_24">
      <g>
       <use style="stroke:#000000;stroke-width:0.8;" x="25.332188" xlink:href="#mdcd5444777" y="30.092257"/>
      </g>
     </g>
     <g id="text_13">
      <!-- 7.5 -->
      <g transform="translate(7.2 32.751711)scale(0.07 -0.07)">
       <use xlink:href="#DejaVuSans-37"/>
       <use x="63.623047" xlink:href="#DejaVuSans-2e"/>
       <use x="95.410156" xlink:href="#DejaVuSans-35"/>
      </g>
     </g>
    </g>
    <g id="text_14">
     <!-- 1e6 -->
     <g transform="translate(25.332188 12.518906)scale(0.07 -0.07)">
      <use xlink:href="#DejaVuSans-31"/>
      <use x="63.623047" xlink:href="#DejaVuSans-65"/>
      <use x="125.146484" xlink:href="#DejaVuSans-36"/>
     </g>
    </g>
   </g>
   <g id="line2d_25">
    <path clip-path="url(#pc59a53d36f)" d="M 228.317735 54.697927 
L 227.384897 53.799326 
L 227.384897 52.900724 
L 226.452059 52.002123 
L 226.452059 51.103522 
L 226.452059 50.20492 
L 226.452059 49.306319 
L 226.452059 48.407717 
L 226.452059 47.509116 
L 226.452059 46.610515 
L 226.452059 45.711913 
L 226.452059 44.813312 
L 226.452059 43.91471 
L 226.452059 43.016109 
L 227.384897 42.117508 
L 228.317735 41.218906 
L 229.250573 40.320305 
L 229.250573 39.421703 
L 229.250573 38.523102 
L 229.250573 37.624501 
L 229.250573 36.725899 
L 228.317735 35.827298 
L 228.317735 34.928696 
L 227.384897 34.030095 
L 227.384897 33.131494 
L 227.384897 32.232892 
L 226.452059 31.334291 
L 226.452059 30.435689 
L 226.452059 29.537088 
" style="fill:none;stroke:#1f77b4;stroke-linecap:square;stroke-width:3;"/>
   </g>
   <g id="line2d_26">
    <path clip-path="url(#pc59a53d36f)" d="M 228.317735 54.697927 
L 228.317735 53.799326 
L 228.317735 52.900724 
L 228.317735 52.002123 
L 229.250573 51.103522 
L 230.183411 50.20492 
L 231.116249 49.306319 
L 232.049087 48.407717 
L 232.981925 47.509116 
L 233.914763 46.610515 
L 233.914763 45.711913 
L 234.847601 44.813312 
L 234.847601 43.91471 
L 235.780439 43.016109 
L 235.780439 42.117508 
L 236.713277 41.218906 
L 237.646115 40.320305 
L 238.578953 39.421703 
L 239.511791 38.523102 
L 240.444629 37.624501 
L 241.377467 36.725899 
L 242.310305 35.827298 
L 243.243143 34.928696 
" style="fill:none;stroke:#ff7f0e;stroke-linecap:square;stroke-width:3;"/>
   </g>
   <g id="line2d_27">
    <path clip-path="url(#pc59a53d36f)" d="M 243.243143 65.481144 
L 242.310305 64.582543 
L 241.377467 64.582543 
L 240.444629 64.582543 
L 239.511791 63.683941 
L 238.578953 63.683941 
L 237.646115 62.78534 
L 236.713277 61.886738 
L 235.780439 61.886738 
L 234.847601 60.988137 
L 233.914763 60.089536 
L 232.981925 59.190934 
L 232.049087 58.292333 
L 231.116249 57.393731 
L 230.183411 56.49513 
L 229.250573 55.596529 
L 228.317735 54.697927 
" style="fill:none;stroke:#2ca02c;stroke-linecap:square;stroke-width:3;"/>
   </g>
   <g id="line2d_28">
    <path clip-path="url(#pc59a53d36f)" d="M 243.243143 65.481144 
L 242.310305 65.481144 
L 241.377467 65.481144 
L 240.444629 65.481144 
L 239.511791 65.481144 
L 238.578953 66.379745 
L 237.646115 67.278347 
L 236.713277 68.176948 
L 235.780439 69.07555 
L 234.847601 69.974151 
L 233.914763 70.872752 
L 233.914763 71.771354 
L 233.914763 72.669955 
L 233.914763 73.568557 
L 233.914763 74.467158 
L 232.981925 75.365759 
L 232.049087 76.264361 
L 231.116249 77.162962 
L 230.183411 78.061564 
L 230.183411 78.960165 
L 229.250573 79.858766 
L 229.250573 80.757368 
L 229.250573 81.655969 
L 229.250573 82.554571 
L 229.250573 83.453172 
L 229.250573 84.351773 
L 229.250573 85.250375 
L 229.250573 86.148976 
L 228.317735 87.047578 
" style="fill:none;stroke:#d62728;stroke-linecap:square;stroke-width:3;"/>
   </g>
   <g id="line2d_29">
    <path clip-path="url(#pc59a53d36f)" d="M 314.138831 82.554571 
L 313.205993 81.655969 
L 312.273155 81.655969 
L 311.340317 80.757368 
L 310.407479 80.757368 
L 309.474641 79.858766 
L 308.541803 79.858766 
L 307.608965 79.858766 
L 306.676127 79.858766 
L 305.743289 78.960165 
L 304.810451 78.061564 
L 303.877613 78.061564 
L 302.944775 78.061564 
L 302.011937 77.162962 
L 301.079099 78.061564 
L 300.146261 77.162962 
L 299.213423 76.264361 
L 298.280585 76.264361 
L 297.347747 76.264361 
L 296.414909 77.162962 
L 295.482071 76.264361 
L 294.549233 76.264361 
L 293.616395 77.162962 
L 292.683557 77.162962 
L 291.750719 77.162962 
L 290.817881 76.264361 
L 289.885043 76.264361 
L 288.952205 76.264361 
L 288.019367 76.264361 
L 287.086529 76.264361 
L 286.153691 75.365759 
L 285.220853 74.467158 
L 284.288015 74.467158 
L 283.355177 73.568557 
L 282.422339 72.669955 
L 281.489501 71.771354 
L 280.556663 70.872752 
L 279.623825 71.771354 
L 278.690987 71.771354 
L 277.758149 70.872752 
L 276.825311 70.872752 
L 275.892473 69.974151 
L 274.959635 69.07555 
L 274.026797 68.176948 
L 273.093959 67.278347 
L 272.161121 66.379745 
L 271.228283 66.379745 
L 270.295445 66.379745 
L 269.362607 66.379745 
L 268.429769 66.379745 
L 267.496931 66.379745 
L 266.564093 66.379745 
L 265.631255 66.379745 
L 264.698417 66.379745 
L 263.765579 66.379745 
L 262.832741 66.379745 
L 261.899903 66.379745 
L 260.967065 67.278347 
L 260.034227 68.176948 
L 259.101389 68.176948 
L 258.168551 68.176948 
L 257.235713 68.176948 
L 256.302875 68.176948 
L 255.370037 68.176948 
L 254.437199 68.176948 
L 253.504361 68.176948 
L 252.571523 68.176948 
L 251.638685 67.278347 
L 250.705847 67.278347 
L 249.773009 67.278347 
L 248.840171 67.278347 
L 247.907333 67.278347 
L 246.974495 66.379745 
L 246.041657 66.379745 
L 245.108819 66.379745 
L 244.175981 65.481144 
L 243.243143 65.481144 
" style="fill:none;stroke:#9467bd;stroke-linecap:square;stroke-width:3;"/>
   </g>
   <g id="line2d_30">
    <path clip-path="url(#pc59a53d36f)" d="M 330.929915 65.481144 
L 329.997077 65.481144 
L 329.064239 65.481144 
L 330.929915 65.481144 
L 328.131401 66.379745 
L 328.131401 67.278347 
L 328.131401 68.176948 
L 328.131401 69.07555 
L 327.198563 69.07555 
L 326.265725 69.07555 
L 325.332887 69.974151 
L 325.332887 70.872752 
L 325.332887 71.771354 
L 324.400049 72.669955 
L 323.467211 72.669955 
L 322.534373 73.568557 
L 322.534373 74.467158 
L 321.601535 75.365759 
L 320.668697 76.264361 
L 319.735859 77.162962 
L 318.803021 78.061564 
L 317.870183 78.960165 
L 316.937345 79.858766 
L 316.004507 80.757368 
L 315.071669 81.655969 
L 314.138831 82.554571 
" style="fill:none;stroke:#8c564b;stroke-linecap:square;stroke-width:3;"/>
   </g>
   <g id="line2d_31">
    <path clip-path="url(#pc59a53d36f)" d="M 212.459489 102.323801 
L 211.526651 101.4252 
L 210.593813 100.526599 
L 209.660975 99.627997 
L 208.728137 98.729396 
L 207.795299 97.830794 
L 206.862461 97.830794 
L 205.929623 97.830794 
L 204.996785 96.932193 
L 204.063947 96.932193 
L 203.131109 96.033592 
L 202.198271 96.033592 
L 201.265433 96.033592 
L 200.332595 96.033592 
L 199.399757 96.033592 
L 198.466919 96.033592 
L 197.534081 95.13499 
L 196.601243 94.236389 
L 195.668405 93.337787 
L 194.735567 92.439186 
L 193.802729 92.439186 
L 192.869891 91.540585 
L 191.937053 90.641983 
L 191.004215 90.641983 
L 190.071377 90.641983 
L 189.138539 89.743382 
L 188.205701 89.743382 
L 187.272863 88.84478 
L 186.340025 87.946179 
L 185.407187 87.047578 
L 184.47435 86.148976 
L 183.541512 85.250375 
L 182.608674 84.351773 
L 181.675836 83.453172 
L 180.742998 82.554571 
L 179.81016 81.655969 
L 178.877322 81.655969 
L 178.877322 80.757368 
L 178.877322 79.858766 
L 177.944484 79.858766 
L 177.011646 78.960165 
L 176.078808 78.960165 
L 175.14597 78.061564 
L 174.213132 78.061564 
L 173.280294 78.061564 
L 172.347456 77.162962 
L 171.414618 77.162962 
L 170.48178 76.264361 
L 169.548942 77.162962 
L 168.616104 76.264361 
L 167.683266 75.365759 
L 166.750428 75.365759 
L 165.81759 75.365759 
L 164.884752 75.365759 
L 163.951914 74.467158 
L 163.019076 74.467158 
L 162.086238 73.568557 
L 161.1534 73.568557 
L 160.220562 73.568557 
L 159.287724 74.467158 
L 158.354886 74.467158 
L 157.422048 74.467158 
L 156.48921 74.467158 
L 155.556372 74.467158 
L 154.623534 73.568557 
L 153.690696 72.669955 
L 152.757858 71.771354 
L 151.82502 70.872752 
" style="fill:none;stroke:#e377c2;stroke-linecap:square;stroke-width:3;"/>
   </g>
   <g id="line2d_32">
    <path clip-path="url(#pc59a53d36f)" d="M 314.138831 82.554571 
L 314.138831 83.453172 
L 314.138831 84.351773 
L 314.138831 85.250375 
L 314.138831 86.148976 
L 314.138831 87.047578 
L 314.138831 87.946179 
L 314.138831 88.84478 
L 314.138831 89.743382 
L 314.138831 90.641983 
L 315.071669 91.540585 
L 316.004507 92.439186 
L 316.937345 93.337787 
L 317.870183 94.236389 
L 318.803021 94.236389 
L 318.803021 95.13499 
L 318.803021 96.033592 
L 318.803021 96.932193 
L 318.803021 97.830794 
L 319.735859 98.729396 
L 319.735859 99.627997 
L 319.735859 100.526599 
L 319.735859 101.4252 
L 320.668697 102.323801 
L 321.601535 103.222403 
L 321.601535 104.121004 
L 321.601535 105.019606 
L 321.601535 105.918207 
" style="fill:none;stroke:#7f7f7f;stroke-linecap:square;stroke-width:3;"/>
   </g>
   <g id="line2d_33">
    <path clip-path="url(#pc59a53d36f)" d="M 228.317735 87.047578 
L 227.384897 87.946179 
L 226.452059 88.84478 
L 225.519221 89.743382 
L 224.586383 90.641983 
L 223.653545 91.540585 
L 222.720707 92.439186 
L 221.787869 93.337787 
L 220.855031 94.236389 
L 219.922193 95.13499 
L 218.989355 96.033592 
L 218.056517 96.932193 
" style="fill:none;stroke:#bcbd22;stroke-linecap:square;stroke-width:3;"/>
   </g>
   <g id="line2d_34">
    <path clip-path="url(#pc59a53d36f)" d="M 228.317735 87.047578 
L 228.317735 87.946179 
L 228.317735 88.84478 
L 228.317735 89.743382 
L 228.317735 90.641983 
L 228.317735 91.540585 
L 228.317735 92.439186 
L 228.317735 93.337787 
L 228.317735 94.236389 
L 228.317735 95.13499 
L 229.250573 96.033592 
L 229.250573 96.932193 
L 230.183411 97.830794 
L 230.183411 98.729396 
L 230.183411 99.627997 
L 231.116249 100.526599 
L 231.116249 101.4252 
L 231.116249 102.323801 
L 231.116249 103.222403 
L 231.116249 104.121004 
L 231.116249 105.019606 
L 231.116249 105.918207 
L 231.116249 106.816808 
L 231.116249 107.71541 
L 231.116249 108.614011 
L 232.049087 109.512613 
L 232.981925 110.411214 
L 233.914763 111.309815 
L 233.914763 112.208417 
L 234.847601 113.107018 
L 235.780439 114.00562 
L 235.780439 114.904221 
L 236.713277 115.802822 
L 237.646115 116.701424 
L 238.578953 117.600025 
L 239.511791 118.498627 
L 240.444629 119.397228 
L 241.377467 120.295829 
L 242.310305 121.194431 
L 243.243143 122.093032 
L 244.175981 122.991634 
L 245.108819 123.890235 
L 245.108819 124.788836 
L 246.041657 125.687438 
L 246.974495 126.586039 
L 247.907333 127.484641 
L 248.840171 128.383242 
L 249.773009 129.281843 
L 250.705847 130.180445 
L 250.705847 131.079046 
L 251.638685 131.977648 
L 252.571523 132.876249 
" style="fill:none;stroke:#17becf;stroke-linecap:square;stroke-width:3;"/>
   </g>
   <g id="line2d_35">
    <path clip-path="url(#pc59a53d36f)" d="M 228.317735 87.047578 
L 229.250573 87.946179 
L 230.183411 88.84478 
L 231.116249 89.743382 
L 232.049087 90.641983 
L 232.049087 91.540585 
L 232.981925 92.439186 
L 232.981925 93.337787 
L 233.914763 94.236389 
L 234.847601 95.13499 
L 235.780439 96.033592 
L 236.713277 96.932193 
L 237.646115 97.830794 
L 238.578953 98.729396 
" style="fill:none;stroke:#1f77b4;stroke-linecap:square;stroke-width:3;"/>
   </g>
   <g id="line2d_36">
    <path clip-path="url(#pc59a53d36f)" d="M 216.190841 98.729396 
L 215.258003 97.830794 
L 214.325165 96.932193 
L 213.392327 96.033592 
L 212.459489 95.13499 
L 211.526651 94.236389 
L 210.593813 93.337787 
L 209.660975 92.439186 
L 208.728137 91.540585 
L 207.795299 90.641983 
L 206.862461 89.743382 
" style="fill:none;stroke:#ff7f0e;stroke-linecap:square;stroke-width:3;"/>
   </g>
   <g id="line2d_37">
    <path clip-path="url(#pc59a53d36f)" d="M 218.056517 96.932193 
L 217.123679 97.830794 
L 216.190841 98.729396 
" style="fill:none;stroke:#2ca02c;stroke-linecap:square;stroke-width:3;"/>
   </g>
   <g id="line2d_38">
    <path clip-path="url(#pc59a53d36f)" d="M 218.056517 96.932193 
L 218.056517 97.830794 
L 218.056517 98.729396 
L 218.056517 99.627997 
L 218.056517 100.526599 
L 218.056517 101.4252 
L 218.056517 102.323801 
L 218.056517 103.222403 
L 218.056517 104.121004 
L 218.056517 105.019606 
L 218.056517 105.918207 
L 218.056517 106.816808 
L 218.056517 107.71541 
L 218.056517 108.614011 
L 218.056517 109.512613 
L 218.056517 110.411214 
L 218.056517 111.309815 
L 218.056517 112.208417 
L 218.056517 113.107018 
L 218.056517 114.00562 
L 218.056517 114.904221 
L 218.056517 115.802822 
L 218.056517 116.701424 
L 218.056517 117.600025 
L 218.056517 118.498627 
L 218.056517 119.397228 
L 218.056517 120.295829 
L 218.056517 121.194431 
L 218.989355 122.093032 
L 219.922193 122.991634 
L 220.855031 123.890235 
L 220.855031 124.788836 
L 221.787869 125.687438 
L 222.720707 126.586039 
L 222.720707 127.484641 
L 223.653545 128.383242 
L 224.586383 129.281843 
L 225.519221 130.180445 
L 226.452059 131.079046 
L 227.384897 131.977648 
L 228.317735 132.876249 
L 229.250573 133.77485 
L 230.183411 134.673452 
L 231.116249 135.572053 
L 232.049087 136.470655 
L 232.049087 137.369256 
L 232.981925 138.267857 
L 233.914763 139.166459 
L 234.847601 140.06506 
L 235.780439 140.963661 
L 236.713277 141.862263 
L 237.646115 142.760864 
L 237.646115 143.659466 
L 238.578953 144.558067 
L 239.511791 145.456668 
L 239.511791 146.35527 
L 240.444629 147.253871 
L 241.377467 148.152473 
L 241.377467 149.051074 
L 242.310305 149.949675 
L 243.243143 150.848277 
L 243.243143 151.746878 
L 244.175981 152.64548 
L 245.108819 153.544081 
L 246.041657 154.442682 
L 246.974495 155.341284 
L 246.974495 156.239885 
L 246.974495 157.138487 
L 246.974495 158.037088 
L 246.041657 158.935689 
L 245.108819 159.834291 
L 245.108819 160.732892 
L 246.041657 161.631494 
L 246.041657 162.530095 
L 246.041657 163.428696 
L 246.041657 164.327298 
L 246.041657 165.225899 
L 246.041657 166.124501 
L 246.041657 167.023102 
L 246.041657 167.921703 
L 246.041657 168.820305 
L 246.041657 169.718906 
L 246.041657 170.617508 
L 246.974495 171.516109 
L 246.974495 172.41471 
L 246.974495 173.313312 
L 246.974495 174.211913 
L 246.974495 175.110515 
L 246.974495 176.009116 
L 246.974495 176.907717 
L 247.907333 177.806319 
L 248.840171 178.70492 
L 248.840171 179.603522 
L 249.773009 180.502123 
L 250.705847 181.400724 
L 251.638685 182.299326 
L 251.638685 183.197927 
L 252.571523 184.096529 
L 253.504361 184.99513 
L 254.437199 185.893731 
L 254.437199 186.792333 
L 254.437199 187.690934 
L 255.370037 188.589536 
L 255.370037 189.488137 
L 255.370037 190.386738 
L 255.370037 191.28534 
L 255.370037 192.183941 
L 256.302875 193.082543 
L 256.302875 193.981144 
" style="fill:none;stroke:#d62728;stroke-linecap:square;stroke-width:3;"/>
   </g>
   <g id="line2d_39">
    <path clip-path="url(#pc59a53d36f)" d="M 216.190841 98.729396 
L 215.258003 99.627997 
L 214.325165 100.526599 
L 213.392327 101.4252 
L 212.459489 102.323801 
" style="fill:none;stroke:#9467bd;stroke-linecap:square;stroke-width:3;"/>
   </g>
   <g id="line2d_40">
    <path clip-path="url(#pc59a53d36f)" d="M 216.190841 98.729396 
L 216.190841 99.627997 
L 216.190841 100.526599 
L 216.190841 101.4252 
L 216.190841 102.323801 
L 216.190841 103.222403 
L 216.190841 104.121004 
L 216.190841 105.019606 
L 216.190841 105.918207 
L 216.190841 106.816808 
L 216.190841 107.71541 
L 216.190841 108.614011 
L 216.190841 109.512613 
L 216.190841 110.411214 
L 216.190841 111.309815 
L 216.190841 112.208417 
L 216.190841 113.107018 
L 216.190841 114.00562 
L 216.190841 114.904221 
L 216.190841 115.802822 
L 216.190841 116.701424 
L 216.190841 117.600025 
L 216.190841 118.498627 
L 216.190841 119.397228 
L 216.190841 120.295829 
L 216.190841 121.194431 
L 216.190841 122.093032 
L 216.190841 122.991634 
L 217.123679 123.890235 
L 218.056517 124.788836 
L 218.989355 125.687438 
L 218.989355 126.586039 
L 219.922193 127.484641 
L 220.855031 128.383242 
L 220.855031 129.281843 
L 221.787869 130.180445 
L 222.720707 131.079046 
L 222.720707 131.977648 
L 223.653545 132.876249 
L 223.653545 133.77485 
L 223.653545 134.673452 
L 223.653545 135.572053 
L 224.586383 136.470655 
" style="fill:none;stroke:#8c564b;stroke-linecap:square;stroke-width:3;"/>
   </g>
   <g id="line2d_41">
    <path clip-path="url(#pc59a53d36f)" d="M 212.459489 102.323801 
L 211.526651 103.222403 
L 210.593813 104.121004 
L 209.660975 105.019606 
L 208.728137 105.918207 
L 207.795299 106.816808 
L 206.862461 107.71541 
L 205.929623 108.614011 
L 204.996785 109.512613 
L 204.063947 110.411214 
L 203.131109 111.309815 
L 202.198271 112.208417 
L 201.265433 113.107018 
L 200.332595 114.00562 
L 199.399757 114.904221 
L 198.466919 115.802822 
L 197.534081 116.701424 
L 196.601243 117.600025 
L 195.668405 118.498627 
L 194.735567 119.397228 
" style="fill:none;stroke:#e377c2;stroke-linecap:square;stroke-width:3;"/>
   </g>
   <g id="line2d_42">
    <path clip-path="url(#pc59a53d36f)" d="M 194.735567 119.397228 
L 193.802729 120.295829 
L 192.869891 120.295829 
L 191.937053 120.295829 
L 191.004215 121.194431 
L 190.071377 121.194431 
L 189.138539 121.194431 
L 188.205701 120.295829 
L 187.272863 120.295829 
L 186.340025 119.397228 
L 185.407187 118.498627 
L 184.47435 117.600025 
L 183.541512 117.600025 
L 182.608674 118.498627 
L 181.675836 118.498627 
L 180.742998 118.498627 
L 179.81016 118.498627 
L 178.877322 118.498627 
L 177.944484 118.498627 
L 177.011646 118.498627 
L 176.078808 118.498627 
L 175.14597 119.397228 
L 174.213132 119.397228 
L 173.280294 119.397228 
L 172.347456 119.397228 
L 171.414618 119.397228 
L 170.48178 119.397228 
L 169.548942 119.397228 
L 168.616104 119.397228 
L 167.683266 119.397228 
L 166.750428 119.397228 
L 165.81759 120.295829 
L 164.884752 121.194431 
L 163.951914 121.194431 
L 163.019076 121.194431 
" style="fill:none;stroke:#7f7f7f;stroke-linecap:square;stroke-width:3;"/>
   </g>
   <g id="line2d_43">
    <path clip-path="url(#pc59a53d36f)" d="M 194.735567 119.397228 
L 194.735567 121.194431 
L 169.548942 145.456668 
L 169.548942 147.253871 
L 168.616104 148.152473 
L 168.616104 149.949675 
L 165.81759 152.64548 
L 165.81759 154.442682 
L 164.884752 154.442682 
L 160.220562 158.935689 
L 158.354886 158.935689 
L 157.422048 159.834291 
L 156.48921 159.834291 
L 154.623534 161.631494 
L 153.690696 161.631494 
L 152.757858 162.530095 
L 149.959344 162.530095 
L 149.026506 161.631494 
L 148.093668 161.631494 
L 147.16083 162.530095 
L 143.429478 162.530095 
L 142.49664 163.428696 
L 141.563802 163.428696 
L 140.630964 164.327298 
L 138.765288 164.327298 
L 137.83245 165.225899 
L 135.966774 165.225899 
L 131.302584 169.718906 
L 131.302584 171.516109 
L 130.369746 172.41471 
L 129.436908 172.41471 
L 127.571232 174.211913 
L 127.571232 178.70492 
L 125.705556 180.502123 
L 125.705556 181.400724 
L 124.772718 182.299326 
L 125.705556 183.197927 
L 125.705556 188.589536 
L 124.772718 189.488137 
L 124.772718 191.28534 
L 122.907042 193.082543 
L 122.907042 194.879745 
L 124.772718 196.676948 
L 124.772718 199.372752 
L 126.638394 201.169955 
L 126.638394 204.764361 
L 127.571232 205.662962 
L 127.571232 206.561564 
L 125.705556 208.358766 
L 125.705556 210.155969 
L 127.571232 211.953172 
L 127.571232 212.851773 
L 131.302584 216.446179 
L 131.302584 217.34478 
L 132.235422 218.243382 
L 132.235422 225.432193 
L 131.302584 226.330794 
L 131.302584 229.026599 
L 130.369746 229.9252 
L 130.369746 232.621004 
L 126.638394 236.21541 
L 126.638394 237.114011 
L 126.638394 237.114011 
" style="fill:none;stroke:#bcbd22;stroke-linecap:square;stroke-width:3;"/>
   </g>
   <g id="line2d_44">
    <path clip-path="url(#pc59a53d36f)" d="M 93.989064 186.792333 
L 93.056226 185.893731 
L 92.123388 184.99513 
L 91.19055 184.096529 
L 91.19055 183.197927 
L 90.257712 182.299326 
L 90.257712 181.400724 
L 90.257712 180.502123 
L 89.324874 179.603522 
L 88.392036 178.70492 
L 89.324874 177.806319 
L 88.392036 176.907717 
L 89.324874 176.009116 
L 90.257712 176.009116 
L 91.19055 175.110515 
L 92.123388 174.211913 
L 92.123388 173.313312 
L 91.19055 172.41471 
L 91.19055 171.516109 
L 90.257712 170.617508 
L 89.324874 170.617508 
L 88.392036 169.718906 
L 87.459198 169.718906 
L 86.52636 169.718906 
L 85.593522 169.718906 
L 84.660684 169.718906 
L 83.727846 169.718906 
L 82.795008 169.718906 
L 81.86217 168.820305 
L 80.929332 168.820305 
L 79.996494 168.820305 
L 79.063656 169.718906 
L 78.130818 169.718906 
L 77.19798 169.718906 
L 76.265142 169.718906 
L 75.332304 168.820305 
L 74.399466 168.820305 
L 73.466628 168.820305 
L 72.53379 167.921703 
L 71.600952 167.023102 
L 70.668114 167.023102 
L 69.735276 166.124501 
L 68.802438 165.225899 
L 67.8696 164.327298 
L 66.936762 164.327298 
L 66.003924 163.428696 
L 65.071086 162.530095 
L 64.138248 161.631494 
L 64.138248 160.732892 
L 64.138248 159.834291 
L 63.20541 159.834291 
L 62.272572 159.834291 
" style="fill:none;stroke:#17becf;stroke-linecap:square;stroke-width:3;"/>
   </g>
   <g id="line2d_45">
    <path clip-path="url(#pc59a53d36f)" d="M 126.638394 237.114011 
L 125.705556 237.114011 
L 124.772718 237.114011 
L 123.83988 237.114011 
L 122.907042 236.21541 
L 121.974204 235.316808 
L 121.041366 234.418207 
L 120.108528 233.519606 
L 119.17569 232.621004 
L 119.17569 231.722403 
L 118.242852 231.722403 
L 117.310014 230.823801 
L 117.310014 229.9252 
L 117.310014 229.026599 
L 116.377176 228.127997 
L 115.444338 227.229396 
L 115.444338 226.330794 
L 115.444338 225.432193 
L 115.444338 224.533592 
L 114.5115 223.63499 
L 114.5115 222.736389 
L 114.5115 221.837787 
L 114.5115 220.939186 
L 114.5115 220.040585 
L 114.5115 219.141983 
L 113.578662 219.141983 
L 112.645824 218.243382 
L 111.712986 218.243382 
L 110.780148 217.34478 
L 109.84731 216.446179 
L 109.84731 215.547578 
L 108.914472 215.547578 
L 107.981634 214.648976 
L 107.981634 213.750375 
L 107.981634 212.851773 
L 107.981634 211.953172 
L 107.981634 211.054571 
L 108.914472 210.155969 
L 108.914472 209.257368 
L 108.914472 208.358766 
L 108.914472 207.460165 
L 108.914472 206.561564 
L 108.914472 205.662962 
L 108.914472 204.764361 
L 108.914472 203.865759 
L 108.914472 202.967158 
L 107.981634 202.068557 
L 107.048796 201.169955 
L 107.048796 200.271354 
L 107.048796 199.372752 
L 107.048796 198.474151 
L 107.048796 197.57555 
L 107.048796 196.676948 
L 106.115958 195.778347 
L 105.18312 194.879745 
L 105.18312 193.981144 
L 105.18312 193.082543 
L 105.18312 192.183941 
L 105.18312 191.28534 
L 105.18312 190.386738 
L 104.250282 189.488137 
L 103.317444 188.589536 
L 103.317444 187.690934 
L 102.384606 187.690934 
L 101.451768 186.792333 
L 100.51893 185.893731 
L 99.586092 185.893731 
L 98.653254 185.893731 
L 97.720416 185.893731 
L 96.787578 185.893731 
L 95.85474 185.893731 
L 94.921902 185.893731 
L 93.989064 186.792333 
" style="fill:none;stroke:#1f77b4;stroke-linecap:square;stroke-width:3;"/>
   </g>
   <g id="line2d_46">
    <path clip-path="url(#pc59a53d36f)" d="M 93.989064 186.792333 
L 93.056226 186.792333 
L 92.123388 187.690934 
L 91.19055 187.690934 
L 90.257712 187.690934 
L 89.324874 188.589536 
L 88.392036 189.488137 
L 87.459198 189.488137 
L 86.52636 189.488137 
L 85.593522 190.386738 
L 84.660684 190.386738 
L 83.727846 190.386738 
L 82.795008 190.386738 
L 81.86217 191.28534 
L 80.929332 192.183941 
L 79.996494 192.183941 
L 79.063656 192.183941 
L 78.130818 193.082543 
L 77.19798 193.981144 
L 76.265142 193.981144 
L 75.332304 193.082543 
L 74.399466 193.082543 
L 73.466628 193.082543 
L 72.53379 193.082543 
L 71.600952 192.183941 
L 70.668114 192.183941 
L 69.735276 192.183941 
L 68.802438 192.183941 
L 67.8696 192.183941 
L 66.936762 193.082543 
L 66.003924 193.082543 
L 65.071086 193.981144 
L 64.138248 194.879745 
L 63.20541 195.778347 
L 62.272572 194.879745 
L 61.339734 194.879745 
L 60.406896 195.778347 
L 59.474058 195.778347 
L 58.54122 196.676948 
L 57.608382 197.57555 
L 56.675544 198.474151 
L 55.742706 199.372752 
L 55.742706 200.271354 
L 55.742706 201.169955 
L 54.809868 202.068557 
L 54.809868 202.967158 
L 54.809868 203.865759 
L 54.809868 204.764361 
L 54.809868 205.662962 
L 53.87703 206.561564 
L 53.87703 207.460165 
L 52.944192 208.358766 
L 52.011354 209.257368 
L 51.078516 210.155969 
" style="fill:none;stroke:#ff7f0e;stroke-linecap:square;stroke-width:3;"/>
   </g>
   <g id="line2d_47">
    <path clip-path="url(#pc59a53d36f)" d="M 256.302875 193.981144 
L 256.302875 194.879745 
L 256.302875 195.778347 
L 257.235713 196.676948 
L 257.235713 197.57555 
L 256.302875 198.474151 
L 256.302875 199.372752 
L 255.370037 200.271354 
" style="fill:none;stroke:#2ca02c;stroke-linecap:square;stroke-width:3;"/>
   </g>
   <g id="line2d_48">
    <path clip-path="url(#pc59a53d36f)" d="M 256.302875 193.981144 
L 257.235713 194.879745 
L 258.168551 195.778347 
L 259.101389 196.676948 
L 260.034227 196.676948 
L 260.967065 196.676948 
L 261.899903 197.57555 
L 262.832741 198.474151 
" style="fill:none;stroke:#d62728;stroke-linecap:square;stroke-width:3;"/>
   </g>
   <g id="line2d_49">
    <path clip-path="url(#pc59a53d36f)" d="M 255.370037 200.271354 
L 254.437199 201.169955 
L 253.504361 202.068557 
L 252.571523 202.967158 
L 251.638685 202.967158 
" style="fill:none;stroke:#9467bd;stroke-linecap:square;stroke-width:3;"/>
   </g>
   <g id="line2d_50">
    <path clip-path="url(#pc59a53d36f)" d="M 255.370037 200.271354 
L 255.370037 201.169955 
L 255.370037 202.068557 
L 255.370037 202.967158 
L 256.302875 203.865759 
L 257.235713 204.764361 
L 257.235713 205.662962 
L 257.235713 206.561564 
L 258.168551 207.460165 
L 259.101389 208.358766 
L 259.101389 209.257368 
" style="fill:none;stroke:#8c564b;stroke-linecap:square;stroke-width:3;"/>
   </g>
   <g id="line2d_51">
    <path clip-path="url(#pc59a53d36f)" d="M 126.638394 237.114011 
L 126.638394 238.012613 
L 126.638394 238.911214 
L 126.638394 239.809815 
L 126.638394 240.708417 
L 126.638394 241.607018 
L 126.638394 242.50562 
L 126.638394 243.404221 
L 125.705556 244.302822 
L 125.705556 245.201424 
L 125.705556 246.100025 
L 125.705556 246.998627 
L 126.638394 247.897228 
L 127.571232 248.795829 
L 127.571232 249.694431 
L 127.571232 250.593032 
L 127.571232 251.491634 
L 127.571232 252.390235 
L 126.638394 253.288836 
L 126.638394 254.187438 
L 126.638394 255.086039 
L 126.638394 255.984641 
L 127.571232 256.883242 
L 127.571232 257.781843 
L 127.571232 258.680445 
L 126.638394 259.579046 
L 127.571232 260.477648 
L 127.571232 261.376249 
L 128.50407 262.27485 
L 128.50407 263.173452 
L 128.50407 264.072053 
L 128.50407 264.970655 
L 128.50407 265.869256 
L 128.50407 266.767857 
L 128.50407 267.666459 
L 128.50407 268.56506 
L 128.50407 269.463661 
L 128.50407 270.362263 
L 128.50407 271.260864 
L 128.50407 272.159466 
L 128.50407 273.058067 
L 127.571232 273.956668 
" style="fill:none;stroke:#e377c2;stroke-linecap:square;stroke-width:3;"/>
   </g>
   <g id="line2d_52">
    <path clip-path="url(#pc59a53d36f)" d="M 70.668114 256.883242 
L 69.735276 256.883242 
L 68.802438 255.984641 
L 68.802438 255.086039 
L 67.8696 255.086039 
L 66.936762 255.086039 
L 66.003924 254.187438 
L 65.071086 253.288836 
L 64.138248 252.390235 
L 63.20541 252.390235 
L 62.272572 252.390235 
L 61.339734 253.288836 
L 60.406896 254.187438 
L 59.474058 254.187438 
L 58.54122 253.288836 
L 57.608382 253.288836 
L 56.675544 253.288836 
L 55.742706 253.288836 
L 54.809868 253.288836 
L 53.87703 253.288836 
L 52.944192 252.390235 
L 52.011354 251.491634 
L 51.078516 251.491634 
L 50.145678 250.593032 
L 49.21284 250.593032 
L 48.280002 250.593032 
L 47.347164 249.694431 
L 47.347164 248.795829 
L 47.347164 247.897228 
L 47.347164 246.998627 
L 46.414326 246.998627 
L 45.481488 246.100025 
L 44.54865 245.201424 
L 43.615812 245.201424 
L 42.682974 246.100025 
L 41.750136 246.998627 
L 40.817298 246.998627 
L 39.88446 247.897228 
" style="fill:none;stroke:#7f7f7f;stroke-linecap:square;stroke-width:3;"/>
   </g>
   <g id="line2d_53">
    <path clip-path="url(#pc59a53d36f)" d="M 127.571232 273.956668 
L 126.638394 273.956668 
L 125.705556 274.85527 
L 124.772718 274.85527 
L 123.83988 274.85527 
L 122.907042 274.85527 
L 121.974204 273.956668 
L 121.041366 274.85527 
L 120.108528 274.85527 
L 119.17569 274.85527 
L 118.242852 274.85527 
L 117.310014 273.956668 
L 117.310014 273.058067 
L 117.310014 272.159466 
L 116.377176 272.159466 
L 115.444338 273.058067 
L 114.5115 273.058067 
L 113.578662 273.058067 
L 112.645824 272.159466 
L 111.712986 272.159466 
L 110.780148 271.260864 
L 109.84731 271.260864 
L 108.914472 271.260864 
L 107.981634 271.260864 
L 107.048796 271.260864 
L 106.115958 272.159466 
L 105.18312 273.058067 
L 104.250282 273.058067 
L 103.317444 273.956668 
L 102.384606 274.85527 
L 101.451768 275.753871 
L 100.51893 275.753871 
L 99.586092 275.753871 
L 98.653254 275.753871 
L 97.720416 274.85527 
L 96.787578 273.956668 
L 95.85474 273.058067 
L 94.921902 273.058067 
L 93.989064 272.159466 
L 93.056226 271.260864 
L 92.123388 270.362263 
L 92.123388 269.463661 
L 92.123388 268.56506 
L 93.056226 267.666459 
L 93.056226 266.767857 
L 93.056226 265.869256 
L 93.056226 264.970655 
L 93.056226 264.072053 
L 92.123388 263.173452 
L 91.19055 263.173452 
L 90.257712 263.173452 
L 89.324874 264.072053 
L 88.392036 264.072053 
L 87.459198 263.173452 
L 86.52636 263.173452 
L 85.593522 262.27485 
L 84.660684 262.27485 
L 83.727846 261.376249 
L 83.727846 260.477648 
L 82.795008 260.477648 
L 81.86217 259.579046 
L 80.929332 259.579046 
L 80.929332 258.680445 
L 80.929332 257.781843 
L 79.996494 256.883242 
L 79.063656 255.984641 
L 78.130818 255.086039 
L 77.19798 255.086039 
L 76.265142 255.984641 
L 75.332304 255.984641 
L 74.399466 255.984641 
L 73.466628 255.984641 
L 72.53379 255.984641 
L 71.600952 255.984641 
L 70.668114 256.883242 
" style="fill:none;stroke:#bcbd22;stroke-linecap:square;stroke-width:3;"/>
   </g>
   <g id="line2d_54">
    <path clip-path="url(#pc59a53d36f)" d="M 70.668114 256.883242 
L 69.735276 257.781843 
L 68.802438 257.781843 
L 67.8696 258.680445 
L 66.936762 259.579046 
L 66.936762 260.477648 
L 66.936762 261.376249 
L 66.936762 262.27485 
L 66.003924 263.173452 
L 65.071086 264.072053 
L 64.138248 264.072053 
L 63.20541 264.970655 
L 62.272572 265.869256 
L 61.339734 266.767857 
L 60.406896 267.666459 
L 59.474058 266.767857 
L 58.54122 266.767857 
L 57.608382 266.767857 
L 56.675544 267.666459 
L 56.675544 268.56506 
L 55.742706 269.463661 
L 54.809868 270.362263 
L 53.87703 271.260864 
L 52.944192 271.260864 
L 52.011354 272.159466 
L 52.011354 273.058067 
L 51.078516 273.058067 
L 50.145678 273.058067 
L 49.21284 273.956668 
L 48.280002 273.956668 
" style="fill:none;stroke:#17becf;stroke-linecap:square;stroke-width:3;"/>
   </g>
   <g id="line2d_55">
    <path clip-path="url(#pc59a53d36f)" d="M 127.571232 273.956668 
L 127.571232 274.85527 
L 128.50407 275.753871 
L 128.50407 276.652473 
L 127.571232 277.551074 
L 127.571232 278.449675 
L 128.50407 279.348277 
L 128.50407 280.246878 
L 127.571232 281.14548 
L 126.638394 281.14548 
L 125.705556 282.044081 
L 124.772718 282.044081 
L 123.83988 282.044081 
L 122.907042 282.942682 
L 122.907042 283.841284 
L 121.974204 284.739885 
L 121.041366 284.739885 
L 120.108528 285.638487 
L 119.17569 286.537088 
L 118.242852 286.537088 
L 117.310014 286.537088 
L 116.377176 287.435689 
L 115.444338 288.334291 
L 115.444338 289.232892 
L 114.5115 289.232892 
L 113.578662 290.131494 
L 112.645824 291.030095 
L 112.645824 291.928696 
L 112.645824 292.827298 
L 112.645824 293.725899 
L 112.645824 294.624501 
L 112.645824 295.523102 
L 113.578662 296.421703 
L 113.578662 297.320305 
L 113.578662 298.218906 
L 113.578662 299.117508 
L 114.5115 300.016109 
L 113.578662 300.91471 
L 113.578662 301.813312 
L 113.578662 302.711913 
L 113.578662 303.610515 
L 113.578662 304.509116 
L 113.578662 305.407717 
L 113.578662 306.306319 
L 112.645824 307.20492 
L 112.645824 308.103522 
L 112.645824 309.002123 
L 111.712986 309.900724 
L 110.780148 309.900724 
L 109.84731 309.900724 
L 108.914472 309.002123 
L 107.981634 308.103522 
L 107.048796 308.103522 
L 106.115958 307.20492 
L 105.18312 306.306319 
L 104.250282 306.306319 
L 103.317444 306.306319 
L 102.384606 305.407717 
L 101.451768 305.407717 
L 100.51893 305.407717 
" style="fill:none;stroke:#1f77b4;stroke-linecap:square;stroke-width:3;"/>
   </g>
   <g id="patch_3">
    <path d="M 25.332188 323.918906 
L 25.332188 15.518906 
" style="fill:none;stroke:#000000;stroke-linecap:square;stroke-linejoin:miter;stroke-width:0.8;"/>
   </g>
   <g id="patch_4">
    <path d="M 345.482188 323.918906 
L 345.482188 15.518906 
" style="fill:none;stroke:#000000;stroke-linecap:square;stroke-linejoin:miter;stroke-width:0.8;"/>
   </g>
   <g id="patch_5">
    <path d="M 25.332188 323.918906 
L 345.482187 323.918906 
" style="fill:none;stroke:#000000;stroke-linecap:square;stroke-linejoin:miter;stroke-width:0.8;"/>
   </g>
   <g id="patch_6">
    <path d="M 25.332188 15.518906 
L 345.482187 15.518906 
" style="fill:none;stroke:#000000;stroke-linecap:square;stroke-linejoin:miter;stroke-width:0.8;"/>
   </g>
  </g>
 </g>
 <defs>
  <clipPath id="pc59a53d36f">
   <rect height="308.4" width="320.15" x="25.332188" y="15.518906"/>
  </clipPath>
 </defs>
</svg>
