<?xml version="1.0" encoding="utf-8" standalone="no"?>
<!DOCTYPE svg PUBLIC "-//W3C//DTD SVG 1.1//EN"
  "http://www.w3.org/Graphics/SVG/1.1/DTD/svg11.dtd">
<svg height="282.349375pt" version="1.1" viewBox="0 0 568.66125 282.349375" width="568.66125pt" xmlns="http://www.w3.org/2000/svg" xmlns:xlink="http://www.w3.org/1999/xlink">
 <metadata>
  <rdf:RDF xmlns:cc="http://creativecommons.org/ns#" xmlns:dc="http://purl.org/dc/elements/1.1/" xmlns:rdf="http://www.w3.org/1999/02/22-rdf-syntax-ns#">
   <cc:Work>
    <dc:type rdf:resource="http://purl.org/dc/dcmitype/StillImage"/>
    <dc:date>2021-04-08T07:55:59.311969</dc:date>
    <dc:format>image/svg+xml</dc:format>
    <dc:creator>
     <cc:Agent>
      <dc:title>Matplotlib v3.4.1, https://matplotlib.org/</dc:title>
     </cc:Agent>
    </dc:creator>
   </cc:Work>
  </rdf:RDF>
 </metadata>
 <defs>
  <style type="text/css">*{stroke-linecap:butt;stroke-linejoin:round;}</style>
 </defs>
 <g id="figure_1">
  <g id="patch_1">
   <path d="M 0 282.349375 
L 568.66125 282.349375 
L 568.66125 0 
L 0 0 
z
" style="fill:none;"/>
  </g>
  <g id="axes_1">
   <g id="patch_2">
    <path d="M 27.56125 251.6 
L 561.46125 251.6 
L 561.46125 7.2 
L 27.56125 7.2 
z
" style="fill:#ffffff;"/>
   </g>
   <g id="matplotlib.axis_1">
    <g id="xtick_1">
     <g id="line2d_1">
      <path clip-path="url(#p5ca2934760)" d="M 51.829432 251.6 
L 51.829432 7.2 
" style="fill:none;stroke:#b0b0b0;stroke-linecap:square;stroke-width:0.8;"/>
     </g>
     <g id="line2d_2">
      <defs>
       <path d="M 0 0 
L 0 3.5 
" id="maba4099070" style="stroke:#000000;stroke-width:0.8;"/>
      </defs>
      <g>
       <use style="stroke:#000000;stroke-width:0.8;" x="51.829432" xlink:href="#maba4099070" y="251.6"/>
      </g>
     </g>
     <g id="text_1">
      <!-- 0.0 -->
      <g transform="translate(46.263338 263.918906)scale(0.07 -0.07)">
       <defs>
        <path d="M 2034 4250 
Q 1547 4250 1301 3770 
Q 1056 3291 1056 2328 
Q 1056 1369 1301 889 
Q 1547 409 2034 409 
Q 2525 409 2770 889 
Q 3016 1369 3016 2328 
Q 3016 3291 2770 3770 
Q 2525 4250 2034 4250 
z
M 2034 4750 
Q 2819 4750 3233 4129 
Q 3647 3509 3647 2328 
Q 3647 1150 3233 529 
Q 2819 -91 2034 -91 
Q 1250 -91 836 529 
Q 422 1150 422 2328 
Q 422 3509 836 4129 
Q 1250 4750 2034 4750 
z
" id="DejaVuSans-30" transform="scale(0.015625)"/>
        <path d="M 684 794 
L 1344 794 
L 1344 0 
L 684 0 
L 684 794 
z
" id="DejaVuSans-2e" transform="scale(0.015625)"/>
       </defs>
       <use xlink:href="#DejaVuSans-30"/>
       <use x="63.623047" xlink:href="#DejaVuSans-2e"/>
       <use x="95.410156" xlink:href="#DejaVuSans-30"/>
      </g>
     </g>
    </g>
    <g id="xtick_2">
     <g id="line2d_3">
      <path clip-path="url(#p5ca2934760)" d="M 167.219895 251.6 
L 167.219895 7.2 
" style="fill:none;stroke:#b0b0b0;stroke-linecap:square;stroke-width:0.8;"/>
     </g>
     <g id="line2d_4">
      <g>
       <use style="stroke:#000000;stroke-width:0.8;" x="167.219895" xlink:href="#maba4099070" y="251.6"/>
      </g>
     </g>
     <g id="text_2">
      <!-- 0.5 -->
      <g transform="translate(161.653802 263.918906)scale(0.07 -0.07)">
       <defs>
        <path d="M 691 4666 
L 3169 4666 
L 3169 4134 
L 1269 4134 
L 1269 2991 
Q 1406 3038 1543 3061 
Q 1681 3084 1819 3084 
Q 2600 3084 3056 2656 
Q 3513 2228 3513 1497 
Q 3513 744 3044 326 
Q 2575 -91 1722 -91 
Q 1428 -91 1123 -41 
Q 819 9 494 109 
L 494 744 
Q 775 591 1075 516 
Q 1375 441 1709 441 
Q 2250 441 2565 725 
Q 2881 1009 2881 1497 
Q 2881 1984 2565 2268 
Q 2250 2553 1709 2553 
Q 1456 2553 1204 2497 
Q 953 2441 691 2322 
L 691 4666 
z
" id="DejaVuSans-35" transform="scale(0.015625)"/>
       </defs>
       <use xlink:href="#DejaVuSans-30"/>
       <use x="63.623047" xlink:href="#DejaVuSans-2e"/>
       <use x="95.410156" xlink:href="#DejaVuSans-35"/>
      </g>
     </g>
    </g>
    <g id="xtick_3">
     <g id="line2d_5">
      <path clip-path="url(#p5ca2934760)" d="M 282.610359 251.6 
L 282.610359 7.2 
" style="fill:none;stroke:#b0b0b0;stroke-linecap:square;stroke-width:0.8;"/>
     </g>
     <g id="line2d_6">
      <g>
       <use style="stroke:#000000;stroke-width:0.8;" x="282.610359" xlink:href="#maba4099070" y="251.6"/>
      </g>
     </g>
     <g id="text_3">
      <!-- 1.0 -->
      <g transform="translate(277.044265 263.918906)scale(0.07 -0.07)">
       <defs>
        <path d="M 794 531 
L 1825 531 
L 1825 4091 
L 703 3866 
L 703 4441 
L 1819 4666 
L 2450 4666 
L 2450 531 
L 3481 531 
L 3481 0 
L 794 0 
L 794 531 
z
" id="DejaVuSans-31" transform="scale(0.015625)"/>
       </defs>
       <use xlink:href="#DejaVuSans-31"/>
       <use x="63.623047" xlink:href="#DejaVuSans-2e"/>
       <use x="95.410156" xlink:href="#DejaVuSans-30"/>
      </g>
     </g>
    </g>
    <g id="xtick_4">
     <g id="line2d_7">
      <path clip-path="url(#p5ca2934760)" d="M 398.000822 251.6 
L 398.000822 7.2 
" style="fill:none;stroke:#b0b0b0;stroke-linecap:square;stroke-width:0.8;"/>
     </g>
     <g id="line2d_8">
      <g>
       <use style="stroke:#000000;stroke-width:0.8;" x="398.000822" xlink:href="#maba4099070" y="251.6"/>
      </g>
     </g>
     <g id="text_4">
      <!-- 1.5 -->
      <g transform="translate(392.434729 263.918906)scale(0.07 -0.07)">
       <use xlink:href="#DejaVuSans-31"/>
       <use x="63.623047" xlink:href="#DejaVuSans-2e"/>
       <use x="95.410156" xlink:href="#DejaVuSans-35"/>
      </g>
     </g>
    </g>
    <g id="xtick_5">
     <g id="line2d_9">
      <path clip-path="url(#p5ca2934760)" d="M 513.391286 251.6 
L 513.391286 7.2 
" style="fill:none;stroke:#b0b0b0;stroke-linecap:square;stroke-width:0.8;"/>
     </g>
     <g id="line2d_10">
      <g>
       <use style="stroke:#000000;stroke-width:0.8;" x="513.391286" xlink:href="#maba4099070" y="251.6"/>
      </g>
     </g>
     <g id="text_5">
      <!-- 2.0 -->
      <g transform="translate(507.825192 263.918906)scale(0.07 -0.07)">
       <defs>
        <path d="M 1228 531 
L 3431 531 
L 3431 0 
L 469 0 
L 469 531 
Q 828 903 1448 1529 
Q 2069 2156 2228 2338 
Q 2531 2678 2651 2914 
Q 2772 3150 2772 3378 
Q 2772 3750 2511 3984 
Q 2250 4219 1831 4219 
Q 1534 4219 1204 4116 
Q 875 4013 500 3803 
L 500 4441 
Q 881 4594 1212 4672 
Q 1544 4750 1819 4750 
Q 2544 4750 2975 4387 
Q 3406 4025 3406 3419 
Q 3406 3131 3298 2873 
Q 3191 2616 2906 2266 
Q 2828 2175 2409 1742 
Q 1991 1309 1228 531 
z
" id="DejaVuSans-32" transform="scale(0.015625)"/>
       </defs>
       <use xlink:href="#DejaVuSans-32"/>
       <use x="63.623047" xlink:href="#DejaVuSans-2e"/>
       <use x="95.410156" xlink:href="#DejaVuSans-30"/>
      </g>
     </g>
    </g>
    <g id="text_6">
     <!-- 1e6 -->
     <g transform="translate(548.246562 273.693594)scale(0.07 -0.07)">
      <defs>
       <path d="M 3597 1894 
L 3597 1613 
L 953 1613 
Q 991 1019 1311 708 
Q 1631 397 2203 397 
Q 2534 397 2845 478 
Q 3156 559 3463 722 
L 3463 178 
Q 3153 47 2828 -22 
Q 2503 -91 2169 -91 
Q 1331 -91 842 396 
Q 353 884 353 1716 
Q 353 2575 817 3079 
Q 1281 3584 2069 3584 
Q 2775 3584 3186 3129 
Q 3597 2675 3597 1894 
z
M 3022 2063 
Q 3016 2534 2758 2815 
Q 2500 3097 2075 3097 
Q 1594 3097 1305 2825 
Q 1016 2553 972 2059 
L 3022 2063 
z
" id="DejaVuSans-65" transform="scale(0.015625)"/>
       <path d="M 2113 2584 
Q 1688 2584 1439 2293 
Q 1191 2003 1191 1497 
Q 1191 994 1439 701 
Q 1688 409 2113 409 
Q 2538 409 2786 701 
Q 3034 994 3034 1497 
Q 3034 2003 2786 2293 
Q 2538 2584 2113 2584 
z
M 3366 4563 
L 3366 3988 
Q 3128 4100 2886 4159 
Q 2644 4219 2406 4219 
Q 1781 4219 1451 3797 
Q 1122 3375 1075 2522 
Q 1259 2794 1537 2939 
Q 1816 3084 2150 3084 
Q 2853 3084 3261 2657 
Q 3669 2231 3669 1497 
Q 3669 778 3244 343 
Q 2819 -91 2113 -91 
Q 1303 -91 875 529 
Q 447 1150 447 2328 
Q 447 3434 972 4092 
Q 1497 4750 2381 4750 
Q 2619 4750 2861 4703 
Q 3103 4656 3366 4563 
z
" id="DejaVuSans-36" transform="scale(0.015625)"/>
      </defs>
      <use xlink:href="#DejaVuSans-31"/>
      <use x="63.623047" xlink:href="#DejaVuSans-65"/>
      <use x="125.146484" xlink:href="#DejaVuSans-36"/>
     </g>
    </g>
   </g>
   <g id="matplotlib.axis_2">
    <g id="ytick_1">
     <g id="line2d_11">
      <path clip-path="url(#p5ca2934760)" d="M 27.56125 240.490634 
L 561.46125 240.490634 
" style="fill:none;stroke:#b0b0b0;stroke-linecap:square;stroke-width:0.8;"/>
     </g>
     <g id="line2d_12">
      <defs>
       <path d="M 0 0 
L -3.5 0 
" id="mec84566923" style="stroke:#000000;stroke-width:0.8;"/>
      </defs>
      <g>
       <use style="stroke:#000000;stroke-width:0.8;" x="27.56125" xlink:href="#mec84566923" y="240.490634"/>
      </g>
     </g>
     <g id="text_7">
      <!-- 0 -->
      <g transform="translate(16.1075 243.150087)scale(0.07 -0.07)">
       <use xlink:href="#DejaVuSans-30"/>
      </g>
     </g>
    </g>
    <g id="ytick_2">
     <g id="line2d_13">
      <path clip-path="url(#p5ca2934760)" d="M 27.56125 202.91568 
L 561.46125 202.91568 
" style="fill:none;stroke:#b0b0b0;stroke-linecap:square;stroke-width:0.8;"/>
     </g>
     <g id="line2d_14">
      <g>
       <use style="stroke:#000000;stroke-width:0.8;" x="27.56125" xlink:href="#mec84566923" y="202.91568"/>
      </g>
     </g>
     <g id="text_8">
      <!-- 100 -->
      <g transform="translate(7.2 205.575133)scale(0.07 -0.07)">
       <use xlink:href="#DejaVuSans-31"/>
       <use x="63.623047" xlink:href="#DejaVuSans-30"/>
       <use x="127.246094" xlink:href="#DejaVuSans-30"/>
      </g>
     </g>
    </g>
    <g id="ytick_3">
     <g id="line2d_15">
      <path clip-path="url(#p5ca2934760)" d="M 27.56125 165.340727 
L 561.46125 165.340727 
" style="fill:none;stroke:#b0b0b0;stroke-linecap:square;stroke-width:0.8;"/>
     </g>
     <g id="line2d_16">
      <g>
       <use style="stroke:#000000;stroke-width:0.8;" x="27.56125" xlink:href="#mec84566923" y="165.340727"/>
      </g>
     </g>
     <g id="text_9">
      <!-- 200 -->
      <g transform="translate(7.2 168.00018)scale(0.07 -0.07)">
       <use xlink:href="#DejaVuSans-32"/>
       <use x="63.623047" xlink:href="#DejaVuSans-30"/>
       <use x="127.246094" xlink:href="#DejaVuSans-30"/>
      </g>
     </g>
    </g>
    <g id="ytick_4">
     <g id="line2d_17">
      <path clip-path="url(#p5ca2934760)" d="M 27.56125 127.765774 
L 561.46125 127.765774 
" style="fill:none;stroke:#b0b0b0;stroke-linecap:square;stroke-width:0.8;"/>
     </g>
     <g id="line2d_18">
      <g>
       <use style="stroke:#000000;stroke-width:0.8;" x="27.56125" xlink:href="#mec84566923" y="127.765774"/>
      </g>
     </g>
     <g id="text_10">
      <!-- 300 -->
      <g transform="translate(7.2 130.425227)scale(0.07 -0.07)">
       <defs>
        <path d="M 2597 2516 
Q 3050 2419 3304 2112 
Q 3559 1806 3559 1356 
Q 3559 666 3084 287 
Q 2609 -91 1734 -91 
Q 1441 -91 1130 -33 
Q 819 25 488 141 
L 488 750 
Q 750 597 1062 519 
Q 1375 441 1716 441 
Q 2309 441 2620 675 
Q 2931 909 2931 1356 
Q 2931 1769 2642 2001 
Q 2353 2234 1838 2234 
L 1294 2234 
L 1294 2753 
L 1863 2753 
Q 2328 2753 2575 2939 
Q 2822 3125 2822 3475 
Q 2822 3834 2567 4026 
Q 2313 4219 1838 4219 
Q 1578 4219 1281 4162 
Q 984 4106 628 3988 
L 628 4550 
Q 988 4650 1302 4700 
Q 1616 4750 1894 4750 
Q 2613 4750 3031 4423 
Q 3450 4097 3450 3541 
Q 3450 3153 3228 2886 
Q 3006 2619 2597 2516 
z
" id="DejaVuSans-33" transform="scale(0.015625)"/>
       </defs>
       <use xlink:href="#DejaVuSans-33"/>
       <use x="63.623047" xlink:href="#DejaVuSans-30"/>
       <use x="127.246094" xlink:href="#DejaVuSans-30"/>
      </g>
     </g>
    </g>
    <g id="ytick_5">
     <g id="line2d_19">
      <path clip-path="url(#p5ca2934760)" d="M 27.56125 90.190821 
L 561.46125 90.190821 
" style="fill:none;stroke:#b0b0b0;stroke-linecap:square;stroke-width:0.8;"/>
     </g>
     <g id="line2d_20">
      <g>
       <use style="stroke:#000000;stroke-width:0.8;" x="27.56125" xlink:href="#mec84566923" y="90.190821"/>
      </g>
     </g>
     <g id="text_11">
      <!-- 400 -->
      <g transform="translate(7.2 92.850274)scale(0.07 -0.07)">
       <defs>
        <path d="M 2419 4116 
L 825 1625 
L 2419 1625 
L 2419 4116 
z
M 2253 4666 
L 3047 4666 
L 3047 1625 
L 3713 1625 
L 3713 1100 
L 3047 1100 
L 3047 0 
L 2419 0 
L 2419 1100 
L 313 1100 
L 313 1709 
L 2253 4666 
z
" id="DejaVuSans-34" transform="scale(0.015625)"/>
       </defs>
       <use xlink:href="#DejaVuSans-34"/>
       <use x="63.623047" xlink:href="#DejaVuSans-30"/>
       <use x="127.246094" xlink:href="#DejaVuSans-30"/>
      </g>
     </g>
    </g>
    <g id="ytick_6">
     <g id="line2d_21">
      <path clip-path="url(#p5ca2934760)" d="M 27.56125 52.615867 
L 561.46125 52.615867 
" style="fill:none;stroke:#b0b0b0;stroke-linecap:square;stroke-width:0.8;"/>
     </g>
     <g id="line2d_22">
      <g>
       <use style="stroke:#000000;stroke-width:0.8;" x="27.56125" xlink:href="#mec84566923" y="52.615867"/>
      </g>
     </g>
     <g id="text_12">
      <!-- 500 -->
      <g transform="translate(7.2 55.27532)scale(0.07 -0.07)">
       <use xlink:href="#DejaVuSans-35"/>
       <use x="63.623047" xlink:href="#DejaVuSans-30"/>
       <use x="127.246094" xlink:href="#DejaVuSans-30"/>
      </g>
     </g>
    </g>
    <g id="ytick_7">
     <g id="line2d_23">
      <path clip-path="url(#p5ca2934760)" d="M 27.56125 15.040914 
L 561.46125 15.040914 
" style="fill:none;stroke:#b0b0b0;stroke-linecap:square;stroke-width:0.8;"/>
     </g>
     <g id="line2d_24">
      <g>
       <use style="stroke:#000000;stroke-width:0.8;" x="27.56125" xlink:href="#mec84566923" y="15.040914"/>
      </g>
     </g>
     <g id="text_13">
      <!-- 600 -->
      <g transform="translate(7.2 17.700367)scale(0.07 -0.07)">
       <use xlink:href="#DejaVuSans-36"/>
       <use x="63.623047" xlink:href="#DejaVuSans-30"/>
       <use x="127.246094" xlink:href="#DejaVuSans-30"/>
      </g>
     </g>
    </g>
   </g>
   <g id="line2d_25">
    <path clip-path="url(#p5ca2934760)" d="M 80.720728 240.484561 
L 98.919583 240.395296 
L 117.118439 237.804983 
L 135.317294 234.65176 
L 153.516149 225.702383 
L 171.715005 212.373495 
L 189.91386 200.178125 
L 208.112715 191.285426 
L 226.311571 184.610136 
L 244.510426 180.840556 
" style="fill:none;stroke:#1f77b4;stroke-linecap:square;stroke-width:3;"/>
   </g>
   <g id="line2d_26">
    <path clip-path="url(#p5ca2934760)" d="M 80.720728 240.484561 
L 97.044322 240.442087 
L 113.367915 239.140848 
L 129.691509 238.162325 
L 146.015103 238.12345 
L 162.338697 238.096285 
L 178.66229 238.075142 
L 194.985884 232.946657 
L 211.309478 226.788356 
L 227.633072 222.638922 
" style="fill:none;stroke:#ff7f0e;stroke-linecap:square;stroke-width:3;"/>
   </g>
   <g id="line2d_27">
    <path clip-path="url(#p5ca2934760)" d="M 227.633072 222.638922 
L 237.210607 222.605948 
L 246.788141 221.021924 
L 256.365676 219.904609 
L 265.943211 216.891723 
L 275.520745 212.117956 
L 285.09828 211.136491 
L 294.675815 209.178286 
L 304.253349 205.29329 
L 313.830884 201.523519 
" style="fill:none;stroke:#2ca02c;stroke-linecap:square;stroke-width:3;"/>
   </g>
   <g id="line2d_28">
    <path clip-path="url(#p5ca2934760)" d="M 227.633072 222.638922 
L 235.208451 222.608242 
L 242.78383 217.939567 
L 250.359209 215.907323 
L 257.934588 212.936212 
L 265.509967 203.865305 
L 273.085346 199.529735 
L 280.660726 195.540087 
L 288.236105 195.210295 
L 295.811484 194.776984 
" style="fill:none;stroke:#d62728;stroke-linecap:square;stroke-width:3;"/>
   </g>
   <g id="line2d_29">
    <path clip-path="url(#p5ca2934760)" d="M 313.830884 201.523519 
L 316.393177 201.365311 
L 318.955469 201.260242 
L 321.517762 201.027816 
L 324.080055 200.239297 
L 326.642348 197.659278 
L 329.20464 197.729344 
L 331.766933 197.370369 
L 334.329226 196.94299 
L 336.891519 196.989985 
" style="fill:none;stroke:#9467bd;stroke-linecap:square;stroke-width:3;"/>
   </g>
   <g id="line2d_30">
    <path clip-path="url(#p5ca2934760)" d="M 313.830884 201.523519 
L 321.981795 200.129781 
L 330.132706 192.513067 
L 338.283617 190.8869 
L 346.434528 190.344616 
L 354.585439 186.545222 
L 362.736351 186.411554 
L 370.887262 186.359048 
L 379.038173 186.27288 
L 387.189084 182.717687 
" style="fill:none;stroke:#8c564b;stroke-linecap:square;stroke-width:3;"/>
   </g>
   <g id="line2d_31">
    <path clip-path="url(#p5ca2934760)" d="M 387.189084 182.717687 
L 398.932834 175.641438 
L 410.676585 162.699441 
L 422.420336 162.531126 
L 434.164086 157.643833 
L 445.907837 149.212447 
L 457.651588 142.608073 
L 469.395338 133.954924 
L 481.139089 128.574063 
L 492.88284 124.193057 
" style="fill:none;stroke:#e377c2;stroke-linecap:square;stroke-width:3;"/>
   </g>
   <g id="line2d_32">
    <path clip-path="url(#p5ca2934760)" d="M 387.189084 182.717687 
L 394.458114 181.278744 
L 401.727144 173.162159 
L 408.996174 169.572472 
L 416.265203 167.200544 
L 423.534233 158.275266 
L 430.803263 158.004737 
L 438.072293 151.438726 
L 445.341323 151.689267 
L 452.610353 149.292158 
" style="fill:none;stroke:#7f7f7f;stroke-linecap:square;stroke-width:3;"/>
   </g>
   <g id="line2d_33">
    <path clip-path="url(#p5ca2934760)" d="M 452.610353 149.292158 
L 462.008432 134.546996 
L 471.406512 120.305363 
L 480.804591 114.581985 
L 490.202671 104.071148 
L 499.60075 96.783739 
L 508.99883 73.941269 
L 518.396909 53.803867 
L 527.794989 27.366008 
L 537.193068 18.309091 
" style="fill:none;stroke:#bcbd22;stroke-linecap:square;stroke-width:3;"/>
   </g>
   <g id="line2d_34">
    <path clip-path="url(#p5ca2934760)" d="M 452.610353 149.292158 
L 455.568723 146.889572 
L 458.527092 145.760136 
L 461.485462 143.949637 
L 464.443831 141.524136 
L 467.402201 141.24047 
L 470.36057 141.022566 
L 473.31894 139.870436 
L 476.277309 138.978039 
L 479.235679 133.485427 
" style="fill:none;stroke:#17becf;stroke-linecap:square;stroke-width:3;"/>
   </g>
   <g id="line2d_35">
    <path clip-path="url(#p5ca2934760)" d="M 51.829432 240.490633 
L 55.039576 240.49059 
L 58.24972 240.490909 
L 61.459864 240.489286 
L 64.670008 240.486059 
L 67.880152 240.484978 
L 71.090296 240.484949 
L 74.30044 240.48482 
L 77.510584 240.484657 
L 80.720728 240.484561 
" style="fill:none;stroke:#1f77b4;stroke-linecap:square;stroke-width:3;"/>
   </g>
   <g id="patch_3">
    <path d="M 27.56125 251.6 
L 27.56125 7.2 
" style="fill:none;stroke:#000000;stroke-linecap:square;stroke-linejoin:miter;stroke-width:0.8;"/>
   </g>
   <g id="patch_4">
    <path d="M 561.46125 251.6 
L 561.46125 7.2 
" style="fill:none;stroke:#000000;stroke-linecap:square;stroke-linejoin:miter;stroke-width:0.8;"/>
   </g>
   <g id="patch_5">
    <path d="M 27.56125 251.6 
L 561.46125 251.6 
" style="fill:none;stroke:#000000;stroke-linecap:square;stroke-linejoin:miter;stroke-width:0.8;"/>
   </g>
   <g id="patch_6">
    <path d="M 27.56125 7.2 
L 561.46125 7.2 
" style="fill:none;stroke:#000000;stroke-linecap:square;stroke-linejoin:miter;stroke-width:0.8;"/>
   </g>
  </g>
 </g>
 <defs>
  <clipPath id="p5ca2934760">
   <rect height="244.4" width="533.9" x="27.56125" y="7.2"/>
  </clipPath>
 </defs>
</svg>
