<?xml version="1.0" encoding="utf-8" standalone="no"?>
<!DOCTYPE svg PUBLIC "-//W3C//DTD SVG 1.1//EN"
  "http://www.w3.org/Graphics/SVG/1.1/DTD/svg11.dtd">
<svg height="354.668281pt" version="1.1" viewBox="0 0 352.164879 354.668281" width="352.164879pt" xmlns="http://www.w3.org/2000/svg" xmlns:xlink="http://www.w3.org/1999/xlink">
 <metadata>
  <rdf:RDF xmlns:cc="http://creativecommons.org/ns#" xmlns:dc="http://purl.org/dc/elements/1.1/" xmlns:rdf="http://www.w3.org/1999/02/22-rdf-syntax-ns#">
   <cc:Work>
    <dc:type rdf:resource="http://purl.org/dc/dcmitype/StillImage"/>
    <dc:date>2021-07-12T06:13:17.553877</dc:date>
    <dc:format>image/svg+xml</dc:format>
    <dc:creator>
     <cc:Agent>
      <dc:title>Matplotlib v3.4.2, https://matplotlib.org/</dc:title>
     </cc:Agent>
    </dc:creator>
   </cc:Work>
  </rdf:RDF>
 </metadata>
 <defs>
  <style type="text/css">*{stroke-linecap:butt;stroke-linejoin:round;}</style>
 </defs>
 <g id="figure_1">
  <g id="patch_1">
   <path d="M 0 354.668281 
L 352.164879 354.668281 
L 352.164879 0 
L 0 0 
z
" style="fill:none;"/>
  </g>
  <g id="axes_1">
   <g id="patch_2">
    <path d="M 25.332188 323.918906 
L 343.15177 323.918906 
L 343.15177 15.518906 
L 25.332188 15.518906 
z
" style="fill:#ffffff;"/>
   </g>
   <g id="matplotlib.axis_1">
    <g id="xtick_1">
     <g id="line2d_1">
      <path clip-path="url(#pcd52ee944a)" d="M 70.096586 323.918906 
L 70.096586 15.518906 
" style="fill:none;stroke:#b0b0b0;stroke-linecap:square;stroke-width:0.8;"/>
     </g>
     <g id="line2d_2">
      <defs>
       <path d="M 0 0 
L 0 3.5 
" id="m42f0ba748f" style="stroke:#000000;stroke-width:0.8;"/>
      </defs>
      <g>
       <use style="stroke:#000000;stroke-width:0.8;" x="70.096586" xlink:href="#m42f0ba748f" y="323.918906"/>
      </g>
     </g>
     <g id="text_1">
      <!-- 0.2 -->
      <g transform="translate(64.530492 336.237812)scale(0.07 -0.07)">
       <defs>
        <path d="M 2034 4250 
Q 1547 4250 1301 3770 
Q 1056 3291 1056 2328 
Q 1056 1369 1301 889 
Q 1547 409 2034 409 
Q 2525 409 2770 889 
Q 3016 1369 3016 2328 
Q 3016 3291 2770 3770 
Q 2525 4250 2034 4250 
z
M 2034 4750 
Q 2819 4750 3233 4129 
Q 3647 3509 3647 2328 
Q 3647 1150 3233 529 
Q 2819 -91 2034 -91 
Q 1250 -91 836 529 
Q 422 1150 422 2328 
Q 422 3509 836 4129 
Q 1250 4750 2034 4750 
z
" id="DejaVuSans-30" transform="scale(0.015625)"/>
        <path d="M 684 794 
L 1344 794 
L 1344 0 
L 684 0 
L 684 794 
z
" id="DejaVuSans-2e" transform="scale(0.015625)"/>
        <path d="M 1228 531 
L 3431 531 
L 3431 0 
L 469 0 
L 469 531 
Q 828 903 1448 1529 
Q 2069 2156 2228 2338 
Q 2531 2678 2651 2914 
Q 2772 3150 2772 3378 
Q 2772 3750 2511 3984 
Q 2250 4219 1831 4219 
Q 1534 4219 1204 4116 
Q 875 4013 500 3803 
L 500 4441 
Q 881 4594 1212 4672 
Q 1544 4750 1819 4750 
Q 2544 4750 2975 4387 
Q 3406 4025 3406 3419 
Q 3406 3131 3298 2873 
Q 3191 2616 2906 2266 
Q 2828 2175 2409 1742 
Q 1991 1309 1228 531 
z
" id="DejaVuSans-32" transform="scale(0.015625)"/>
       </defs>
       <use xlink:href="#DejaVuSans-30"/>
       <use x="63.623047" xlink:href="#DejaVuSans-2e"/>
       <use x="95.410156" xlink:href="#DejaVuSans-32"/>
      </g>
     </g>
    </g>
    <g id="xtick_2">
     <g id="line2d_3">
      <path clip-path="url(#pcd52ee944a)" d="M 123.957026 323.918906 
L 123.957026 15.518906 
" style="fill:none;stroke:#b0b0b0;stroke-linecap:square;stroke-width:0.8;"/>
     </g>
     <g id="line2d_4">
      <g>
       <use style="stroke:#000000;stroke-width:0.8;" x="123.957026" xlink:href="#m42f0ba748f" y="323.918906"/>
      </g>
     </g>
     <g id="text_2">
      <!-- 0.4 -->
      <g transform="translate(118.390932 336.237812)scale(0.07 -0.07)">
       <defs>
        <path d="M 2419 4116 
L 825 1625 
L 2419 1625 
L 2419 4116 
z
M 2253 4666 
L 3047 4666 
L 3047 1625 
L 3713 1625 
L 3713 1100 
L 3047 1100 
L 3047 0 
L 2419 0 
L 2419 1100 
L 313 1100 
L 313 1709 
L 2253 4666 
z
" id="DejaVuSans-34" transform="scale(0.015625)"/>
       </defs>
       <use xlink:href="#DejaVuSans-30"/>
       <use x="63.623047" xlink:href="#DejaVuSans-2e"/>
       <use x="95.410156" xlink:href="#DejaVuSans-34"/>
      </g>
     </g>
    </g>
    <g id="xtick_3">
     <g id="line2d_5">
      <path clip-path="url(#pcd52ee944a)" d="M 177.817465 323.918906 
L 177.817465 15.518906 
" style="fill:none;stroke:#b0b0b0;stroke-linecap:square;stroke-width:0.8;"/>
     </g>
     <g id="line2d_6">
      <g>
       <use style="stroke:#000000;stroke-width:0.8;" x="177.817465" xlink:href="#m42f0ba748f" y="323.918906"/>
      </g>
     </g>
     <g id="text_3">
      <!-- 0.6 -->
      <g transform="translate(172.251372 336.237812)scale(0.07 -0.07)">
       <defs>
        <path d="M 2113 2584 
Q 1688 2584 1439 2293 
Q 1191 2003 1191 1497 
Q 1191 994 1439 701 
Q 1688 409 2113 409 
Q 2538 409 2786 701 
Q 3034 994 3034 1497 
Q 3034 2003 2786 2293 
Q 2538 2584 2113 2584 
z
M 3366 4563 
L 3366 3988 
Q 3128 4100 2886 4159 
Q 2644 4219 2406 4219 
Q 1781 4219 1451 3797 
Q 1122 3375 1075 2522 
Q 1259 2794 1537 2939 
Q 1816 3084 2150 3084 
Q 2853 3084 3261 2657 
Q 3669 2231 3669 1497 
Q 3669 778 3244 343 
Q 2819 -91 2113 -91 
Q 1303 -91 875 529 
Q 447 1150 447 2328 
Q 447 3434 972 4092 
Q 1497 4750 2381 4750 
Q 2619 4750 2861 4703 
Q 3103 4656 3366 4563 
z
" id="DejaVuSans-36" transform="scale(0.015625)"/>
       </defs>
       <use xlink:href="#DejaVuSans-30"/>
       <use x="63.623047" xlink:href="#DejaVuSans-2e"/>
       <use x="95.410156" xlink:href="#DejaVuSans-36"/>
      </g>
     </g>
    </g>
    <g id="xtick_4">
     <g id="line2d_7">
      <path clip-path="url(#pcd52ee944a)" d="M 231.677905 323.918906 
L 231.677905 15.518906 
" style="fill:none;stroke:#b0b0b0;stroke-linecap:square;stroke-width:0.8;"/>
     </g>
     <g id="line2d_8">
      <g>
       <use style="stroke:#000000;stroke-width:0.8;" x="231.677905" xlink:href="#m42f0ba748f" y="323.918906"/>
      </g>
     </g>
     <g id="text_4">
      <!-- 0.8 -->
      <g transform="translate(226.111812 336.237812)scale(0.07 -0.07)">
       <defs>
        <path d="M 2034 2216 
Q 1584 2216 1326 1975 
Q 1069 1734 1069 1313 
Q 1069 891 1326 650 
Q 1584 409 2034 409 
Q 2484 409 2743 651 
Q 3003 894 3003 1313 
Q 3003 1734 2745 1975 
Q 2488 2216 2034 2216 
z
M 1403 2484 
Q 997 2584 770 2862 
Q 544 3141 544 3541 
Q 544 4100 942 4425 
Q 1341 4750 2034 4750 
Q 2731 4750 3128 4425 
Q 3525 4100 3525 3541 
Q 3525 3141 3298 2862 
Q 3072 2584 2669 2484 
Q 3125 2378 3379 2068 
Q 3634 1759 3634 1313 
Q 3634 634 3220 271 
Q 2806 -91 2034 -91 
Q 1263 -91 848 271 
Q 434 634 434 1313 
Q 434 1759 690 2068 
Q 947 2378 1403 2484 
z
M 1172 3481 
Q 1172 3119 1398 2916 
Q 1625 2713 2034 2713 
Q 2441 2713 2670 2916 
Q 2900 3119 2900 3481 
Q 2900 3844 2670 4047 
Q 2441 4250 2034 4250 
Q 1625 4250 1398 4047 
Q 1172 3844 1172 3481 
z
" id="DejaVuSans-38" transform="scale(0.015625)"/>
       </defs>
       <use xlink:href="#DejaVuSans-30"/>
       <use x="63.623047" xlink:href="#DejaVuSans-2e"/>
       <use x="95.410156" xlink:href="#DejaVuSans-38"/>
      </g>
     </g>
    </g>
    <g id="xtick_5">
     <g id="line2d_9">
      <path clip-path="url(#pcd52ee944a)" d="M 285.538345 323.918906 
L 285.538345 15.518906 
" style="fill:none;stroke:#b0b0b0;stroke-linecap:square;stroke-width:0.8;"/>
     </g>
     <g id="line2d_10">
      <g>
       <use style="stroke:#000000;stroke-width:0.8;" x="285.538345" xlink:href="#m42f0ba748f" y="323.918906"/>
      </g>
     </g>
     <g id="text_5">
      <!-- 1.0 -->
      <g transform="translate(279.972251 336.237812)scale(0.07 -0.07)">
       <defs>
        <path d="M 794 531 
L 1825 531 
L 1825 4091 
L 703 3866 
L 703 4441 
L 1819 4666 
L 2450 4666 
L 2450 531 
L 3481 531 
L 3481 0 
L 794 0 
L 794 531 
z
" id="DejaVuSans-31" transform="scale(0.015625)"/>
       </defs>
       <use xlink:href="#DejaVuSans-31"/>
       <use x="63.623047" xlink:href="#DejaVuSans-2e"/>
       <use x="95.410156" xlink:href="#DejaVuSans-30"/>
      </g>
     </g>
    </g>
    <g id="xtick_6">
     <g id="line2d_11">
      <path clip-path="url(#pcd52ee944a)" d="M 339.398785 323.918906 
L 339.398785 15.518906 
" style="fill:none;stroke:#b0b0b0;stroke-linecap:square;stroke-width:0.8;"/>
     </g>
     <g id="line2d_12">
      <g>
       <use style="stroke:#000000;stroke-width:0.8;" x="339.398785" xlink:href="#m42f0ba748f" y="323.918906"/>
      </g>
     </g>
     <g id="text_6">
      <!-- 1.2 -->
      <g transform="translate(333.832691 336.237812)scale(0.07 -0.07)">
       <use xlink:href="#DejaVuSans-31"/>
       <use x="63.623047" xlink:href="#DejaVuSans-2e"/>
       <use x="95.410156" xlink:href="#DejaVuSans-32"/>
      </g>
     </g>
    </g>
    <g id="text_7">
     <!-- 1e6 -->
     <g transform="translate(329.937082 346.0125)scale(0.07 -0.07)">
      <defs>
       <path d="M 3597 1894 
L 3597 1613 
L 953 1613 
Q 991 1019 1311 708 
Q 1631 397 2203 397 
Q 2534 397 2845 478 
Q 3156 559 3463 722 
L 3463 178 
Q 3153 47 2828 -22 
Q 2503 -91 2169 -91 
Q 1331 -91 842 396 
Q 353 884 353 1716 
Q 353 2575 817 3079 
Q 1281 3584 2069 3584 
Q 2775 3584 3186 3129 
Q 3597 2675 3597 1894 
z
M 3022 2063 
Q 3016 2534 2758 2815 
Q 2500 3097 2075 3097 
Q 1594 3097 1305 2825 
Q 1016 2553 972 2059 
L 3022 2063 
z
" id="DejaVuSans-65" transform="scale(0.015625)"/>
      </defs>
      <use xlink:href="#DejaVuSans-31"/>
      <use x="63.623047" xlink:href="#DejaVuSans-65"/>
      <use x="125.146484" xlink:href="#DejaVuSans-36"/>
     </g>
    </g>
   </g>
   <g id="matplotlib.axis_2">
    <g id="ytick_1">
     <g id="line2d_13">
      <path clip-path="url(#pcd52ee944a)" d="M 25.332188 310.609873 
L 343.15177 310.609873 
" style="fill:none;stroke:#b0b0b0;stroke-linecap:square;stroke-width:0.8;"/>
     </g>
     <g id="line2d_14">
      <defs>
       <path d="M 0 0 
L -3.5 0 
" id="m5f76659ce1" style="stroke:#000000;stroke-width:0.8;"/>
      </defs>
      <g>
       <use style="stroke:#000000;stroke-width:0.8;" x="25.332188" xlink:href="#m5f76659ce1" y="310.609873"/>
      </g>
     </g>
     <g id="text_8">
      <!-- 3.6 -->
      <g transform="translate(7.2 313.269326)scale(0.07 -0.07)">
       <defs>
        <path d="M 2597 2516 
Q 3050 2419 3304 2112 
Q 3559 1806 3559 1356 
Q 3559 666 3084 287 
Q 2609 -91 1734 -91 
Q 1441 -91 1130 -33 
Q 819 25 488 141 
L 488 750 
Q 750 597 1062 519 
Q 1375 441 1716 441 
Q 2309 441 2620 675 
Q 2931 909 2931 1356 
Q 2931 1769 2642 2001 
Q 2353 2234 1838 2234 
L 1294 2234 
L 1294 2753 
L 1863 2753 
Q 2328 2753 2575 2939 
Q 2822 3125 2822 3475 
Q 2822 3834 2567 4026 
Q 2313 4219 1838 4219 
Q 1578 4219 1281 4162 
Q 984 4106 628 3988 
L 628 4550 
Q 988 4650 1302 4700 
Q 1616 4750 1894 4750 
Q 2613 4750 3031 4423 
Q 3450 4097 3450 3541 
Q 3450 3153 3228 2886 
Q 3006 2619 2597 2516 
z
" id="DejaVuSans-33" transform="scale(0.015625)"/>
       </defs>
       <use xlink:href="#DejaVuSans-33"/>
       <use x="63.623047" xlink:href="#DejaVuSans-2e"/>
       <use x="95.410156" xlink:href="#DejaVuSans-36"/>
      </g>
     </g>
    </g>
    <g id="ytick_2">
     <g id="line2d_15">
      <path clip-path="url(#pcd52ee944a)" d="M 25.332188 249.714985 
L 343.15177 249.714985 
" style="fill:none;stroke:#b0b0b0;stroke-linecap:square;stroke-width:0.8;"/>
     </g>
     <g id="line2d_16">
      <g>
       <use style="stroke:#000000;stroke-width:0.8;" x="25.332188" xlink:href="#m5f76659ce1" y="249.714985"/>
      </g>
     </g>
     <g id="text_9">
      <!-- 3.8 -->
      <g transform="translate(7.2 252.374438)scale(0.07 -0.07)">
       <use xlink:href="#DejaVuSans-33"/>
       <use x="63.623047" xlink:href="#DejaVuSans-2e"/>
       <use x="95.410156" xlink:href="#DejaVuSans-38"/>
      </g>
     </g>
    </g>
    <g id="ytick_3">
     <g id="line2d_17">
      <path clip-path="url(#pcd52ee944a)" d="M 25.332188 188.820097 
L 343.15177 188.820097 
" style="fill:none;stroke:#b0b0b0;stroke-linecap:square;stroke-width:0.8;"/>
     </g>
     <g id="line2d_18">
      <g>
       <use style="stroke:#000000;stroke-width:0.8;" x="25.332188" xlink:href="#m5f76659ce1" y="188.820097"/>
      </g>
     </g>
     <g id="text_10">
      <!-- 4.0 -->
      <g transform="translate(7.2 191.47955)scale(0.07 -0.07)">
       <use xlink:href="#DejaVuSans-34"/>
       <use x="63.623047" xlink:href="#DejaVuSans-2e"/>
       <use x="95.410156" xlink:href="#DejaVuSans-30"/>
      </g>
     </g>
    </g>
    <g id="ytick_4">
     <g id="line2d_19">
      <path clip-path="url(#pcd52ee944a)" d="M 25.332188 127.925209 
L 343.15177 127.925209 
" style="fill:none;stroke:#b0b0b0;stroke-linecap:square;stroke-width:0.8;"/>
     </g>
     <g id="line2d_20">
      <g>
       <use style="stroke:#000000;stroke-width:0.8;" x="25.332188" xlink:href="#m5f76659ce1" y="127.925209"/>
      </g>
     </g>
     <g id="text_11">
      <!-- 4.2 -->
      <g transform="translate(7.2 130.584662)scale(0.07 -0.07)">
       <use xlink:href="#DejaVuSans-34"/>
       <use x="63.623047" xlink:href="#DejaVuSans-2e"/>
       <use x="95.410156" xlink:href="#DejaVuSans-32"/>
      </g>
     </g>
    </g>
    <g id="ytick_5">
     <g id="line2d_21">
      <path clip-path="url(#pcd52ee944a)" d="M 25.332188 67.030321 
L 343.15177 67.030321 
" style="fill:none;stroke:#b0b0b0;stroke-linecap:square;stroke-width:0.8;"/>
     </g>
     <g id="line2d_22">
      <g>
       <use style="stroke:#000000;stroke-width:0.8;" x="25.332188" xlink:href="#m5f76659ce1" y="67.030321"/>
      </g>
     </g>
     <g id="text_12">
      <!-- 4.4 -->
      <g transform="translate(7.2 69.689774)scale(0.07 -0.07)">
       <use xlink:href="#DejaVuSans-34"/>
       <use x="63.623047" xlink:href="#DejaVuSans-2e"/>
       <use x="95.410156" xlink:href="#DejaVuSans-34"/>
      </g>
     </g>
    </g>
    <g id="text_13">
     <!-- 1e6 -->
     <g transform="translate(25.332188 12.518906)scale(0.07 -0.07)">
      <use xlink:href="#DejaVuSans-31"/>
      <use x="63.623047" xlink:href="#DejaVuSans-65"/>
      <use x="125.146484" xlink:href="#DejaVuSans-36"/>
     </g>
    </g>
   </g>
   <g id="line2d_23">
    <path clip-path="url(#pcd52ee944a)" d="M 85.27883 52.686379 
L 83.003815 50.114236 
L 83.003815 47.542092 
L 83.003815 44.969949 
L 83.003815 42.397805 
L 85.27883 39.825662 
L 85.27883 37.253518 
L 85.27883 34.681375 
L 85.27883 32.109232 
L 85.27883 29.537088 
" style="fill:none;stroke:#1f77b4;stroke-linecap:square;stroke-width:3;"/>
   </g>
   <g id="line2d_24">
    <path clip-path="url(#pcd52ee944a)" d="M 85.27883 52.686379 
L 83.003815 52.686379 
L 80.7288 52.686379 
L 78.453786 55.258523 
L 76.178771 55.258523 
L 76.178771 57.830666 
L 76.178771 60.40281 
L 76.178771 62.974953 
L 73.903756 62.974953 
L 71.628741 62.974953 
L 69.353726 62.974953 
L 67.078711 60.40281 
L 64.803696 57.830666 
L 64.803696 55.258523 
L 64.803696 52.686379 
L 62.528681 50.114236 
L 60.253666 47.542092 
L 57.978651 47.542092 
L 55.703636 44.969949 
L 53.428622 44.969949 
L 51.153607 44.969949 
L 48.878592 44.969949 
L 46.603577 44.969949 
L 44.328562 42.397805 
L 42.053547 42.397805 
L 39.778532 42.397805 
" style="fill:none;stroke:#ff7f0e;stroke-linecap:square;stroke-width:3;"/>
   </g>
   <g id="line2d_25">
    <path clip-path="url(#pcd52ee944a)" d="M 144.429218 78.407814 
L 142.154203 75.83567 
L 139.879188 73.263527 
L 137.604173 70.691383 
L 135.329158 68.11924 
L 133.054143 68.11924 
L 130.779128 65.547096 
L 128.504113 62.974953 
L 126.229099 60.40281 
L 123.954084 57.830666 
L 121.679069 57.830666 
L 119.404054 57.830666 
L 117.129039 60.40281 
L 114.854024 60.40281 
L 112.579009 60.40281 
L 110.303994 60.40281 
L 108.028979 60.40281 
L 105.753964 57.830666 
L 103.478949 55.258523 
L 101.203935 52.686379 
L 98.92892 52.686379 
L 96.653905 52.686379 
L 94.37889 55.258523 
L 92.103875 55.258523 
L 89.82886 55.258523 
L 87.553845 55.258523 
L 85.27883 52.686379 
" style="fill:none;stroke:#2ca02c;stroke-linecap:square;stroke-width:3;"/>
   </g>
   <g id="line2d_26">
    <path clip-path="url(#pcd52ee944a)" d="M 205.85462 101.557105 
L 203.579605 98.984961 
L 201.30459 98.984961 
L 201.30459 96.412818 
L 199.029575 93.840674 
L 201.30459 91.268531 
L 201.30459 88.696387 
L 201.30459 86.124244 
L 201.30459 83.552101 
L 203.579605 80.979957 
L 203.579605 78.407814 
L 201.30459 75.83567 
" style="fill:none;stroke:#d62728;stroke-linecap:square;stroke-width:3;"/>
   </g>
   <g id="line2d_27">
    <path clip-path="url(#pcd52ee944a)" d="M 144.429218 78.407814 
L 142.154203 78.407814 
L 139.879188 78.407814 
L 137.604173 78.407814 
L 135.329158 80.979957 
L 133.054143 80.979957 
L 130.779128 80.979957 
L 128.504113 80.979957 
L 126.229099 83.552101 
L 123.954084 83.552101 
L 121.679069 83.552101 
L 119.404054 86.124244 
L 117.129039 86.124244 
L 114.854024 86.124244 
L 112.579009 86.124244 
L 110.303994 86.124244 
L 108.028979 83.552101 
L 105.753964 83.552101 
L 103.478949 80.979957 
L 101.203935 80.979957 
L 98.92892 80.979957 
L 96.653905 80.979957 
L 94.37889 80.979957 
L 92.103875 83.552101 
L 89.82886 83.552101 
L 87.553845 86.124244 
L 85.27883 86.124244 
L 83.003815 86.124244 
L 80.7288 83.552101 
L 78.453786 83.552101 
L 76.178771 83.552101 
L 73.903756 83.552101 
L 71.628741 83.552101 
L 69.353726 86.124244 
L 67.078711 86.124244 
L 64.803696 86.124244 
L 62.528681 86.124244 
L 60.253666 88.696387 
L 57.978651 88.696387 
L 55.703636 88.696387 
L 53.428622 91.268531 
L 51.153607 91.268531 
L 48.878592 91.268531 
L 46.603577 91.268531 
L 44.328562 91.268531 
L 42.053547 88.696387 
L 39.778532 88.696387 
" style="fill:none;stroke:#9467bd;stroke-linecap:square;stroke-width:3;"/>
   </g>
   <g id="line2d_28">
    <path clip-path="url(#pcd52ee944a)" d="M 205.85462 101.557105 
L 203.579605 101.557105 
L 201.30459 101.557105 
L 199.029575 101.557105 
L 196.754561 104.129248 
L 194.479546 104.129248 
L 192.204531 104.129248 
L 189.929516 104.129248 
L 187.654501 101.557105 
L 185.379486 101.557105 
L 183.104471 104.129248 
L 180.829456 106.701392 
L 180.829456 109.273535 
L 178.554441 109.273535 
L 176.279426 111.845679 
L 174.004412 111.845679 
L 171.729397 111.845679 
L 169.454382 109.273535 
L 167.179367 106.701392 
L 164.904352 104.129248 
L 162.629337 101.557105 
L 160.354322 101.557105 
L 158.079307 98.984961 
L 155.804292 96.412818 
L 153.529277 93.840674 
L 151.254262 93.840674 
L 148.979248 91.268531 
L 146.704233 88.696387 
L 148.979248 86.124244 
L 148.979248 83.552101 
L 146.704233 80.979957 
L 144.429218 78.407814 
" style="fill:none;stroke:#8c564b;stroke-linecap:square;stroke-width:3;"/>
   </g>
   <g id="line2d_29">
    <path clip-path="url(#pcd52ee944a)" d="M 262.729993 132.422826 
L 265.005008 129.850683 
L 267.280023 127.278539 
L 269.555038 127.278539 
L 271.830052 127.278539 
L 274.105067 127.278539 
L 276.380082 127.278539 
L 278.655097 127.278539 
L 280.930112 127.278539 
L 283.205127 124.706396 
L 285.480142 122.134252 
L 287.755157 122.134252 
L 290.030172 119.562109 
L 292.305187 119.562109 
L 294.580201 119.562109 
L 296.855216 119.562109 
L 299.130231 119.562109 
L 301.405246 116.989965 
L 303.680261 114.417822 
L 305.955276 114.417822 
L 308.230291 114.417822 
L 310.505306 114.417822 
L 312.780321 111.845679 
L 315.055336 114.417822 
L 317.330351 114.417822 
L 319.605365 111.845679 
L 321.88038 109.273535 
L 321.88038 106.701392 
L 321.88038 104.129248 
L 321.88038 101.557105 
L 321.88038 98.984961 
L 324.155395 96.412818 
L 326.43041 96.412818 
L 328.705425 93.840674 
" style="fill:none;stroke:#e377c2;stroke-linecap:square;stroke-width:3;"/>
   </g>
   <g id="line2d_30">
    <path clip-path="url(#pcd52ee944a)" d="M 262.729993 132.422826 
L 262.729993 129.850683 
L 262.729993 127.278539 
L 262.729993 124.706396 
L 260.454978 122.134252 
L 260.454978 119.562109 
L 260.454978 116.989965 
L 258.179963 116.989965 
L 255.904948 114.417822 
L 253.629933 111.845679 
L 251.354918 109.273535 
L 249.079903 109.273535 
L 246.804888 111.845679 
L 244.529874 114.417822 
L 244.529874 116.989965 
L 242.254859 119.562109 
L 239.979844 119.562109 
L 237.704829 122.134252 
L 235.429814 122.134252 
L 233.154799 122.134252 
L 230.879784 124.706396 
L 228.604769 124.706396 
L 226.329754 127.278539 
L 224.054739 127.278539 
L 221.779725 124.706396 
L 219.50471 122.134252 
L 217.229695 119.562109 
L 219.50471 116.989965 
L 219.50471 114.417822 
L 219.50471 111.845679 
L 219.50471 109.273535 
L 219.50471 106.701392 
L 217.229695 104.129248 
L 214.95468 104.129248 
L 212.679665 104.129248 
L 210.40465 104.129248 
L 208.129635 104.129248 
L 205.85462 101.557105 
" style="fill:none;stroke:#7f7f7f;stroke-linecap:square;stroke-width:3;"/>
   </g>
   <g id="line2d_31">
    <path clip-path="url(#pcd52ee944a)" d="M 201.30459 286.751433 
L 203.579605 284.17929 
L 203.579605 281.607146 
L 205.85462 279.035003 
L 205.85462 276.46286 
L 205.85462 273.890716 
L 208.129635 271.318573 
L 210.40465 271.318573 
L 210.40465 268.746429 
L 212.679665 266.174286 
L 212.679665 263.602142 
L 212.679665 261.029999 
L 212.679665 258.457855 
L 212.679665 255.885712 
L 214.95468 253.313568 
L 214.95468 250.741425 
L 212.679665 248.169282 
L 210.40465 245.597138 
L 210.40465 243.024995 
L 210.40465 240.452851 
L 210.40465 237.880708 
L 208.129635 235.308564 
L 205.85462 232.736421 
L 208.129635 230.164277 
L 208.129635 227.592134 
L 208.129635 225.01999 
L 208.129635 222.447847 
L 208.129635 219.875704 
L 208.129635 217.30356 
L 208.129635 214.731417 
L 210.40465 212.159273 
L 210.40465 209.58713 
L 210.40465 207.014986 
L 212.679665 204.442843 
L 214.95468 201.870699 
L 217.229695 199.298556 
L 219.50471 196.726413 
L 219.50471 194.154269 
L 219.50471 191.582126 
L 221.779725 189.009982 
L 224.054739 186.437839 
L 226.329754 183.865695 
L 228.604769 183.865695 
L 230.879784 181.293552 
L 230.879784 178.721408 
L 230.879784 176.149265 
L 230.879784 173.577121 
L 233.154799 171.004978 
L 233.154799 168.432835 
L 233.154799 165.860691 
L 235.429814 163.288548 
L 235.429814 160.716404 
L 235.429814 158.144261 
L 237.704829 155.572117 
L 239.979844 152.999974 
L 242.254859 152.999974 
L 244.529874 152.999974 
L 246.804888 150.42783 
L 249.079903 147.855687 
L 251.354918 147.855687 
L 253.629933 145.283543 
L 255.904948 142.7114 
L 255.904948 140.139257 
L 258.179963 137.567113 
L 260.454978 134.99497 
L 262.729993 132.422826 
" style="fill:none;stroke:#bcbd22;stroke-linecap:square;stroke-width:3;"/>
   </g>
   <g id="line2d_32">
    <path clip-path="url(#pcd52ee944a)" d="M 201.30459 286.751433 
L 201.30459 284.17929 
L 201.30459 281.607146 
L 199.029575 279.035003 
L 196.754561 276.46286 
L 194.479546 273.890716 
L 194.479546 271.318573 
L 194.479546 268.746429 
L 194.479546 266.174286 
L 192.204531 263.602142 
L 189.929516 261.029999 
L 189.929516 258.457855 
L 189.929516 255.885712 
L 187.654501 255.885712 
L 185.379486 255.885712 
L 183.104471 253.313568 
L 180.829456 253.313568 
L 178.554441 250.741425 
L 178.554441 248.169282 
L 176.279426 245.597138 
L 174.004412 245.597138 
L 174.004412 243.024995 
L 171.729397 243.024995 
L 169.454382 240.452851 
L 167.179367 237.880708 
L 164.904352 235.308564 
L 162.629337 232.736421 
L 162.629337 230.164277 
L 162.629337 227.592134 
L 160.354322 225.01999 
L 160.354322 222.447847 
L 158.079307 219.875704 
L 155.804292 219.875704 
L 153.529277 219.875704 
L 151.254262 217.30356 
L 148.979248 217.30356 
L 146.704233 219.875704 
L 144.429218 217.30356 
L 144.429218 214.731417 
L 142.154203 212.159273 
L 139.879188 212.159273 
L 137.604173 212.159273 
L 135.329158 214.731417 
L 133.054143 214.731417 
L 130.779128 214.731417 
L 128.504113 214.731417 
L 126.229099 214.731417 
L 123.954084 212.159273 
L 121.679069 212.159273 
L 119.404054 212.159273 
L 117.129039 214.731417 
L 114.854024 217.30356 
L 112.579009 217.30356 
L 110.303994 217.30356 
L 108.028979 217.30356 
L 105.753964 217.30356 
L 103.478949 217.30356 
L 101.203935 214.731417 
L 98.92892 214.731417 
L 96.653905 212.159273 
L 94.37889 212.159273 
L 94.37889 209.58713 
L 92.103875 207.014986 
L 89.82886 204.442843 
L 89.82886 201.870699 
L 89.82886 199.298556 
L 89.82886 196.726413 
L 87.553845 194.154269 
L 87.553845 191.582126 
L 87.553845 189.009982 
" style="fill:none;stroke:#17becf;stroke-linecap:square;stroke-width:3;"/>
   </g>
   <g id="line2d_33">
    <path clip-path="url(#pcd52ee944a)" d="M 187.654501 309.900724 
L 189.929516 309.900724 
L 192.204531 307.328581 
L 187.654501 309.900724 
L 192.204531 304.756438 
L 192.204531 302.184294 
L 194.479546 299.612151 
L 196.754561 297.040007 
L 199.029575 294.467864 
L 201.30459 291.89572 
L 201.30459 289.323577 
L 201.30459 286.751433 
" style="fill:none;stroke:#1f77b4;stroke-linecap:square;stroke-width:3;"/>
   </g>
   <g id="patch_3">
    <path d="M 25.332188 323.918906 
L 25.332188 15.518906 
" style="fill:none;stroke:#000000;stroke-linecap:square;stroke-linejoin:miter;stroke-width:0.8;"/>
   </g>
   <g id="patch_4">
    <path d="M 343.15177 323.918906 
L 343.15177 15.518906 
" style="fill:none;stroke:#000000;stroke-linecap:square;stroke-linejoin:miter;stroke-width:0.8;"/>
   </g>
   <g id="patch_5">
    <path d="M 25.332188 323.918906 
L 343.15177 323.918906 
" style="fill:none;stroke:#000000;stroke-linecap:square;stroke-linejoin:miter;stroke-width:0.8;"/>
   </g>
   <g id="patch_6">
    <path d="M 25.332188 15.518906 
L 343.15177 15.518906 
" style="fill:none;stroke:#000000;stroke-linecap:square;stroke-linejoin:miter;stroke-width:0.8;"/>
   </g>
  </g>
 </g>
 <defs>
  <clipPath id="pcd52ee944a">
   <rect height="308.4" width="317.819582" x="25.332188" y="15.518906"/>
  </clipPath>
 </defs>
</svg>
