<?xml version="1.0" encoding="utf-8" standalone="no"?>
<!DOCTYPE svg PUBLIC "-//W3C//DTD SVG 1.1//EN"
  "http://www.w3.org/Graphics/SVG/1.1/DTD/svg11.dtd">
<svg height="354.668281pt" version="1.1" viewBox="0 0 352.682187 354.668281" width="352.682187pt" xmlns="http://www.w3.org/2000/svg" xmlns:xlink="http://www.w3.org/1999/xlink">
 <metadata>
  <rdf:RDF xmlns:cc="http://creativecommons.org/ns#" xmlns:dc="http://purl.org/dc/elements/1.1/" xmlns:rdf="http://www.w3.org/1999/02/22-rdf-syntax-ns#">
   <cc:Work>
    <dc:type rdf:resource="http://purl.org/dc/dcmitype/StillImage"/>
    <dc:date>2021-04-08T10:54:49.191302</dc:date>
    <dc:format>image/svg+xml</dc:format>
    <dc:creator>
     <cc:Agent>
      <dc:title>Matplotlib v3.4.1, https://matplotlib.org/</dc:title>
     </cc:Agent>
    </dc:creator>
   </cc:Work>
  </rdf:RDF>
 </metadata>
 <defs>
  <style type="text/css">*{stroke-linecap:butt;stroke-linejoin:round;}</style>
 </defs>
 <g id="figure_1">
  <g id="patch_1">
   <path d="M 0 354.668281 
L 352.682187 354.668281 
L 352.682187 0 
L 0 0 
z
" style="fill:none;"/>
  </g>
  <g id="axes_1">
   <g id="patch_2">
    <path d="M 25.332188 323.918906 
L 345.482188 323.918906 
L 345.482188 15.518906 
L 25.332188 15.518906 
z
" style="fill:#ffffff;"/>
   </g>
   <g id="matplotlib.axis_1">
    <g id="xtick_1">
     <g id="line2d_1">
      <path clip-path="url(#p56da158a48)" d="M 47.586126 323.918906 
L 47.586126 15.518906 
" style="fill:none;stroke:#b0b0b0;stroke-linecap:square;stroke-width:0.8;"/>
     </g>
     <g id="line2d_2">
      <defs>
       <path d="M 0 0 
L 0 3.5 
" id="m898ea8c177" style="stroke:#000000;stroke-width:0.8;"/>
      </defs>
      <g>
       <use style="stroke:#000000;stroke-width:0.8;" x="47.586126" xlink:href="#m898ea8c177" y="323.918906"/>
      </g>
     </g>
     <g id="text_1">
      <!-- 0.0 -->
      <g transform="translate(42.020033 336.237812)scale(0.07 -0.07)">
       <defs>
        <path d="M 2034 4250 
Q 1547 4250 1301 3770 
Q 1056 3291 1056 2328 
Q 1056 1369 1301 889 
Q 1547 409 2034 409 
Q 2525 409 2770 889 
Q 3016 1369 3016 2328 
Q 3016 3291 2770 3770 
Q 2525 4250 2034 4250 
z
M 2034 4750 
Q 2819 4750 3233 4129 
Q 3647 3509 3647 2328 
Q 3647 1150 3233 529 
Q 2819 -91 2034 -91 
Q 1250 -91 836 529 
Q 422 1150 422 2328 
Q 422 3509 836 4129 
Q 1250 4750 2034 4750 
z
" id="DejaVuSans-30" transform="scale(0.015625)"/>
        <path d="M 684 794 
L 1344 794 
L 1344 0 
L 684 0 
L 684 794 
z
" id="DejaVuSans-2e" transform="scale(0.015625)"/>
       </defs>
       <use xlink:href="#DejaVuSans-30"/>
       <use x="63.623047" xlink:href="#DejaVuSans-2e"/>
       <use x="95.410156" xlink:href="#DejaVuSans-30"/>
      </g>
     </g>
    </g>
    <g id="xtick_2">
     <g id="line2d_3">
      <path clip-path="url(#p56da158a48)" d="M 97.516795 323.918906 
L 97.516795 15.518906 
" style="fill:none;stroke:#b0b0b0;stroke-linecap:square;stroke-width:0.8;"/>
     </g>
     <g id="line2d_4">
      <g>
       <use style="stroke:#000000;stroke-width:0.8;" x="97.516795" xlink:href="#m898ea8c177" y="323.918906"/>
      </g>
     </g>
     <g id="text_2">
      <!-- 0.2 -->
      <g transform="translate(91.950702 336.237812)scale(0.07 -0.07)">
       <defs>
        <path d="M 1228 531 
L 3431 531 
L 3431 0 
L 469 0 
L 469 531 
Q 828 903 1448 1529 
Q 2069 2156 2228 2338 
Q 2531 2678 2651 2914 
Q 2772 3150 2772 3378 
Q 2772 3750 2511 3984 
Q 2250 4219 1831 4219 
Q 1534 4219 1204 4116 
Q 875 4013 500 3803 
L 500 4441 
Q 881 4594 1212 4672 
Q 1544 4750 1819 4750 
Q 2544 4750 2975 4387 
Q 3406 4025 3406 3419 
Q 3406 3131 3298 2873 
Q 3191 2616 2906 2266 
Q 2828 2175 2409 1742 
Q 1991 1309 1228 531 
z
" id="DejaVuSans-32" transform="scale(0.015625)"/>
       </defs>
       <use xlink:href="#DejaVuSans-30"/>
       <use x="63.623047" xlink:href="#DejaVuSans-2e"/>
       <use x="95.410156" xlink:href="#DejaVuSans-32"/>
      </g>
     </g>
    </g>
    <g id="xtick_3">
     <g id="line2d_5">
      <path clip-path="url(#p56da158a48)" d="M 147.447464 323.918906 
L 147.447464 15.518906 
" style="fill:none;stroke:#b0b0b0;stroke-linecap:square;stroke-width:0.8;"/>
     </g>
     <g id="line2d_6">
      <g>
       <use style="stroke:#000000;stroke-width:0.8;" x="147.447464" xlink:href="#m898ea8c177" y="323.918906"/>
      </g>
     </g>
     <g id="text_3">
      <!-- 0.4 -->
      <g transform="translate(141.88137 336.237812)scale(0.07 -0.07)">
       <defs>
        <path d="M 2419 4116 
L 825 1625 
L 2419 1625 
L 2419 4116 
z
M 2253 4666 
L 3047 4666 
L 3047 1625 
L 3713 1625 
L 3713 1100 
L 3047 1100 
L 3047 0 
L 2419 0 
L 2419 1100 
L 313 1100 
L 313 1709 
L 2253 4666 
z
" id="DejaVuSans-34" transform="scale(0.015625)"/>
       </defs>
       <use xlink:href="#DejaVuSans-30"/>
       <use x="63.623047" xlink:href="#DejaVuSans-2e"/>
       <use x="95.410156" xlink:href="#DejaVuSans-34"/>
      </g>
     </g>
    </g>
    <g id="xtick_4">
     <g id="line2d_7">
      <path clip-path="url(#p56da158a48)" d="M 197.378133 323.918906 
L 197.378133 15.518906 
" style="fill:none;stroke:#b0b0b0;stroke-linecap:square;stroke-width:0.8;"/>
     </g>
     <g id="line2d_8">
      <g>
       <use style="stroke:#000000;stroke-width:0.8;" x="197.378133" xlink:href="#m898ea8c177" y="323.918906"/>
      </g>
     </g>
     <g id="text_4">
      <!-- 0.6 -->
      <g transform="translate(191.812039 336.237812)scale(0.07 -0.07)">
       <defs>
        <path d="M 2113 2584 
Q 1688 2584 1439 2293 
Q 1191 2003 1191 1497 
Q 1191 994 1439 701 
Q 1688 409 2113 409 
Q 2538 409 2786 701 
Q 3034 994 3034 1497 
Q 3034 2003 2786 2293 
Q 2538 2584 2113 2584 
z
M 3366 4563 
L 3366 3988 
Q 3128 4100 2886 4159 
Q 2644 4219 2406 4219 
Q 1781 4219 1451 3797 
Q 1122 3375 1075 2522 
Q 1259 2794 1537 2939 
Q 1816 3084 2150 3084 
Q 2853 3084 3261 2657 
Q 3669 2231 3669 1497 
Q 3669 778 3244 343 
Q 2819 -91 2113 -91 
Q 1303 -91 875 529 
Q 447 1150 447 2328 
Q 447 3434 972 4092 
Q 1497 4750 2381 4750 
Q 2619 4750 2861 4703 
Q 3103 4656 3366 4563 
z
" id="DejaVuSans-36" transform="scale(0.015625)"/>
       </defs>
       <use xlink:href="#DejaVuSans-30"/>
       <use x="63.623047" xlink:href="#DejaVuSans-2e"/>
       <use x="95.410156" xlink:href="#DejaVuSans-36"/>
      </g>
     </g>
    </g>
    <g id="xtick_5">
     <g id="line2d_9">
      <path clip-path="url(#p56da158a48)" d="M 247.308802 323.918906 
L 247.308802 15.518906 
" style="fill:none;stroke:#b0b0b0;stroke-linecap:square;stroke-width:0.8;"/>
     </g>
     <g id="line2d_10">
      <g>
       <use style="stroke:#000000;stroke-width:0.8;" x="247.308802" xlink:href="#m898ea8c177" y="323.918906"/>
      </g>
     </g>
     <g id="text_5">
      <!-- 0.8 -->
      <g transform="translate(241.742708 336.237812)scale(0.07 -0.07)">
       <defs>
        <path d="M 2034 2216 
Q 1584 2216 1326 1975 
Q 1069 1734 1069 1313 
Q 1069 891 1326 650 
Q 1584 409 2034 409 
Q 2484 409 2743 651 
Q 3003 894 3003 1313 
Q 3003 1734 2745 1975 
Q 2488 2216 2034 2216 
z
M 1403 2484 
Q 997 2584 770 2862 
Q 544 3141 544 3541 
Q 544 4100 942 4425 
Q 1341 4750 2034 4750 
Q 2731 4750 3128 4425 
Q 3525 4100 3525 3541 
Q 3525 3141 3298 2862 
Q 3072 2584 2669 2484 
Q 3125 2378 3379 2068 
Q 3634 1759 3634 1313 
Q 3634 634 3220 271 
Q 2806 -91 2034 -91 
Q 1263 -91 848 271 
Q 434 634 434 1313 
Q 434 1759 690 2068 
Q 947 2378 1403 2484 
z
M 1172 3481 
Q 1172 3119 1398 2916 
Q 1625 2713 2034 2713 
Q 2441 2713 2670 2916 
Q 2900 3119 2900 3481 
Q 2900 3844 2670 4047 
Q 2441 4250 2034 4250 
Q 1625 4250 1398 4047 
Q 1172 3844 1172 3481 
z
" id="DejaVuSans-38" transform="scale(0.015625)"/>
       </defs>
       <use xlink:href="#DejaVuSans-30"/>
       <use x="63.623047" xlink:href="#DejaVuSans-2e"/>
       <use x="95.410156" xlink:href="#DejaVuSans-38"/>
      </g>
     </g>
    </g>
    <g id="xtick_6">
     <g id="line2d_11">
      <path clip-path="url(#p56da158a48)" d="M 297.239471 323.918906 
L 297.239471 15.518906 
" style="fill:none;stroke:#b0b0b0;stroke-linecap:square;stroke-width:0.8;"/>
     </g>
     <g id="line2d_12">
      <g>
       <use style="stroke:#000000;stroke-width:0.8;" x="297.239471" xlink:href="#m898ea8c177" y="323.918906"/>
      </g>
     </g>
     <g id="text_6">
      <!-- 1.0 -->
      <g transform="translate(291.673377 336.237812)scale(0.07 -0.07)">
       <defs>
        <path d="M 794 531 
L 1825 531 
L 1825 4091 
L 703 3866 
L 703 4441 
L 1819 4666 
L 2450 4666 
L 2450 531 
L 3481 531 
L 3481 0 
L 794 0 
L 794 531 
z
" id="DejaVuSans-31" transform="scale(0.015625)"/>
       </defs>
       <use xlink:href="#DejaVuSans-31"/>
       <use x="63.623047" xlink:href="#DejaVuSans-2e"/>
       <use x="95.410156" xlink:href="#DejaVuSans-30"/>
      </g>
     </g>
    </g>
    <g id="text_7">
     <!-- 1e6 -->
     <g transform="translate(332.2675 346.0125)scale(0.07 -0.07)">
      <defs>
       <path d="M 3597 1894 
L 3597 1613 
L 953 1613 
Q 991 1019 1311 708 
Q 1631 397 2203 397 
Q 2534 397 2845 478 
Q 3156 559 3463 722 
L 3463 178 
Q 3153 47 2828 -22 
Q 2503 -91 2169 -91 
Q 1331 -91 842 396 
Q 353 884 353 1716 
Q 353 2575 817 3079 
Q 1281 3584 2069 3584 
Q 2775 3584 3186 3129 
Q 3597 2675 3597 1894 
z
M 3022 2063 
Q 3016 2534 2758 2815 
Q 2500 3097 2075 3097 
Q 1594 3097 1305 2825 
Q 1016 2553 972 2059 
L 3022 2063 
z
" id="DejaVuSans-65" transform="scale(0.015625)"/>
      </defs>
      <use xlink:href="#DejaVuSans-31"/>
      <use x="63.623047" xlink:href="#DejaVuSans-65"/>
      <use x="125.146484" xlink:href="#DejaVuSans-36"/>
     </g>
    </g>
   </g>
   <g id="matplotlib.axis_2">
    <g id="ytick_1">
     <g id="line2d_13">
      <path clip-path="url(#p56da158a48)" d="M 25.332188 313.122894 
L 345.482188 313.122894 
" style="fill:none;stroke:#b0b0b0;stroke-linecap:square;stroke-width:0.8;"/>
     </g>
     <g id="line2d_14">
      <defs>
       <path d="M 0 0 
L -3.5 0 
" id="mbb15c04042" style="stroke:#000000;stroke-width:0.8;"/>
      </defs>
      <g>
       <use style="stroke:#000000;stroke-width:0.8;" x="25.332188" xlink:href="#mbb15c04042" y="313.122894"/>
      </g>
     </g>
     <g id="text_8">
      <!-- 3.6 -->
      <g transform="translate(7.2 315.782347)scale(0.07 -0.07)">
       <defs>
        <path d="M 2597 2516 
Q 3050 2419 3304 2112 
Q 3559 1806 3559 1356 
Q 3559 666 3084 287 
Q 2609 -91 1734 -91 
Q 1441 -91 1130 -33 
Q 819 25 488 141 
L 488 750 
Q 750 597 1062 519 
Q 1375 441 1716 441 
Q 2309 441 2620 675 
Q 2931 909 2931 1356 
Q 2931 1769 2642 2001 
Q 2353 2234 1838 2234 
L 1294 2234 
L 1294 2753 
L 1863 2753 
Q 2328 2753 2575 2939 
Q 2822 3125 2822 3475 
Q 2822 3834 2567 4026 
Q 2313 4219 1838 4219 
Q 1578 4219 1281 4162 
Q 984 4106 628 3988 
L 628 4550 
Q 988 4650 1302 4700 
Q 1616 4750 1894 4750 
Q 2613 4750 3031 4423 
Q 3450 4097 3450 3541 
Q 3450 3153 3228 2886 
Q 3006 2619 2597 2516 
z
" id="DejaVuSans-33" transform="scale(0.015625)"/>
       </defs>
       <use xlink:href="#DejaVuSans-33"/>
       <use x="63.623047" xlink:href="#DejaVuSans-2e"/>
       <use x="95.410156" xlink:href="#DejaVuSans-36"/>
      </g>
     </g>
    </g>
    <g id="ytick_2">
     <g id="line2d_15">
      <path clip-path="url(#p56da158a48)" d="M 25.332188 253.325212 
L 345.482188 253.325212 
" style="fill:none;stroke:#b0b0b0;stroke-linecap:square;stroke-width:0.8;"/>
     </g>
     <g id="line2d_16">
      <g>
       <use style="stroke:#000000;stroke-width:0.8;" x="25.332188" xlink:href="#mbb15c04042" y="253.325212"/>
      </g>
     </g>
     <g id="text_9">
      <!-- 3.8 -->
      <g transform="translate(7.2 255.984665)scale(0.07 -0.07)">
       <use xlink:href="#DejaVuSans-33"/>
       <use x="63.623047" xlink:href="#DejaVuSans-2e"/>
       <use x="95.410156" xlink:href="#DejaVuSans-38"/>
      </g>
     </g>
    </g>
    <g id="ytick_3">
     <g id="line2d_17">
      <path clip-path="url(#p56da158a48)" d="M 25.332188 193.527529 
L 345.482188 193.527529 
" style="fill:none;stroke:#b0b0b0;stroke-linecap:square;stroke-width:0.8;"/>
     </g>
     <g id="line2d_18">
      <g>
       <use style="stroke:#000000;stroke-width:0.8;" x="25.332188" xlink:href="#mbb15c04042" y="193.527529"/>
      </g>
     </g>
     <g id="text_10">
      <!-- 4.0 -->
      <g transform="translate(7.2 196.186982)scale(0.07 -0.07)">
       <use xlink:href="#DejaVuSans-34"/>
       <use x="63.623047" xlink:href="#DejaVuSans-2e"/>
       <use x="95.410156" xlink:href="#DejaVuSans-30"/>
      </g>
     </g>
    </g>
    <g id="ytick_4">
     <g id="line2d_19">
      <path clip-path="url(#p56da158a48)" d="M 25.332188 133.729846 
L 345.482188 133.729846 
" style="fill:none;stroke:#b0b0b0;stroke-linecap:square;stroke-width:0.8;"/>
     </g>
     <g id="line2d_20">
      <g>
       <use style="stroke:#000000;stroke-width:0.8;" x="25.332188" xlink:href="#mbb15c04042" y="133.729846"/>
      </g>
     </g>
     <g id="text_11">
      <!-- 4.2 -->
      <g transform="translate(7.2 136.389299)scale(0.07 -0.07)">
       <use xlink:href="#DejaVuSans-34"/>
       <use x="63.623047" xlink:href="#DejaVuSans-2e"/>
       <use x="95.410156" xlink:href="#DejaVuSans-32"/>
      </g>
     </g>
    </g>
    <g id="ytick_5">
     <g id="line2d_21">
      <path clip-path="url(#p56da158a48)" d="M 25.332188 73.932163 
L 345.482188 73.932163 
" style="fill:none;stroke:#b0b0b0;stroke-linecap:square;stroke-width:0.8;"/>
     </g>
     <g id="line2d_22">
      <g>
       <use style="stroke:#000000;stroke-width:0.8;" x="25.332188" xlink:href="#mbb15c04042" y="73.932163"/>
      </g>
     </g>
     <g id="text_12">
      <!-- 4.4 -->
      <g transform="translate(7.2 76.591616)scale(0.07 -0.07)">
       <use xlink:href="#DejaVuSans-34"/>
       <use x="63.623047" xlink:href="#DejaVuSans-2e"/>
       <use x="95.410156" xlink:href="#DejaVuSans-34"/>
      </g>
     </g>
    </g>
    <g id="text_13">
     <!-- 1e6 -->
     <g transform="translate(25.332188 12.518906)scale(0.07 -0.07)">
      <use xlink:href="#DejaVuSans-31"/>
      <use x="63.623047" xlink:href="#DejaVuSans-65"/>
      <use x="125.146484" xlink:href="#DejaVuSans-36"/>
     </g>
    </g>
   </g>
   <g id="line2d_23">
    <path clip-path="url(#p56da158a48)" d="M 111.591311 59.84667 
L 111.591311 57.320872 
L 111.591311 54.795073 
L 109.482286 52.269275 
L 109.482286 49.743476 
L 111.591311 47.217678 
L 111.591311 44.691879 
L 111.591311 42.166081 
L 111.591311 39.640282 
L 111.591311 37.114484 
L 113.700336 34.588685 
L 111.591311 32.062887 
L 111.591311 29.537088 
" style="fill:none;stroke:#1f77b4;stroke-linecap:square;stroke-width:3;"/>
   </g>
   <g id="line2d_24">
    <path clip-path="url(#p56da158a48)" d="M 111.591311 59.84667 
L 109.482286 59.84667 
L 107.373261 59.84667 
L 105.264236 62.372469 
L 103.155211 64.898267 
L 101.046186 67.424066 
L 98.937161 69.949864 
L 96.828136 69.949864 
L 94.719111 67.424066 
L 92.610086 67.424066 
L 90.501061 67.424066 
L 90.501061 64.898267 
L 90.501061 62.372469 
L 90.501061 59.84667 
L 90.501061 57.320872 
L 88.392036 54.795073 
L 86.283011 54.795073 
L 84.173986 54.795073 
L 82.064961 52.269275 
L 79.955936 52.269275 
L 77.846911 52.269275 
L 75.737886 52.269275 
L 73.628861 49.743476 
L 71.519836 49.743476 
L 69.410811 49.743476 
L 67.301786 49.743476 
L 65.192761 47.217678 
L 63.083736 44.691879 
L 60.974711 42.166081 
L 58.865686 42.166081 
L 56.75666 42.166081 
L 54.647635 42.166081 
L 52.53861 42.166081 
L 50.429585 42.166081 
L 48.32056 39.640282 
L 46.211535 39.640282 
L 44.10251 39.640282 
L 41.993485 39.640282 
L 39.88446 37.114484 
" style="fill:none;stroke:#ff7f0e;stroke-linecap:square;stroke-width:3;"/>
   </g>
   <g id="line2d_25">
    <path clip-path="url(#p56da158a48)" d="M 166.425962 85.104656 
L 164.316937 82.578857 
L 162.207912 82.578857 
L 160.098887 82.578857 
L 160.098887 80.053059 
L 157.989862 77.52726 
L 155.880837 75.001462 
L 155.880837 72.475663 
L 153.771812 69.949864 
L 153.771812 67.424066 
L 151.662787 67.424066 
L 149.553762 64.898267 
L 147.444737 64.898267 
L 145.335712 64.898267 
L 143.226687 67.424066 
L 141.117662 67.424066 
L 139.008637 67.424066 
L 136.899612 67.424066 
L 134.790587 67.424066 
L 132.681562 64.898267 
L 130.572537 62.372469 
L 128.463512 62.372469 
L 126.354487 59.84667 
L 124.245462 59.84667 
L 122.136437 62.372469 
L 120.027411 62.372469 
L 117.918386 62.372469 
L 115.809361 62.372469 
L 113.700336 62.372469 
L 111.591311 59.84667 
" style="fill:none;stroke:#2ca02c;stroke-linecap:square;stroke-width:3;"/>
   </g>
   <g id="line2d_26">
    <path clip-path="url(#p56da158a48)" d="M 166.425962 85.104656 
L 164.316937 85.104656 
L 162.207912 85.104656 
L 160.098887 85.104656 
L 157.989862 87.630454 
L 155.880837 87.630454 
L 153.771812 90.156253 
L 151.662787 90.156253 
L 149.553762 90.156253 
L 147.444737 90.156253 
L 145.335712 92.682051 
L 143.226687 92.682051 
L 141.117662 92.682051 
L 139.008637 92.682051 
L 136.899612 92.682051 
L 134.790587 90.156253 
L 132.681562 90.156253 
L 130.572537 90.156253 
L 128.463512 87.630454 
L 126.354487 87.630454 
L 124.245462 90.156253 
L 122.136437 90.156253 
L 120.027411 90.156253 
L 117.918386 90.156253 
L 115.809361 92.682051 
L 113.700336 92.682051 
L 111.591311 92.682051 
L 109.482286 92.682051 
L 107.373261 92.682051 
L 105.264236 92.682051 
L 103.155211 90.156253 
L 101.046186 90.156253 
L 98.937161 90.156253 
L 96.828136 90.156253 
L 94.719111 92.682051 
L 92.610086 95.20785 
L 90.501061 95.20785 
L 88.392036 92.682051 
L 86.283011 95.20785 
L 84.173986 95.20785 
L 82.064961 95.20785 
L 79.955936 95.20785 
L 77.846911 97.733648 
L 75.737886 97.733648 
L 73.628861 97.733648 
L 71.519836 95.20785 
L 69.410811 95.20785 
L 67.301786 92.682051 
L 65.192761 92.682051 
" style="fill:none;stroke:#d62728;stroke-linecap:square;stroke-width:3;"/>
   </g>
   <g id="line2d_27">
    <path clip-path="url(#p56da158a48)" d="M 225.478663 107.836842 
L 223.369638 107.836842 
L 221.260613 107.836842 
L 219.151588 107.836842 
L 217.042563 110.362641 
L 214.933538 110.362641 
L 212.824513 110.362641 
L 210.715488 110.362641 
L 208.606463 107.836842 
L 206.497438 107.836842 
L 204.388413 110.362641 
L 202.279388 112.888439 
L 200.170363 115.414238 
L 198.061338 115.414238 
L 195.952313 117.940036 
L 193.843288 117.940036 
L 191.734263 117.940036 
L 189.625238 115.414238 
L 187.516213 112.888439 
L 185.407187 110.362641 
L 183.298162 107.836842 
L 181.189137 107.836842 
L 179.080112 107.836842 
L 176.971087 105.311044 
L 174.862062 102.785245 
L 172.753037 100.259447 
L 170.644012 97.733648 
L 168.534987 95.20785 
L 168.534987 92.682051 
L 168.534987 90.156253 
L 168.534987 87.630454 
L 166.425962 85.104656 
" style="fill:none;stroke:#9467bd;stroke-linecap:square;stroke-width:3;"/>
   </g>
   <g id="line2d_28">
    <path clip-path="url(#p56da158a48)" d="M 225.478663 107.836842 
L 223.369638 105.311044 
L 221.260613 105.311044 
L 219.151588 105.311044 
L 219.151588 102.785245 
L 219.151588 100.259447 
L 219.151588 97.733648 
L 219.151588 95.20785 
L 221.260613 92.682051 
L 221.260613 90.156253 
L 221.260613 87.630454 
L 221.260613 85.104656 
" style="fill:none;stroke:#8c564b;stroke-linecap:square;stroke-width:3;"/>
   </g>
   <g id="line2d_29">
    <path clip-path="url(#p56da158a48)" d="M 276.095264 145.72382 
L 278.204289 143.198022 
L 278.204289 140.672223 
L 280.313314 138.146425 
L 282.422339 135.620626 
L 284.531364 135.620626 
L 286.640389 133.094828 
L 288.749414 133.094828 
L 290.858439 133.094828 
L 292.967464 133.094828 
L 295.076489 133.094828 
L 297.185514 133.094828 
L 299.294539 130.569029 
L 301.403564 128.043231 
L 303.512589 128.043231 
L 305.621614 128.043231 
L 307.730639 128.043231 
L 309.839664 125.517432 
L 311.948689 125.517432 
L 314.057715 125.517432 
L 316.16674 122.991634 
L 318.275765 122.991634 
L 320.38479 120.465835 
L 322.493815 120.465835 
L 324.60284 120.465835 
L 326.711865 117.940036 
L 328.82089 115.414238 
L 330.929915 112.888439 
L 330.929915 110.362641 
L 330.929915 107.836842 
L 330.929915 105.311044 
" style="fill:none;stroke:#e377c2;stroke-linecap:square;stroke-width:3;"/>
   </g>
   <g id="line2d_30">
    <path clip-path="url(#p56da158a48)" d="M 276.095264 145.72382 
L 276.095264 143.198022 
L 276.095264 140.672223 
L 276.095264 138.146425 
L 276.095264 135.620626 
L 276.095264 133.094828 
L 276.095264 130.569029 
L 273.986239 128.043231 
L 271.877214 128.043231 
L 269.768189 125.517432 
L 269.768189 122.991634 
L 267.659164 120.465835 
L 265.550139 117.940036 
L 263.441114 117.940036 
L 261.332089 117.940036 
L 259.223064 120.465835 
L 259.223064 122.991634 
L 257.114039 125.517432 
L 255.005014 128.043231 
L 252.895989 128.043231 
L 250.786964 128.043231 
L 248.677938 128.043231 
L 246.568913 130.569029 
L 244.459888 133.094828 
L 242.350863 133.094828 
L 240.241838 133.094828 
L 238.132813 130.569029 
L 236.023788 128.043231 
L 236.023788 125.517432 
L 236.023788 122.991634 
L 236.023788 120.465835 
L 236.023788 117.940036 
L 238.132813 115.414238 
L 236.023788 112.888439 
L 233.914763 110.362641 
L 231.805738 110.362641 
L 229.696713 110.362641 
L 227.587688 110.362641 
L 225.478663 107.836842 
" style="fill:none;stroke:#7f7f7f;stroke-linecap:square;stroke-width:3;"/>
   </g>
   <g id="line2d_31">
    <path clip-path="url(#p56da158a48)" d="M 221.260613 287.168538 
L 221.260613 284.642739 
L 223.369638 282.116941 
L 223.369638 279.591142 
L 223.369638 277.065344 
L 225.478663 274.539545 
L 227.587688 272.013747 
L 227.587688 269.487948 
L 227.587688 266.962149 
L 229.696713 264.436351 
L 229.696713 261.910552 
L 229.696713 259.384754 
L 229.696713 256.858955 
L 229.696713 254.333157 
L 229.696713 251.807358 
L 227.587688 249.28156 
L 225.478663 246.755761 
L 227.587688 244.229963 
L 227.587688 241.704164 
L 225.478663 239.178366 
L 223.369638 236.652567 
L 225.478663 234.126769 
L 225.478663 231.60097 
L 225.478663 229.075172 
L 225.478663 226.549373 
L 227.587688 224.023575 
L 227.587688 221.497776 
L 227.587688 218.971978 
L 227.587688 216.446179 
L 229.696713 213.92038 
L 229.696713 211.394582 
L 231.805738 208.868783 
L 233.914763 206.342985 
L 233.914763 203.817186 
L 233.914763 201.291388 
L 236.023788 198.765589 
L 238.132813 196.239791 
L 238.132813 193.713992 
L 238.132813 191.188194 
L 240.241838 188.662395 
L 242.350863 188.662395 
L 244.459888 186.136597 
L 244.459888 183.610798 
L 244.459888 181.085 
L 246.568913 181.085 
L 246.568913 178.559201 
L 246.568913 176.033403 
L 248.677938 173.507604 
L 248.677938 170.981806 
L 248.677938 168.456007 
L 248.677938 165.930208 
L 250.786964 163.40441 
L 250.786964 160.878611 
L 252.895989 160.878611 
L 255.005014 158.352813 
L 257.114039 158.352813 
L 259.223064 158.352813 
L 261.332089 158.352813 
L 263.441114 158.352813 
L 265.550139 158.352813 
L 267.659164 155.827014 
L 269.768189 153.301216 
L 269.768189 150.775417 
L 271.877214 148.249619 
L 273.986239 148.249619 
L 276.095264 145.72382 
" style="fill:none;stroke:#bcbd22;stroke-linecap:square;stroke-width:3;"/>
   </g>
   <g id="line2d_32">
    <path clip-path="url(#p56da158a48)" d="M 221.260613 287.168538 
L 219.151588 284.642739 
L 217.042563 282.116941 
L 214.933538 279.591142 
L 212.824513 277.065344 
L 212.824513 274.539545 
L 210.715488 272.013747 
L 210.715488 269.487948 
L 210.715488 266.962149 
L 208.606463 264.436351 
L 208.606463 261.910552 
L 206.497438 259.384754 
L 204.388413 256.858955 
L 202.279388 256.858955 
L 200.170363 256.858955 
L 198.061338 254.333157 
L 198.061338 251.807358 
L 198.061338 249.28156 
L 195.952313 249.28156 
L 193.843288 246.755761 
L 191.734263 244.229963 
L 189.625238 241.704164 
L 189.625238 239.178366 
L 187.516213 236.652567 
L 185.407187 236.652567 
L 183.298162 234.126769 
L 181.189137 231.60097 
L 181.189137 229.075172 
L 179.080112 226.549373 
L 176.971087 224.023575 
L 174.862062 224.023575 
L 172.753037 224.023575 
L 170.644012 224.023575 
L 168.534987 224.023575 
L 166.425962 224.023575 
L 166.425962 221.497776 
L 166.425962 218.971978 
L 164.316937 216.446179 
L 162.207912 216.446179 
L 160.098887 218.971978 
L 157.989862 218.971978 
L 155.880837 218.971978 
L 153.771812 218.971978 
L 151.662787 218.971978 
L 149.553762 218.971978 
L 147.444737 218.971978 
L 145.335712 218.971978 
L 143.226687 216.446179 
L 141.117662 216.446179 
L 139.008637 218.971978 
L 136.899612 218.971978 
L 134.790587 218.971978 
L 132.681562 218.971978 
L 130.572537 221.497776 
L 128.463512 218.971978 
L 126.354487 218.971978 
L 124.245462 218.971978 
L 122.136437 218.971978 
L 120.027411 216.446179 
L 120.027411 213.92038 
L 117.918386 211.394582 
L 117.918386 208.868783 
L 117.918386 206.342985 
L 115.809361 203.817186 
L 115.809361 201.291388 
L 113.700336 198.765589 
L 113.700336 196.239791 
L 113.700336 193.713992 
L 111.591311 191.188194 
L 109.482286 188.662395 
L 107.373261 188.662395 
L 105.264236 188.662395 
L 103.155211 188.662395 
" style="fill:none;stroke:#17becf;stroke-linecap:square;stroke-width:3;"/>
   </g>
   <g id="line2d_33">
    <path clip-path="url(#p56da158a48)" d="M 210.715488 309.900724 
L 210.715488 307.374926 
L 210.715488 304.849127 
L 210.715488 309.900724 
L 212.824513 302.323329 
L 214.933538 299.79753 
L 217.042563 297.271732 
L 219.151588 294.745933 
L 219.151588 292.220135 
L 221.260613 289.694336 
L 221.260613 287.168538 
" style="fill:none;stroke:#1f77b4;stroke-linecap:square;stroke-width:3;"/>
   </g>
   <g id="patch_3">
    <path d="M 25.332188 323.918906 
L 25.332188 15.518906 
" style="fill:none;stroke:#000000;stroke-linecap:square;stroke-linejoin:miter;stroke-width:0.8;"/>
   </g>
   <g id="patch_4">
    <path d="M 345.482188 323.918906 
L 345.482188 15.518906 
" style="fill:none;stroke:#000000;stroke-linecap:square;stroke-linejoin:miter;stroke-width:0.8;"/>
   </g>
   <g id="patch_5">
    <path d="M 25.332188 323.918906 
L 345.482187 323.918906 
" style="fill:none;stroke:#000000;stroke-linecap:square;stroke-linejoin:miter;stroke-width:0.8;"/>
   </g>
   <g id="patch_6">
    <path d="M 25.332188 15.518906 
L 345.482187 15.518906 
" style="fill:none;stroke:#000000;stroke-linecap:square;stroke-linejoin:miter;stroke-width:0.8;"/>
   </g>
  </g>
 </g>
 <defs>
  <clipPath id="p56da158a48">
   <rect height="308.4" width="320.15" x="25.332188" y="15.518906"/>
  </clipPath>
 </defs>
</svg>
