<?xml version="1.0" encoding="utf-8" standalone="no"?>
<!DOCTYPE svg PUBLIC "-//W3C//DTD SVG 1.1//EN"
  "http://www.w3.org/Graphics/SVG/1.1/DTD/svg11.dtd">
<svg height="282.349375pt" version="1.1" viewBox="0 0 568.559531 282.349375" width="568.559531pt" xmlns="http://www.w3.org/2000/svg" xmlns:xlink="http://www.w3.org/1999/xlink">
 <metadata>
  <rdf:RDF xmlns:cc="http://creativecommons.org/ns#" xmlns:dc="http://purl.org/dc/elements/1.1/" xmlns:rdf="http://www.w3.org/1999/02/22-rdf-syntax-ns#">
   <cc:Work>
    <dc:type rdf:resource="http://purl.org/dc/dcmitype/StillImage"/>
    <dc:date>2021-07-17T03:46:53.118948</dc:date>
    <dc:format>image/svg+xml</dc:format>
    <dc:creator>
     <cc:Agent>
      <dc:title>Matplotlib v3.4.2, https://matplotlib.org/</dc:title>
     </cc:Agent>
    </dc:creator>
   </cc:Work>
  </rdf:RDF>
 </metadata>
 <defs>
  <style type="text/css">*{stroke-linecap:butt;stroke-linejoin:round;}</style>
 </defs>
 <g id="figure_1">
  <g id="patch_1">
   <path d="M 0 282.349375 
L 568.559531 282.349375 
L 568.559531 0 
L 0 0 
z
" style="fill:none;"/>
  </g>
  <g id="axes_1">
   <g id="patch_2">
    <path d="M 42.334531 251.6 
L 561.359531 251.6 
L 561.359531 7.2 
L 42.334531 7.2 
z
" style="fill:#ffffff;"/>
   </g>
   <g id="matplotlib.axis_1">
    <g id="xtick_1">
     <g id="line2d_1">
      <path clip-path="url(#pcc6ddcb7d2)" d="M 65.926577 251.6 
L 65.926577 7.2 
" style="fill:none;stroke:#b0b0b0;stroke-linecap:square;stroke-width:0.8;"/>
     </g>
     <g id="line2d_2">
      <defs>
       <path d="M 0 0 
L 0 3.5 
" id="m6bcb0ea33a" style="stroke:#000000;stroke-width:0.8;"/>
      </defs>
      <g>
       <use style="stroke:#000000;stroke-width:0.8;" x="65.926577" xlink:href="#m6bcb0ea33a" y="251.6"/>
      </g>
     </g>
     <g id="text_1">
      <!-- 0.00 -->
      <g transform="translate(58.133608 263.918906)scale(0.07 -0.07)">
       <defs>
        <path d="M 2034 4250 
Q 1547 4250 1301 3770 
Q 1056 3291 1056 2328 
Q 1056 1369 1301 889 
Q 1547 409 2034 409 
Q 2525 409 2770 889 
Q 3016 1369 3016 2328 
Q 3016 3291 2770 3770 
Q 2525 4250 2034 4250 
z
M 2034 4750 
Q 2819 4750 3233 4129 
Q 3647 3509 3647 2328 
Q 3647 1150 3233 529 
Q 2819 -91 2034 -91 
Q 1250 -91 836 529 
Q 422 1150 422 2328 
Q 422 3509 836 4129 
Q 1250 4750 2034 4750 
z
" id="DejaVuSans-30" transform="scale(0.015625)"/>
        <path d="M 684 794 
L 1344 794 
L 1344 0 
L 684 0 
L 684 794 
z
" id="DejaVuSans-2e" transform="scale(0.015625)"/>
       </defs>
       <use xlink:href="#DejaVuSans-30"/>
       <use x="63.623047" xlink:href="#DejaVuSans-2e"/>
       <use x="95.410156" xlink:href="#DejaVuSans-30"/>
       <use x="159.033203" xlink:href="#DejaVuSans-30"/>
      </g>
     </g>
    </g>
    <g id="xtick_2">
     <g id="line2d_3">
      <path clip-path="url(#pcc6ddcb7d2)" d="M 125.363141 251.6 
L 125.363141 7.2 
" style="fill:none;stroke:#b0b0b0;stroke-linecap:square;stroke-width:0.8;"/>
     </g>
     <g id="line2d_4">
      <g>
       <use style="stroke:#000000;stroke-width:0.8;" x="125.363141" xlink:href="#m6bcb0ea33a" y="251.6"/>
      </g>
     </g>
     <g id="text_2">
      <!-- 0.25 -->
      <g transform="translate(117.570172 263.918906)scale(0.07 -0.07)">
       <defs>
        <path d="M 1228 531 
L 3431 531 
L 3431 0 
L 469 0 
L 469 531 
Q 828 903 1448 1529 
Q 2069 2156 2228 2338 
Q 2531 2678 2651 2914 
Q 2772 3150 2772 3378 
Q 2772 3750 2511 3984 
Q 2250 4219 1831 4219 
Q 1534 4219 1204 4116 
Q 875 4013 500 3803 
L 500 4441 
Q 881 4594 1212 4672 
Q 1544 4750 1819 4750 
Q 2544 4750 2975 4387 
Q 3406 4025 3406 3419 
Q 3406 3131 3298 2873 
Q 3191 2616 2906 2266 
Q 2828 2175 2409 1742 
Q 1991 1309 1228 531 
z
" id="DejaVuSans-32" transform="scale(0.015625)"/>
        <path d="M 691 4666 
L 3169 4666 
L 3169 4134 
L 1269 4134 
L 1269 2991 
Q 1406 3038 1543 3061 
Q 1681 3084 1819 3084 
Q 2600 3084 3056 2656 
Q 3513 2228 3513 1497 
Q 3513 744 3044 326 
Q 2575 -91 1722 -91 
Q 1428 -91 1123 -41 
Q 819 9 494 109 
L 494 744 
Q 775 591 1075 516 
Q 1375 441 1709 441 
Q 2250 441 2565 725 
Q 2881 1009 2881 1497 
Q 2881 1984 2565 2268 
Q 2250 2553 1709 2553 
Q 1456 2553 1204 2497 
Q 953 2441 691 2322 
L 691 4666 
z
" id="DejaVuSans-35" transform="scale(0.015625)"/>
       </defs>
       <use xlink:href="#DejaVuSans-30"/>
       <use x="63.623047" xlink:href="#DejaVuSans-2e"/>
       <use x="95.410156" xlink:href="#DejaVuSans-32"/>
       <use x="159.033203" xlink:href="#DejaVuSans-35"/>
      </g>
     </g>
    </g>
    <g id="xtick_3">
     <g id="line2d_5">
      <path clip-path="url(#pcc6ddcb7d2)" d="M 184.799705 251.6 
L 184.799705 7.2 
" style="fill:none;stroke:#b0b0b0;stroke-linecap:square;stroke-width:0.8;"/>
     </g>
     <g id="line2d_6">
      <g>
       <use style="stroke:#000000;stroke-width:0.8;" x="184.799705" xlink:href="#m6bcb0ea33a" y="251.6"/>
      </g>
     </g>
     <g id="text_3">
      <!-- 0.50 -->
      <g transform="translate(177.006736 263.918906)scale(0.07 -0.07)">
       <use xlink:href="#DejaVuSans-30"/>
       <use x="63.623047" xlink:href="#DejaVuSans-2e"/>
       <use x="95.410156" xlink:href="#DejaVuSans-35"/>
       <use x="159.033203" xlink:href="#DejaVuSans-30"/>
      </g>
     </g>
    </g>
    <g id="xtick_4">
     <g id="line2d_7">
      <path clip-path="url(#pcc6ddcb7d2)" d="M 244.236269 251.6 
L 244.236269 7.2 
" style="fill:none;stroke:#b0b0b0;stroke-linecap:square;stroke-width:0.8;"/>
     </g>
     <g id="line2d_8">
      <g>
       <use style="stroke:#000000;stroke-width:0.8;" x="244.236269" xlink:href="#m6bcb0ea33a" y="251.6"/>
      </g>
     </g>
     <g id="text_4">
      <!-- 0.75 -->
      <g transform="translate(236.4433 263.918906)scale(0.07 -0.07)">
       <defs>
        <path d="M 525 4666 
L 3525 4666 
L 3525 4397 
L 1831 0 
L 1172 0 
L 2766 4134 
L 525 4134 
L 525 4666 
z
" id="DejaVuSans-37" transform="scale(0.015625)"/>
       </defs>
       <use xlink:href="#DejaVuSans-30"/>
       <use x="63.623047" xlink:href="#DejaVuSans-2e"/>
       <use x="95.410156" xlink:href="#DejaVuSans-37"/>
       <use x="159.033203" xlink:href="#DejaVuSans-35"/>
      </g>
     </g>
    </g>
    <g id="xtick_5">
     <g id="line2d_9">
      <path clip-path="url(#pcc6ddcb7d2)" d="M 303.672833 251.6 
L 303.672833 7.2 
" style="fill:none;stroke:#b0b0b0;stroke-linecap:square;stroke-width:0.8;"/>
     </g>
     <g id="line2d_10">
      <g>
       <use style="stroke:#000000;stroke-width:0.8;" x="303.672833" xlink:href="#m6bcb0ea33a" y="251.6"/>
      </g>
     </g>
     <g id="text_5">
      <!-- 1.00 -->
      <g transform="translate(295.879865 263.918906)scale(0.07 -0.07)">
       <defs>
        <path d="M 794 531 
L 1825 531 
L 1825 4091 
L 703 3866 
L 703 4441 
L 1819 4666 
L 2450 4666 
L 2450 531 
L 3481 531 
L 3481 0 
L 794 0 
L 794 531 
z
" id="DejaVuSans-31" transform="scale(0.015625)"/>
       </defs>
       <use xlink:href="#DejaVuSans-31"/>
       <use x="63.623047" xlink:href="#DejaVuSans-2e"/>
       <use x="95.410156" xlink:href="#DejaVuSans-30"/>
       <use x="159.033203" xlink:href="#DejaVuSans-30"/>
      </g>
     </g>
    </g>
    <g id="xtick_6">
     <g id="line2d_11">
      <path clip-path="url(#pcc6ddcb7d2)" d="M 363.109397 251.6 
L 363.109397 7.2 
" style="fill:none;stroke:#b0b0b0;stroke-linecap:square;stroke-width:0.8;"/>
     </g>
     <g id="line2d_12">
      <g>
       <use style="stroke:#000000;stroke-width:0.8;" x="363.109397" xlink:href="#m6bcb0ea33a" y="251.6"/>
      </g>
     </g>
     <g id="text_6">
      <!-- 1.25 -->
      <g transform="translate(355.316429 263.918906)scale(0.07 -0.07)">
       <use xlink:href="#DejaVuSans-31"/>
       <use x="63.623047" xlink:href="#DejaVuSans-2e"/>
       <use x="95.410156" xlink:href="#DejaVuSans-32"/>
       <use x="159.033203" xlink:href="#DejaVuSans-35"/>
      </g>
     </g>
    </g>
    <g id="xtick_7">
     <g id="line2d_13">
      <path clip-path="url(#pcc6ddcb7d2)" d="M 422.545962 251.6 
L 422.545962 7.2 
" style="fill:none;stroke:#b0b0b0;stroke-linecap:square;stroke-width:0.8;"/>
     </g>
     <g id="line2d_14">
      <g>
       <use style="stroke:#000000;stroke-width:0.8;" x="422.545962" xlink:href="#m6bcb0ea33a" y="251.6"/>
      </g>
     </g>
     <g id="text_7">
      <!-- 1.50 -->
      <g transform="translate(414.752993 263.918906)scale(0.07 -0.07)">
       <use xlink:href="#DejaVuSans-31"/>
       <use x="63.623047" xlink:href="#DejaVuSans-2e"/>
       <use x="95.410156" xlink:href="#DejaVuSans-35"/>
       <use x="159.033203" xlink:href="#DejaVuSans-30"/>
      </g>
     </g>
    </g>
    <g id="xtick_8">
     <g id="line2d_15">
      <path clip-path="url(#pcc6ddcb7d2)" d="M 481.982526 251.6 
L 481.982526 7.2 
" style="fill:none;stroke:#b0b0b0;stroke-linecap:square;stroke-width:0.8;"/>
     </g>
     <g id="line2d_16">
      <g>
       <use style="stroke:#000000;stroke-width:0.8;" x="481.982526" xlink:href="#m6bcb0ea33a" y="251.6"/>
      </g>
     </g>
     <g id="text_8">
      <!-- 1.75 -->
      <g transform="translate(474.189557 263.918906)scale(0.07 -0.07)">
       <use xlink:href="#DejaVuSans-31"/>
       <use x="63.623047" xlink:href="#DejaVuSans-2e"/>
       <use x="95.410156" xlink:href="#DejaVuSans-37"/>
       <use x="159.033203" xlink:href="#DejaVuSans-35"/>
      </g>
     </g>
    </g>
    <g id="xtick_9">
     <g id="line2d_17">
      <path clip-path="url(#pcc6ddcb7d2)" d="M 541.41909 251.6 
L 541.41909 7.2 
" style="fill:none;stroke:#b0b0b0;stroke-linecap:square;stroke-width:0.8;"/>
     </g>
     <g id="line2d_18">
      <g>
       <use style="stroke:#000000;stroke-width:0.8;" x="541.41909" xlink:href="#m6bcb0ea33a" y="251.6"/>
      </g>
     </g>
     <g id="text_9">
      <!-- 2.00 -->
      <g transform="translate(533.626121 263.918906)scale(0.07 -0.07)">
       <use xlink:href="#DejaVuSans-32"/>
       <use x="63.623047" xlink:href="#DejaVuSans-2e"/>
       <use x="95.410156" xlink:href="#DejaVuSans-30"/>
       <use x="159.033203" xlink:href="#DejaVuSans-30"/>
      </g>
     </g>
    </g>
    <g id="text_10">
     <!-- 1e6 -->
     <g transform="translate(548.144844 273.693594)scale(0.07 -0.07)">
      <defs>
       <path d="M 3597 1894 
L 3597 1613 
L 953 1613 
Q 991 1019 1311 708 
Q 1631 397 2203 397 
Q 2534 397 2845 478 
Q 3156 559 3463 722 
L 3463 178 
Q 3153 47 2828 -22 
Q 2503 -91 2169 -91 
Q 1331 -91 842 396 
Q 353 884 353 1716 
Q 353 2575 817 3079 
Q 1281 3584 2069 3584 
Q 2775 3584 3186 3129 
Q 3597 2675 3597 1894 
z
M 3022 2063 
Q 3016 2534 2758 2815 
Q 2500 3097 2075 3097 
Q 1594 3097 1305 2825 
Q 1016 2553 972 2059 
L 3022 2063 
z
" id="DejaVuSans-65" transform="scale(0.015625)"/>
       <path d="M 2113 2584 
Q 1688 2584 1439 2293 
Q 1191 2003 1191 1497 
Q 1191 994 1439 701 
Q 1688 409 2113 409 
Q 2538 409 2786 701 
Q 3034 994 3034 1497 
Q 3034 2003 2786 2293 
Q 2538 2584 2113 2584 
z
M 3366 4563 
L 3366 3988 
Q 3128 4100 2886 4159 
Q 2644 4219 2406 4219 
Q 1781 4219 1451 3797 
Q 1122 3375 1075 2522 
Q 1259 2794 1537 2939 
Q 1816 3084 2150 3084 
Q 2853 3084 3261 2657 
Q 3669 2231 3669 1497 
Q 3669 778 3244 343 
Q 2819 -91 2113 -91 
Q 1303 -91 875 529 
Q 447 1150 447 2328 
Q 447 3434 972 4092 
Q 1497 4750 2381 4750 
Q 2619 4750 2861 4703 
Q 3103 4656 3366 4563 
z
" id="DejaVuSans-36" transform="scale(0.015625)"/>
      </defs>
      <use xlink:href="#DejaVuSans-31"/>
      <use x="63.623047" xlink:href="#DejaVuSans-65"/>
      <use x="125.146484" xlink:href="#DejaVuSans-36"/>
     </g>
    </g>
   </g>
   <g id="matplotlib.axis_2">
    <g id="ytick_1">
     <g id="line2d_19">
      <path clip-path="url(#pcc6ddcb7d2)" d="M 42.334531 240.512247 
L 561.359531 240.512247 
" style="fill:none;stroke:#b0b0b0;stroke-linecap:square;stroke-width:0.8;"/>
     </g>
     <g id="line2d_20">
      <defs>
       <path d="M 0 0 
L -3.5 0 
" id="mcfffbf6305" style="stroke:#000000;stroke-width:0.8;"/>
      </defs>
      <g>
       <use style="stroke:#000000;stroke-width:0.8;" x="42.334531" xlink:href="#mcfffbf6305" y="240.512247"/>
      </g>
     </g>
     <g id="text_11">
      <!-- −10000 -->
      <g transform="translate(7.2 243.1717)scale(0.07 -0.07)">
       <defs>
        <path d="M 678 2272 
L 4684 2272 
L 4684 1741 
L 678 1741 
L 678 2272 
z
" id="DejaVuSans-2212" transform="scale(0.015625)"/>
       </defs>
       <use xlink:href="#DejaVuSans-2212"/>
       <use x="83.789062" xlink:href="#DejaVuSans-31"/>
       <use x="147.412109" xlink:href="#DejaVuSans-30"/>
       <use x="211.035156" xlink:href="#DejaVuSans-30"/>
       <use x="274.658203" xlink:href="#DejaVuSans-30"/>
       <use x="338.28125" xlink:href="#DejaVuSans-30"/>
      </g>
     </g>
    </g>
    <g id="ytick_2">
     <g id="line2d_21">
      <path clip-path="url(#pcc6ddcb7d2)" d="M 42.334531 197.837245 
L 561.359531 197.837245 
" style="fill:none;stroke:#b0b0b0;stroke-linecap:square;stroke-width:0.8;"/>
     </g>
     <g id="line2d_22">
      <g>
       <use style="stroke:#000000;stroke-width:0.8;" x="42.334531" xlink:href="#mcfffbf6305" y="197.837245"/>
      </g>
     </g>
     <g id="text_12">
      <!-- −8000 -->
      <g transform="translate(11.65375 200.496698)scale(0.07 -0.07)">
       <defs>
        <path d="M 2034 2216 
Q 1584 2216 1326 1975 
Q 1069 1734 1069 1313 
Q 1069 891 1326 650 
Q 1584 409 2034 409 
Q 2484 409 2743 651 
Q 3003 894 3003 1313 
Q 3003 1734 2745 1975 
Q 2488 2216 2034 2216 
z
M 1403 2484 
Q 997 2584 770 2862 
Q 544 3141 544 3541 
Q 544 4100 942 4425 
Q 1341 4750 2034 4750 
Q 2731 4750 3128 4425 
Q 3525 4100 3525 3541 
Q 3525 3141 3298 2862 
Q 3072 2584 2669 2484 
Q 3125 2378 3379 2068 
Q 3634 1759 3634 1313 
Q 3634 634 3220 271 
Q 2806 -91 2034 -91 
Q 1263 -91 848 271 
Q 434 634 434 1313 
Q 434 1759 690 2068 
Q 947 2378 1403 2484 
z
M 1172 3481 
Q 1172 3119 1398 2916 
Q 1625 2713 2034 2713 
Q 2441 2713 2670 2916 
Q 2900 3119 2900 3481 
Q 2900 3844 2670 4047 
Q 2441 4250 2034 4250 
Q 1625 4250 1398 4047 
Q 1172 3844 1172 3481 
z
" id="DejaVuSans-38" transform="scale(0.015625)"/>
       </defs>
       <use xlink:href="#DejaVuSans-2212"/>
       <use x="83.789062" xlink:href="#DejaVuSans-38"/>
       <use x="147.412109" xlink:href="#DejaVuSans-30"/>
       <use x="211.035156" xlink:href="#DejaVuSans-30"/>
       <use x="274.658203" xlink:href="#DejaVuSans-30"/>
      </g>
     </g>
    </g>
    <g id="ytick_3">
     <g id="line2d_23">
      <path clip-path="url(#pcc6ddcb7d2)" d="M 42.334531 155.162243 
L 561.359531 155.162243 
" style="fill:none;stroke:#b0b0b0;stroke-linecap:square;stroke-width:0.8;"/>
     </g>
     <g id="line2d_24">
      <g>
       <use style="stroke:#000000;stroke-width:0.8;" x="42.334531" xlink:href="#mcfffbf6305" y="155.162243"/>
      </g>
     </g>
     <g id="text_13">
      <!-- −6000 -->
      <g transform="translate(11.65375 157.821696)scale(0.07 -0.07)">
       <use xlink:href="#DejaVuSans-2212"/>
       <use x="83.789062" xlink:href="#DejaVuSans-36"/>
       <use x="147.412109" xlink:href="#DejaVuSans-30"/>
       <use x="211.035156" xlink:href="#DejaVuSans-30"/>
       <use x="274.658203" xlink:href="#DejaVuSans-30"/>
      </g>
     </g>
    </g>
    <g id="ytick_4">
     <g id="line2d_25">
      <path clip-path="url(#pcc6ddcb7d2)" d="M 42.334531 112.487241 
L 561.359531 112.487241 
" style="fill:none;stroke:#b0b0b0;stroke-linecap:square;stroke-width:0.8;"/>
     </g>
     <g id="line2d_26">
      <g>
       <use style="stroke:#000000;stroke-width:0.8;" x="42.334531" xlink:href="#mcfffbf6305" y="112.487241"/>
      </g>
     </g>
     <g id="text_14">
      <!-- −4000 -->
      <g transform="translate(11.65375 115.146694)scale(0.07 -0.07)">
       <defs>
        <path d="M 2419 4116 
L 825 1625 
L 2419 1625 
L 2419 4116 
z
M 2253 4666 
L 3047 4666 
L 3047 1625 
L 3713 1625 
L 3713 1100 
L 3047 1100 
L 3047 0 
L 2419 0 
L 2419 1100 
L 313 1100 
L 313 1709 
L 2253 4666 
z
" id="DejaVuSans-34" transform="scale(0.015625)"/>
       </defs>
       <use xlink:href="#DejaVuSans-2212"/>
       <use x="83.789062" xlink:href="#DejaVuSans-34"/>
       <use x="147.412109" xlink:href="#DejaVuSans-30"/>
       <use x="211.035156" xlink:href="#DejaVuSans-30"/>
       <use x="274.658203" xlink:href="#DejaVuSans-30"/>
      </g>
     </g>
    </g>
    <g id="ytick_5">
     <g id="line2d_27">
      <path clip-path="url(#pcc6ddcb7d2)" d="M 42.334531 69.812239 
L 561.359531 69.812239 
" style="fill:none;stroke:#b0b0b0;stroke-linecap:square;stroke-width:0.8;"/>
     </g>
     <g id="line2d_28">
      <g>
       <use style="stroke:#000000;stroke-width:0.8;" x="42.334531" xlink:href="#mcfffbf6305" y="69.812239"/>
      </g>
     </g>
     <g id="text_15">
      <!-- −2000 -->
      <g transform="translate(11.65375 72.471692)scale(0.07 -0.07)">
       <use xlink:href="#DejaVuSans-2212"/>
       <use x="83.789062" xlink:href="#DejaVuSans-32"/>
       <use x="147.412109" xlink:href="#DejaVuSans-30"/>
       <use x="211.035156" xlink:href="#DejaVuSans-30"/>
       <use x="274.658203" xlink:href="#DejaVuSans-30"/>
      </g>
     </g>
    </g>
    <g id="ytick_6">
     <g id="line2d_29">
      <path clip-path="url(#pcc6ddcb7d2)" d="M 42.334531 27.137237 
L 561.359531 27.137237 
" style="fill:none;stroke:#b0b0b0;stroke-linecap:square;stroke-width:0.8;"/>
     </g>
     <g id="line2d_30">
      <g>
       <use style="stroke:#000000;stroke-width:0.8;" x="42.334531" xlink:href="#mcfffbf6305" y="27.137237"/>
      </g>
     </g>
     <g id="text_16">
      <!-- 0 -->
      <g transform="translate(30.880781 29.79669)scale(0.07 -0.07)">
       <use xlink:href="#DejaVuSans-30"/>
      </g>
     </g>
    </g>
   </g>
   <g id="line2d_31">
    <path clip-path="url(#pcc6ddcb7d2)" d="M 98.333825 27.137236 
L 100.342261 27.137236 
L 102.350697 27.137236 
L 105.191055 27.137236 
L 108.031413 27.137236 
L 110.87177 27.137236 
L 112.880206 27.137236 
L 114.888643 27.137236 
L 116.897079 27.137235 
L 119.737436 27.137233 
L 122.577794 27.137232 
L 124.58623 27.137227 
L 126.594666 27.137227 
L 128.603103 27.137223 
L 130.611539 27.125047 
L 133.451896 27.082287 
L 135.460333 27.07094 
L 138.30069 27.065266 
L 140.309126 27.059592 
L 143.149484 27.053918 
L 145.15792 27.048244 
L 147.166356 27.029487 
L 149.174793 26.981413 
L 152.01515 26.960262 
L 154.855508 26.952694 
L 157.695866 26.877978 
L 160.536223 26.860204 
L 162.544659 26.796528 
L 164.553096 26.730135 
L 167.393453 26.62878 
L 169.401889 26.467074 
L 172.242247 26.464725 
L 174.250683 26.46355 
L 176.259119 26.462376 
L 179.099477 26.459861 
L 181.107913 26.410927 
L 183.948271 26.212977 
L 186.788629 26.102656 
L 188.797065 26.047496 
L 191.637422 25.880504 
L 193.645859 25.80263 
L 195.654295 25.720592 
L 198.494652 25.633818 
L 200.503089 25.590431 
L 202.511525 25.575969 
L 204.519961 25.470001 
L 206.528397 25.458227 
L 209.368755 25.378113 
L 211.377191 25.338056 
L 213.385627 25.183167 
L 216.225985 25.05708 
L 219.066342 24.994036 
L 221.074779 24.973022 
L 223.083215 24.933406 
L 225.091651 24.871546 
L 227.100087 24.802296 
L 229.108523 24.795772 
L 231.948881 24.612202 
L 233.957317 24.606167 
L 236.797675 24.410471 
L 238.806111 24.395448 
L 240.814547 24.290759 
L 243.654905 24.220151 
L 246.495262 24.198671 
L 248.503699 24.137982 
L 250.512135 24.108469 
L 252.520571 24.063836 
L 255.360929 24.018597 
L 257.369365 23.956606 
L 259.377801 23.95097 
" style="fill:none;stroke:#1f77b4;stroke-linecap:square;stroke-width:3;"/>
   </g>
   <g id="line2d_32">
    <path clip-path="url(#pcc6ddcb7d2)" d="M 98.333825 27.137236 
L 101.174183 27.137236 
L 103.182619 27.137236 
L 106.022976 27.137236 
L 108.031413 27.137236 
L 110.039849 27.137236 
L 112.880206 27.137236 
L 114.888643 27.137236 
L 116.897079 27.137236 
L 119.737436 27.137236 
L 121.745873 27.135856 
L 123.754309 27.134818 
L 125.762745 27.134299 
L 127.771181 27.113263 
L 130.611539 27.112569 
L 132.619975 27.112222 
L 135.460333 27.111875 
L 138.30069 27.103831 
L 140.309126 27.095089 
L 142.317563 27.075692 
L 144.325999 27.065994 
L 147.166356 27.062761 
L 150.006714 27.059429 
L 152.847072 27.057763 
L 154.855508 27.056097 
L 156.863944 27.054431 
L 158.87238 27.052765 
L 160.880816 27.051099 
L 162.889253 27.049433 
L 164.897689 27.041129 
L 167.738046 27.040911 
L 169.746483 27.040824 
L 171.754919 27.040736 
L 174.595276 27.040649 
L 177.435634 27.040562 
L 180.275992 27.040475 
L 183.116349 27.040387 
L 185.124786 27.0403 
L 187.133222 27.040213 
L 189.973579 27.040125 
L 192.813937 27.040038 
L 195.654295 27.039951 
L 197.662731 27.039863 
L 200.503089 27.039776 
L 202.511525 27.039689 
L 204.519961 27.039602 
L 206.528397 26.943722 
L 209.368755 26.938495 
L 211.377191 26.935882 
L 213.385627 26.933268 
L 216.225985 26.932107 
L 218.234421 26.900937 
L 220.242857 26.871601 
L 223.083215 26.764042 
L 225.923572 26.74125 
L 227.932009 26.527542 
L 229.940445 26.493782 
L 232.780802 26.485749 
L 235.62116 26.481733 
L 237.629596 26.477716 
L 240.469954 26.4737 
L 243.310312 26.469683 
L 245.318748 26.35699 
L 248.159105 26.213886 
L 250.999463 26.212911 
L 253.839821 26.212423 
" style="fill:none;stroke:#ff7f0e;stroke-linecap:square;stroke-width:3;"/>
   </g>
   <g id="line2d_33">
    <path clip-path="url(#pcc6ddcb7d2)" d="M 253.839821 26.212423 
L 255.848257 26.211936 
L 257.856693 26.211448 
L 259.865129 26.210961 
L 262.705487 26.210473 
L 264.713923 26.209985 
L 266.722359 26.209498 
L 268.730795 26.204902 
L 271.571153 26.090457 
L 274.411511 26.077741 
L 277.251868 26.030945 
L 279.260305 25.862914 
L 282.100662 25.848341 
L 284.94102 25.810405 
L 286.949456 25.791436 
L 289.789814 25.772468 
L 291.79825 25.581556 
L 294.638608 25.581542 
L 296.647044 25.581535 
L 298.65548 25.581533 
L 301.495838 25.560316 
L 303.504274 25.479867 
L 306.344631 25.468377 
L 308.353068 25.462632 
L 311.193425 25.460716 
L 314.033783 25.450474 
L 316.874141 25.443645 
L 319.714498 25.373118 
L 321.722934 25.298764 
L 323.731371 25.261587 
L 325.739807 25.249194 
L 327.748243 25.239342 
L 330.588601 25.194343 
L 332.597037 25.190878 
L 334.605473 25.035995 
L 336.613909 25.029694 
L 338.622345 25.026544 
L 341.462703 25.023393 
" style="fill:none;stroke:#2ca02c;stroke-linecap:square;stroke-width:3;"/>
   </g>
   <g id="line2d_34">
    <path clip-path="url(#pcc6ddcb7d2)" d="M 253.839821 26.212423 
L 256.680178 26.211936 
L 259.520536 26.211448 
L 261.528972 26.210961 
L 263.537408 26.210473 
L 265.545845 26.027493 
L 267.554281 25.970198 
L 269.562717 25.941551 
L 271.571153 25.932002 
L 274.411511 25.910486 
L 277.251868 25.896142 
L 279.260305 25.760706 
L 282.100662 25.725041 
L 284.109098 25.566413 
L 286.117535 25.54354 
L 288.125971 25.532103 
L 290.134407 25.334314 
L 292.974765 25.305219 
L 295.815122 25.184398 
L 297.823558 25.121712 
L 299.831995 25.080268 
L 301.840431 25.075664 
L 304.680788 24.945596 
L 307.521146 24.922738 
L 309.529582 24.830376 
L 312.36994 24.818489 
L 315.210298 24.812545 
L 317.218734 24.810564 
L 319.22717 24.790578 
L 321.235606 24.788357 
L 323.244042 24.720666 
L 326.0844 24.713145 
L 328.092836 24.25155 
L 330.933194 24.245741 
" style="fill:none;stroke:#d62728;stroke-linecap:square;stroke-width:3;"/>
   </g>
   <g id="line2d_35">
    <path clip-path="url(#pcc6ddcb7d2)" d="M 341.462703 25.023393 
L 343.471139 25.018492 
L 345.479575 25.002512 
L 347.488012 24.989399 
L 350.328369 24.865199 
L 352.336805 24.689964 
L 354.345242 24.666883 
L 356.353678 24.655343 
L 359.194035 24.643803 
L 361.202472 24.638674 
L 364.042829 24.628989 
L 366.883187 24.625442 
L 368.891623 24.623669 
L 370.900059 24.489353 
L 373.740417 24.485394 
L 375.748853 24.483415 
L 377.757289 24.443466 
L 380.597647 24.432788 
L 383.438005 24.42745 
L 386.278362 24.422111 
L 389.11872 24.38812 
L 391.127156 24.343986 
L 393.967514 24.32192 
L 396.807871 24.299853 
L 399.648229 24.290046 
L 401.656665 24.254077 
L 404.497023 24.170211 
L 407.337381 24.152961 
L 410.177738 24.141461 
L 412.186174 24.079389 
L 415.026532 24.061344 
L 417.86689 23.987669 
" style="fill:none;stroke:#9467bd;stroke-linecap:square;stroke-width:3;"/>
   </g>
   <g id="line2d_36">
    <path clip-path="url(#pcc6ddcb7d2)" d="M 417.86689 23.987669 
L 419.875326 23.945728 
L 421.883762 23.89707 
L 423.892198 23.84578 
L 426.732556 23.712816 
L 428.740992 23.485588 
L 430.749428 23.378246 
L 432.757864 23.236487 
L 435.598222 23.232138 
L 437.606658 23.229964 
L 439.615094 22.942206 
L 442.455452 22.931602 
L 444.463888 22.9263 
L 446.472324 22.920998 
L 448.480761 22.915696 
L 450.489197 22.862478 
L 453.329554 22.850341 
L 455.337991 22.844272 
L 458.178348 22.838204 
L 460.186784 22.832135 
L 462.195221 22.685739 
L 464.203657 22.639263 
L 466.212093 22.5032 
L 469.052451 22.479375 
L 471.060887 22.467463 
L 473.901244 22.245703 
L 475.909681 22.243628 
L 477.918117 22.242591 
L 480.758474 22.242245 
L 482.766911 22.20859 
L 484.775347 22.057808 
L 486.783783 21.940565 
L 488.792219 21.927538 
L 491.632577 21.795934 
L 493.641013 21.614133 
L 495.649449 21.523232 
L 497.657885 21.429057 
L 500.498243 21.394277 
L 502.506679 21.376887 
L 504.515115 21.359497 
L 507.355473 21.342107 
L 509.363909 21.186974 
L 511.372345 21.044016 
L 513.380781 21.037291 
L 515.389218 20.962918 
L 518.229575 20.87109 
L 520.238011 20.814303 
" style="fill:none;stroke:#8c564b;stroke-linecap:square;stroke-width:3;"/>
   </g>
   <g id="line2d_37">
    <path clip-path="url(#pcc6ddcb7d2)" d="M 341.462703 25.023393 
L 344.303061 25.018492 
L 346.311497 25.002512 
L 348.319933 24.962471 
L 351.160291 24.884242 
L 354.000648 24.846907 
L 356.009085 24.826883 
L 358.017521 24.824658 
L 360.025957 24.742778 
L 362.866315 24.724704 
L 364.874751 24.715667 
L 367.715108 24.712654 
" style="fill:none;stroke:#e377c2;stroke-linecap:square;stroke-width:3;"/>
   </g>
   <g id="line2d_38">
    <path clip-path="url(#pcc6ddcb7d2)" d="M 417.86689 23.987669 
L 420.707247 23.945728 
L 423.547605 23.86211 
L 426.387963 23.764499 
L 429.22832 23.559264 
L 431.236757 23.429037 
L 434.077114 23.401005 
L 436.917472 23.375271 
L 439.75783 23.285514 
L 442.598187 23.188191 
L 444.606623 23.126323 
L 446.61506 22.958014 
L 449.455417 22.909473 
L 451.463853 22.90408 
L 453.47229 22.633831 
L 455.480726 22.629473 
L 457.489162 22.627294 
L 460.32952 22.625116 
L 463.169877 22.622936 
L 466.010235 22.620758 
L 468.018671 22.619305 
L 470.027107 22.364011 
L 472.867465 22.324807 
L 474.875901 22.296316 
L 476.884337 22.225281 
L 478.892773 22.041848 
L 481.733131 22.021467 
" style="fill:none;stroke:#7f7f7f;stroke-linecap:square;stroke-width:3;"/>
   </g>
   <g id="line2d_39">
    <path clip-path="url(#pcc6ddcb7d2)" d="M 481.733131 22.021467 
L 483.741567 21.977139 
L 485.750003 21.907691 
L 488.590361 21.57641 
L 490.598797 21.538661 
L 492.607233 21.43997 
L 494.61567 21.427877 
L 496.624106 21.426534 
L 498.632542 21.145028 
L 500.640978 20.607578 
L 502.649414 20.570406 
L 505.489772 20.551819 
L 508.33013 20.545623 
L 510.338566 20.214772 
L 512.347002 20.112815 
L 515.18736 19.902266 
L 518.027717 19.714423 
L 520.036153 19.644735 
L 522.876511 19.420029 
L 524.884947 19.349821 
L 526.893383 19.208502 
L 528.90182 19.060744 
L 530.910256 18.949792 
L 533.750613 18.673128 
L 535.75905 18.521592 
L 537.767486 18.309091 
" style="fill:none;stroke:#bcbd22;stroke-linecap:square;stroke-width:3;"/>
   </g>
   <g id="line2d_40">
    <path clip-path="url(#pcc6ddcb7d2)" d="M 481.733131 22.021467 
L 484.573489 21.972214 
L 486.581925 21.897595 
L 488.590361 21.860286 
L 490.598797 21.846636 
L 493.439155 21.7824 
L 495.447591 21.695108 
L 497.456027 21.654349 
L 499.464463 21.64982 
L 501.4729 21.578509 
" style="fill:none;stroke:#17becf;stroke-linecap:square;stroke-width:3;"/>
   </g>
   <g id="line2d_41">
    <path clip-path="url(#pcc6ddcb7d2)" d="M 65.926577 240.490909 
L 67.935013 27.137237 
L 70.775371 27.137237 
L 75.26637 240.490909 
L 80.947086 27.137237 
L 82.955522 27.137237 
L 85.79588 27.137236 
L 88.636237 27.137236 
L 91.476595 27.137236 
L 94.316953 27.137236 
L 96.325389 27.137236 
L 98.333825 27.137236 
" style="fill:none;stroke:#1f77b4;stroke-linecap:square;stroke-width:3;"/>
   </g>
   <g id="patch_3">
    <path d="M 42.334531 251.6 
L 42.334531 7.2 
" style="fill:none;stroke:#000000;stroke-linecap:square;stroke-linejoin:miter;stroke-width:0.8;"/>
   </g>
   <g id="patch_4">
    <path d="M 561.359531 251.6 
L 561.359531 7.2 
" style="fill:none;stroke:#000000;stroke-linecap:square;stroke-linejoin:miter;stroke-width:0.8;"/>
   </g>
   <g id="patch_5">
    <path d="M 42.334531 251.6 
L 561.359531 251.6 
" style="fill:none;stroke:#000000;stroke-linecap:square;stroke-linejoin:miter;stroke-width:0.8;"/>
   </g>
   <g id="patch_6">
    <path d="M 42.334531 7.2 
L 561.359531 7.2 
" style="fill:none;stroke:#000000;stroke-linecap:square;stroke-linejoin:miter;stroke-width:0.8;"/>
   </g>
  </g>
 </g>
 <defs>
  <clipPath id="pcc6ddcb7d2">
   <rect height="244.4" width="519.025" x="42.334531" y="7.2"/>
  </clipPath>
 </defs>
</svg>
