<?xml version="1.0" encoding="utf-8" standalone="no"?>
<!DOCTYPE svg PUBLIC "-//W3C//DTD SVG 1.1//EN"
  "http://www.w3.org/Graphics/SVG/1.1/DTD/svg11.dtd">
<svg height="354.668281pt" version="1.1" viewBox="0 0 352.682187 354.668281" width="352.682187pt" xmlns="http://www.w3.org/2000/svg" xmlns:xlink="http://www.w3.org/1999/xlink">
 <metadata>
  <rdf:RDF xmlns:cc="http://creativecommons.org/ns#" xmlns:dc="http://purl.org/dc/elements/1.1/" xmlns:rdf="http://www.w3.org/1999/02/22-rdf-syntax-ns#">
   <cc:Work>
    <dc:type rdf:resource="http://purl.org/dc/dcmitype/StillImage"/>
    <dc:date>2021-04-07T21:45:43.213861</dc:date>
    <dc:format>image/svg+xml</dc:format>
    <dc:creator>
     <cc:Agent>
      <dc:title>Matplotlib v3.4.1, https://matplotlib.org/</dc:title>
     </cc:Agent>
    </dc:creator>
   </cc:Work>
  </rdf:RDF>
 </metadata>
 <defs>
  <style type="text/css">*{stroke-linecap:butt;stroke-linejoin:round;}</style>
 </defs>
 <g id="figure_1">
  <g id="patch_1">
   <path d="M 0 354.668281 
L 352.682187 354.668281 
L 352.682187 0 
L 0 0 
z
" style="fill:none;"/>
  </g>
  <g id="axes_1">
   <g id="patch_2">
    <path d="M 25.332188 323.918906 
L 345.482188 323.918906 
L 345.482188 15.518906 
L 25.332188 15.518906 
z
" style="fill:#ffffff;"/>
   </g>
   <g id="matplotlib.axis_1">
    <g id="xtick_1">
     <g id="line2d_1">
      <path clip-path="url(#p344f1eb331)" d="M 57.493252 323.918906 
L 57.493252 15.518906 
" style="fill:none;stroke:#b0b0b0;stroke-linecap:square;stroke-width:0.8;"/>
     </g>
     <g id="line2d_2">
      <defs>
       <path d="M 0 0 
L 0 3.5 
" id="m9b6323ef4a" style="stroke:#000000;stroke-width:0.8;"/>
      </defs>
      <g>
       <use style="stroke:#000000;stroke-width:0.8;" x="57.493252" xlink:href="#m9b6323ef4a" y="323.918906"/>
      </g>
     </g>
     <g id="text_1">
      <!-- 0.0 -->
      <g transform="translate(51.927158 336.237812)scale(0.07 -0.07)">
       <defs>
        <path d="M 2034 4250 
Q 1547 4250 1301 3770 
Q 1056 3291 1056 2328 
Q 1056 1369 1301 889 
Q 1547 409 2034 409 
Q 2525 409 2770 889 
Q 3016 1369 3016 2328 
Q 3016 3291 2770 3770 
Q 2525 4250 2034 4250 
z
M 2034 4750 
Q 2819 4750 3233 4129 
Q 3647 3509 3647 2328 
Q 3647 1150 3233 529 
Q 2819 -91 2034 -91 
Q 1250 -91 836 529 
Q 422 1150 422 2328 
Q 422 3509 836 4129 
Q 1250 4750 2034 4750 
z
" id="DejaVuSans-30" transform="scale(0.015625)"/>
        <path d="M 684 794 
L 1344 794 
L 1344 0 
L 684 0 
L 684 794 
z
" id="DejaVuSans-2e" transform="scale(0.015625)"/>
       </defs>
       <use xlink:href="#DejaVuSans-30"/>
       <use x="63.623047" xlink:href="#DejaVuSans-2e"/>
       <use x="95.410156" xlink:href="#DejaVuSans-30"/>
      </g>
     </g>
    </g>
    <g id="xtick_2">
     <g id="line2d_3">
      <path clip-path="url(#p344f1eb331)" d="M 105.678093 323.918906 
L 105.678093 15.518906 
" style="fill:none;stroke:#b0b0b0;stroke-linecap:square;stroke-width:0.8;"/>
     </g>
     <g id="line2d_4">
      <g>
       <use style="stroke:#000000;stroke-width:0.8;" x="105.678093" xlink:href="#m9b6323ef4a" y="323.918906"/>
      </g>
     </g>
     <g id="text_2">
      <!-- 0.2 -->
      <g transform="translate(100.111999 336.237812)scale(0.07 -0.07)">
       <defs>
        <path d="M 1228 531 
L 3431 531 
L 3431 0 
L 469 0 
L 469 531 
Q 828 903 1448 1529 
Q 2069 2156 2228 2338 
Q 2531 2678 2651 2914 
Q 2772 3150 2772 3378 
Q 2772 3750 2511 3984 
Q 2250 4219 1831 4219 
Q 1534 4219 1204 4116 
Q 875 4013 500 3803 
L 500 4441 
Q 881 4594 1212 4672 
Q 1544 4750 1819 4750 
Q 2544 4750 2975 4387 
Q 3406 4025 3406 3419 
Q 3406 3131 3298 2873 
Q 3191 2616 2906 2266 
Q 2828 2175 2409 1742 
Q 1991 1309 1228 531 
z
" id="DejaVuSans-32" transform="scale(0.015625)"/>
       </defs>
       <use xlink:href="#DejaVuSans-30"/>
       <use x="63.623047" xlink:href="#DejaVuSans-2e"/>
       <use x="95.410156" xlink:href="#DejaVuSans-32"/>
      </g>
     </g>
    </g>
    <g id="xtick_3">
     <g id="line2d_5">
      <path clip-path="url(#p344f1eb331)" d="M 153.862934 323.918906 
L 153.862934 15.518906 
" style="fill:none;stroke:#b0b0b0;stroke-linecap:square;stroke-width:0.8;"/>
     </g>
     <g id="line2d_6">
      <g>
       <use style="stroke:#000000;stroke-width:0.8;" x="153.862934" xlink:href="#m9b6323ef4a" y="323.918906"/>
      </g>
     </g>
     <g id="text_3">
      <!-- 0.4 -->
      <g transform="translate(148.296841 336.237812)scale(0.07 -0.07)">
       <defs>
        <path d="M 2419 4116 
L 825 1625 
L 2419 1625 
L 2419 4116 
z
M 2253 4666 
L 3047 4666 
L 3047 1625 
L 3713 1625 
L 3713 1100 
L 3047 1100 
L 3047 0 
L 2419 0 
L 2419 1100 
L 313 1100 
L 313 1709 
L 2253 4666 
z
" id="DejaVuSans-34" transform="scale(0.015625)"/>
       </defs>
       <use xlink:href="#DejaVuSans-30"/>
       <use x="63.623047" xlink:href="#DejaVuSans-2e"/>
       <use x="95.410156" xlink:href="#DejaVuSans-34"/>
      </g>
     </g>
    </g>
    <g id="xtick_4">
     <g id="line2d_7">
      <path clip-path="url(#p344f1eb331)" d="M 202.047776 323.918906 
L 202.047776 15.518906 
" style="fill:none;stroke:#b0b0b0;stroke-linecap:square;stroke-width:0.8;"/>
     </g>
     <g id="line2d_8">
      <g>
       <use style="stroke:#000000;stroke-width:0.8;" x="202.047776" xlink:href="#m9b6323ef4a" y="323.918906"/>
      </g>
     </g>
     <g id="text_4">
      <!-- 0.6 -->
      <g transform="translate(196.481682 336.237812)scale(0.07 -0.07)">
       <defs>
        <path d="M 2113 2584 
Q 1688 2584 1439 2293 
Q 1191 2003 1191 1497 
Q 1191 994 1439 701 
Q 1688 409 2113 409 
Q 2538 409 2786 701 
Q 3034 994 3034 1497 
Q 3034 2003 2786 2293 
Q 2538 2584 2113 2584 
z
M 3366 4563 
L 3366 3988 
Q 3128 4100 2886 4159 
Q 2644 4219 2406 4219 
Q 1781 4219 1451 3797 
Q 1122 3375 1075 2522 
Q 1259 2794 1537 2939 
Q 1816 3084 2150 3084 
Q 2853 3084 3261 2657 
Q 3669 2231 3669 1497 
Q 3669 778 3244 343 
Q 2819 -91 2113 -91 
Q 1303 -91 875 529 
Q 447 1150 447 2328 
Q 447 3434 972 4092 
Q 1497 4750 2381 4750 
Q 2619 4750 2861 4703 
Q 3103 4656 3366 4563 
z
" id="DejaVuSans-36" transform="scale(0.015625)"/>
       </defs>
       <use xlink:href="#DejaVuSans-30"/>
       <use x="63.623047" xlink:href="#DejaVuSans-2e"/>
       <use x="95.410156" xlink:href="#DejaVuSans-36"/>
      </g>
     </g>
    </g>
    <g id="xtick_5">
     <g id="line2d_9">
      <path clip-path="url(#p344f1eb331)" d="M 250.232617 323.918906 
L 250.232617 15.518906 
" style="fill:none;stroke:#b0b0b0;stroke-linecap:square;stroke-width:0.8;"/>
     </g>
     <g id="line2d_10">
      <g>
       <use style="stroke:#000000;stroke-width:0.8;" x="250.232617" xlink:href="#m9b6323ef4a" y="323.918906"/>
      </g>
     </g>
     <g id="text_5">
      <!-- 0.8 -->
      <g transform="translate(244.666523 336.237812)scale(0.07 -0.07)">
       <defs>
        <path d="M 2034 2216 
Q 1584 2216 1326 1975 
Q 1069 1734 1069 1313 
Q 1069 891 1326 650 
Q 1584 409 2034 409 
Q 2484 409 2743 651 
Q 3003 894 3003 1313 
Q 3003 1734 2745 1975 
Q 2488 2216 2034 2216 
z
M 1403 2484 
Q 997 2584 770 2862 
Q 544 3141 544 3541 
Q 544 4100 942 4425 
Q 1341 4750 2034 4750 
Q 2731 4750 3128 4425 
Q 3525 4100 3525 3541 
Q 3525 3141 3298 2862 
Q 3072 2584 2669 2484 
Q 3125 2378 3379 2068 
Q 3634 1759 3634 1313 
Q 3634 634 3220 271 
Q 2806 -91 2034 -91 
Q 1263 -91 848 271 
Q 434 634 434 1313 
Q 434 1759 690 2068 
Q 947 2378 1403 2484 
z
M 1172 3481 
Q 1172 3119 1398 2916 
Q 1625 2713 2034 2713 
Q 2441 2713 2670 2916 
Q 2900 3119 2900 3481 
Q 2900 3844 2670 4047 
Q 2441 4250 2034 4250 
Q 1625 4250 1398 4047 
Q 1172 3844 1172 3481 
z
" id="DejaVuSans-38" transform="scale(0.015625)"/>
       </defs>
       <use xlink:href="#DejaVuSans-30"/>
       <use x="63.623047" xlink:href="#DejaVuSans-2e"/>
       <use x="95.410156" xlink:href="#DejaVuSans-38"/>
      </g>
     </g>
    </g>
    <g id="xtick_6">
     <g id="line2d_11">
      <path clip-path="url(#p344f1eb331)" d="M 298.417458 323.918906 
L 298.417458 15.518906 
" style="fill:none;stroke:#b0b0b0;stroke-linecap:square;stroke-width:0.8;"/>
     </g>
     <g id="line2d_12">
      <g>
       <use style="stroke:#000000;stroke-width:0.8;" x="298.417458" xlink:href="#m9b6323ef4a" y="323.918906"/>
      </g>
     </g>
     <g id="text_6">
      <!-- 1.0 -->
      <g transform="translate(292.851365 336.237812)scale(0.07 -0.07)">
       <defs>
        <path d="M 794 531 
L 1825 531 
L 1825 4091 
L 703 3866 
L 703 4441 
L 1819 4666 
L 2450 4666 
L 2450 531 
L 3481 531 
L 3481 0 
L 794 0 
L 794 531 
z
" id="DejaVuSans-31" transform="scale(0.015625)"/>
       </defs>
       <use xlink:href="#DejaVuSans-31"/>
       <use x="63.623047" xlink:href="#DejaVuSans-2e"/>
       <use x="95.410156" xlink:href="#DejaVuSans-30"/>
      </g>
     </g>
    </g>
    <g id="text_7">
     <!-- 1e6 -->
     <g transform="translate(332.2675 346.0125)scale(0.07 -0.07)">
      <defs>
       <path d="M 3597 1894 
L 3597 1613 
L 953 1613 
Q 991 1019 1311 708 
Q 1631 397 2203 397 
Q 2534 397 2845 478 
Q 3156 559 3463 722 
L 3463 178 
Q 3153 47 2828 -22 
Q 2503 -91 2169 -91 
Q 1331 -91 842 396 
Q 353 884 353 1716 
Q 353 2575 817 3079 
Q 1281 3584 2069 3584 
Q 2775 3584 3186 3129 
Q 3597 2675 3597 1894 
z
M 3022 2063 
Q 3016 2534 2758 2815 
Q 2500 3097 2075 3097 
Q 1594 3097 1305 2825 
Q 1016 2553 972 2059 
L 3022 2063 
z
" id="DejaVuSans-65" transform="scale(0.015625)"/>
      </defs>
      <use xlink:href="#DejaVuSans-31"/>
      <use x="63.623047" xlink:href="#DejaVuSans-65"/>
      <use x="125.146484" xlink:href="#DejaVuSans-36"/>
     </g>
    </g>
   </g>
   <g id="matplotlib.axis_2">
    <g id="ytick_1">
     <g id="line2d_13">
      <path clip-path="url(#p344f1eb331)" d="M 25.332188 316.750508 
L 345.482188 316.750508 
" style="fill:none;stroke:#b0b0b0;stroke-linecap:square;stroke-width:0.8;"/>
     </g>
     <g id="line2d_14">
      <defs>
       <path d="M 0 0 
L -3.5 0 
" id="mdff3299a5f" style="stroke:#000000;stroke-width:0.8;"/>
      </defs>
      <g>
       <use style="stroke:#000000;stroke-width:0.8;" x="25.332188" xlink:href="#mdff3299a5f" y="316.750508"/>
      </g>
     </g>
     <g id="text_8">
      <!-- 3.0 -->
      <g transform="translate(7.2 319.409961)scale(0.07 -0.07)">
       <defs>
        <path d="M 2597 2516 
Q 3050 2419 3304 2112 
Q 3559 1806 3559 1356 
Q 3559 666 3084 287 
Q 2609 -91 1734 -91 
Q 1441 -91 1130 -33 
Q 819 25 488 141 
L 488 750 
Q 750 597 1062 519 
Q 1375 441 1716 441 
Q 2309 441 2620 675 
Q 2931 909 2931 1356 
Q 2931 1769 2642 2001 
Q 2353 2234 1838 2234 
L 1294 2234 
L 1294 2753 
L 1863 2753 
Q 2328 2753 2575 2939 
Q 2822 3125 2822 3475 
Q 2822 3834 2567 4026 
Q 2313 4219 1838 4219 
Q 1578 4219 1281 4162 
Q 984 4106 628 3988 
L 628 4550 
Q 988 4650 1302 4700 
Q 1616 4750 1894 4750 
Q 2613 4750 3031 4423 
Q 3450 4097 3450 3541 
Q 3450 3153 3228 2886 
Q 3006 2619 2597 2516 
z
" id="DejaVuSans-33" transform="scale(0.015625)"/>
       </defs>
       <use xlink:href="#DejaVuSans-33"/>
       <use x="63.623047" xlink:href="#DejaVuSans-2e"/>
       <use x="95.410156" xlink:href="#DejaVuSans-30"/>
      </g>
     </g>
    </g>
    <g id="ytick_2">
     <g id="line2d_15">
      <path clip-path="url(#p344f1eb331)" d="M 25.332188 279.037197 
L 345.482188 279.037197 
" style="fill:none;stroke:#b0b0b0;stroke-linecap:square;stroke-width:0.8;"/>
     </g>
     <g id="line2d_16">
      <g>
       <use style="stroke:#000000;stroke-width:0.8;" x="25.332188" xlink:href="#mdff3299a5f" y="279.037197"/>
      </g>
     </g>
     <g id="text_9">
      <!-- 3.2 -->
      <g transform="translate(7.2 281.69665)scale(0.07 -0.07)">
       <use xlink:href="#DejaVuSans-33"/>
       <use x="63.623047" xlink:href="#DejaVuSans-2e"/>
       <use x="95.410156" xlink:href="#DejaVuSans-32"/>
      </g>
     </g>
    </g>
    <g id="ytick_3">
     <g id="line2d_17">
      <path clip-path="url(#p344f1eb331)" d="M 25.332188 241.323886 
L 345.482188 241.323886 
" style="fill:none;stroke:#b0b0b0;stroke-linecap:square;stroke-width:0.8;"/>
     </g>
     <g id="line2d_18">
      <g>
       <use style="stroke:#000000;stroke-width:0.8;" x="25.332188" xlink:href="#mdff3299a5f" y="241.323886"/>
      </g>
     </g>
     <g id="text_10">
      <!-- 3.4 -->
      <g transform="translate(7.2 243.983339)scale(0.07 -0.07)">
       <use xlink:href="#DejaVuSans-33"/>
       <use x="63.623047" xlink:href="#DejaVuSans-2e"/>
       <use x="95.410156" xlink:href="#DejaVuSans-34"/>
      </g>
     </g>
    </g>
    <g id="ytick_4">
     <g id="line2d_19">
      <path clip-path="url(#p344f1eb331)" d="M 25.332188 203.610574 
L 345.482188 203.610574 
" style="fill:none;stroke:#b0b0b0;stroke-linecap:square;stroke-width:0.8;"/>
     </g>
     <g id="line2d_20">
      <g>
       <use style="stroke:#000000;stroke-width:0.8;" x="25.332188" xlink:href="#mdff3299a5f" y="203.610574"/>
      </g>
     </g>
     <g id="text_11">
      <!-- 3.6 -->
      <g transform="translate(7.2 206.270027)scale(0.07 -0.07)">
       <use xlink:href="#DejaVuSans-33"/>
       <use x="63.623047" xlink:href="#DejaVuSans-2e"/>
       <use x="95.410156" xlink:href="#DejaVuSans-36"/>
      </g>
     </g>
    </g>
    <g id="ytick_5">
     <g id="line2d_21">
      <path clip-path="url(#p344f1eb331)" d="M 25.332188 165.897263 
L 345.482188 165.897263 
" style="fill:none;stroke:#b0b0b0;stroke-linecap:square;stroke-width:0.8;"/>
     </g>
     <g id="line2d_22">
      <g>
       <use style="stroke:#000000;stroke-width:0.8;" x="25.332188" xlink:href="#mdff3299a5f" y="165.897263"/>
      </g>
     </g>
     <g id="text_12">
      <!-- 3.8 -->
      <g transform="translate(7.2 168.556716)scale(0.07 -0.07)">
       <use xlink:href="#DejaVuSans-33"/>
       <use x="63.623047" xlink:href="#DejaVuSans-2e"/>
       <use x="95.410156" xlink:href="#DejaVuSans-38"/>
      </g>
     </g>
    </g>
    <g id="ytick_6">
     <g id="line2d_23">
      <path clip-path="url(#p344f1eb331)" d="M 25.332188 128.183952 
L 345.482188 128.183952 
" style="fill:none;stroke:#b0b0b0;stroke-linecap:square;stroke-width:0.8;"/>
     </g>
     <g id="line2d_24">
      <g>
       <use style="stroke:#000000;stroke-width:0.8;" x="25.332188" xlink:href="#mdff3299a5f" y="128.183952"/>
      </g>
     </g>
     <g id="text_13">
      <!-- 4.0 -->
      <g transform="translate(7.2 130.843405)scale(0.07 -0.07)">
       <use xlink:href="#DejaVuSans-34"/>
       <use x="63.623047" xlink:href="#DejaVuSans-2e"/>
       <use x="95.410156" xlink:href="#DejaVuSans-30"/>
      </g>
     </g>
    </g>
    <g id="ytick_7">
     <g id="line2d_25">
      <path clip-path="url(#p344f1eb331)" d="M 25.332188 90.47064 
L 345.482188 90.47064 
" style="fill:none;stroke:#b0b0b0;stroke-linecap:square;stroke-width:0.8;"/>
     </g>
     <g id="line2d_26">
      <g>
       <use style="stroke:#000000;stroke-width:0.8;" x="25.332188" xlink:href="#mdff3299a5f" y="90.47064"/>
      </g>
     </g>
     <g id="text_14">
      <!-- 4.2 -->
      <g transform="translate(7.2 93.130094)scale(0.07 -0.07)">
       <use xlink:href="#DejaVuSans-34"/>
       <use x="63.623047" xlink:href="#DejaVuSans-2e"/>
       <use x="95.410156" xlink:href="#DejaVuSans-32"/>
      </g>
     </g>
    </g>
    <g id="ytick_8">
     <g id="line2d_27">
      <path clip-path="url(#p344f1eb331)" d="M 25.332188 52.757329 
L 345.482188 52.757329 
" style="fill:none;stroke:#b0b0b0;stroke-linecap:square;stroke-width:0.8;"/>
     </g>
     <g id="line2d_28">
      <g>
       <use style="stroke:#000000;stroke-width:0.8;" x="25.332188" xlink:href="#mdff3299a5f" y="52.757329"/>
      </g>
     </g>
     <g id="text_15">
      <!-- 4.4 -->
      <g transform="translate(7.2 55.416782)scale(0.07 -0.07)">
       <use xlink:href="#DejaVuSans-34"/>
       <use x="63.623047" xlink:href="#DejaVuSans-2e"/>
       <use x="95.410156" xlink:href="#DejaVuSans-34"/>
      </g>
     </g>
    </g>
    <g id="text_16">
     <!-- 1e6 -->
     <g transform="translate(25.332188 12.518906)scale(0.07 -0.07)">
      <use xlink:href="#DejaVuSans-31"/>
      <use x="63.623047" xlink:href="#DejaVuSans-65"/>
      <use x="125.146484" xlink:href="#DejaVuSans-36"/>
     </g>
    </g>
   </g>
   <g id="line2d_29">
    <path clip-path="url(#p344f1eb331)" d="M 180.31898 69.361468 
L 178.283697 67.768493 
L 178.283697 66.175518 
L 178.283697 64.582543 
L 176.248414 62.989567 
L 174.213132 61.396592 
L 172.177849 59.803617 
L 170.142566 58.210642 
L 168.107283 56.617667 
L 166.072 55.024691 
L 164.036717 55.024691 
L 162.001434 53.431716 
L 162.001434 51.838741 
L 159.966151 50.245766 
L 157.930868 48.652791 
L 155.895585 47.059815 
L 153.860303 47.059815 
L 151.82502 47.059815 
L 149.789737 48.652791 
L 147.754454 48.652791 
L 145.719171 48.652791 
L 143.683888 48.652791 
L 141.648605 48.652791 
L 139.613322 47.059815 
L 137.578039 45.46684 
L 135.542756 45.46684 
L 135.542756 43.873865 
L 133.507474 42.28089 
L 131.472191 42.28089 
L 129.436908 43.873865 
L 127.401625 45.46684 
L 125.366342 45.46684 
L 123.331059 45.46684 
L 121.295776 45.46684 
L 119.260493 43.873865 
L 117.22521 42.28089 
L 117.22521 40.687915 
L 117.22521 39.094939 
L 117.22521 37.501964 
L 117.22521 35.908989 
L 119.260493 34.316014 
L 119.260493 32.723038 
L 119.260493 31.130063 
L 119.260493 29.537088 
" style="fill:none;stroke:#1f77b4;stroke-linecap:square;stroke-width:3;"/>
   </g>
   <g id="line2d_30">
    <path clip-path="url(#p344f1eb331)" d="M 180.31898 69.361468 
L 178.283697 69.361468 
L 176.248414 69.361468 
L 174.213132 69.361468 
L 172.177849 69.361468 
L 170.142566 67.768493 
L 168.107283 67.768493 
L 166.072 66.175518 
L 164.036717 64.582543 
L 164.036717 62.989567 
L 162.001434 62.989567 
L 159.966151 62.989567 
L 157.930868 62.989567 
L 155.895585 62.989567 
L 153.860303 62.989567 
L 151.82502 62.989567 
L 149.789737 64.582543 
L 147.754454 64.582543 
L 145.719171 64.582543 
L 143.683888 62.989567 
L 141.648605 62.989567 
L 139.613322 62.989567 
L 137.578039 62.989567 
L 135.542756 61.396592 
L 133.507474 61.396592 
L 131.472191 62.989567 
L 129.436908 62.989567 
L 127.401625 62.989567 
L 125.366342 62.989567 
L 123.331059 64.582543 
L 121.295776 64.582543 
L 119.260493 64.582543 
L 117.22521 64.582543 
L 115.189927 64.582543 
L 113.154645 64.582543 
L 111.119362 62.989567 
L 109.084079 62.989567 
L 107.048796 64.582543 
L 105.013513 64.582543 
L 102.97823 64.582543 
L 100.942947 66.175518 
L 98.907664 66.175518 
L 96.872381 64.582543 
L 94.837098 66.175518 
L 92.801816 67.768493 
L 90.766533 67.768493 
L 88.73125 67.768493 
L 86.695967 67.768493 
L 84.660684 67.768493 
L 82.625401 67.768493 
L 80.590118 66.175518 
L 78.554835 66.175518 
L 76.519552 64.582543 
L 74.48427 62.989567 
L 72.448987 61.396592 
L 70.413704 61.396592 
L 68.378421 61.396592 
L 66.343138 59.803617 
L 66.343138 58.210642 
L 66.343138 56.617667 
L 64.307855 55.024691 
L 64.307855 53.431716 
L 62.272572 53.431716 
L 60.237289 53.431716 
L 58.202006 53.431716 
L 56.166723 53.431716 
L 54.131441 51.838741 
L 52.096158 51.838741 
L 50.060875 51.838741 
L 48.025592 51.838741 
L 48.025592 50.245766 
L 45.990309 48.652791 
L 45.990309 47.059815 
L 45.990309 45.46684 
L 43.955026 43.873865 
L 41.919743 42.28089 
L 39.88446 40.687915 
" style="fill:none;stroke:#ff7f0e;stroke-linecap:square;stroke-width:3;"/>
   </g>
   <g id="line2d_31">
    <path clip-path="url(#p344f1eb331)" d="M 229.16577 74.140394 
L 227.130487 72.547419 
L 225.095204 70.954443 
L 223.059921 69.361468 
L 223.059921 67.768493 
L 223.059921 66.175518 
L 225.095204 64.582543 
L 225.095204 62.989567 
L 225.095204 61.396592 
L 225.095204 59.803617 
L 225.095204 58.210642 
" style="fill:none;stroke:#2ca02c;stroke-linecap:square;stroke-width:3;"/>
   </g>
   <g id="line2d_32">
    <path clip-path="url(#p344f1eb331)" d="M 229.16577 74.140394 
L 227.130487 74.140394 
L 225.095204 74.140394 
L 223.059921 75.733369 
L 221.024638 75.733369 
L 218.989355 75.733369 
L 216.954072 75.733369 
L 214.91879 75.733369 
L 212.883507 75.733369 
L 210.848224 74.140394 
L 208.812941 75.733369 
L 206.777658 77.326344 
L 204.742375 78.919319 
L 202.707092 80.512295 
L 200.671809 80.512295 
L 198.636526 80.512295 
L 196.601243 80.512295 
L 194.565961 78.919319 
L 192.530678 77.326344 
L 190.495395 75.733369 
L 188.460112 74.140394 
L 186.424829 74.140394 
L 184.389546 72.547419 
L 182.354263 70.954443 
L 180.31898 69.361468 
" style="fill:none;stroke:#d62728;stroke-linecap:square;stroke-width:3;"/>
   </g>
   <g id="line2d_33">
    <path clip-path="url(#p344f1eb331)" d="M 253.589165 107.592873 
L 255.624448 105.999898 
L 257.65973 105.999898 
L 259.695013 105.999898 
L 261.730296 105.999898 
L 263.765579 105.999898 
L 265.800862 105.999898 
L 267.836145 104.406923 
L 269.871428 102.813948 
L 271.906711 101.220972 
L 273.941994 99.627997 
L 275.977277 99.627997 
L 278.012559 98.035022 
L 280.047842 96.442047 
L 282.083125 94.849072 
L 284.118408 93.256096 
L 286.153691 91.663121 
L 288.188974 91.663121 
L 290.224257 90.070146 
L 292.25954 90.070146 
L 294.294823 90.070146 
L 296.330105 88.477171 
L 298.365388 86.884196 
L 300.400671 86.884196 
L 302.435954 86.884196 
L 304.471237 86.884196 
L 306.50652 86.884196 
L 308.541803 85.29122 
L 310.577086 85.29122 
L 312.612369 85.29122 
L 314.647652 85.29122 
L 316.682934 83.698245 
L 318.718217 82.10527 
L 320.7535 82.10527 
L 322.788783 82.10527 
L 324.824066 82.10527 
L 326.859349 80.512295 
L 328.894632 78.919319 
L 330.929915 77.326344 
L 330.929915 75.733369 
L 330.929915 74.140394 
L 330.929915 72.547419 
L 330.929915 70.954443 
" style="fill:none;stroke:#9467bd;stroke-linecap:square;stroke-width:3;"/>
   </g>
   <g id="line2d_34">
    <path clip-path="url(#p344f1eb331)" d="M 253.589165 107.592873 
L 253.589165 105.999898 
L 253.589165 104.406923 
L 251.553882 102.813948 
L 251.553882 101.220972 
L 249.518599 99.627997 
L 247.483316 98.035022 
L 247.483316 96.442047 
L 247.483316 94.849072 
L 247.483316 93.256096 
L 247.483316 91.663121 
L 245.448033 90.070146 
L 243.41275 90.070146 
L 241.377467 88.477171 
L 239.342184 86.884196 
L 239.342184 85.29122 
L 239.342184 83.698245 
L 239.342184 82.10527 
L 239.342184 80.512295 
L 241.377467 78.919319 
L 241.377467 77.326344 
L 239.342184 77.326344 
L 237.306901 75.733369 
L 235.271619 75.733369 
L 233.236336 75.733369 
L 231.201053 75.733369 
L 229.16577 74.140394 
" style="fill:none;stroke:#8c564b;stroke-linecap:square;stroke-width:3;"/>
   </g>
   <g id="line2d_35">
    <path clip-path="url(#p344f1eb331)" d="M 225.095204 188.834609 
L 227.130487 187.241634 
L 227.130487 185.648658 
L 227.130487 184.055683 
L 229.16577 182.462708 
L 229.16577 180.869733 
L 231.201053 179.276757 
L 233.236336 177.683782 
L 235.271619 176.090807 
L 235.271619 174.497832 
L 235.271619 172.904857 
L 233.236336 171.311881 
L 233.236336 169.718906 
L 233.236336 168.125931 
L 233.236336 166.532956 
L 233.236336 164.939981 
L 231.201053 163.347005 
L 229.16577 161.75403 
L 231.201053 160.161055 
L 231.201053 158.56808 
L 229.16577 156.975105 
L 227.130487 155.382129 
L 227.130487 153.789154 
L 227.130487 152.196179 
L 229.16577 150.603204 
L 229.16577 149.010229 
L 231.201053 147.417253 
L 231.201053 145.824278 
L 231.201053 144.231303 
L 231.201053 142.638328 
L 233.236336 141.045353 
L 233.236336 139.452377 
L 235.271619 137.859402 
L 237.306901 136.266427 
L 237.306901 134.673452 
L 239.342184 133.080476 
L 239.342184 131.487501 
L 241.377467 129.894526 
L 241.377467 128.301551 
L 241.377467 126.708576 
L 243.41275 125.1156 
L 245.448033 123.522625 
L 247.483316 121.92965 
L 249.518599 120.336675 
L 249.518599 118.7437 
L 249.518599 117.150724 
L 251.553882 115.557749 
L 251.553882 113.964774 
L 251.553882 112.371799 
L 251.553882 110.778824 
L 253.589165 109.185848 
L 253.589165 107.592873 
" style="fill:none;stroke:#e377c2;stroke-linecap:square;stroke-width:3;"/>
   </g>
   <g id="line2d_36">
    <path clip-path="url(#p344f1eb331)" d="M 225.095204 188.834609 
L 225.095204 187.241634 
L 225.095204 185.648658 
L 225.095204 184.055683 
L 225.095204 182.462708 
L 223.059921 180.869733 
L 221.024638 179.276757 
L 218.989355 177.683782 
L 218.989355 176.090807 
L 216.954072 174.497832 
L 214.91879 172.904857 
L 212.883507 171.311881 
L 210.848224 169.718906 
L 208.812941 168.125931 
L 206.777658 168.125931 
L 204.742375 168.125931 
L 202.707092 166.532956 
L 202.707092 164.939981 
L 200.671809 163.347005 
L 198.636526 161.75403 
L 196.601243 161.75403 
L 194.565961 160.161055 
L 194.565961 158.56808 
L 194.565961 156.975105 
L 192.530678 156.975105 
L 190.495395 155.382129 
L 188.460112 153.789154 
L 186.424829 152.196179 
L 186.424829 150.603204 
L 184.389546 149.010229 
L 182.354263 147.417253 
L 180.31898 147.417253 
L 178.283697 147.417253 
L 176.248414 147.417253 
L 174.213132 147.417253 
L 172.177849 145.824278 
L 172.177849 144.231303 
L 170.142566 142.638328 
L 168.107283 142.638328 
L 166.072 144.231303 
L 164.036717 144.231303 
L 162.001434 144.231303 
L 159.966151 144.231303 
L 157.930868 144.231303 
L 155.895585 144.231303 
L 153.860303 144.231303 
L 151.82502 144.231303 
L 149.789737 144.231303 
L 147.754454 144.231303 
L 145.719171 144.231303 
L 143.683888 144.231303 
L 141.648605 144.231303 
L 139.613322 145.824278 
L 137.578039 145.824278 
L 135.542756 144.231303 
L 133.507474 144.231303 
L 131.472191 144.231303 
L 129.436908 142.638328 
L 127.401625 141.045353 
L 125.366342 139.452377 
L 123.331059 139.452377 
L 121.295776 139.452377 
L 119.260493 137.859402 
L 121.295776 136.266427 
L 121.295776 134.673452 
L 121.295776 133.080476 
L 119.260493 131.487501 
L 119.260493 129.894526 
L 121.295776 128.301551 
" style="fill:none;stroke:#7f7f7f;stroke-linecap:square;stroke-width:3;"/>
   </g>
   <g id="line2d_37">
    <path clip-path="url(#p344f1eb331)" d="M 198.636526 236.623865 
L 196.601243 235.03089 
L 196.601243 233.437915 
L 196.601243 231.844939 
L 194.565961 231.844939 
L 192.530678 231.844939 
L 190.495395 231.844939 
L 188.460112 231.844939 
L 186.424829 231.844939 
L 184.389546 230.251964 
L 182.354263 228.658989 
L 180.31898 227.066014 
L 178.283697 225.473038 
L 176.248414 223.880063 
L 176.248414 222.287088 
L 174.213132 220.694113 
L 174.213132 219.101138 
L 172.177849 217.508162 
L 170.142566 215.915187 
L 168.107283 215.915187 
L 166.072 214.322212 
L 166.072 212.729237 
L 166.072 211.136262 
L 166.072 209.543286 
L 166.072 207.950311 
L 164.036717 206.357336 
L 164.036717 204.764361 
L 166.072 203.171386 
L 166.072 201.57841 
L 166.072 199.985435 
L 166.072 198.39246 
L 164.036717 196.799485 
L 162.001434 195.20651 
L 159.966151 193.613534 
L 157.930868 192.020559 
L 155.895585 190.427584 
L 153.860303 188.834609 
L 151.82502 188.834609 
L 149.789737 187.241634 
L 149.789737 185.648658 
L 147.754454 184.055683 
L 145.719171 184.055683 
L 143.683888 184.055683 
L 141.648605 184.055683 
L 139.613322 182.462708 
L 139.613322 180.869733 
L 139.613322 179.276757 
L 139.613322 177.683782 
L 137.578039 176.090807 
L 135.542756 174.497832 
L 133.507474 174.497832 
L 131.472191 174.497832 
L 129.436908 174.497832 
L 127.401625 176.090807 
L 125.366342 176.090807 
L 123.331059 176.090807 
L 121.295776 174.497832 
L 119.260493 174.497832 
L 117.22521 174.497832 
L 115.189927 174.497832 
L 113.154645 174.497832 
L 111.119362 176.090807 
L 109.084079 174.497832 
L 107.048796 172.904857 
L 107.048796 171.311881 
L 105.013513 171.311881 
L 102.97823 172.904857 
L 100.942947 172.904857 
L 98.907664 172.904857 
L 96.872381 172.904857 
L 94.837098 172.904857 
L 92.801816 172.904857 
L 90.766533 172.904857 
L 88.73125 172.904857 
L 86.695967 171.311881 
L 84.660684 169.718906 
L 82.625401 169.718906 
L 80.590118 168.125931 
L 78.554835 166.532956 
" style="fill:none;stroke:#bcbd22;stroke-linecap:square;stroke-width:3;"/>
   </g>
   <g id="line2d_38">
    <path clip-path="url(#p344f1eb331)" d="M 198.636526 236.623865 
L 198.636526 235.03089 
L 198.636526 233.437915 
L 198.636526 231.844939 
L 198.636526 230.251964 
L 200.671809 228.658989 
L 200.671809 227.066014 
L 202.707092 225.473038 
L 204.742375 223.880063 
L 204.742375 222.287088 
L 206.777658 220.694113 
L 206.777658 219.101138 
L 206.777658 217.508162 
L 206.777658 215.915187 
L 208.812941 214.322212 
L 208.812941 212.729237 
L 208.812941 211.136262 
L 208.812941 209.543286 
L 210.848224 207.950311 
L 212.883507 206.357336 
L 214.91879 206.357336 
L 216.954072 207.950311 
L 218.989355 206.357336 
L 221.024638 204.764361 
L 221.024638 203.171386 
L 223.059921 201.57841 
L 225.095204 199.985435 
L 225.095204 198.39246 
L 223.059921 196.799485 
L 223.059921 195.20651 
L 223.059921 193.613534 
L 225.095204 192.020559 
L 225.095204 190.427584 
L 225.095204 188.834609 
" style="fill:none;stroke:#17becf;stroke-linecap:square;stroke-width:3;"/>
   </g>
   <g id="line2d_39">
    <path clip-path="url(#p344f1eb331)" d="M 194.565961 309.900724 
L 196.601243 309.900724 
L 194.565961 309.900724 
L 196.601243 308.307749 
L 196.601243 306.714774 
L 196.601243 305.121799 
L 196.601243 303.528824 
L 196.601243 301.935848 
L 196.601243 300.342873 
L 196.601243 298.749898 
L 198.636526 298.749898 
L 200.671809 298.749898 
L 200.671809 297.156923 
L 200.671809 295.563948 
L 200.671809 293.970972 
L 198.636526 292.377997 
L 198.636526 290.785022 
L 198.636526 289.192047 
L 200.671809 289.192047 
L 200.671809 287.599072 
L 202.707092 286.006096 
L 200.671809 284.413121 
L 202.707092 282.820146 
L 202.707092 281.227171 
L 204.742375 279.634196 
L 202.707092 278.04122 
L 200.671809 278.04122 
L 200.671809 276.448245 
L 200.671809 274.85527 
L 200.671809 273.262295 
L 202.707092 271.669319 
L 202.707092 270.076344 
L 202.707092 268.483369 
L 202.707092 266.890394 
L 202.707092 265.297419 
L 204.742375 265.297419 
L 206.777658 265.297419 
L 208.812941 263.704443 
L 210.848224 262.111468 
L 210.848224 260.518493 
L 210.848224 258.925518 
L 210.848224 257.332543 
L 208.812941 255.739567 
L 206.777658 254.146592 
L 206.777658 252.553617 
L 206.777658 250.960642 
L 204.742375 249.367667 
L 204.742375 247.774691 
L 204.742375 246.181716 
L 204.742375 244.588741 
L 202.707092 242.995766 
L 200.671809 241.402791 
L 200.671809 239.809815 
L 200.671809 238.21684 
L 198.636526 236.623865 
" style="fill:none;stroke:#1f77b4;stroke-linecap:square;stroke-width:3;"/>
   </g>
   <g id="patch_3">
    <path d="M 25.332188 323.918906 
L 25.332188 15.518906 
" style="fill:none;stroke:#000000;stroke-linecap:square;stroke-linejoin:miter;stroke-width:0.8;"/>
   </g>
   <g id="patch_4">
    <path d="M 345.482188 323.918906 
L 345.482188 15.518906 
" style="fill:none;stroke:#000000;stroke-linecap:square;stroke-linejoin:miter;stroke-width:0.8;"/>
   </g>
   <g id="patch_5">
    <path d="M 25.332188 323.918906 
L 345.482188 323.918906 
" style="fill:none;stroke:#000000;stroke-linecap:square;stroke-linejoin:miter;stroke-width:0.8;"/>
   </g>
   <g id="patch_6">
    <path d="M 25.332188 15.518906 
L 345.482188 15.518906 
" style="fill:none;stroke:#000000;stroke-linecap:square;stroke-linejoin:miter;stroke-width:0.8;"/>
   </g>
  </g>
 </g>
 <defs>
  <clipPath id="p344f1eb331">
   <rect height="308.4" width="320.15" x="25.332188" y="15.518906"/>
  </clipPath>
 </defs>
</svg>
