<?xml version="1.0" encoding="utf-8" standalone="no"?>
<!DOCTYPE svg PUBLIC "-//W3C//DTD SVG 1.1//EN"
  "http://www.w3.org/Graphics/SVG/1.1/DTD/svg11.dtd">
<svg height="354.668281pt" version="1.1" viewBox="0 0 352.642702 354.668281" width="352.642702pt" xmlns="http://www.w3.org/2000/svg" xmlns:xlink="http://www.w3.org/1999/xlink">
 <metadata>
  <rdf:RDF xmlns:cc="http://creativecommons.org/ns#" xmlns:dc="http://purl.org/dc/elements/1.1/" xmlns:rdf="http://www.w3.org/1999/02/22-rdf-syntax-ns#">
   <cc:Work>
    <dc:type rdf:resource="http://purl.org/dc/dcmitype/StillImage"/>
    <dc:date>2021-07-17T10:36:20.793755</dc:date>
    <dc:format>image/svg+xml</dc:format>
    <dc:creator>
     <cc:Agent>
      <dc:title>Matplotlib v3.4.2, https://matplotlib.org/</dc:title>
     </cc:Agent>
    </dc:creator>
   </cc:Work>
  </rdf:RDF>
 </metadata>
 <defs>
  <style type="text/css">*{stroke-linecap:butt;stroke-linejoin:round;}</style>
 </defs>
 <g id="figure_1">
  <g id="patch_1">
   <path d="M 0 354.668281 
L 352.642702 354.668281 
L 352.642702 0 
L 0 0 
z
" style="fill:none;"/>
  </g>
  <g id="axes_1">
   <g id="patch_2">
    <path d="M 25.332188 323.918906 
L 345.442702 323.918906 
L 345.442702 15.518906 
L 25.332188 15.518906 
z
" style="fill:#ffffff;"/>
   </g>
   <g id="matplotlib.axis_1">
    <g id="xtick_1">
     <g id="line2d_1">
      <path clip-path="url(#pb30debf650)" d="M 51.968228 323.918906 
L 51.968228 15.518906 
" style="fill:none;stroke:#b0b0b0;stroke-linecap:square;stroke-width:0.8;"/>
     </g>
     <g id="line2d_2">
      <defs>
       <path d="M 0 0 
L 0 3.5 
" id="m33ee507f96" style="stroke:#000000;stroke-width:0.8;"/>
      </defs>
      <g>
       <use style="stroke:#000000;stroke-width:0.8;" x="51.968228" xlink:href="#m33ee507f96" y="323.918906"/>
      </g>
     </g>
     <g id="text_1">
      <!-- −0.2 -->
      <g transform="translate(43.469243 336.237812)scale(0.07 -0.07)">
       <defs>
        <path d="M 678 2272 
L 4684 2272 
L 4684 1741 
L 678 1741 
L 678 2272 
z
" id="DejaVuSans-2212" transform="scale(0.015625)"/>
        <path d="M 2034 4250 
Q 1547 4250 1301 3770 
Q 1056 3291 1056 2328 
Q 1056 1369 1301 889 
Q 1547 409 2034 409 
Q 2525 409 2770 889 
Q 3016 1369 3016 2328 
Q 3016 3291 2770 3770 
Q 2525 4250 2034 4250 
z
M 2034 4750 
Q 2819 4750 3233 4129 
Q 3647 3509 3647 2328 
Q 3647 1150 3233 529 
Q 2819 -91 2034 -91 
Q 1250 -91 836 529 
Q 422 1150 422 2328 
Q 422 3509 836 4129 
Q 1250 4750 2034 4750 
z
" id="DejaVuSans-30" transform="scale(0.015625)"/>
        <path d="M 684 794 
L 1344 794 
L 1344 0 
L 684 0 
L 684 794 
z
" id="DejaVuSans-2e" transform="scale(0.015625)"/>
        <path d="M 1228 531 
L 3431 531 
L 3431 0 
L 469 0 
L 469 531 
Q 828 903 1448 1529 
Q 2069 2156 2228 2338 
Q 2531 2678 2651 2914 
Q 2772 3150 2772 3378 
Q 2772 3750 2511 3984 
Q 2250 4219 1831 4219 
Q 1534 4219 1204 4116 
Q 875 4013 500 3803 
L 500 4441 
Q 881 4594 1212 4672 
Q 1544 4750 1819 4750 
Q 2544 4750 2975 4387 
Q 3406 4025 3406 3419 
Q 3406 3131 3298 2873 
Q 3191 2616 2906 2266 
Q 2828 2175 2409 1742 
Q 1991 1309 1228 531 
z
" id="DejaVuSans-32" transform="scale(0.015625)"/>
       </defs>
       <use xlink:href="#DejaVuSans-2212"/>
       <use x="83.789062" xlink:href="#DejaVuSans-30"/>
       <use x="147.412109" xlink:href="#DejaVuSans-2e"/>
       <use x="179.199219" xlink:href="#DejaVuSans-32"/>
      </g>
     </g>
    </g>
    <g id="xtick_2">
     <g id="line2d_3">
      <path clip-path="url(#pb30debf650)" d="M 92.977647 323.918906 
L 92.977647 15.518906 
" style="fill:none;stroke:#b0b0b0;stroke-linecap:square;stroke-width:0.8;"/>
     </g>
     <g id="line2d_4">
      <g>
       <use style="stroke:#000000;stroke-width:0.8;" x="92.977647" xlink:href="#m33ee507f96" y="323.918906"/>
      </g>
     </g>
     <g id="text_2">
      <!-- 0.0 -->
      <g transform="translate(87.411553 336.237812)scale(0.07 -0.07)">
       <use xlink:href="#DejaVuSans-30"/>
       <use x="63.623047" xlink:href="#DejaVuSans-2e"/>
       <use x="95.410156" xlink:href="#DejaVuSans-30"/>
      </g>
     </g>
    </g>
    <g id="xtick_3">
     <g id="line2d_5">
      <path clip-path="url(#pb30debf650)" d="M 133.987067 323.918906 
L 133.987067 15.518906 
" style="fill:none;stroke:#b0b0b0;stroke-linecap:square;stroke-width:0.8;"/>
     </g>
     <g id="line2d_6">
      <g>
       <use style="stroke:#000000;stroke-width:0.8;" x="133.987067" xlink:href="#m33ee507f96" y="323.918906"/>
      </g>
     </g>
     <g id="text_3">
      <!-- 0.2 -->
      <g transform="translate(128.420973 336.237812)scale(0.07 -0.07)">
       <use xlink:href="#DejaVuSans-30"/>
       <use x="63.623047" xlink:href="#DejaVuSans-2e"/>
       <use x="95.410156" xlink:href="#DejaVuSans-32"/>
      </g>
     </g>
    </g>
    <g id="xtick_4">
     <g id="line2d_7">
      <path clip-path="url(#pb30debf650)" d="M 174.996486 323.918906 
L 174.996486 15.518906 
" style="fill:none;stroke:#b0b0b0;stroke-linecap:square;stroke-width:0.8;"/>
     </g>
     <g id="line2d_8">
      <g>
       <use style="stroke:#000000;stroke-width:0.8;" x="174.996486" xlink:href="#m33ee507f96" y="323.918906"/>
      </g>
     </g>
     <g id="text_4">
      <!-- 0.4 -->
      <g transform="translate(169.430393 336.237812)scale(0.07 -0.07)">
       <defs>
        <path d="M 2419 4116 
L 825 1625 
L 2419 1625 
L 2419 4116 
z
M 2253 4666 
L 3047 4666 
L 3047 1625 
L 3713 1625 
L 3713 1100 
L 3047 1100 
L 3047 0 
L 2419 0 
L 2419 1100 
L 313 1100 
L 313 1709 
L 2253 4666 
z
" id="DejaVuSans-34" transform="scale(0.015625)"/>
       </defs>
       <use xlink:href="#DejaVuSans-30"/>
       <use x="63.623047" xlink:href="#DejaVuSans-2e"/>
       <use x="95.410156" xlink:href="#DejaVuSans-34"/>
      </g>
     </g>
    </g>
    <g id="xtick_5">
     <g id="line2d_9">
      <path clip-path="url(#pb30debf650)" d="M 216.005906 323.918906 
L 216.005906 15.518906 
" style="fill:none;stroke:#b0b0b0;stroke-linecap:square;stroke-width:0.8;"/>
     </g>
     <g id="line2d_10">
      <g>
       <use style="stroke:#000000;stroke-width:0.8;" x="216.005906" xlink:href="#m33ee507f96" y="323.918906"/>
      </g>
     </g>
     <g id="text_5">
      <!-- 0.6 -->
      <g transform="translate(210.439812 336.237812)scale(0.07 -0.07)">
       <defs>
        <path d="M 2113 2584 
Q 1688 2584 1439 2293 
Q 1191 2003 1191 1497 
Q 1191 994 1439 701 
Q 1688 409 2113 409 
Q 2538 409 2786 701 
Q 3034 994 3034 1497 
Q 3034 2003 2786 2293 
Q 2538 2584 2113 2584 
z
M 3366 4563 
L 3366 3988 
Q 3128 4100 2886 4159 
Q 2644 4219 2406 4219 
Q 1781 4219 1451 3797 
Q 1122 3375 1075 2522 
Q 1259 2794 1537 2939 
Q 1816 3084 2150 3084 
Q 2853 3084 3261 2657 
Q 3669 2231 3669 1497 
Q 3669 778 3244 343 
Q 2819 -91 2113 -91 
Q 1303 -91 875 529 
Q 447 1150 447 2328 
Q 447 3434 972 4092 
Q 1497 4750 2381 4750 
Q 2619 4750 2861 4703 
Q 3103 4656 3366 4563 
z
" id="DejaVuSans-36" transform="scale(0.015625)"/>
       </defs>
       <use xlink:href="#DejaVuSans-30"/>
       <use x="63.623047" xlink:href="#DejaVuSans-2e"/>
       <use x="95.410156" xlink:href="#DejaVuSans-36"/>
      </g>
     </g>
    </g>
    <g id="xtick_6">
     <g id="line2d_11">
      <path clip-path="url(#pb30debf650)" d="M 257.015325 323.918906 
L 257.015325 15.518906 
" style="fill:none;stroke:#b0b0b0;stroke-linecap:square;stroke-width:0.8;"/>
     </g>
     <g id="line2d_12">
      <g>
       <use style="stroke:#000000;stroke-width:0.8;" x="257.015325" xlink:href="#m33ee507f96" y="323.918906"/>
      </g>
     </g>
     <g id="text_6">
      <!-- 0.8 -->
      <g transform="translate(251.449232 336.237812)scale(0.07 -0.07)">
       <defs>
        <path d="M 2034 2216 
Q 1584 2216 1326 1975 
Q 1069 1734 1069 1313 
Q 1069 891 1326 650 
Q 1584 409 2034 409 
Q 2484 409 2743 651 
Q 3003 894 3003 1313 
Q 3003 1734 2745 1975 
Q 2488 2216 2034 2216 
z
M 1403 2484 
Q 997 2584 770 2862 
Q 544 3141 544 3541 
Q 544 4100 942 4425 
Q 1341 4750 2034 4750 
Q 2731 4750 3128 4425 
Q 3525 4100 3525 3541 
Q 3525 3141 3298 2862 
Q 3072 2584 2669 2484 
Q 3125 2378 3379 2068 
Q 3634 1759 3634 1313 
Q 3634 634 3220 271 
Q 2806 -91 2034 -91 
Q 1263 -91 848 271 
Q 434 634 434 1313 
Q 434 1759 690 2068 
Q 947 2378 1403 2484 
z
M 1172 3481 
Q 1172 3119 1398 2916 
Q 1625 2713 2034 2713 
Q 2441 2713 2670 2916 
Q 2900 3119 2900 3481 
Q 2900 3844 2670 4047 
Q 2441 4250 2034 4250 
Q 1625 4250 1398 4047 
Q 1172 3844 1172 3481 
z
" id="DejaVuSans-38" transform="scale(0.015625)"/>
       </defs>
       <use xlink:href="#DejaVuSans-30"/>
       <use x="63.623047" xlink:href="#DejaVuSans-2e"/>
       <use x="95.410156" xlink:href="#DejaVuSans-38"/>
      </g>
     </g>
    </g>
    <g id="xtick_7">
     <g id="line2d_13">
      <path clip-path="url(#pb30debf650)" d="M 298.024745 323.918906 
L 298.024745 15.518906 
" style="fill:none;stroke:#b0b0b0;stroke-linecap:square;stroke-width:0.8;"/>
     </g>
     <g id="line2d_14">
      <g>
       <use style="stroke:#000000;stroke-width:0.8;" x="298.024745" xlink:href="#m33ee507f96" y="323.918906"/>
      </g>
     </g>
     <g id="text_7">
      <!-- 1.0 -->
      <g transform="translate(292.458651 336.237812)scale(0.07 -0.07)">
       <defs>
        <path d="M 794 531 
L 1825 531 
L 1825 4091 
L 703 3866 
L 703 4441 
L 1819 4666 
L 2450 4666 
L 2450 531 
L 3481 531 
L 3481 0 
L 794 0 
L 794 531 
z
" id="DejaVuSans-31" transform="scale(0.015625)"/>
       </defs>
       <use xlink:href="#DejaVuSans-31"/>
       <use x="63.623047" xlink:href="#DejaVuSans-2e"/>
       <use x="95.410156" xlink:href="#DejaVuSans-30"/>
      </g>
     </g>
    </g>
    <g id="xtick_8">
     <g id="line2d_15">
      <path clip-path="url(#pb30debf650)" d="M 339.034165 323.918906 
L 339.034165 15.518906 
" style="fill:none;stroke:#b0b0b0;stroke-linecap:square;stroke-width:0.8;"/>
     </g>
     <g id="line2d_16">
      <g>
       <use style="stroke:#000000;stroke-width:0.8;" x="339.034165" xlink:href="#m33ee507f96" y="323.918906"/>
      </g>
     </g>
     <g id="text_8">
      <!-- 1.2 -->
      <g transform="translate(333.468071 336.237812)scale(0.07 -0.07)">
       <use xlink:href="#DejaVuSans-31"/>
       <use x="63.623047" xlink:href="#DejaVuSans-2e"/>
       <use x="95.410156" xlink:href="#DejaVuSans-32"/>
      </g>
     </g>
    </g>
    <g id="text_9">
     <!-- 1e6 -->
     <g transform="translate(332.228015 346.0125)scale(0.07 -0.07)">
      <defs>
       <path d="M 3597 1894 
L 3597 1613 
L 953 1613 
Q 991 1019 1311 708 
Q 1631 397 2203 397 
Q 2534 397 2845 478 
Q 3156 559 3463 722 
L 3463 178 
Q 3153 47 2828 -22 
Q 2503 -91 2169 -91 
Q 1331 -91 842 396 
Q 353 884 353 1716 
Q 353 2575 817 3079 
Q 1281 3584 2069 3584 
Q 2775 3584 3186 3129 
Q 3597 2675 3597 1894 
z
M 3022 2063 
Q 3016 2534 2758 2815 
Q 2500 3097 2075 3097 
Q 1594 3097 1305 2825 
Q 1016 2553 972 2059 
L 3022 2063 
z
" id="DejaVuSans-65" transform="scale(0.015625)"/>
      </defs>
      <use xlink:href="#DejaVuSans-31"/>
      <use x="63.623047" xlink:href="#DejaVuSans-65"/>
      <use x="125.146484" xlink:href="#DejaVuSans-36"/>
     </g>
    </g>
   </g>
   <g id="matplotlib.axis_2">
    <g id="ytick_1">
     <g id="line2d_17">
      <path clip-path="url(#pb30debf650)" d="M 25.332188 308.72302 
L 345.442702 308.72302 
" style="fill:none;stroke:#b0b0b0;stroke-linecap:square;stroke-width:0.8;"/>
     </g>
     <g id="line2d_18">
      <defs>
       <path d="M 0 0 
L -3.5 0 
" id="mbba33539cd" style="stroke:#000000;stroke-width:0.8;"/>
      </defs>
      <g>
       <use style="stroke:#000000;stroke-width:0.8;" x="25.332188" xlink:href="#mbba33539cd" y="308.72302"/>
      </g>
     </g>
     <g id="text_10">
      <!-- 3.8 -->
      <g transform="translate(7.2 311.382473)scale(0.07 -0.07)">
       <defs>
        <path d="M 2597 2516 
Q 3050 2419 3304 2112 
Q 3559 1806 3559 1356 
Q 3559 666 3084 287 
Q 2609 -91 1734 -91 
Q 1441 -91 1130 -33 
Q 819 25 488 141 
L 488 750 
Q 750 597 1062 519 
Q 1375 441 1716 441 
Q 2309 441 2620 675 
Q 2931 909 2931 1356 
Q 2931 1769 2642 2001 
Q 2353 2234 1838 2234 
L 1294 2234 
L 1294 2753 
L 1863 2753 
Q 2328 2753 2575 2939 
Q 2822 3125 2822 3475 
Q 2822 3834 2567 4026 
Q 2313 4219 1838 4219 
Q 1578 4219 1281 4162 
Q 984 4106 628 3988 
L 628 4550 
Q 988 4650 1302 4700 
Q 1616 4750 1894 4750 
Q 2613 4750 3031 4423 
Q 3450 4097 3450 3541 
Q 3450 3153 3228 2886 
Q 3006 2619 2597 2516 
z
" id="DejaVuSans-33" transform="scale(0.015625)"/>
       </defs>
       <use xlink:href="#DejaVuSans-33"/>
       <use x="63.623047" xlink:href="#DejaVuSans-2e"/>
       <use x="95.410156" xlink:href="#DejaVuSans-38"/>
      </g>
     </g>
    </g>
    <g id="ytick_2">
     <g id="line2d_19">
      <path clip-path="url(#pb30debf650)" d="M 25.332188 273.788584 
L 345.442702 273.788584 
" style="fill:none;stroke:#b0b0b0;stroke-linecap:square;stroke-width:0.8;"/>
     </g>
     <g id="line2d_20">
      <g>
       <use style="stroke:#000000;stroke-width:0.8;" x="25.332188" xlink:href="#mbba33539cd" y="273.788584"/>
      </g>
     </g>
     <g id="text_11">
      <!-- 3.9 -->
      <g transform="translate(7.2 276.448037)scale(0.07 -0.07)">
       <defs>
        <path d="M 703 97 
L 703 672 
Q 941 559 1184 500 
Q 1428 441 1663 441 
Q 2288 441 2617 861 
Q 2947 1281 2994 2138 
Q 2813 1869 2534 1725 
Q 2256 1581 1919 1581 
Q 1219 1581 811 2004 
Q 403 2428 403 3163 
Q 403 3881 828 4315 
Q 1253 4750 1959 4750 
Q 2769 4750 3195 4129 
Q 3622 3509 3622 2328 
Q 3622 1225 3098 567 
Q 2575 -91 1691 -91 
Q 1453 -91 1209 -44 
Q 966 3 703 97 
z
M 1959 2075 
Q 2384 2075 2632 2365 
Q 2881 2656 2881 3163 
Q 2881 3666 2632 3958 
Q 2384 4250 1959 4250 
Q 1534 4250 1286 3958 
Q 1038 3666 1038 3163 
Q 1038 2656 1286 2365 
Q 1534 2075 1959 2075 
z
" id="DejaVuSans-39" transform="scale(0.015625)"/>
       </defs>
       <use xlink:href="#DejaVuSans-33"/>
       <use x="63.623047" xlink:href="#DejaVuSans-2e"/>
       <use x="95.410156" xlink:href="#DejaVuSans-39"/>
      </g>
     </g>
    </g>
    <g id="ytick_3">
     <g id="line2d_21">
      <path clip-path="url(#pb30debf650)" d="M 25.332188 238.854148 
L 345.442702 238.854148 
" style="fill:none;stroke:#b0b0b0;stroke-linecap:square;stroke-width:0.8;"/>
     </g>
     <g id="line2d_22">
      <g>
       <use style="stroke:#000000;stroke-width:0.8;" x="25.332188" xlink:href="#mbba33539cd" y="238.854148"/>
      </g>
     </g>
     <g id="text_12">
      <!-- 4.0 -->
      <g transform="translate(7.2 241.513602)scale(0.07 -0.07)">
       <use xlink:href="#DejaVuSans-34"/>
       <use x="63.623047" xlink:href="#DejaVuSans-2e"/>
       <use x="95.410156" xlink:href="#DejaVuSans-30"/>
      </g>
     </g>
    </g>
    <g id="ytick_4">
     <g id="line2d_23">
      <path clip-path="url(#pb30debf650)" d="M 25.332188 203.919713 
L 345.442702 203.919713 
" style="fill:none;stroke:#b0b0b0;stroke-linecap:square;stroke-width:0.8;"/>
     </g>
     <g id="line2d_24">
      <g>
       <use style="stroke:#000000;stroke-width:0.8;" x="25.332188" xlink:href="#mbba33539cd" y="203.919713"/>
      </g>
     </g>
     <g id="text_13">
      <!-- 4.1 -->
      <g transform="translate(7.2 206.579166)scale(0.07 -0.07)">
       <use xlink:href="#DejaVuSans-34"/>
       <use x="63.623047" xlink:href="#DejaVuSans-2e"/>
       <use x="95.410156" xlink:href="#DejaVuSans-31"/>
      </g>
     </g>
    </g>
    <g id="ytick_5">
     <g id="line2d_25">
      <path clip-path="url(#pb30debf650)" d="M 25.332188 168.985277 
L 345.442702 168.985277 
" style="fill:none;stroke:#b0b0b0;stroke-linecap:square;stroke-width:0.8;"/>
     </g>
     <g id="line2d_26">
      <g>
       <use style="stroke:#000000;stroke-width:0.8;" x="25.332188" xlink:href="#mbba33539cd" y="168.985277"/>
      </g>
     </g>
     <g id="text_14">
      <!-- 4.2 -->
      <g transform="translate(7.2 171.64473)scale(0.07 -0.07)">
       <use xlink:href="#DejaVuSans-34"/>
       <use x="63.623047" xlink:href="#DejaVuSans-2e"/>
       <use x="95.410156" xlink:href="#DejaVuSans-32"/>
      </g>
     </g>
    </g>
    <g id="ytick_6">
     <g id="line2d_27">
      <path clip-path="url(#pb30debf650)" d="M 25.332188 134.050841 
L 345.442702 134.050841 
" style="fill:none;stroke:#b0b0b0;stroke-linecap:square;stroke-width:0.8;"/>
     </g>
     <g id="line2d_28">
      <g>
       <use style="stroke:#000000;stroke-width:0.8;" x="25.332188" xlink:href="#mbba33539cd" y="134.050841"/>
      </g>
     </g>
     <g id="text_15">
      <!-- 4.3 -->
      <g transform="translate(7.2 136.710294)scale(0.07 -0.07)">
       <use xlink:href="#DejaVuSans-34"/>
       <use x="63.623047" xlink:href="#DejaVuSans-2e"/>
       <use x="95.410156" xlink:href="#DejaVuSans-33"/>
      </g>
     </g>
    </g>
    <g id="ytick_7">
     <g id="line2d_29">
      <path clip-path="url(#pb30debf650)" d="M 25.332188 99.116406 
L 345.442702 99.116406 
" style="fill:none;stroke:#b0b0b0;stroke-linecap:square;stroke-width:0.8;"/>
     </g>
     <g id="line2d_30">
      <g>
       <use style="stroke:#000000;stroke-width:0.8;" x="25.332188" xlink:href="#mbba33539cd" y="99.116406"/>
      </g>
     </g>
     <g id="text_16">
      <!-- 4.4 -->
      <g transform="translate(7.2 101.775859)scale(0.07 -0.07)">
       <use xlink:href="#DejaVuSans-34"/>
       <use x="63.623047" xlink:href="#DejaVuSans-2e"/>
       <use x="95.410156" xlink:href="#DejaVuSans-34"/>
      </g>
     </g>
    </g>
    <g id="ytick_8">
     <g id="line2d_31">
      <path clip-path="url(#pb30debf650)" d="M 25.332188 64.18197 
L 345.442702 64.18197 
" style="fill:none;stroke:#b0b0b0;stroke-linecap:square;stroke-width:0.8;"/>
     </g>
     <g id="line2d_32">
      <g>
       <use style="stroke:#000000;stroke-width:0.8;" x="25.332188" xlink:href="#mbba33539cd" y="64.18197"/>
      </g>
     </g>
     <g id="text_17">
      <!-- 4.5 -->
      <g transform="translate(7.2 66.841423)scale(0.07 -0.07)">
       <defs>
        <path d="M 691 4666 
L 3169 4666 
L 3169 4134 
L 1269 4134 
L 1269 2991 
Q 1406 3038 1543 3061 
Q 1681 3084 1819 3084 
Q 2600 3084 3056 2656 
Q 3513 2228 3513 1497 
Q 3513 744 3044 326 
Q 2575 -91 1722 -91 
Q 1428 -91 1123 -41 
Q 819 9 494 109 
L 494 744 
Q 775 591 1075 516 
Q 1375 441 1709 441 
Q 2250 441 2565 725 
Q 2881 1009 2881 1497 
Q 2881 1984 2565 2268 
Q 2250 2553 1709 2553 
Q 1456 2553 1204 2497 
Q 953 2441 691 2322 
L 691 4666 
z
" id="DejaVuSans-35" transform="scale(0.015625)"/>
       </defs>
       <use xlink:href="#DejaVuSans-34"/>
       <use x="63.623047" xlink:href="#DejaVuSans-2e"/>
       <use x="95.410156" xlink:href="#DejaVuSans-35"/>
      </g>
     </g>
    </g>
    <g id="ytick_9">
     <g id="line2d_33">
      <path clip-path="url(#pb30debf650)" d="M 25.332188 29.247534 
L 345.442702 29.247534 
" style="fill:none;stroke:#b0b0b0;stroke-linecap:square;stroke-width:0.8;"/>
     </g>
     <g id="line2d_34">
      <g>
       <use style="stroke:#000000;stroke-width:0.8;" x="25.332188" xlink:href="#mbba33539cd" y="29.247534"/>
      </g>
     </g>
     <g id="text_18">
      <!-- 4.6 -->
      <g transform="translate(7.2 31.906987)scale(0.07 -0.07)">
       <use xlink:href="#DejaVuSans-34"/>
       <use x="63.623047" xlink:href="#DejaVuSans-2e"/>
       <use x="95.410156" xlink:href="#DejaVuSans-36"/>
      </g>
     </g>
    </g>
    <g id="text_19">
     <!-- 1e6 -->
     <g transform="translate(25.332188 12.518906)scale(0.07 -0.07)">
      <use xlink:href="#DejaVuSans-31"/>
      <use x="63.623047" xlink:href="#DejaVuSans-65"/>
      <use x="125.146484" xlink:href="#DejaVuSans-36"/>
     </g>
    </g>
   </g>
   <g id="line2d_35">
    <path clip-path="url(#pb30debf650)" d="M 145.546851 82.658619 
L 143.814651 82.658619 
L 142.082451 82.658619 
L 140.350251 85.609815 
L 138.618051 88.561012 
L 136.885852 91.512208 
L 136.885852 94.463404 
L 135.153652 97.4146 
L 133.421452 97.4146 
L 131.689252 97.4146 
L 129.957053 94.463404 
L 129.957053 91.512208 
L 128.224853 91.512208 
L 128.224853 88.561012 
L 128.224853 85.609815 
L 128.224853 82.658619 
L 128.224853 79.707423 
L 126.492653 76.756227 
L 124.760453 76.756227 
L 123.028254 76.756227 
L 121.296054 73.805031 
L 119.563854 73.805031 
L 117.831654 73.805031 
L 116.099455 73.805031 
L 114.367255 70.853834 
L 112.635055 70.853834 
L 110.902855 70.853834 
L 109.170656 70.853834 
L 107.438456 67.902638 
L 105.706256 64.951442 
L 103.974056 62.000246 
L 102.241857 62.000246 
L 100.509657 62.000246 
L 98.777457 62.000246 
L 97.045257 59.04905 
L 95.313058 56.097854 
L 93.580858 56.097854 
L 91.848658 56.097854 
L 90.116458 56.097854 
L 88.384259 56.097854 
L 86.652059 56.097854 
L 84.919859 53.146657 
L 83.187659 53.146657 
L 81.45546 53.146657 
L 79.72326 50.195461 
L 77.99106 50.195461 
L 76.25886 47.244265 
L 74.526661 47.244265 
L 72.794461 47.244265 
L 71.062261 47.244265 
L 69.330061 44.293069 
L 67.597862 44.293069 
L 67.597862 41.341873 
L 67.597862 38.390677 
L 65.865662 38.390677 
L 64.133462 38.390677 
L 62.401262 38.390677 
L 62.401262 35.43948 
L 62.401262 32.488284 
L 60.669063 29.537088 
L 58.936863 29.537088 
L 57.204663 29.537088 
L 53.740263 32.488284 
L 52.008064 32.488284 
L 50.275864 32.488284 
L 48.543664 32.488284 
L 46.811464 32.488284 
L 45.079265 32.488284 
L 43.347065 32.488284 
L 41.614865 32.488284 
L 39.882665 32.488284 
" style="fill:none;stroke:#1f77b4;stroke-linecap:square;stroke-width:3;"/>
   </g>
   <g id="line2d_36">
    <path clip-path="url(#pb30debf650)" d="M 145.546851 82.658619 
L 145.546851 79.707423 
L 145.546851 76.756227 
L 143.814651 73.805031 
L 143.814651 70.853834 
L 145.546851 67.902638 
L 145.546851 64.951442 
L 145.546851 62.000246 
L 145.546851 59.04905 
L 145.546851 56.097854 
L 147.27905 53.146657 
L 145.546851 50.195461 
L 145.546851 47.244265 
L 143.814651 44.293069 
" style="fill:none;stroke:#ff7f0e;stroke-linecap:square;stroke-width:3;"/>
   </g>
   <g id="line2d_37">
    <path clip-path="url(#pb30debf650)" d="M 164.601048 115.121777 
L 162.868848 112.170581 
L 162.868848 109.219385 
L 162.868848 106.268189 
L 162.868848 103.316992 
L 162.868848 100.365796 
L 162.868848 97.4146 
L 162.868848 94.463404 
L 162.868848 91.512208 
L 161.136648 88.561012 
L 159.404449 85.609815 
L 157.672249 82.658619 
L 155.940049 82.658619 
L 154.207849 82.658619 
L 152.47565 85.609815 
L 150.74345 85.609815 
L 149.01125 85.609815 
L 147.27905 85.609815 
L 145.546851 82.658619 
" style="fill:none;stroke:#2ca02c;stroke-linecap:square;stroke-width:3;"/>
   </g>
   <g id="line2d_38">
    <path clip-path="url(#pb30debf650)" d="M 239.085637 138.731346 
L 237.353438 138.731346 
L 235.621238 138.731346 
L 233.889038 138.731346 
L 232.156838 141.682543 
L 230.424639 141.682543 
L 228.692439 141.682543 
L 226.960239 141.682543 
L 225.228039 141.682543 
L 223.49584 138.731346 
L 221.76364 141.682543 
L 220.03144 144.633739 
L 218.29924 147.584935 
L 216.56704 147.584935 
L 214.834841 150.536131 
L 213.102641 150.536131 
L 211.370441 150.536131 
L 209.638241 147.584935 
L 207.906042 144.633739 
L 206.173842 141.682543 
L 204.441642 138.731346 
L 202.709442 138.731346 
L 200.977243 138.731346 
L 199.245043 135.78015 
L 197.512843 132.828954 
L 195.780643 129.877758 
L 194.048444 126.926562 
L 192.316244 123.975366 
L 192.316244 121.024169 
L 192.316244 118.072973 
L 192.316244 115.121777 
L 190.584044 112.170581 
L 188.851844 112.170581 
L 187.119645 112.170581 
L 185.387445 112.170581 
L 183.655245 115.121777 
L 181.923045 115.121777 
L 180.190846 118.072973 
L 178.458646 118.072973 
L 176.726446 118.072973 
L 174.994246 118.072973 
L 173.262047 121.024169 
L 171.529847 121.024169 
L 169.797647 121.024169 
L 168.065447 121.024169 
L 166.333248 118.072973 
L 164.601048 115.121777 
" style="fill:none;stroke:#d62728;stroke-linecap:square;stroke-width:3;"/>
   </g>
   <g id="line2d_39">
    <path clip-path="url(#pb30debf650)" d="M 239.085637 138.731346 
L 237.353438 135.78015 
L 235.621238 132.828954 
L 233.889038 129.877758 
L 233.889038 126.926562 
L 233.889038 123.975366 
L 235.621238 121.024169 
L 235.621238 118.072973 
L 235.621238 115.121777 
L 235.621238 112.170581 
" style="fill:none;stroke:#9467bd;stroke-linecap:square;stroke-width:3;"/>
   </g>
   <g id="line2d_40">
    <path clip-path="url(#pb30debf650)" d="M 164.601048 115.121777 
L 162.868848 115.121777 
L 161.136648 115.121777 
L 159.404449 118.072973 
L 157.672249 118.072973 
L 155.940049 118.072973 
L 154.207849 118.072973 
L 152.47565 118.072973 
L 150.74345 118.072973 
L 149.01125 121.024169 
L 147.27905 121.024169 
L 145.546851 121.024169 
L 143.814651 121.024169 
L 142.082451 121.024169 
L 140.350251 121.024169 
L 138.618051 118.072973 
L 136.885852 118.072973 
L 135.153652 118.072973 
L 133.421452 118.072973 
L 131.689252 121.024169 
L 129.957053 123.975366 
L 128.224853 123.975366 
L 126.492653 121.024169 
L 124.760453 123.975366 
L 123.028254 123.975366 
L 121.296054 123.975366 
L 119.563854 123.975366 
L 117.831654 126.926562 
L 116.099455 126.926562 
L 114.367255 126.926562 
L 112.635055 123.975366 
L 110.902855 123.975366 
L 109.170656 121.024169 
L 107.438456 121.024169 
" style="fill:none;stroke:#8c564b;stroke-linecap:square;stroke-width:3;"/>
   </g>
   <g id="line2d_41">
    <path clip-path="url(#pb30debf650)" d="M 280.658431 180.048093 
L 282.390631 177.096897 
L 284.122831 174.145701 
L 285.855031 171.194504 
L 287.58723 171.194504 
L 289.31943 168.243308 
L 291.05163 168.243308 
L 292.78383 168.243308 
L 294.516029 168.243308 
L 296.248229 168.243308 
L 297.980429 168.243308 
L 299.712629 165.292112 
L 301.444828 162.340916 
L 303.177028 162.340916 
L 304.909228 162.340916 
L 306.641428 162.340916 
L 308.373628 159.38972 
L 310.105827 159.38972 
L 311.838027 159.38972 
L 313.570227 156.438523 
L 315.302427 156.438523 
L 317.034626 153.487327 
L 318.766826 153.487327 
L 320.499026 153.487327 
L 322.231226 150.536131 
L 323.963425 147.584935 
L 325.695625 144.633739 
L 325.695625 141.682543 
L 327.427825 138.731346 
L 327.427825 135.78015 
L 329.160025 132.828954 
L 330.892224 129.877758 
" style="fill:none;stroke:#e377c2;stroke-linecap:square;stroke-width:3;"/>
   </g>
   <g id="line2d_42">
    <path clip-path="url(#pb30debf650)" d="M 280.658431 180.048093 
L 280.658431 177.096897 
L 280.658431 174.145701 
L 280.658431 171.194504 
L 280.658431 168.243308 
L 278.926232 165.292112 
L 277.194032 162.340916 
L 277.194032 159.38972 
L 277.194032 156.438523 
L 275.461832 153.487327 
L 273.729632 153.487327 
L 271.997433 150.536131 
L 270.265233 150.536131 
L 268.533033 150.536131 
L 266.800833 153.487327 
L 266.800833 156.438523 
L 265.068634 159.38972 
L 263.336434 162.340916 
L 263.336434 165.292112 
L 261.604234 168.243308 
L 259.872034 168.243308 
L 258.139835 168.243308 
L 256.407635 168.243308 
L 254.675435 168.243308 
L 252.943235 168.243308 
L 251.211036 168.243308 
L 249.478836 165.292112 
L 247.746636 162.340916 
L 247.746636 159.38972 
L 247.746636 156.438523 
L 247.746636 153.487327 
L 247.746636 150.536131 
L 249.478836 147.584935 
L 249.478836 144.633739 
L 247.746636 141.682543 
L 246.014436 141.682543 
L 244.282237 141.682543 
L 242.550037 141.682543 
L 240.817837 141.682543 
L 239.085637 138.731346 
" style="fill:none;stroke:#7f7f7f;stroke-linecap:square;stroke-width:3;"/>
   </g>
   <g id="line2d_43">
    <path clip-path="url(#pb30debf650)" d="M 242.550037 309.900724 
L 240.817837 309.900724 
L 242.550037 309.900724 
L 239.085637 306.949528 
L 239.085637 303.998332 
L 240.817837 301.047136 
L 240.817837 298.09594 
L 240.817837 295.144744 
L 239.085637 292.193547 
L 239.085637 289.242351 
L 239.085637 286.291155 
L 239.085637 283.339959 
L 239.085637 280.388763 
L 239.085637 277.437567 
L 239.085637 274.48637 
L 239.085637 271.535174 
L 240.817837 268.583978 
L 240.817837 265.632782 
L 242.550037 262.681586 
L 242.550037 259.73039 
L 244.282237 256.779193 
L 244.282237 253.827997 
L 244.282237 250.876801 
L 246.014436 247.925605 
L 247.746636 244.974409 
L 249.478836 242.023212 
L 249.478836 239.072016 
L 249.478836 236.12082 
L 249.478836 233.169624 
L 251.211036 230.218428 
L 252.943235 230.218428 
L 254.675435 227.267232 
L 254.675435 224.316035 
L 254.675435 221.364839 
L 256.407635 218.413643 
L 258.139835 215.462447 
L 258.139835 212.511251 
L 258.139835 209.560055 
L 259.872034 209.560055 
L 261.604234 206.608858 
L 261.604234 203.657662 
L 261.604234 200.706466 
L 263.336434 197.75527 
L 265.068634 197.75527 
L 266.800833 197.75527 
L 268.533033 197.75527 
L 270.265233 197.75527 
L 271.997433 197.75527 
L 273.729632 194.804074 
L 275.461832 191.852878 
L 275.461832 188.901681 
L 277.194032 185.950485 
L 278.926232 185.950485 
L 280.658431 182.999289 
L 280.658431 180.048093 
" style="fill:none;stroke:#bcbd22;stroke-linecap:square;stroke-width:3;"/>
   </g>
   <g id="patch_3">
    <path d="M 25.332188 323.918906 
L 25.332188 15.518906 
" style="fill:none;stroke:#000000;stroke-linecap:square;stroke-linejoin:miter;stroke-width:0.8;"/>
   </g>
   <g id="patch_4">
    <path d="M 345.442702 323.918906 
L 345.442702 15.518906 
" style="fill:none;stroke:#000000;stroke-linecap:square;stroke-linejoin:miter;stroke-width:0.8;"/>
   </g>
   <g id="patch_5">
    <path d="M 25.332188 323.918906 
L 345.442702 323.918906 
" style="fill:none;stroke:#000000;stroke-linecap:square;stroke-linejoin:miter;stroke-width:0.8;"/>
   </g>
   <g id="patch_6">
    <path d="M 25.332188 15.518906 
L 345.442702 15.518906 
" style="fill:none;stroke:#000000;stroke-linecap:square;stroke-linejoin:miter;stroke-width:0.8;"/>
   </g>
  </g>
 </g>
 <defs>
  <clipPath id="pb30debf650">
   <rect height="308.4" width="320.110515" x="25.332188" y="15.518906"/>
  </clipPath>
 </defs>
</svg>
