<?xml version="1.0" encoding="utf-8" standalone="no"?>
<!DOCTYPE svg PUBLIC "-//W3C//DTD SVG 1.1//EN"
  "http://www.w3.org/Graphics/SVG/1.1/DTD/svg11.dtd">
<svg height="354.668281pt" version="1.1" viewBox="0 0 352.164879 354.668281" width="352.164879pt" xmlns="http://www.w3.org/2000/svg" xmlns:xlink="http://www.w3.org/1999/xlink">
 <metadata>
  <rdf:RDF xmlns:cc="http://creativecommons.org/ns#" xmlns:dc="http://purl.org/dc/elements/1.1/" xmlns:rdf="http://www.w3.org/1999/02/22-rdf-syntax-ns#">
   <cc:Work>
    <dc:type rdf:resource="http://purl.org/dc/dcmitype/StillImage"/>
    <dc:date>2021-04-19T07:15:35.645262</dc:date>
    <dc:format>image/svg+xml</dc:format>
    <dc:creator>
     <cc:Agent>
      <dc:title>Matplotlib v3.4.1, https://matplotlib.org/</dc:title>
     </cc:Agent>
    </dc:creator>
   </cc:Work>
  </rdf:RDF>
 </metadata>
 <defs>
  <style type="text/css">*{stroke-linecap:butt;stroke-linejoin:round;}</style>
 </defs>
 <g id="figure_1">
  <g id="patch_1">
   <path d="M 0 354.668281 
L 352.164879 354.668281 
L 352.164879 0 
L 0 0 
z
" style="fill:none;"/>
  </g>
  <g id="axes_1">
   <g id="patch_2">
    <path d="M 25.332188 323.918906 
L 343.15177 323.918906 
L 343.15177 15.518906 
L 25.332188 15.518906 
z
" style="fill:#ffffff;"/>
   </g>
   <g id="matplotlib.axis_1">
    <g id="xtick_1">
     <g id="line2d_1">
      <path clip-path="url(#p9e0061caae)" d="M 70.096586 323.918906 
L 70.096586 15.518906 
" style="fill:none;stroke:#b0b0b0;stroke-linecap:square;stroke-width:0.8;"/>
     </g>
     <g id="line2d_2">
      <defs>
       <path d="M 0 0 
L 0 3.5 
" id="m10b6259eff" style="stroke:#000000;stroke-width:0.8;"/>
      </defs>
      <g>
       <use style="stroke:#000000;stroke-width:0.8;" x="70.096586" xlink:href="#m10b6259eff" y="323.918906"/>
      </g>
     </g>
     <g id="text_1">
      <!-- 0.2 -->
      <g transform="translate(64.530492 336.237812)scale(0.07 -0.07)">
       <defs>
        <path d="M 2034 4250 
Q 1547 4250 1301 3770 
Q 1056 3291 1056 2328 
Q 1056 1369 1301 889 
Q 1547 409 2034 409 
Q 2525 409 2770 889 
Q 3016 1369 3016 2328 
Q 3016 3291 2770 3770 
Q 2525 4250 2034 4250 
z
M 2034 4750 
Q 2819 4750 3233 4129 
Q 3647 3509 3647 2328 
Q 3647 1150 3233 529 
Q 2819 -91 2034 -91 
Q 1250 -91 836 529 
Q 422 1150 422 2328 
Q 422 3509 836 4129 
Q 1250 4750 2034 4750 
z
" id="DejaVuSans-30" transform="scale(0.015625)"/>
        <path d="M 684 794 
L 1344 794 
L 1344 0 
L 684 0 
L 684 794 
z
" id="DejaVuSans-2e" transform="scale(0.015625)"/>
        <path d="M 1228 531 
L 3431 531 
L 3431 0 
L 469 0 
L 469 531 
Q 828 903 1448 1529 
Q 2069 2156 2228 2338 
Q 2531 2678 2651 2914 
Q 2772 3150 2772 3378 
Q 2772 3750 2511 3984 
Q 2250 4219 1831 4219 
Q 1534 4219 1204 4116 
Q 875 4013 500 3803 
L 500 4441 
Q 881 4594 1212 4672 
Q 1544 4750 1819 4750 
Q 2544 4750 2975 4387 
Q 3406 4025 3406 3419 
Q 3406 3131 3298 2873 
Q 3191 2616 2906 2266 
Q 2828 2175 2409 1742 
Q 1991 1309 1228 531 
z
" id="DejaVuSans-32" transform="scale(0.015625)"/>
       </defs>
       <use xlink:href="#DejaVuSans-30"/>
       <use x="63.623047" xlink:href="#DejaVuSans-2e"/>
       <use x="95.410156" xlink:href="#DejaVuSans-32"/>
      </g>
     </g>
    </g>
    <g id="xtick_2">
     <g id="line2d_3">
      <path clip-path="url(#p9e0061caae)" d="M 123.957026 323.918906 
L 123.957026 15.518906 
" style="fill:none;stroke:#b0b0b0;stroke-linecap:square;stroke-width:0.8;"/>
     </g>
     <g id="line2d_4">
      <g>
       <use style="stroke:#000000;stroke-width:0.8;" x="123.957026" xlink:href="#m10b6259eff" y="323.918906"/>
      </g>
     </g>
     <g id="text_2">
      <!-- 0.4 -->
      <g transform="translate(118.390932 336.237812)scale(0.07 -0.07)">
       <defs>
        <path d="M 2419 4116 
L 825 1625 
L 2419 1625 
L 2419 4116 
z
M 2253 4666 
L 3047 4666 
L 3047 1625 
L 3713 1625 
L 3713 1100 
L 3047 1100 
L 3047 0 
L 2419 0 
L 2419 1100 
L 313 1100 
L 313 1709 
L 2253 4666 
z
" id="DejaVuSans-34" transform="scale(0.015625)"/>
       </defs>
       <use xlink:href="#DejaVuSans-30"/>
       <use x="63.623047" xlink:href="#DejaVuSans-2e"/>
       <use x="95.410156" xlink:href="#DejaVuSans-34"/>
      </g>
     </g>
    </g>
    <g id="xtick_3">
     <g id="line2d_5">
      <path clip-path="url(#p9e0061caae)" d="M 177.817465 323.918906 
L 177.817465 15.518906 
" style="fill:none;stroke:#b0b0b0;stroke-linecap:square;stroke-width:0.8;"/>
     </g>
     <g id="line2d_6">
      <g>
       <use style="stroke:#000000;stroke-width:0.8;" x="177.817465" xlink:href="#m10b6259eff" y="323.918906"/>
      </g>
     </g>
     <g id="text_3">
      <!-- 0.6 -->
      <g transform="translate(172.251372 336.237812)scale(0.07 -0.07)">
       <defs>
        <path d="M 2113 2584 
Q 1688 2584 1439 2293 
Q 1191 2003 1191 1497 
Q 1191 994 1439 701 
Q 1688 409 2113 409 
Q 2538 409 2786 701 
Q 3034 994 3034 1497 
Q 3034 2003 2786 2293 
Q 2538 2584 2113 2584 
z
M 3366 4563 
L 3366 3988 
Q 3128 4100 2886 4159 
Q 2644 4219 2406 4219 
Q 1781 4219 1451 3797 
Q 1122 3375 1075 2522 
Q 1259 2794 1537 2939 
Q 1816 3084 2150 3084 
Q 2853 3084 3261 2657 
Q 3669 2231 3669 1497 
Q 3669 778 3244 343 
Q 2819 -91 2113 -91 
Q 1303 -91 875 529 
Q 447 1150 447 2328 
Q 447 3434 972 4092 
Q 1497 4750 2381 4750 
Q 2619 4750 2861 4703 
Q 3103 4656 3366 4563 
z
" id="DejaVuSans-36" transform="scale(0.015625)"/>
       </defs>
       <use xlink:href="#DejaVuSans-30"/>
       <use x="63.623047" xlink:href="#DejaVuSans-2e"/>
       <use x="95.410156" xlink:href="#DejaVuSans-36"/>
      </g>
     </g>
    </g>
    <g id="xtick_4">
     <g id="line2d_7">
      <path clip-path="url(#p9e0061caae)" d="M 231.677905 323.918906 
L 231.677905 15.518906 
" style="fill:none;stroke:#b0b0b0;stroke-linecap:square;stroke-width:0.8;"/>
     </g>
     <g id="line2d_8">
      <g>
       <use style="stroke:#000000;stroke-width:0.8;" x="231.677905" xlink:href="#m10b6259eff" y="323.918906"/>
      </g>
     </g>
     <g id="text_4">
      <!-- 0.8 -->
      <g transform="translate(226.111812 336.237812)scale(0.07 -0.07)">
       <defs>
        <path d="M 2034 2216 
Q 1584 2216 1326 1975 
Q 1069 1734 1069 1313 
Q 1069 891 1326 650 
Q 1584 409 2034 409 
Q 2484 409 2743 651 
Q 3003 894 3003 1313 
Q 3003 1734 2745 1975 
Q 2488 2216 2034 2216 
z
M 1403 2484 
Q 997 2584 770 2862 
Q 544 3141 544 3541 
Q 544 4100 942 4425 
Q 1341 4750 2034 4750 
Q 2731 4750 3128 4425 
Q 3525 4100 3525 3541 
Q 3525 3141 3298 2862 
Q 3072 2584 2669 2484 
Q 3125 2378 3379 2068 
Q 3634 1759 3634 1313 
Q 3634 634 3220 271 
Q 2806 -91 2034 -91 
Q 1263 -91 848 271 
Q 434 634 434 1313 
Q 434 1759 690 2068 
Q 947 2378 1403 2484 
z
M 1172 3481 
Q 1172 3119 1398 2916 
Q 1625 2713 2034 2713 
Q 2441 2713 2670 2916 
Q 2900 3119 2900 3481 
Q 2900 3844 2670 4047 
Q 2441 4250 2034 4250 
Q 1625 4250 1398 4047 
Q 1172 3844 1172 3481 
z
" id="DejaVuSans-38" transform="scale(0.015625)"/>
       </defs>
       <use xlink:href="#DejaVuSans-30"/>
       <use x="63.623047" xlink:href="#DejaVuSans-2e"/>
       <use x="95.410156" xlink:href="#DejaVuSans-38"/>
      </g>
     </g>
    </g>
    <g id="xtick_5">
     <g id="line2d_9">
      <path clip-path="url(#p9e0061caae)" d="M 285.538345 323.918906 
L 285.538345 15.518906 
" style="fill:none;stroke:#b0b0b0;stroke-linecap:square;stroke-width:0.8;"/>
     </g>
     <g id="line2d_10">
      <g>
       <use style="stroke:#000000;stroke-width:0.8;" x="285.538345" xlink:href="#m10b6259eff" y="323.918906"/>
      </g>
     </g>
     <g id="text_5">
      <!-- 1.0 -->
      <g transform="translate(279.972251 336.237812)scale(0.07 -0.07)">
       <defs>
        <path d="M 794 531 
L 1825 531 
L 1825 4091 
L 703 3866 
L 703 4441 
L 1819 4666 
L 2450 4666 
L 2450 531 
L 3481 531 
L 3481 0 
L 794 0 
L 794 531 
z
" id="DejaVuSans-31" transform="scale(0.015625)"/>
       </defs>
       <use xlink:href="#DejaVuSans-31"/>
       <use x="63.623047" xlink:href="#DejaVuSans-2e"/>
       <use x="95.410156" xlink:href="#DejaVuSans-30"/>
      </g>
     </g>
    </g>
    <g id="xtick_6">
     <g id="line2d_11">
      <path clip-path="url(#p9e0061caae)" d="M 339.398785 323.918906 
L 339.398785 15.518906 
" style="fill:none;stroke:#b0b0b0;stroke-linecap:square;stroke-width:0.8;"/>
     </g>
     <g id="line2d_12">
      <g>
       <use style="stroke:#000000;stroke-width:0.8;" x="339.398785" xlink:href="#m10b6259eff" y="323.918906"/>
      </g>
     </g>
     <g id="text_6">
      <!-- 1.2 -->
      <g transform="translate(333.832691 336.237812)scale(0.07 -0.07)">
       <use xlink:href="#DejaVuSans-31"/>
       <use x="63.623047" xlink:href="#DejaVuSans-2e"/>
       <use x="95.410156" xlink:href="#DejaVuSans-32"/>
      </g>
     </g>
    </g>
    <g id="text_7">
     <!-- 1e6 -->
     <g transform="translate(329.937082 346.0125)scale(0.07 -0.07)">
      <defs>
       <path d="M 3597 1894 
L 3597 1613 
L 953 1613 
Q 991 1019 1311 708 
Q 1631 397 2203 397 
Q 2534 397 2845 478 
Q 3156 559 3463 722 
L 3463 178 
Q 3153 47 2828 -22 
Q 2503 -91 2169 -91 
Q 1331 -91 842 396 
Q 353 884 353 1716 
Q 353 2575 817 3079 
Q 1281 3584 2069 3584 
Q 2775 3584 3186 3129 
Q 3597 2675 3597 1894 
z
M 3022 2063 
Q 3016 2534 2758 2815 
Q 2500 3097 2075 3097 
Q 1594 3097 1305 2825 
Q 1016 2553 972 2059 
L 3022 2063 
z
" id="DejaVuSans-65" transform="scale(0.015625)"/>
      </defs>
      <use xlink:href="#DejaVuSans-31"/>
      <use x="63.623047" xlink:href="#DejaVuSans-65"/>
      <use x="125.146484" xlink:href="#DejaVuSans-36"/>
     </g>
    </g>
   </g>
   <g id="matplotlib.axis_2">
    <g id="ytick_1">
     <g id="line2d_13">
      <path clip-path="url(#p9e0061caae)" d="M 25.332188 308.054666 
L 343.15177 308.054666 
" style="fill:none;stroke:#b0b0b0;stroke-linecap:square;stroke-width:0.8;"/>
     </g>
     <g id="line2d_14">
      <defs>
       <path d="M 0 0 
L -3.5 0 
" id="ma25aa7c6b9" style="stroke:#000000;stroke-width:0.8;"/>
      </defs>
      <g>
       <use style="stroke:#000000;stroke-width:0.8;" x="25.332188" xlink:href="#ma25aa7c6b9" y="308.054666"/>
      </g>
     </g>
     <g id="text_8">
      <!-- 3.6 -->
      <g transform="translate(7.2 310.714119)scale(0.07 -0.07)">
       <defs>
        <path d="M 2597 2516 
Q 3050 2419 3304 2112 
Q 3559 1806 3559 1356 
Q 3559 666 3084 287 
Q 2609 -91 1734 -91 
Q 1441 -91 1130 -33 
Q 819 25 488 141 
L 488 750 
Q 750 597 1062 519 
Q 1375 441 1716 441 
Q 2309 441 2620 675 
Q 2931 909 2931 1356 
Q 2931 1769 2642 2001 
Q 2353 2234 1838 2234 
L 1294 2234 
L 1294 2753 
L 1863 2753 
Q 2328 2753 2575 2939 
Q 2822 3125 2822 3475 
Q 2822 3834 2567 4026 
Q 2313 4219 1838 4219 
Q 1578 4219 1281 4162 
Q 984 4106 628 3988 
L 628 4550 
Q 988 4650 1302 4700 
Q 1616 4750 1894 4750 
Q 2613 4750 3031 4423 
Q 3450 4097 3450 3541 
Q 3450 3153 3228 2886 
Q 3006 2619 2597 2516 
z
" id="DejaVuSans-33" transform="scale(0.015625)"/>
       </defs>
       <use xlink:href="#DejaVuSans-33"/>
       <use x="63.623047" xlink:href="#DejaVuSans-2e"/>
       <use x="95.410156" xlink:href="#DejaVuSans-36"/>
      </g>
     </g>
    </g>
    <g id="ytick_2">
     <g id="line2d_15">
      <path clip-path="url(#p9e0061caae)" d="M 25.332188 247.713368 
L 343.15177 247.713368 
" style="fill:none;stroke:#b0b0b0;stroke-linecap:square;stroke-width:0.8;"/>
     </g>
     <g id="line2d_16">
      <g>
       <use style="stroke:#000000;stroke-width:0.8;" x="25.332188" xlink:href="#ma25aa7c6b9" y="247.713368"/>
      </g>
     </g>
     <g id="text_9">
      <!-- 3.8 -->
      <g transform="translate(7.2 250.372821)scale(0.07 -0.07)">
       <use xlink:href="#DejaVuSans-33"/>
       <use x="63.623047" xlink:href="#DejaVuSans-2e"/>
       <use x="95.410156" xlink:href="#DejaVuSans-38"/>
      </g>
     </g>
    </g>
    <g id="ytick_3">
     <g id="line2d_17">
      <path clip-path="url(#p9e0061caae)" d="M 25.332188 187.37207 
L 343.15177 187.37207 
" style="fill:none;stroke:#b0b0b0;stroke-linecap:square;stroke-width:0.8;"/>
     </g>
     <g id="line2d_18">
      <g>
       <use style="stroke:#000000;stroke-width:0.8;" x="25.332188" xlink:href="#ma25aa7c6b9" y="187.37207"/>
      </g>
     </g>
     <g id="text_10">
      <!-- 4.0 -->
      <g transform="translate(7.2 190.031523)scale(0.07 -0.07)">
       <use xlink:href="#DejaVuSans-34"/>
       <use x="63.623047" xlink:href="#DejaVuSans-2e"/>
       <use x="95.410156" xlink:href="#DejaVuSans-30"/>
      </g>
     </g>
    </g>
    <g id="ytick_4">
     <g id="line2d_19">
      <path clip-path="url(#p9e0061caae)" d="M 25.332188 127.030772 
L 343.15177 127.030772 
" style="fill:none;stroke:#b0b0b0;stroke-linecap:square;stroke-width:0.8;"/>
     </g>
     <g id="line2d_20">
      <g>
       <use style="stroke:#000000;stroke-width:0.8;" x="25.332188" xlink:href="#ma25aa7c6b9" y="127.030772"/>
      </g>
     </g>
     <g id="text_11">
      <!-- 4.2 -->
      <g transform="translate(7.2 129.690225)scale(0.07 -0.07)">
       <use xlink:href="#DejaVuSans-34"/>
       <use x="63.623047" xlink:href="#DejaVuSans-2e"/>
       <use x="95.410156" xlink:href="#DejaVuSans-32"/>
      </g>
     </g>
    </g>
    <g id="ytick_5">
     <g id="line2d_21">
      <path clip-path="url(#p9e0061caae)" d="M 25.332188 66.689474 
L 343.15177 66.689474 
" style="fill:none;stroke:#b0b0b0;stroke-linecap:square;stroke-width:0.8;"/>
     </g>
     <g id="line2d_22">
      <g>
       <use style="stroke:#000000;stroke-width:0.8;" x="25.332188" xlink:href="#ma25aa7c6b9" y="66.689474"/>
      </g>
     </g>
     <g id="text_12">
      <!-- 4.4 -->
      <g transform="translate(7.2 69.348927)scale(0.07 -0.07)">
       <use xlink:href="#DejaVuSans-34"/>
       <use x="63.623047" xlink:href="#DejaVuSans-2e"/>
       <use x="95.410156" xlink:href="#DejaVuSans-34"/>
      </g>
     </g>
    </g>
    <g id="text_13">
     <!-- 1e6 -->
     <g transform="translate(25.332188 12.518906)scale(0.07 -0.07)">
      <use xlink:href="#DejaVuSans-31"/>
      <use x="63.623047" xlink:href="#DejaVuSans-65"/>
      <use x="125.146484" xlink:href="#DejaVuSans-36"/>
     </g>
    </g>
   </g>
   <g id="line2d_23">
    <path clip-path="url(#p9e0061caae)" d="M 85.27883 52.475931 
L 83.003815 49.927171 
L 83.003815 47.37841 
L 83.003815 44.82965 
L 83.003815 42.28089 
L 85.27883 39.732129 
L 85.27883 37.183369 
L 85.27883 34.634609 
L 85.27883 32.085848 
L 85.27883 29.537088 
" style="fill:none;stroke:#1f77b4;stroke-linecap:square;stroke-width:3;"/>
   </g>
   <g id="line2d_24">
    <path clip-path="url(#p9e0061caae)" d="M 85.27883 52.475931 
L 83.003815 52.475931 
L 80.7288 52.475931 
L 78.453786 55.024691 
L 76.178771 55.024691 
L 76.178771 57.573452 
L 76.178771 60.122212 
L 76.178771 62.670972 
L 73.903756 62.670972 
L 71.628741 62.670972 
L 69.353726 62.670972 
L 67.078711 60.122212 
L 64.803696 57.573452 
L 64.803696 55.024691 
L 64.803696 52.475931 
L 62.528681 49.927171 
L 60.253666 47.37841 
L 57.978651 47.37841 
L 55.703636 44.82965 
L 53.428622 44.82965 
L 51.153607 44.82965 
L 48.878592 44.82965 
L 46.603577 44.82965 
L 44.328562 42.28089 
L 42.053547 42.28089 
L 39.778532 42.28089 
" style="fill:none;stroke:#ff7f0e;stroke-linecap:square;stroke-width:3;"/>
   </g>
   <g id="line2d_25">
    <path clip-path="url(#p9e0061caae)" d="M 144.429218 77.963534 
L 142.154203 75.414774 
L 139.879188 72.866014 
L 137.604173 70.317253 
L 135.329158 67.768493 
L 133.054143 67.768493 
L 130.779128 65.219733 
L 128.504113 62.670972 
L 126.229099 60.122212 
L 123.954084 57.573452 
L 121.679069 57.573452 
L 119.404054 57.573452 
L 117.129039 60.122212 
L 114.854024 60.122212 
L 112.579009 60.122212 
L 110.303994 60.122212 
L 108.028979 60.122212 
L 105.753964 57.573452 
L 103.478949 55.024691 
L 101.203935 52.475931 
L 98.92892 52.475931 
L 96.653905 52.475931 
L 94.37889 55.024691 
L 92.103875 55.024691 
L 89.82886 55.024691 
L 87.553845 55.024691 
L 85.27883 52.475931 
" style="fill:none;stroke:#2ca02c;stroke-linecap:square;stroke-width:3;"/>
   </g>
   <g id="line2d_26">
    <path clip-path="url(#p9e0061caae)" d="M 205.85462 100.902377 
L 203.579605 98.353617 
L 201.30459 98.353617 
L 201.30459 95.804857 
L 199.029575 93.256096 
L 201.30459 90.707336 
L 201.30459 88.158576 
L 201.30459 85.609815 
L 201.30459 83.061055 
L 203.579605 80.512295 
L 203.579605 77.963534 
L 201.30459 75.414774 
" style="fill:none;stroke:#d62728;stroke-linecap:square;stroke-width:3;"/>
   </g>
   <g id="line2d_27">
    <path clip-path="url(#p9e0061caae)" d="M 144.429218 77.963534 
L 142.154203 77.963534 
L 139.879188 77.963534 
L 137.604173 77.963534 
L 135.329158 80.512295 
L 133.054143 80.512295 
L 130.779128 80.512295 
L 128.504113 80.512295 
L 126.229099 83.061055 
L 123.954084 83.061055 
L 121.679069 83.061055 
L 119.404054 85.609815 
L 117.129039 85.609815 
L 114.854024 85.609815 
L 112.579009 85.609815 
L 110.303994 85.609815 
L 108.028979 83.061055 
L 105.753964 83.061055 
L 103.478949 80.512295 
L 101.203935 80.512295 
L 98.92892 80.512295 
L 96.653905 80.512295 
L 94.37889 80.512295 
L 92.103875 83.061055 
L 89.82886 83.061055 
L 87.553845 85.609815 
L 85.27883 85.609815 
L 83.003815 85.609815 
L 80.7288 83.061055 
L 78.453786 83.061055 
L 76.178771 83.061055 
L 73.903756 83.061055 
L 71.628741 83.061055 
L 69.353726 85.609815 
L 67.078711 85.609815 
L 64.803696 85.609815 
L 62.528681 85.609815 
L 60.253666 88.158576 
L 57.978651 88.158576 
L 55.703636 88.158576 
L 53.428622 90.707336 
L 51.153607 90.707336 
L 48.878592 90.707336 
L 46.603577 90.707336 
L 44.328562 90.707336 
L 42.053547 88.158576 
L 39.778532 88.158576 
" style="fill:none;stroke:#9467bd;stroke-linecap:square;stroke-width:3;"/>
   </g>
   <g id="line2d_28">
    <path clip-path="url(#p9e0061caae)" d="M 205.85462 100.902377 
L 203.579605 100.902377 
L 201.30459 100.902377 
L 199.029575 100.902377 
L 196.754561 103.451138 
L 194.479546 103.451138 
L 192.204531 103.451138 
L 189.929516 103.451138 
L 187.654501 100.902377 
L 185.379486 100.902377 
L 183.104471 103.451138 
L 180.829456 105.999898 
L 180.829456 108.548658 
L 178.554441 108.548658 
L 176.279426 111.097419 
L 174.004412 111.097419 
L 171.729397 111.097419 
L 169.454382 108.548658 
L 167.179367 105.999898 
L 164.904352 103.451138 
L 162.629337 100.902377 
L 160.354322 100.902377 
L 158.079307 98.353617 
L 155.804292 95.804857 
L 153.529277 93.256096 
L 151.254262 93.256096 
L 148.979248 90.707336 
L 146.704233 88.158576 
L 148.979248 85.609815 
L 148.979248 83.061055 
L 146.704233 80.512295 
L 144.429218 77.963534 
" style="fill:none;stroke:#8c564b;stroke-linecap:square;stroke-width:3;"/>
   </g>
   <g id="line2d_29">
    <path clip-path="url(#p9e0061caae)" d="M 262.729993 131.487501 
L 265.005008 128.938741 
L 267.280023 126.389981 
L 269.555038 126.389981 
L 271.830052 126.389981 
L 274.105067 126.389981 
L 276.380082 126.389981 
L 278.655097 126.389981 
L 280.930112 126.389981 
L 283.205127 123.84122 
L 285.480142 121.29246 
L 287.755157 121.29246 
L 290.030172 118.7437 
L 292.305187 118.7437 
L 294.580201 118.7437 
L 296.855216 118.7437 
L 299.130231 118.7437 
L 301.405246 116.194939 
L 303.680261 113.646179 
L 305.955276 113.646179 
L 308.230291 113.646179 
L 310.505306 113.646179 
L 312.780321 111.097419 
L 315.055336 113.646179 
L 317.330351 113.646179 
L 319.605365 111.097419 
L 321.88038 108.548658 
L 321.88038 105.999898 
L 321.88038 103.451138 
L 321.88038 100.902377 
L 321.88038 98.353617 
L 324.155395 95.804857 
L 326.43041 95.804857 
L 328.705425 93.256096 
" style="fill:none;stroke:#e377c2;stroke-linecap:square;stroke-width:3;"/>
   </g>
   <g id="line2d_30">
    <path clip-path="url(#p9e0061caae)" d="M 262.729993 131.487501 
L 262.729993 128.938741 
L 262.729993 126.389981 
L 262.729993 123.84122 
L 260.454978 121.29246 
L 260.454978 118.7437 
L 260.454978 116.194939 
L 258.179963 116.194939 
L 255.904948 113.646179 
L 253.629933 111.097419 
L 251.354918 108.548658 
L 249.079903 108.548658 
L 246.804888 111.097419 
L 244.529874 113.646179 
L 244.529874 116.194939 
L 242.254859 118.7437 
L 239.979844 118.7437 
L 237.704829 121.29246 
L 235.429814 121.29246 
L 233.154799 121.29246 
L 230.879784 123.84122 
L 228.604769 123.84122 
L 226.329754 126.389981 
L 224.054739 126.389981 
L 221.779725 123.84122 
L 219.50471 121.29246 
L 217.229695 118.7437 
L 219.50471 116.194939 
L 219.50471 113.646179 
L 219.50471 111.097419 
L 219.50471 108.548658 
L 219.50471 105.999898 
L 217.229695 103.451138 
L 214.95468 103.451138 
L 212.679665 103.451138 
L 210.40465 103.451138 
L 208.129635 103.451138 
L 205.85462 100.902377 
" style="fill:none;stroke:#7f7f7f;stroke-linecap:square;stroke-width:3;"/>
   </g>
   <g id="line2d_31">
    <path clip-path="url(#p9e0061caae)" d="M 201.30459 284.413121 
L 203.579605 281.864361 
L 203.579605 279.3156 
L 205.85462 276.76684 
L 205.85462 274.21808 
L 205.85462 271.669319 
L 208.129635 269.120559 
L 210.40465 269.120559 
L 210.40465 266.571799 
L 212.679665 264.023038 
L 212.679665 261.474278 
L 212.679665 258.925518 
L 212.679665 256.376757 
L 212.679665 253.827997 
L 214.95468 251.279237 
L 214.95468 248.730476 
L 212.679665 246.181716 
L 210.40465 243.632956 
L 210.40465 241.084196 
L 210.40465 238.535435 
L 210.40465 235.986675 
L 208.129635 233.437915 
L 205.85462 230.889154 
L 208.129635 228.340394 
L 208.129635 225.791634 
L 208.129635 223.242873 
L 208.129635 220.694113 
L 208.129635 218.145353 
L 208.129635 215.596592 
L 208.129635 213.047832 
L 210.40465 210.499072 
L 210.40465 207.950311 
L 210.40465 205.401551 
L 212.679665 202.852791 
L 214.95468 200.30403 
L 217.229695 197.75527 
L 219.50471 195.20651 
L 219.50471 192.657749 
L 219.50471 190.108989 
L 221.779725 187.560229 
L 224.054739 185.011468 
L 226.329754 182.462708 
L 228.604769 182.462708 
L 230.879784 179.913948 
L 230.879784 177.365187 
L 230.879784 174.816427 
L 230.879784 172.267667 
L 233.154799 169.718906 
L 233.154799 167.170146 
L 233.154799 164.621386 
L 235.429814 162.072625 
L 235.429814 159.523865 
L 235.429814 156.975105 
L 237.704829 154.426344 
L 239.979844 151.877584 
L 242.254859 151.877584 
L 244.529874 151.877584 
L 246.804888 149.328824 
L 249.079903 146.780063 
L 251.354918 146.780063 
L 253.629933 144.231303 
L 255.904948 141.682543 
L 255.904948 139.133782 
L 258.179963 136.585022 
L 260.454978 134.036262 
L 262.729993 131.487501 
" style="fill:none;stroke:#bcbd22;stroke-linecap:square;stroke-width:3;"/>
   </g>
   <g id="line2d_32">
    <path clip-path="url(#p9e0061caae)" d="M 201.30459 284.413121 
L 201.30459 281.864361 
L 201.30459 279.3156 
L 199.029575 276.76684 
L 196.754561 274.21808 
L 194.479546 271.669319 
L 194.479546 269.120559 
L 194.479546 266.571799 
L 194.479546 264.023038 
L 192.204531 261.474278 
L 189.929516 258.925518 
L 189.929516 256.376757 
L 189.929516 253.827997 
L 187.654501 253.827997 
L 185.379486 253.827997 
L 183.104471 251.279237 
L 180.829456 251.279237 
L 178.554441 248.730476 
L 178.554441 246.181716 
L 176.279426 243.632956 
L 174.004412 243.632956 
L 174.004412 241.084196 
L 171.729397 241.084196 
L 169.454382 238.535435 
L 167.179367 235.986675 
L 164.904352 233.437915 
L 162.629337 230.889154 
L 162.629337 228.340394 
L 162.629337 225.791634 
L 160.354322 223.242873 
L 160.354322 220.694113 
L 158.079307 218.145353 
L 155.804292 218.145353 
L 153.529277 218.145353 
L 151.254262 215.596592 
L 148.979248 215.596592 
L 146.704233 218.145353 
L 144.429218 215.596592 
L 144.429218 213.047832 
L 142.154203 210.499072 
L 139.879188 210.499072 
L 137.604173 210.499072 
L 135.329158 213.047832 
L 133.054143 213.047832 
L 130.779128 213.047832 
L 128.504113 213.047832 
L 126.229099 213.047832 
L 123.954084 210.499072 
L 121.679069 210.499072 
L 119.404054 210.499072 
L 117.129039 213.047832 
L 114.854024 215.596592 
L 112.579009 215.596592 
L 110.303994 215.596592 
L 108.028979 215.596592 
L 105.753964 215.596592 
L 103.478949 215.596592 
L 101.203935 213.047832 
L 98.92892 213.047832 
L 96.653905 210.499072 
L 94.37889 210.499072 
L 94.37889 207.950311 
L 92.103875 205.401551 
L 89.82886 202.852791 
L 89.82886 200.30403 
L 89.82886 197.75527 
L 89.82886 195.20651 
L 87.553845 192.657749 
L 87.553845 190.108989 
L 87.553845 187.560229 
" style="fill:none;stroke:#17becf;stroke-linecap:square;stroke-width:3;"/>
   </g>
   <g id="line2d_33">
    <path clip-path="url(#p9e0061caae)" d="M 187.654501 309.900724 
L 189.929516 307.351964 
L 192.204531 304.803204 
L 187.654501 309.900724 
L 192.204531 302.254443 
L 192.204531 299.705683 
L 194.479546 297.156923 
L 196.754561 294.608162 
L 199.029575 292.059402 
L 201.30459 289.510642 
L 201.30459 286.961881 
L 201.30459 284.413121 
" style="fill:none;stroke:#1f77b4;stroke-linecap:square;stroke-width:3;"/>
   </g>
   <g id="patch_3">
    <path d="M 25.332188 323.918906 
L 25.332188 15.518906 
" style="fill:none;stroke:#000000;stroke-linecap:square;stroke-linejoin:miter;stroke-width:0.8;"/>
   </g>
   <g id="patch_4">
    <path d="M 343.15177 323.918906 
L 343.15177 15.518906 
" style="fill:none;stroke:#000000;stroke-linecap:square;stroke-linejoin:miter;stroke-width:0.8;"/>
   </g>
   <g id="patch_5">
    <path d="M 25.332188 323.918906 
L 343.15177 323.918906 
" style="fill:none;stroke:#000000;stroke-linecap:square;stroke-linejoin:miter;stroke-width:0.8;"/>
   </g>
   <g id="patch_6">
    <path d="M 25.332188 15.518906 
L 343.15177 15.518906 
" style="fill:none;stroke:#000000;stroke-linecap:square;stroke-linejoin:miter;stroke-width:0.8;"/>
   </g>
  </g>
 </g>
 <defs>
  <clipPath id="p9e0061caae">
   <rect height="308.4" width="317.819582" x="25.332188" y="15.518906"/>
  </clipPath>
 </defs>
</svg>
